G04 EAGLE Gerber RS-274X export*
G75*
%MOMM*%
%FSLAX34Y34*%
%LPD*%
%INBottom Copper*%
%IPPOS*%
%AMOC8*
5,1,8,0,0,1.08239X$1,22.5*%
G01*
%ADD10R,1.879600X1.879600*%
%ADD11C,1.879600*%
%ADD12P,1.814519X8X22.500000*%
%ADD13C,1.524000*%
%ADD14P,1.814519X8X202.500000*%
%ADD15C,1.800000*%
%ADD16C,0.406400*%
%ADD17C,0.654800*%

G36*
X482622Y2544D02*
X482622Y2544D01*
X482660Y2543D01*
X486117Y2815D01*
X486122Y2817D01*
X486128Y2816D01*
X486292Y2850D01*
X492868Y4987D01*
X492899Y5003D01*
X492934Y5012D01*
X493080Y5095D01*
X498673Y9158D01*
X498698Y9184D01*
X498729Y9203D01*
X498842Y9327D01*
X502905Y14920D01*
X502921Y14952D01*
X502944Y14980D01*
X503013Y15132D01*
X505150Y21708D01*
X505151Y21713D01*
X505153Y21719D01*
X505185Y21883D01*
X505457Y25340D01*
X505455Y25362D01*
X505459Y25400D01*
X505459Y177800D01*
X505456Y177822D01*
X505457Y177860D01*
X505185Y181317D01*
X505183Y181322D01*
X505184Y181328D01*
X505150Y181492D01*
X503013Y188068D01*
X502997Y188099D01*
X502988Y188134D01*
X502905Y188280D01*
X498842Y193873D01*
X498816Y193898D01*
X498797Y193929D01*
X498673Y194042D01*
X493080Y198105D01*
X493048Y198121D01*
X493020Y198144D01*
X492868Y198213D01*
X486292Y200350D01*
X486287Y200351D01*
X486281Y200353D01*
X486117Y200385D01*
X482660Y200657D01*
X482638Y200655D01*
X482600Y200659D01*
X25400Y200659D01*
X25378Y200656D01*
X25340Y200657D01*
X21883Y200385D01*
X21878Y200383D01*
X21872Y200384D01*
X21708Y200350D01*
X15132Y198213D01*
X15101Y198197D01*
X15066Y198188D01*
X14920Y198105D01*
X9327Y194042D01*
X9302Y194016D01*
X9271Y193997D01*
X9158Y193873D01*
X5095Y188280D01*
X5079Y188248D01*
X5056Y188220D01*
X4987Y188068D01*
X2850Y181492D01*
X2849Y181487D01*
X2847Y181481D01*
X2815Y181317D01*
X2543Y177860D01*
X2545Y177838D01*
X2541Y177800D01*
X2541Y25400D01*
X2544Y25378D01*
X2543Y25340D01*
X2815Y21883D01*
X2817Y21878D01*
X2816Y21872D01*
X2850Y21708D01*
X4987Y15132D01*
X5003Y15101D01*
X5012Y15066D01*
X5095Y14920D01*
X9158Y9327D01*
X9184Y9302D01*
X9203Y9271D01*
X9327Y9158D01*
X14920Y5095D01*
X14952Y5079D01*
X14980Y5056D01*
X15132Y4987D01*
X21708Y2850D01*
X21713Y2849D01*
X21719Y2847D01*
X21883Y2815D01*
X25340Y2543D01*
X25362Y2545D01*
X25400Y2541D01*
X482600Y2541D01*
X482622Y2544D01*
G37*
%LPC*%
G36*
X247161Y8889D02*
X247161Y8889D01*
X244855Y11196D01*
X237887Y18163D01*
X237871Y18175D01*
X237858Y18191D01*
X237771Y18247D01*
X237687Y18307D01*
X237668Y18313D01*
X237651Y18324D01*
X237551Y18349D01*
X237452Y18379D01*
X237432Y18379D01*
X237413Y18384D01*
X237310Y18376D01*
X237206Y18373D01*
X237187Y18366D01*
X237168Y18364D01*
X237073Y18324D01*
X236975Y18288D01*
X236960Y18276D01*
X236941Y18268D01*
X236810Y18163D01*
X234787Y16140D01*
X230773Y14477D01*
X226427Y14477D01*
X222413Y16140D01*
X219340Y19213D01*
X217677Y23227D01*
X217677Y25929D01*
X217666Y26000D01*
X217664Y26072D01*
X217646Y26121D01*
X217638Y26172D01*
X217604Y26235D01*
X217579Y26303D01*
X217547Y26343D01*
X217522Y26389D01*
X217471Y26439D01*
X217426Y26495D01*
X217382Y26523D01*
X217344Y26559D01*
X217279Y26589D01*
X217219Y26628D01*
X217168Y26640D01*
X217121Y26662D01*
X217050Y26670D01*
X216980Y26688D01*
X216928Y26684D01*
X216877Y26689D01*
X216806Y26674D01*
X216735Y26669D01*
X216687Y26648D01*
X216636Y26637D01*
X216575Y26600D01*
X216509Y26572D01*
X216453Y26528D01*
X216425Y26511D01*
X216410Y26493D01*
X216378Y26468D01*
X214346Y24435D01*
X214293Y24362D01*
X214233Y24292D01*
X214221Y24262D01*
X214202Y24236D01*
X214175Y24149D01*
X214141Y24064D01*
X214137Y24023D01*
X214130Y24001D01*
X214131Y23968D01*
X214123Y23897D01*
X214123Y23227D01*
X212460Y19213D01*
X209387Y16140D01*
X205373Y14477D01*
X201027Y14477D01*
X197013Y16140D01*
X193940Y19213D01*
X192277Y23227D01*
X192277Y27573D01*
X193940Y31587D01*
X197013Y34660D01*
X201027Y36323D01*
X205373Y36323D01*
X209387Y34660D01*
X211410Y32637D01*
X211427Y32625D01*
X211439Y32609D01*
X211526Y32553D01*
X211610Y32493D01*
X211629Y32487D01*
X211646Y32476D01*
X211746Y32451D01*
X211845Y32421D01*
X211865Y32421D01*
X211884Y32416D01*
X211987Y32424D01*
X212091Y32427D01*
X212110Y32434D01*
X212130Y32436D01*
X212225Y32476D01*
X212322Y32512D01*
X212338Y32524D01*
X212356Y32532D01*
X212487Y32637D01*
X219455Y39604D01*
X221774Y41924D01*
X221784Y41924D01*
X221833Y41942D01*
X221884Y41950D01*
X221947Y41984D01*
X222015Y42009D01*
X222055Y42041D01*
X222101Y42066D01*
X222151Y42118D01*
X222207Y42162D01*
X222235Y42206D01*
X222271Y42244D01*
X222301Y42309D01*
X222340Y42369D01*
X222352Y42420D01*
X222374Y42467D01*
X222382Y42538D01*
X222400Y42608D01*
X222396Y42660D01*
X222401Y42711D01*
X222386Y42782D01*
X222381Y42853D01*
X222360Y42901D01*
X222349Y42952D01*
X222312Y43013D01*
X222284Y43079D01*
X222240Y43135D01*
X222223Y43163D01*
X222205Y43178D01*
X222180Y43210D01*
X218693Y46696D01*
X218693Y54904D01*
X224546Y60757D01*
X224562Y60760D01*
X224651Y60813D01*
X224742Y60862D01*
X224756Y60876D01*
X224773Y60886D01*
X224840Y60965D01*
X224912Y61040D01*
X224920Y61058D01*
X224933Y61073D01*
X224972Y61169D01*
X225015Y61263D01*
X225017Y61283D01*
X225025Y61301D01*
X225043Y61468D01*
X225043Y65342D01*
X225024Y65457D01*
X225007Y65573D01*
X225005Y65578D01*
X225004Y65585D01*
X224949Y65687D01*
X224896Y65792D01*
X224891Y65797D01*
X224888Y65802D01*
X224804Y65882D01*
X224720Y65964D01*
X224714Y65968D01*
X224710Y65971D01*
X224693Y65979D01*
X224573Y66045D01*
X222413Y66940D01*
X219340Y70013D01*
X217677Y74027D01*
X217677Y78373D01*
X219340Y82387D01*
X222413Y85460D01*
X226427Y87123D01*
X230773Y87123D01*
X234787Y85460D01*
X237860Y82387D01*
X239523Y78373D01*
X239523Y74027D01*
X237860Y70013D01*
X234787Y66940D01*
X232627Y66045D01*
X232527Y65984D01*
X232427Y65924D01*
X232423Y65919D01*
X232418Y65916D01*
X232343Y65826D01*
X232267Y65737D01*
X232265Y65731D01*
X232261Y65726D01*
X232219Y65618D01*
X232175Y65509D01*
X232174Y65501D01*
X232173Y65497D01*
X232172Y65478D01*
X232157Y65342D01*
X232157Y61468D01*
X232160Y61448D01*
X232158Y61429D01*
X232180Y61327D01*
X232196Y61225D01*
X232206Y61208D01*
X232210Y61188D01*
X232263Y61099D01*
X232312Y61008D01*
X232326Y60994D01*
X232336Y60977D01*
X232415Y60910D01*
X232490Y60838D01*
X232508Y60830D01*
X232523Y60817D01*
X232619Y60778D01*
X232643Y60767D01*
X238507Y54904D01*
X238507Y46696D01*
X235020Y43210D01*
X234979Y43152D01*
X234929Y43100D01*
X234907Y43053D01*
X234877Y43011D01*
X234856Y42942D01*
X234826Y42877D01*
X234820Y42825D01*
X234805Y42775D01*
X234806Y42704D01*
X234799Y42633D01*
X234810Y42582D01*
X234811Y42530D01*
X234836Y42462D01*
X234851Y42392D01*
X234878Y42347D01*
X234895Y42299D01*
X234940Y42243D01*
X234977Y42181D01*
X235017Y42147D01*
X235049Y42107D01*
X235109Y42068D01*
X235164Y42021D01*
X235212Y42002D01*
X235256Y41974D01*
X235325Y41956D01*
X235392Y41929D01*
X235463Y41921D01*
X235495Y41913D01*
X235518Y41915D01*
X235559Y41911D01*
X297841Y41911D01*
X297912Y41922D01*
X297984Y41924D01*
X298033Y41942D01*
X298084Y41950D01*
X298147Y41984D01*
X298215Y42009D01*
X298255Y42041D01*
X298301Y42066D01*
X298351Y42118D01*
X298407Y42162D01*
X298435Y42206D01*
X298471Y42244D01*
X298501Y42309D01*
X298540Y42369D01*
X298552Y42420D01*
X298574Y42467D01*
X298582Y42538D01*
X298600Y42608D01*
X298596Y42660D01*
X298601Y42711D01*
X298586Y42782D01*
X298581Y42853D01*
X298560Y42901D01*
X298549Y42952D01*
X298512Y43013D01*
X298484Y43079D01*
X298440Y43135D01*
X298423Y43163D01*
X298405Y43178D01*
X298380Y43210D01*
X294893Y46696D01*
X294893Y47509D01*
X294882Y47580D01*
X294880Y47651D01*
X294862Y47700D01*
X294854Y47752D01*
X294820Y47815D01*
X294795Y47882D01*
X294763Y47923D01*
X294738Y47969D01*
X294686Y48019D01*
X294642Y48075D01*
X294598Y48103D01*
X294560Y48139D01*
X294495Y48169D01*
X294435Y48208D01*
X294384Y48220D01*
X294337Y48242D01*
X294266Y48250D01*
X294196Y48268D01*
X294144Y48264D01*
X294093Y48269D01*
X294022Y48254D01*
X293951Y48248D01*
X293903Y48228D01*
X293852Y48217D01*
X293791Y48180D01*
X293725Y48152D01*
X293669Y48107D01*
X293641Y48091D01*
X293626Y48073D01*
X293594Y48047D01*
X291548Y46001D01*
X287572Y46001D01*
X284761Y48812D01*
X284761Y50253D01*
X284747Y50344D01*
X284739Y50434D01*
X284727Y50464D01*
X284722Y50496D01*
X284679Y50577D01*
X284643Y50661D01*
X284617Y50693D01*
X284606Y50714D01*
X284583Y50736D01*
X284538Y50792D01*
X265704Y69626D01*
X264668Y70662D01*
X264631Y70689D01*
X264600Y70723D01*
X264531Y70760D01*
X264468Y70806D01*
X264425Y70819D01*
X264384Y70841D01*
X264308Y70855D01*
X264233Y70878D01*
X264187Y70877D01*
X264142Y70885D01*
X264065Y70874D01*
X263987Y70872D01*
X263944Y70856D01*
X263899Y70849D01*
X263829Y70814D01*
X263756Y70787D01*
X263720Y70758D01*
X263680Y70738D01*
X263625Y70682D01*
X263564Y70633D01*
X263539Y70595D01*
X263507Y70562D01*
X263441Y70442D01*
X263431Y70426D01*
X263430Y70422D01*
X263426Y70415D01*
X263260Y70013D01*
X260187Y66940D01*
X256173Y65277D01*
X251827Y65277D01*
X247813Y66940D01*
X244740Y70013D01*
X243077Y74027D01*
X243077Y78373D01*
X244740Y82387D01*
X247813Y85460D01*
X251827Y87123D01*
X254529Y87123D01*
X254600Y87134D01*
X254672Y87136D01*
X254721Y87154D01*
X254772Y87162D01*
X254835Y87196D01*
X254903Y87221D01*
X254943Y87253D01*
X254989Y87278D01*
X255039Y87330D01*
X255095Y87374D01*
X255123Y87418D01*
X255159Y87456D01*
X255189Y87521D01*
X255228Y87581D01*
X255240Y87632D01*
X255262Y87679D01*
X255270Y87750D01*
X255288Y87820D01*
X255284Y87872D01*
X255289Y87923D01*
X255274Y87994D01*
X255269Y88065D01*
X255248Y88113D01*
X255237Y88164D01*
X255200Y88225D01*
X255172Y88291D01*
X255128Y88347D01*
X255111Y88375D01*
X255093Y88390D01*
X255068Y88422D01*
X233223Y110266D01*
X233150Y110319D01*
X233080Y110379D01*
X233050Y110391D01*
X233024Y110410D01*
X232937Y110437D01*
X232852Y110471D01*
X232811Y110475D01*
X232789Y110482D01*
X232756Y110481D01*
X232685Y110489D01*
X221761Y110489D01*
X212086Y120164D01*
X212088Y120181D01*
X212066Y120283D01*
X212050Y120385D01*
X212040Y120402D01*
X212036Y120422D01*
X211983Y120511D01*
X211934Y120602D01*
X211920Y120616D01*
X211910Y120633D01*
X211831Y120700D01*
X211756Y120772D01*
X211738Y120780D01*
X211723Y120793D01*
X211627Y120832D01*
X211533Y120875D01*
X211513Y120877D01*
X211495Y120885D01*
X211328Y120903D01*
X194354Y120903D01*
X194239Y120884D01*
X194123Y120867D01*
X194117Y120865D01*
X194111Y120864D01*
X194008Y120809D01*
X193903Y120756D01*
X193899Y120751D01*
X193893Y120748D01*
X193814Y120664D01*
X193731Y120580D01*
X193728Y120574D01*
X193724Y120570D01*
X193716Y120553D01*
X193650Y120433D01*
X193173Y119280D01*
X190600Y116707D01*
X187239Y115315D01*
X168361Y115315D01*
X165000Y116707D01*
X162427Y119280D01*
X161950Y120433D01*
X161888Y120533D01*
X161828Y120633D01*
X161823Y120637D01*
X161820Y120642D01*
X161730Y120717D01*
X161641Y120793D01*
X161635Y120795D01*
X161631Y120799D01*
X161522Y120841D01*
X161413Y120885D01*
X161406Y120886D01*
X161401Y120887D01*
X161383Y120888D01*
X161246Y120903D01*
X137427Y120903D01*
X137313Y120884D01*
X137196Y120867D01*
X137191Y120865D01*
X137185Y120864D01*
X137082Y120809D01*
X136977Y120756D01*
X136973Y120751D01*
X136967Y120748D01*
X136887Y120664D01*
X136805Y120580D01*
X136801Y120574D01*
X136798Y120570D01*
X136790Y120553D01*
X136724Y120433D01*
X135922Y118498D01*
X132962Y115538D01*
X129093Y113935D01*
X124907Y113935D01*
X121038Y115538D01*
X118078Y118498D01*
X116475Y122367D01*
X116475Y126553D01*
X118078Y130422D01*
X121038Y133382D01*
X124907Y134985D01*
X129093Y134985D01*
X132962Y133382D01*
X135922Y130422D01*
X136724Y128487D01*
X136786Y128387D01*
X136845Y128287D01*
X136850Y128283D01*
X136854Y128278D01*
X136944Y128203D01*
X137032Y128127D01*
X137038Y128125D01*
X137043Y128121D01*
X137151Y128079D01*
X137261Y128035D01*
X137268Y128034D01*
X137273Y128033D01*
X137291Y128032D01*
X137427Y128017D01*
X161246Y128017D01*
X161361Y128036D01*
X161477Y128053D01*
X161483Y128055D01*
X161489Y128056D01*
X161592Y128111D01*
X161697Y128164D01*
X161701Y128169D01*
X161707Y128172D01*
X161786Y128256D01*
X161869Y128340D01*
X161872Y128346D01*
X161876Y128350D01*
X161884Y128367D01*
X161950Y128487D01*
X162427Y129640D01*
X165000Y132213D01*
X168361Y133605D01*
X187239Y133605D01*
X190600Y132213D01*
X193173Y129640D01*
X193650Y128487D01*
X193712Y128387D01*
X193772Y128287D01*
X193777Y128283D01*
X193780Y128278D01*
X193870Y128203D01*
X193959Y128127D01*
X193965Y128125D01*
X193969Y128121D01*
X194078Y128079D01*
X194187Y128035D01*
X194194Y128034D01*
X194199Y128033D01*
X194217Y128032D01*
X194354Y128017D01*
X214833Y128017D01*
X216378Y126472D01*
X216436Y126430D01*
X216488Y126381D01*
X216535Y126359D01*
X216577Y126329D01*
X216646Y126308D01*
X216711Y126277D01*
X216763Y126272D01*
X216813Y126256D01*
X216884Y126258D01*
X216955Y126250D01*
X217006Y126261D01*
X217058Y126263D01*
X217126Y126287D01*
X217196Y126303D01*
X217241Y126329D01*
X217289Y126347D01*
X217345Y126392D01*
X217407Y126429D01*
X217441Y126468D01*
X217481Y126501D01*
X217520Y126561D01*
X217567Y126616D01*
X217586Y126664D01*
X217614Y126708D01*
X217632Y126777D01*
X217659Y126844D01*
X217667Y126915D01*
X217675Y126946D01*
X217673Y126970D01*
X217677Y127011D01*
X217677Y129173D01*
X219340Y133187D01*
X222413Y136260D01*
X224573Y137155D01*
X224673Y137216D01*
X224773Y137276D01*
X224777Y137281D01*
X224782Y137284D01*
X224857Y137374D01*
X224933Y137463D01*
X224935Y137469D01*
X224939Y137474D01*
X224981Y137582D01*
X225025Y137691D01*
X225026Y137699D01*
X225027Y137703D01*
X225028Y137722D01*
X225043Y137858D01*
X225043Y141732D01*
X225040Y141752D01*
X225042Y141771D01*
X225020Y141873D01*
X225004Y141975D01*
X224994Y141992D01*
X224990Y142012D01*
X224937Y142101D01*
X224888Y142192D01*
X224874Y142206D01*
X224864Y142223D01*
X224785Y142290D01*
X224710Y142362D01*
X224692Y142370D01*
X224677Y142383D01*
X224581Y142422D01*
X224557Y142433D01*
X218693Y148296D01*
X218693Y156504D01*
X224496Y162307D01*
X232704Y162307D01*
X238507Y156504D01*
X238507Y148296D01*
X232654Y142443D01*
X232638Y142440D01*
X232549Y142387D01*
X232458Y142338D01*
X232444Y142324D01*
X232427Y142314D01*
X232360Y142235D01*
X232288Y142160D01*
X232280Y142142D01*
X232267Y142127D01*
X232228Y142031D01*
X232185Y141937D01*
X232183Y141917D01*
X232175Y141899D01*
X232157Y141732D01*
X232157Y137858D01*
X232176Y137743D01*
X232193Y137627D01*
X232195Y137622D01*
X232196Y137615D01*
X232251Y137513D01*
X232304Y137408D01*
X232309Y137403D01*
X232312Y137398D01*
X232396Y137318D01*
X232480Y137236D01*
X232486Y137232D01*
X232490Y137229D01*
X232507Y137221D01*
X232627Y137155D01*
X234787Y136260D01*
X237860Y133187D01*
X239523Y129173D01*
X239523Y124827D01*
X237860Y120813D01*
X235837Y118790D01*
X235825Y118773D01*
X235809Y118761D01*
X235779Y118713D01*
X235746Y118679D01*
X235726Y118636D01*
X235693Y118590D01*
X235687Y118571D01*
X235676Y118554D01*
X235663Y118499D01*
X235642Y118456D01*
X235637Y118408D01*
X235621Y118355D01*
X235621Y118335D01*
X235616Y118316D01*
X235621Y118260D01*
X235615Y118211D01*
X235626Y118164D01*
X235627Y118109D01*
X235634Y118090D01*
X235636Y118070D01*
X235657Y118020D01*
X235668Y117971D01*
X235693Y117928D01*
X235712Y117878D01*
X235724Y117862D01*
X235732Y117844D01*
X235778Y117787D01*
X235794Y117760D01*
X235811Y117745D01*
X235837Y117713D01*
X238253Y115296D01*
X270511Y83039D01*
X270511Y75195D01*
X270525Y75104D01*
X270533Y75014D01*
X270545Y74984D01*
X270550Y74952D01*
X270593Y74871D01*
X270629Y74787D01*
X270655Y74755D01*
X270666Y74734D01*
X270689Y74712D01*
X270734Y74656D01*
X289568Y55822D01*
X289642Y55769D01*
X289712Y55709D01*
X289742Y55697D01*
X289768Y55678D01*
X289855Y55651D01*
X289940Y55617D01*
X289981Y55613D01*
X290003Y55606D01*
X290035Y55607D01*
X290107Y55599D01*
X291548Y55599D01*
X293594Y53553D01*
X293652Y53511D01*
X293704Y53461D01*
X293751Y53440D01*
X293793Y53409D01*
X293862Y53388D01*
X293927Y53358D01*
X293979Y53352D01*
X294029Y53337D01*
X294100Y53339D01*
X294171Y53331D01*
X294222Y53342D01*
X294274Y53343D01*
X294342Y53368D01*
X294412Y53383D01*
X294457Y53410D01*
X294505Y53428D01*
X294561Y53472D01*
X294623Y53509D01*
X294657Y53549D01*
X294697Y53581D01*
X294736Y53642D01*
X294783Y53696D01*
X294802Y53744D01*
X294830Y53788D01*
X294848Y53858D01*
X294875Y53924D01*
X294883Y53996D01*
X294891Y54027D01*
X294889Y54050D01*
X294893Y54091D01*
X294893Y54904D01*
X300696Y60707D01*
X301509Y60707D01*
X301580Y60718D01*
X301651Y60720D01*
X301700Y60738D01*
X301752Y60746D01*
X301815Y60780D01*
X301882Y60805D01*
X301923Y60837D01*
X301969Y60862D01*
X302019Y60914D01*
X302075Y60958D01*
X302103Y61002D01*
X302139Y61040D01*
X302169Y61105D01*
X302208Y61165D01*
X302220Y61216D01*
X302242Y61263D01*
X302250Y61334D01*
X302268Y61404D01*
X302264Y61456D01*
X302269Y61507D01*
X302254Y61578D01*
X302248Y61649D01*
X302228Y61697D01*
X302217Y61748D01*
X302180Y61809D01*
X302152Y61875D01*
X302107Y61931D01*
X302091Y61959D01*
X302073Y61974D01*
X302047Y62006D01*
X300001Y64052D01*
X300001Y68028D01*
X301020Y69047D01*
X301073Y69121D01*
X301133Y69190D01*
X301145Y69220D01*
X301164Y69246D01*
X301191Y69333D01*
X301225Y69418D01*
X301229Y69459D01*
X301236Y69482D01*
X301235Y69514D01*
X301243Y69585D01*
X301243Y141732D01*
X301240Y141752D01*
X301242Y141771D01*
X301220Y141873D01*
X301204Y141975D01*
X301194Y141992D01*
X301190Y142012D01*
X301137Y142101D01*
X301088Y142192D01*
X301074Y142206D01*
X301064Y142223D01*
X300985Y142290D01*
X300910Y142362D01*
X300892Y142370D01*
X300877Y142383D01*
X300781Y142422D01*
X300757Y142433D01*
X294893Y148296D01*
X294893Y156504D01*
X300696Y162307D01*
X308904Y162307D01*
X314707Y156504D01*
X314707Y148296D01*
X308854Y142443D01*
X308838Y142440D01*
X308749Y142387D01*
X308658Y142338D01*
X308644Y142324D01*
X308627Y142314D01*
X308560Y142235D01*
X308488Y142160D01*
X308480Y142142D01*
X308467Y142127D01*
X308428Y142031D01*
X308385Y141937D01*
X308383Y141917D01*
X308375Y141899D01*
X308357Y141732D01*
X308357Y69585D01*
X308371Y69495D01*
X308379Y69404D01*
X308391Y69374D01*
X308396Y69342D01*
X308439Y69262D01*
X308475Y69178D01*
X308501Y69146D01*
X308512Y69125D01*
X308535Y69103D01*
X308580Y69047D01*
X309599Y68028D01*
X309599Y64052D01*
X307553Y62006D01*
X307511Y61948D01*
X307461Y61896D01*
X307440Y61849D01*
X307409Y61807D01*
X307388Y61738D01*
X307358Y61673D01*
X307352Y61621D01*
X307337Y61571D01*
X307339Y61500D01*
X307331Y61429D01*
X307342Y61378D01*
X307343Y61326D01*
X307368Y61258D01*
X307383Y61188D01*
X307410Y61143D01*
X307428Y61095D01*
X307472Y61039D01*
X307509Y60977D01*
X307549Y60943D01*
X307581Y60903D01*
X307642Y60864D01*
X307696Y60817D01*
X307744Y60798D01*
X307788Y60770D01*
X307858Y60752D01*
X307924Y60725D01*
X307996Y60717D01*
X308027Y60709D01*
X308050Y60711D01*
X308091Y60707D01*
X308904Y60707D01*
X314707Y54904D01*
X314707Y46696D01*
X311220Y43210D01*
X311179Y43152D01*
X311129Y43100D01*
X311107Y43053D01*
X311077Y43011D01*
X311056Y42942D01*
X311026Y42877D01*
X311020Y42825D01*
X311005Y42775D01*
X311006Y42704D01*
X310999Y42633D01*
X311010Y42582D01*
X311011Y42530D01*
X311036Y42462D01*
X311051Y42392D01*
X311078Y42347D01*
X311095Y42299D01*
X311140Y42243D01*
X311177Y42181D01*
X311217Y42147D01*
X311249Y42107D01*
X311309Y42068D01*
X311364Y42021D01*
X311412Y42002D01*
X311456Y41974D01*
X311525Y41956D01*
X311592Y41929D01*
X311663Y41921D01*
X311695Y41913D01*
X311718Y41915D01*
X311759Y41911D01*
X349739Y41911D01*
X362470Y29180D01*
X362544Y29127D01*
X362613Y29067D01*
X362644Y29055D01*
X362670Y29036D01*
X362757Y29009D01*
X362842Y28975D01*
X362883Y28971D01*
X362905Y28964D01*
X362937Y28965D01*
X363008Y28957D01*
X370142Y28957D01*
X370257Y28976D01*
X370373Y28993D01*
X370378Y28995D01*
X370385Y28996D01*
X370487Y29051D01*
X370592Y29104D01*
X370597Y29109D01*
X370602Y29112D01*
X370682Y29196D01*
X370764Y29280D01*
X370768Y29286D01*
X370771Y29290D01*
X370779Y29307D01*
X370845Y29427D01*
X371740Y31587D01*
X374813Y34660D01*
X378827Y36323D01*
X383173Y36323D01*
X385333Y35428D01*
X385447Y35401D01*
X385560Y35373D01*
X385567Y35373D01*
X385573Y35372D01*
X385689Y35383D01*
X385806Y35392D01*
X385811Y35394D01*
X385818Y35395D01*
X385925Y35443D01*
X386032Y35488D01*
X386038Y35493D01*
X386042Y35495D01*
X386056Y35507D01*
X386163Y35593D01*
X453420Y102850D01*
X453473Y102924D01*
X453533Y102994D01*
X453545Y103024D01*
X453564Y103050D01*
X453591Y103137D01*
X453625Y103222D01*
X453629Y103263D01*
X453636Y103285D01*
X453635Y103317D01*
X453643Y103389D01*
X453643Y141732D01*
X453640Y141752D01*
X453642Y141771D01*
X453620Y141873D01*
X453604Y141975D01*
X453594Y141992D01*
X453590Y142012D01*
X453537Y142101D01*
X453488Y142192D01*
X453474Y142206D01*
X453464Y142223D01*
X453385Y142290D01*
X453310Y142362D01*
X453292Y142370D01*
X453277Y142383D01*
X453181Y142422D01*
X453157Y142433D01*
X447293Y148296D01*
X447293Y156504D01*
X453146Y162357D01*
X453162Y162360D01*
X453251Y162413D01*
X453342Y162462D01*
X453356Y162476D01*
X453373Y162486D01*
X453440Y162565D01*
X453512Y162640D01*
X453520Y162658D01*
X453533Y162673D01*
X453572Y162769D01*
X453615Y162863D01*
X453617Y162883D01*
X453625Y162901D01*
X453643Y163068D01*
X453643Y166942D01*
X453624Y167057D01*
X453607Y167173D01*
X453605Y167178D01*
X453604Y167185D01*
X453549Y167287D01*
X453496Y167392D01*
X453491Y167397D01*
X453488Y167402D01*
X453404Y167482D01*
X453320Y167564D01*
X453314Y167568D01*
X453310Y167571D01*
X453293Y167579D01*
X453173Y167645D01*
X451013Y168540D01*
X447940Y171613D01*
X446277Y175627D01*
X446277Y179973D01*
X447940Y183987D01*
X451013Y187060D01*
X455027Y188723D01*
X459373Y188723D01*
X463387Y187060D01*
X466460Y183987D01*
X468123Y179973D01*
X468123Y175627D01*
X466460Y171613D01*
X463387Y168540D01*
X461227Y167645D01*
X461127Y167584D01*
X461027Y167524D01*
X461023Y167519D01*
X461018Y167516D01*
X460943Y167426D01*
X460867Y167337D01*
X460865Y167331D01*
X460861Y167326D01*
X460819Y167218D01*
X460775Y167109D01*
X460774Y167101D01*
X460773Y167097D01*
X460772Y167078D01*
X460757Y166942D01*
X460757Y163068D01*
X460760Y163048D01*
X460758Y163029D01*
X460780Y162927D01*
X460796Y162825D01*
X460806Y162808D01*
X460810Y162788D01*
X460863Y162699D01*
X460912Y162608D01*
X460926Y162594D01*
X460936Y162577D01*
X461015Y162510D01*
X461090Y162438D01*
X461108Y162430D01*
X461123Y162417D01*
X461219Y162378D01*
X461243Y162367D01*
X467107Y156504D01*
X467107Y148296D01*
X461254Y142443D01*
X461238Y142440D01*
X461149Y142387D01*
X461058Y142338D01*
X461044Y142324D01*
X461027Y142314D01*
X460960Y142235D01*
X460888Y142160D01*
X460880Y142142D01*
X460867Y142127D01*
X460828Y142031D01*
X460785Y141937D01*
X460783Y141917D01*
X460775Y141899D01*
X460757Y141732D01*
X460757Y100127D01*
X391193Y30563D01*
X391125Y30468D01*
X391055Y30374D01*
X391053Y30368D01*
X391049Y30363D01*
X391015Y30252D01*
X390979Y30140D01*
X390979Y30134D01*
X390977Y30128D01*
X390980Y30011D01*
X390981Y29894D01*
X390983Y29887D01*
X390983Y29882D01*
X390990Y29865D01*
X391028Y29733D01*
X391923Y27573D01*
X391923Y24871D01*
X391934Y24800D01*
X391936Y24728D01*
X391954Y24679D01*
X391962Y24628D01*
X391996Y24565D01*
X392021Y24497D01*
X392053Y24457D01*
X392078Y24411D01*
X392130Y24361D01*
X392174Y24305D01*
X392218Y24277D01*
X392256Y24241D01*
X392321Y24211D01*
X392381Y24172D01*
X392432Y24160D01*
X392479Y24138D01*
X392550Y24130D01*
X392620Y24112D01*
X392672Y24116D01*
X392723Y24111D01*
X392794Y24126D01*
X392865Y24131D01*
X392913Y24152D01*
X392964Y24163D01*
X393025Y24200D01*
X393091Y24228D01*
X393147Y24272D01*
X393175Y24289D01*
X393190Y24307D01*
X393222Y24332D01*
X395254Y26365D01*
X395296Y26423D01*
X395343Y26473D01*
X395352Y26490D01*
X395367Y26508D01*
X395379Y26538D01*
X395398Y26564D01*
X395421Y26640D01*
X395447Y26696D01*
X395449Y26711D01*
X395459Y26736D01*
X395463Y26777D01*
X395470Y26799D01*
X395469Y26832D01*
X395477Y26903D01*
X395477Y27573D01*
X397140Y31587D01*
X400213Y34660D01*
X404227Y36323D01*
X408573Y36323D01*
X412587Y34660D01*
X415660Y31587D01*
X417323Y27573D01*
X417323Y23227D01*
X415660Y19213D01*
X412587Y16140D01*
X408573Y14477D01*
X404227Y14477D01*
X400213Y16140D01*
X398190Y18163D01*
X398173Y18175D01*
X398161Y18191D01*
X398074Y18247D01*
X397990Y18307D01*
X397971Y18313D01*
X397954Y18324D01*
X397854Y18349D01*
X397755Y18379D01*
X397735Y18379D01*
X397716Y18384D01*
X397613Y18376D01*
X397509Y18373D01*
X397490Y18366D01*
X397470Y18364D01*
X397375Y18324D01*
X397278Y18288D01*
X397262Y18276D01*
X397244Y18268D01*
X397113Y18163D01*
X390145Y11196D01*
X387839Y8889D01*
X247161Y8889D01*
G37*
%LPD*%
%LPC*%
G36*
X124907Y40275D02*
X124907Y40275D01*
X121038Y41878D01*
X118078Y44838D01*
X116475Y48707D01*
X116475Y52893D01*
X118078Y56762D01*
X121038Y59722D01*
X124907Y61325D01*
X129093Y61325D01*
X132962Y59722D01*
X135922Y56762D01*
X136724Y54827D01*
X136786Y54727D01*
X136845Y54627D01*
X136850Y54623D01*
X136854Y54618D01*
X136944Y54543D01*
X137032Y54467D01*
X137038Y54465D01*
X137043Y54461D01*
X137151Y54419D01*
X137261Y54375D01*
X137268Y54374D01*
X137273Y54373D01*
X137291Y54372D01*
X137427Y54357D01*
X161246Y54357D01*
X161361Y54376D01*
X161477Y54393D01*
X161483Y54395D01*
X161489Y54396D01*
X161592Y54451D01*
X161697Y54504D01*
X161701Y54509D01*
X161707Y54512D01*
X161786Y54596D01*
X161869Y54680D01*
X161872Y54686D01*
X161876Y54690D01*
X161884Y54707D01*
X161950Y54827D01*
X162427Y55980D01*
X165000Y58553D01*
X168361Y59945D01*
X187239Y59945D01*
X190600Y58553D01*
X193173Y55980D01*
X194565Y52619D01*
X194565Y48981D01*
X193173Y45620D01*
X190600Y43047D01*
X187239Y41655D01*
X168361Y41655D01*
X165000Y43047D01*
X162427Y45620D01*
X161950Y46773D01*
X161888Y46873D01*
X161828Y46973D01*
X161823Y46977D01*
X161820Y46982D01*
X161730Y47057D01*
X161641Y47133D01*
X161635Y47135D01*
X161631Y47139D01*
X161522Y47181D01*
X161413Y47225D01*
X161406Y47226D01*
X161401Y47227D01*
X161383Y47228D01*
X161246Y47243D01*
X137427Y47243D01*
X137313Y47224D01*
X137196Y47207D01*
X137191Y47205D01*
X137185Y47204D01*
X137082Y47149D01*
X136977Y47096D01*
X136973Y47091D01*
X136967Y47088D01*
X136887Y47004D01*
X136805Y46920D01*
X136801Y46914D01*
X136798Y46910D01*
X136790Y46893D01*
X136724Y46773D01*
X135922Y44838D01*
X132962Y41878D01*
X129093Y40275D01*
X124907Y40275D01*
G37*
%LPD*%
%LPC*%
G36*
X99507Y40275D02*
X99507Y40275D01*
X95638Y41878D01*
X92678Y44838D01*
X91075Y48707D01*
X91075Y52893D01*
X92678Y56762D01*
X95638Y59722D01*
X97573Y60524D01*
X97673Y60586D01*
X97773Y60645D01*
X97777Y60650D01*
X97782Y60654D01*
X97857Y60744D01*
X97933Y60832D01*
X97935Y60838D01*
X97939Y60843D01*
X97981Y60951D01*
X98025Y61061D01*
X98026Y61068D01*
X98027Y61073D01*
X98028Y61091D01*
X98043Y61227D01*
X98043Y66294D01*
X98040Y66314D01*
X98042Y66333D01*
X98020Y66435D01*
X98004Y66537D01*
X97994Y66554D01*
X97990Y66574D01*
X97937Y66663D01*
X97888Y66754D01*
X97874Y66768D01*
X97864Y66785D01*
X97785Y66852D01*
X97710Y66924D01*
X97692Y66932D01*
X97677Y66945D01*
X97581Y66984D01*
X97487Y67027D01*
X97467Y67029D01*
X97449Y67037D01*
X97282Y67055D01*
X92161Y67055D01*
X88800Y68447D01*
X86227Y71020D01*
X84835Y74381D01*
X84835Y78019D01*
X86227Y81380D01*
X88800Y83953D01*
X92161Y85345D01*
X111039Y85345D01*
X114400Y83953D01*
X116973Y81380D01*
X118365Y78019D01*
X118365Y74381D01*
X116973Y71020D01*
X114400Y68447D01*
X111039Y67055D01*
X105918Y67055D01*
X105898Y67052D01*
X105879Y67054D01*
X105777Y67032D01*
X105675Y67016D01*
X105658Y67006D01*
X105638Y67002D01*
X105549Y66949D01*
X105458Y66900D01*
X105444Y66886D01*
X105427Y66876D01*
X105360Y66797D01*
X105288Y66722D01*
X105280Y66704D01*
X105267Y66689D01*
X105228Y66593D01*
X105185Y66499D01*
X105183Y66479D01*
X105175Y66461D01*
X105157Y66294D01*
X105157Y61227D01*
X105176Y61113D01*
X105193Y60996D01*
X105195Y60991D01*
X105196Y60985D01*
X105251Y60882D01*
X105304Y60777D01*
X105309Y60773D01*
X105312Y60767D01*
X105396Y60687D01*
X105480Y60605D01*
X105486Y60601D01*
X105490Y60598D01*
X105507Y60590D01*
X105627Y60524D01*
X107562Y59722D01*
X110522Y56762D01*
X112125Y52893D01*
X112125Y48707D01*
X110522Y44838D01*
X107562Y41878D01*
X103693Y40275D01*
X99507Y40275D01*
G37*
%LPD*%
%LPC*%
G36*
X99507Y113935D02*
X99507Y113935D01*
X95638Y115538D01*
X92678Y118498D01*
X91075Y122367D01*
X91075Y126553D01*
X92678Y130422D01*
X95638Y133382D01*
X97573Y134184D01*
X97673Y134246D01*
X97773Y134305D01*
X97777Y134310D01*
X97782Y134314D01*
X97857Y134404D01*
X97933Y134492D01*
X97935Y134498D01*
X97939Y134503D01*
X97981Y134611D01*
X98025Y134721D01*
X98026Y134728D01*
X98027Y134733D01*
X98028Y134751D01*
X98043Y134887D01*
X98043Y139954D01*
X98040Y139974D01*
X98042Y139993D01*
X98020Y140095D01*
X98004Y140197D01*
X97994Y140214D01*
X97990Y140234D01*
X97937Y140323D01*
X97888Y140414D01*
X97874Y140428D01*
X97864Y140445D01*
X97785Y140512D01*
X97710Y140584D01*
X97692Y140592D01*
X97677Y140605D01*
X97581Y140644D01*
X97487Y140687D01*
X97467Y140689D01*
X97449Y140697D01*
X97282Y140715D01*
X92161Y140715D01*
X88800Y142107D01*
X86227Y144680D01*
X84835Y148041D01*
X84835Y151679D01*
X86227Y155040D01*
X88800Y157613D01*
X92161Y159005D01*
X111039Y159005D01*
X114400Y157613D01*
X116973Y155040D01*
X118365Y151679D01*
X118365Y148041D01*
X116973Y144680D01*
X114400Y142107D01*
X111039Y140715D01*
X105918Y140715D01*
X105898Y140712D01*
X105879Y140714D01*
X105777Y140692D01*
X105675Y140676D01*
X105658Y140666D01*
X105638Y140662D01*
X105549Y140609D01*
X105458Y140560D01*
X105444Y140546D01*
X105427Y140536D01*
X105360Y140457D01*
X105288Y140382D01*
X105280Y140364D01*
X105267Y140349D01*
X105228Y140253D01*
X105185Y140159D01*
X105183Y140139D01*
X105175Y140121D01*
X105157Y139954D01*
X105157Y134887D01*
X105176Y134773D01*
X105193Y134656D01*
X105195Y134651D01*
X105196Y134645D01*
X105251Y134542D01*
X105304Y134437D01*
X105309Y134433D01*
X105312Y134427D01*
X105396Y134347D01*
X105480Y134265D01*
X105486Y134261D01*
X105490Y134258D01*
X105507Y134250D01*
X105627Y134184D01*
X107562Y133382D01*
X110522Y130422D01*
X112125Y126553D01*
X112125Y122367D01*
X110522Y118498D01*
X107562Y115538D01*
X103693Y113935D01*
X99507Y113935D01*
G37*
%LPD*%
%LPC*%
G36*
X41361Y115315D02*
X41361Y115315D01*
X38000Y116707D01*
X35427Y119280D01*
X34035Y122641D01*
X34035Y126279D01*
X35427Y129640D01*
X38000Y132213D01*
X41361Y133605D01*
X60239Y133605D01*
X63600Y132213D01*
X66173Y129640D01*
X67565Y126279D01*
X67565Y122641D01*
X66173Y119280D01*
X63600Y116707D01*
X60239Y115315D01*
X41361Y115315D01*
G37*
%LPD*%
%LPC*%
G36*
X41361Y41655D02*
X41361Y41655D01*
X38000Y43047D01*
X35427Y45620D01*
X34035Y48981D01*
X34035Y52619D01*
X35427Y55980D01*
X38000Y58553D01*
X41361Y59945D01*
X60239Y59945D01*
X63600Y58553D01*
X66173Y55980D01*
X67565Y52619D01*
X67565Y48981D01*
X66173Y45620D01*
X63600Y43047D01*
X60239Y41655D01*
X41361Y41655D01*
G37*
%LPD*%
%LPC*%
G36*
X358270Y65277D02*
X358270Y65277D01*
X357377Y66170D01*
X357377Y86230D01*
X358270Y87123D01*
X378330Y87123D01*
X379223Y86230D01*
X379223Y66170D01*
X378330Y65277D01*
X358270Y65277D01*
G37*
%LPD*%
%LPC*%
G36*
X429627Y166877D02*
X429627Y166877D01*
X425613Y168540D01*
X422540Y171613D01*
X420877Y175627D01*
X420877Y179973D01*
X422540Y183987D01*
X425613Y187060D01*
X429627Y188723D01*
X433973Y188723D01*
X437987Y187060D01*
X441060Y183987D01*
X442723Y179973D01*
X442723Y175627D01*
X441060Y171613D01*
X437987Y168540D01*
X433973Y166877D01*
X429627Y166877D01*
G37*
%LPD*%
%LPC*%
G36*
X201027Y166877D02*
X201027Y166877D01*
X197013Y168540D01*
X193940Y171613D01*
X192277Y175627D01*
X192277Y179973D01*
X193940Y183987D01*
X197013Y187060D01*
X201027Y188723D01*
X205373Y188723D01*
X209387Y187060D01*
X212460Y183987D01*
X214123Y179973D01*
X214123Y175627D01*
X212460Y171613D01*
X209387Y168540D01*
X205373Y166877D01*
X201027Y166877D01*
G37*
%LPD*%
%LPC*%
G36*
X277227Y166877D02*
X277227Y166877D01*
X273213Y168540D01*
X270140Y171613D01*
X268477Y175627D01*
X268477Y179973D01*
X270140Y183987D01*
X273213Y187060D01*
X277227Y188723D01*
X281573Y188723D01*
X285587Y187060D01*
X288660Y183987D01*
X290323Y179973D01*
X290323Y175627D01*
X288660Y171613D01*
X285587Y168540D01*
X281573Y166877D01*
X277227Y166877D01*
G37*
%LPD*%
%LPC*%
G36*
X124827Y166877D02*
X124827Y166877D01*
X120813Y168540D01*
X117740Y171613D01*
X116077Y175627D01*
X116077Y179973D01*
X117740Y183987D01*
X120813Y187060D01*
X124827Y188723D01*
X129173Y188723D01*
X133187Y187060D01*
X136260Y183987D01*
X137923Y179973D01*
X137923Y175627D01*
X136260Y171613D01*
X133187Y168540D01*
X129173Y166877D01*
X124827Y166877D01*
G37*
%LPD*%
%LPC*%
G36*
X99427Y166877D02*
X99427Y166877D01*
X95413Y168540D01*
X92340Y171613D01*
X90677Y175627D01*
X90677Y179973D01*
X92340Y183987D01*
X95413Y187060D01*
X99427Y188723D01*
X103773Y188723D01*
X107787Y187060D01*
X110860Y183987D01*
X112523Y179973D01*
X112523Y175627D01*
X110860Y171613D01*
X107787Y168540D01*
X103773Y166877D01*
X99427Y166877D01*
G37*
%LPD*%
%LPC*%
G36*
X251827Y166877D02*
X251827Y166877D01*
X247813Y168540D01*
X244740Y171613D01*
X243077Y175627D01*
X243077Y179973D01*
X244740Y183987D01*
X247813Y187060D01*
X251827Y188723D01*
X256173Y188723D01*
X260187Y187060D01*
X263260Y183987D01*
X264923Y179973D01*
X264923Y175627D01*
X263260Y171613D01*
X260187Y168540D01*
X256173Y166877D01*
X251827Y166877D01*
G37*
%LPD*%
%LPC*%
G36*
X378827Y166877D02*
X378827Y166877D01*
X374813Y168540D01*
X371740Y171613D01*
X370077Y175627D01*
X370077Y179973D01*
X371740Y183987D01*
X374813Y187060D01*
X378827Y188723D01*
X383173Y188723D01*
X387187Y187060D01*
X390260Y183987D01*
X391923Y179973D01*
X391923Y175627D01*
X390260Y171613D01*
X387187Y168540D01*
X383173Y166877D01*
X378827Y166877D01*
G37*
%LPD*%
%LPC*%
G36*
X150227Y166877D02*
X150227Y166877D01*
X146213Y168540D01*
X143140Y171613D01*
X141477Y175627D01*
X141477Y179973D01*
X143140Y183987D01*
X146213Y187060D01*
X150227Y188723D01*
X154573Y188723D01*
X158587Y187060D01*
X161660Y183987D01*
X163323Y179973D01*
X163323Y175627D01*
X161660Y171613D01*
X158587Y168540D01*
X154573Y166877D01*
X150227Y166877D01*
G37*
%LPD*%
%LPC*%
G36*
X74027Y166877D02*
X74027Y166877D01*
X70013Y168540D01*
X66940Y171613D01*
X65277Y175627D01*
X65277Y179973D01*
X66940Y183987D01*
X70013Y187060D01*
X74027Y188723D01*
X78373Y188723D01*
X82387Y187060D01*
X85460Y183987D01*
X87123Y179973D01*
X87123Y175627D01*
X85460Y171613D01*
X82387Y168540D01*
X78373Y166877D01*
X74027Y166877D01*
G37*
%LPD*%
%LPC*%
G36*
X175627Y166877D02*
X175627Y166877D01*
X171613Y168540D01*
X168540Y171613D01*
X166877Y175627D01*
X166877Y179973D01*
X168540Y183987D01*
X171613Y187060D01*
X175627Y188723D01*
X179973Y188723D01*
X183987Y187060D01*
X187060Y183987D01*
X188723Y179973D01*
X188723Y175627D01*
X187060Y171613D01*
X183987Y168540D01*
X179973Y166877D01*
X175627Y166877D01*
G37*
%LPD*%
%LPC*%
G36*
X226427Y166877D02*
X226427Y166877D01*
X222413Y168540D01*
X219340Y171613D01*
X217677Y175627D01*
X217677Y179973D01*
X219340Y183987D01*
X222413Y187060D01*
X226427Y188723D01*
X230773Y188723D01*
X234787Y187060D01*
X237860Y183987D01*
X239523Y179973D01*
X239523Y175627D01*
X237860Y171613D01*
X234787Y168540D01*
X230773Y166877D01*
X226427Y166877D01*
G37*
%LPD*%
%LPC*%
G36*
X251827Y116077D02*
X251827Y116077D01*
X247813Y117740D01*
X244740Y120813D01*
X243077Y124827D01*
X243077Y129173D01*
X244740Y133187D01*
X247813Y136260D01*
X251827Y137923D01*
X256173Y137923D01*
X260187Y136260D01*
X263260Y133187D01*
X264923Y129173D01*
X264923Y124827D01*
X263260Y120813D01*
X260187Y117740D01*
X256173Y116077D01*
X251827Y116077D01*
G37*
%LPD*%
%LPC*%
G36*
X366127Y90677D02*
X366127Y90677D01*
X362113Y92340D01*
X359040Y95413D01*
X357377Y99427D01*
X357377Y103773D01*
X359040Y107787D01*
X362113Y110860D01*
X366127Y112523D01*
X370473Y112523D01*
X374487Y110860D01*
X377560Y107787D01*
X379223Y103773D01*
X379223Y99427D01*
X377560Y95413D01*
X374487Y92340D01*
X370473Y90677D01*
X366127Y90677D01*
G37*
%LPD*%
%LPC*%
G36*
X366127Y116077D02*
X366127Y116077D01*
X362113Y117740D01*
X359040Y120813D01*
X357377Y124827D01*
X357377Y129173D01*
X359040Y133187D01*
X362113Y136260D01*
X366127Y137923D01*
X370473Y137923D01*
X374487Y136260D01*
X377560Y133187D01*
X379223Y129173D01*
X379223Y124827D01*
X377560Y120813D01*
X374487Y117740D01*
X370473Y116077D01*
X366127Y116077D01*
G37*
%LPD*%
%LPC*%
G36*
X302627Y166877D02*
X302627Y166877D01*
X298613Y168540D01*
X295540Y171613D01*
X293877Y175627D01*
X293877Y179973D01*
X295540Y183987D01*
X298613Y187060D01*
X302627Y188723D01*
X306973Y188723D01*
X310987Y187060D01*
X314060Y183987D01*
X315723Y179973D01*
X315723Y175627D01*
X314060Y171613D01*
X310987Y168540D01*
X306973Y166877D01*
X302627Y166877D01*
G37*
%LPD*%
%LPC*%
G36*
X328027Y166877D02*
X328027Y166877D01*
X324013Y168540D01*
X320940Y171613D01*
X319277Y175627D01*
X319277Y179973D01*
X320940Y183987D01*
X324013Y187060D01*
X328027Y188723D01*
X332373Y188723D01*
X336387Y187060D01*
X339460Y183987D01*
X341123Y179973D01*
X341123Y175627D01*
X339460Y171613D01*
X336387Y168540D01*
X332373Y166877D01*
X328027Y166877D01*
G37*
%LPD*%
%LPC*%
G36*
X175627Y14477D02*
X175627Y14477D01*
X171613Y16140D01*
X168540Y19213D01*
X166877Y23227D01*
X166877Y27573D01*
X168540Y31587D01*
X171613Y34660D01*
X175627Y36323D01*
X179973Y36323D01*
X183987Y34660D01*
X187060Y31587D01*
X188723Y27573D01*
X188723Y23227D01*
X187060Y19213D01*
X183987Y16140D01*
X179973Y14477D01*
X175627Y14477D01*
G37*
%LPD*%
%LPC*%
G36*
X150227Y14477D02*
X150227Y14477D01*
X146213Y16140D01*
X143140Y19213D01*
X141477Y23227D01*
X141477Y27573D01*
X143140Y31587D01*
X146213Y34660D01*
X150227Y36323D01*
X154573Y36323D01*
X158587Y34660D01*
X161660Y31587D01*
X163323Y27573D01*
X163323Y23227D01*
X161660Y19213D01*
X158587Y16140D01*
X154573Y14477D01*
X150227Y14477D01*
G37*
%LPD*%
%LPC*%
G36*
X124827Y14477D02*
X124827Y14477D01*
X120813Y16140D01*
X117740Y19213D01*
X116077Y23227D01*
X116077Y27573D01*
X117740Y31587D01*
X120813Y34660D01*
X124827Y36323D01*
X129173Y36323D01*
X133187Y34660D01*
X136260Y31587D01*
X137923Y27573D01*
X137923Y23227D01*
X136260Y19213D01*
X133187Y16140D01*
X129173Y14477D01*
X124827Y14477D01*
G37*
%LPD*%
%LPC*%
G36*
X455027Y14477D02*
X455027Y14477D01*
X451013Y16140D01*
X447940Y19213D01*
X446277Y23227D01*
X446277Y27573D01*
X447940Y31587D01*
X451013Y34660D01*
X455027Y36323D01*
X459373Y36323D01*
X463387Y34660D01*
X466460Y31587D01*
X468123Y27573D01*
X468123Y23227D01*
X466460Y19213D01*
X463387Y16140D01*
X459373Y14477D01*
X455027Y14477D01*
G37*
%LPD*%
%LPC*%
G36*
X99427Y14477D02*
X99427Y14477D01*
X95413Y16140D01*
X92340Y19213D01*
X90677Y23227D01*
X90677Y27573D01*
X92340Y31587D01*
X95413Y34660D01*
X99427Y36323D01*
X103773Y36323D01*
X107787Y34660D01*
X110860Y31587D01*
X112523Y27573D01*
X112523Y23227D01*
X110860Y19213D01*
X107787Y16140D01*
X103773Y14477D01*
X99427Y14477D01*
G37*
%LPD*%
%LPC*%
G36*
X74027Y14477D02*
X74027Y14477D01*
X70013Y16140D01*
X66940Y19213D01*
X65277Y23227D01*
X65277Y27573D01*
X66940Y31587D01*
X70013Y34660D01*
X74027Y36323D01*
X78373Y36323D01*
X82387Y34660D01*
X85460Y31587D01*
X87123Y27573D01*
X87123Y23227D01*
X85460Y19213D01*
X82387Y16140D01*
X78373Y14477D01*
X74027Y14477D01*
G37*
%LPD*%
%LPC*%
G36*
X48627Y14477D02*
X48627Y14477D01*
X44613Y16140D01*
X41540Y19213D01*
X39877Y23227D01*
X39877Y27573D01*
X41540Y31587D01*
X44613Y34660D01*
X48627Y36323D01*
X52973Y36323D01*
X56987Y34660D01*
X60060Y31587D01*
X61723Y27573D01*
X61723Y23227D01*
X60060Y19213D01*
X56987Y16140D01*
X52973Y14477D01*
X48627Y14477D01*
G37*
%LPD*%
%LPC*%
G36*
X376896Y40893D02*
X376896Y40893D01*
X371093Y46696D01*
X371093Y54904D01*
X376896Y60707D01*
X385104Y60707D01*
X390907Y54904D01*
X390907Y46696D01*
X385104Y40893D01*
X376896Y40893D01*
G37*
%LPD*%
%LPC*%
G36*
X52323Y179323D02*
X52323Y179323D01*
X52323Y189646D01*
X53596Y189445D01*
X55383Y188864D01*
X57057Y188011D01*
X58578Y186906D01*
X59906Y185578D01*
X61011Y184057D01*
X61864Y182383D01*
X62445Y180596D01*
X62646Y179323D01*
X52323Y179323D01*
G37*
%LPD*%
%LPC*%
G36*
X433323Y26923D02*
X433323Y26923D01*
X433323Y37246D01*
X434596Y37045D01*
X436383Y36464D01*
X438057Y35611D01*
X439578Y34506D01*
X440906Y33178D01*
X442011Y31657D01*
X442864Y29983D01*
X443445Y28196D01*
X443646Y26923D01*
X433323Y26923D01*
G37*
%LPD*%
%LPC*%
G36*
X407923Y179323D02*
X407923Y179323D01*
X407923Y189646D01*
X409196Y189445D01*
X410983Y188864D01*
X412657Y188011D01*
X414178Y186906D01*
X415506Y185578D01*
X416611Y184057D01*
X417464Y182383D01*
X418045Y180596D01*
X418246Y179323D01*
X407923Y179323D01*
G37*
%LPD*%
%LPC*%
G36*
X394554Y179323D02*
X394554Y179323D01*
X394755Y180596D01*
X395336Y182383D01*
X396189Y184057D01*
X397294Y185578D01*
X398622Y186906D01*
X400143Y188011D01*
X401817Y188864D01*
X403604Y189445D01*
X404877Y189646D01*
X404877Y179323D01*
X394554Y179323D01*
G37*
%LPD*%
%LPC*%
G36*
X52323Y176277D02*
X52323Y176277D01*
X62646Y176277D01*
X62445Y175004D01*
X61864Y173217D01*
X61011Y171543D01*
X59906Y170022D01*
X58578Y168694D01*
X57057Y167589D01*
X55383Y166736D01*
X53596Y166155D01*
X52323Y165954D01*
X52323Y176277D01*
G37*
%LPD*%
%LPC*%
G36*
X407923Y176277D02*
X407923Y176277D01*
X418246Y176277D01*
X418045Y175004D01*
X417464Y173217D01*
X416611Y171543D01*
X415506Y170022D01*
X414178Y168694D01*
X412657Y167589D01*
X410983Y166736D01*
X409196Y166155D01*
X407923Y165954D01*
X407923Y176277D01*
G37*
%LPD*%
%LPC*%
G36*
X419954Y26923D02*
X419954Y26923D01*
X420155Y28196D01*
X420736Y29983D01*
X421589Y31657D01*
X422694Y33178D01*
X424022Y34506D01*
X425543Y35611D01*
X427217Y36464D01*
X429004Y37045D01*
X430277Y37246D01*
X430277Y26923D01*
X419954Y26923D01*
G37*
%LPD*%
%LPC*%
G36*
X38954Y179323D02*
X38954Y179323D01*
X39155Y180596D01*
X39736Y182383D01*
X40589Y184057D01*
X41694Y185578D01*
X43022Y186906D01*
X44543Y188011D01*
X46217Y188864D01*
X48004Y189445D01*
X49277Y189646D01*
X49277Y179323D01*
X38954Y179323D01*
G37*
%LPD*%
%LPC*%
G36*
X433323Y23877D02*
X433323Y23877D01*
X443646Y23877D01*
X443445Y22604D01*
X442864Y20817D01*
X442011Y19143D01*
X440906Y17622D01*
X439578Y16294D01*
X438057Y15189D01*
X436383Y14336D01*
X434596Y13755D01*
X433323Y13554D01*
X433323Y23877D01*
G37*
%LPD*%
%LPC*%
G36*
X48004Y166155D02*
X48004Y166155D01*
X46217Y166736D01*
X44543Y167589D01*
X43022Y168694D01*
X41694Y170022D01*
X40589Y171543D01*
X39736Y173217D01*
X39155Y175004D01*
X38954Y176277D01*
X49277Y176277D01*
X49277Y165954D01*
X48004Y166155D01*
G37*
%LPD*%
%LPC*%
G36*
X403604Y166155D02*
X403604Y166155D01*
X401817Y166736D01*
X400143Y167589D01*
X398622Y168694D01*
X397294Y170022D01*
X396189Y171543D01*
X395336Y173217D01*
X394755Y175004D01*
X394554Y176277D01*
X404877Y176277D01*
X404877Y165954D01*
X403604Y166155D01*
G37*
%LPD*%
%LPC*%
G36*
X429004Y13755D02*
X429004Y13755D01*
X427217Y14336D01*
X425543Y15189D01*
X424022Y16294D01*
X422694Y17622D01*
X421589Y19143D01*
X420736Y20817D01*
X420155Y22604D01*
X419954Y23877D01*
X430277Y23877D01*
X430277Y13554D01*
X429004Y13755D01*
G37*
%LPD*%
%LPC*%
G36*
X382523Y153923D02*
X382523Y153923D01*
X382523Y163323D01*
X385524Y163323D01*
X391923Y156924D01*
X391923Y153923D01*
X382523Y153923D01*
G37*
%LPD*%
%LPC*%
G36*
X458723Y52323D02*
X458723Y52323D01*
X458723Y61723D01*
X461724Y61723D01*
X468123Y55324D01*
X468123Y52323D01*
X458723Y52323D01*
G37*
%LPD*%
%LPC*%
G36*
X382523Y141477D02*
X382523Y141477D01*
X382523Y150877D01*
X391923Y150877D01*
X391923Y147876D01*
X385524Y141477D01*
X382523Y141477D01*
G37*
%LPD*%
%LPC*%
G36*
X370077Y153923D02*
X370077Y153923D01*
X370077Y156924D01*
X376476Y163323D01*
X379477Y163323D01*
X379477Y153923D01*
X370077Y153923D01*
G37*
%LPD*%
%LPC*%
G36*
X458723Y39877D02*
X458723Y39877D01*
X458723Y49277D01*
X468123Y49277D01*
X468123Y46276D01*
X461724Y39877D01*
X458723Y39877D01*
G37*
%LPD*%
%LPC*%
G36*
X446277Y52323D02*
X446277Y52323D01*
X446277Y55324D01*
X452676Y61723D01*
X455677Y61723D01*
X455677Y52323D01*
X446277Y52323D01*
G37*
%LPD*%
%LPC*%
G36*
X452676Y39877D02*
X452676Y39877D01*
X446277Y46276D01*
X446277Y49277D01*
X455677Y49277D01*
X455677Y39877D01*
X452676Y39877D01*
G37*
%LPD*%
%LPC*%
G36*
X376476Y141477D02*
X376476Y141477D01*
X370077Y147876D01*
X370077Y150877D01*
X379477Y150877D01*
X379477Y141477D01*
X376476Y141477D01*
G37*
%LPD*%
%LPC*%
G36*
X380999Y152399D02*
X380999Y152399D01*
X380999Y152401D01*
X381001Y152401D01*
X381001Y152399D01*
X380999Y152399D01*
G37*
%LPD*%
%LPC*%
G36*
X406399Y177799D02*
X406399Y177799D01*
X406399Y177801D01*
X406401Y177801D01*
X406401Y177799D01*
X406399Y177799D01*
G37*
%LPD*%
%LPC*%
G36*
X50799Y177799D02*
X50799Y177799D01*
X50799Y177801D01*
X50801Y177801D01*
X50801Y177799D01*
X50799Y177799D01*
G37*
%LPD*%
%LPC*%
G36*
X431799Y25399D02*
X431799Y25399D01*
X431799Y25401D01*
X431801Y25401D01*
X431801Y25399D01*
X431799Y25399D01*
G37*
%LPD*%
%LPC*%
G36*
X457199Y50799D02*
X457199Y50799D01*
X457199Y50801D01*
X457201Y50801D01*
X457201Y50799D01*
X457199Y50799D01*
G37*
%LPD*%
D10*
X368300Y76200D03*
D11*
X368300Y101600D03*
X368300Y127000D03*
D12*
X228600Y50800D03*
X304800Y50800D03*
X228600Y152400D03*
X304800Y152400D03*
D13*
X185420Y50800D02*
X170180Y50800D01*
X58420Y50800D02*
X43180Y50800D01*
X93980Y76200D02*
X109220Y76200D01*
X170180Y124460D02*
X185420Y124460D01*
X58420Y124460D02*
X43180Y124460D01*
X93980Y149860D02*
X109220Y149860D01*
D11*
X50800Y25400D03*
X76200Y25400D03*
X101600Y25400D03*
X127000Y25400D03*
X152400Y25400D03*
X177800Y25400D03*
X203200Y25400D03*
X228600Y25400D03*
X254000Y25400D03*
X279400Y25400D03*
X304800Y25400D03*
X330200Y25400D03*
X50800Y177800D03*
X76200Y177800D03*
X101600Y177800D03*
X127000Y177800D03*
X152400Y177800D03*
X177800Y177800D03*
X203200Y177800D03*
X228600Y177800D03*
X254000Y177800D03*
X279400Y177800D03*
X304800Y177800D03*
X330200Y177800D03*
X228600Y76200D03*
X254000Y76200D03*
X228600Y127000D03*
X254000Y127000D03*
X457200Y25400D03*
X431800Y25400D03*
X406400Y25400D03*
X381000Y25400D03*
X381000Y177800D03*
X406400Y177800D03*
X431800Y177800D03*
X457200Y177800D03*
D14*
X457200Y152400D03*
X381000Y152400D03*
D12*
X381000Y50800D03*
X457200Y50800D03*
D15*
X101600Y50800D03*
X127000Y50800D03*
X101600Y124460D03*
X127000Y124460D03*
D16*
X457200Y152400D02*
X457200Y177800D01*
X457200Y152400D02*
X457200Y101600D01*
X381000Y25400D01*
X210280Y25400D02*
X203200Y25400D01*
X361220Y25400D02*
X381000Y25400D01*
X223234Y38354D02*
X210280Y25400D01*
X223234Y38354D02*
X348266Y38354D01*
X361220Y25400D01*
X399320Y25400D02*
X406400Y25400D01*
X235680Y25400D02*
X228600Y25400D01*
X386366Y12446D02*
X399320Y25400D01*
X248634Y12446D02*
X235680Y25400D01*
X248634Y12446D02*
X386366Y12446D01*
X177800Y50800D02*
X127000Y50800D01*
D17*
X289560Y50800D03*
D16*
X213360Y124460D02*
X177800Y124460D01*
X266954Y73406D02*
X289560Y50800D01*
X266954Y73406D02*
X266954Y81566D01*
X223234Y114046D02*
X215646Y121634D01*
X215646Y122174D01*
X213360Y124460D01*
X234474Y114046D02*
X266954Y81566D01*
X234474Y114046D02*
X223234Y114046D01*
X177800Y124460D02*
X127000Y124460D01*
X304800Y152400D02*
X304800Y66040D01*
D17*
X304800Y66040D03*
D16*
X101600Y76200D02*
X101600Y50800D01*
X101600Y124460D02*
X101600Y149860D01*
X228600Y152400D02*
X228600Y127000D01*
X228600Y76200D02*
X228600Y50800D01*
M02*
