G04 EAGLE Gerber RS-274X export*
G75*
%MOMM*%
%FSLAX34Y34*%
%LPD*%
%INTop Copper*%
%IPPOS*%
%AMOC8*
5,1,8,0,0,1.08239X$1,22.5*%
G01*
%ADD10R,1.879600X1.879600*%
%ADD11C,1.879600*%
%ADD12P,1.814519X8X22.500000*%
%ADD13C,1.524000*%
%ADD14P,1.814519X8X202.500000*%
%ADD15C,0.406400*%
%ADD16C,0.654800*%

G36*
X482622Y2544D02*
X482622Y2544D01*
X482660Y2543D01*
X486117Y2815D01*
X486122Y2817D01*
X486128Y2816D01*
X486292Y2850D01*
X492868Y4987D01*
X492899Y5003D01*
X492934Y5012D01*
X493080Y5095D01*
X498673Y9158D01*
X498698Y9184D01*
X498729Y9203D01*
X498842Y9327D01*
X502905Y14920D01*
X502921Y14952D01*
X502944Y14980D01*
X503013Y15132D01*
X505150Y21708D01*
X505151Y21713D01*
X505153Y21719D01*
X505185Y21883D01*
X505457Y25340D01*
X505455Y25362D01*
X505459Y25400D01*
X505459Y177800D01*
X505456Y177822D01*
X505457Y177860D01*
X505185Y181317D01*
X505183Y181322D01*
X505184Y181328D01*
X505150Y181492D01*
X503013Y188068D01*
X502997Y188099D01*
X502988Y188134D01*
X502905Y188280D01*
X498842Y193873D01*
X498816Y193898D01*
X498797Y193929D01*
X498673Y194042D01*
X493080Y198105D01*
X493048Y198121D01*
X493020Y198144D01*
X492868Y198213D01*
X486292Y200350D01*
X486287Y200351D01*
X486281Y200353D01*
X486117Y200385D01*
X482660Y200657D01*
X482638Y200655D01*
X482600Y200659D01*
X25400Y200659D01*
X25378Y200656D01*
X25340Y200657D01*
X21883Y200385D01*
X21878Y200383D01*
X21872Y200384D01*
X21708Y200350D01*
X15132Y198213D01*
X15101Y198197D01*
X15066Y198188D01*
X14920Y198105D01*
X9327Y194042D01*
X9302Y194016D01*
X9271Y193997D01*
X9158Y193873D01*
X5095Y188280D01*
X5079Y188248D01*
X5056Y188220D01*
X4987Y188068D01*
X2850Y181492D01*
X2849Y181487D01*
X2847Y181481D01*
X2815Y181317D01*
X2543Y177860D01*
X2545Y177838D01*
X2541Y177800D01*
X2541Y25400D01*
X2544Y25378D01*
X2543Y25340D01*
X2815Y21883D01*
X2817Y21878D01*
X2816Y21872D01*
X2850Y21708D01*
X4987Y15132D01*
X5003Y15101D01*
X5012Y15066D01*
X5095Y14920D01*
X9158Y9327D01*
X9184Y9302D01*
X9203Y9271D01*
X9327Y9158D01*
X14920Y5095D01*
X14952Y5079D01*
X14980Y5056D01*
X15132Y4987D01*
X21708Y2850D01*
X21713Y2849D01*
X21719Y2847D01*
X21883Y2815D01*
X25340Y2543D01*
X25362Y2545D01*
X25400Y2541D01*
X482600Y2541D01*
X482622Y2544D01*
G37*
%LPC*%
G36*
X297961Y8889D02*
X297961Y8889D01*
X288687Y18163D01*
X288671Y18175D01*
X288658Y18191D01*
X288571Y18247D01*
X288487Y18307D01*
X288468Y18313D01*
X288451Y18324D01*
X288351Y18349D01*
X288252Y18379D01*
X288232Y18379D01*
X288213Y18384D01*
X288110Y18376D01*
X288006Y18373D01*
X287987Y18366D01*
X287968Y18364D01*
X287873Y18324D01*
X287775Y18288D01*
X287760Y18276D01*
X287741Y18268D01*
X287610Y18163D01*
X285587Y16140D01*
X281573Y14477D01*
X277227Y14477D01*
X273213Y16140D01*
X270140Y19213D01*
X268477Y23227D01*
X268477Y27573D01*
X270140Y31587D01*
X273213Y34660D01*
X277227Y36323D01*
X281573Y36323D01*
X283733Y35428D01*
X283847Y35401D01*
X283960Y35373D01*
X283967Y35373D01*
X283973Y35372D01*
X284089Y35383D01*
X284206Y35392D01*
X284211Y35394D01*
X284218Y35395D01*
X284325Y35443D01*
X284432Y35488D01*
X284438Y35493D01*
X284442Y35495D01*
X284456Y35507D01*
X284563Y35593D01*
X285780Y36810D01*
X285833Y36884D01*
X285893Y36954D01*
X285905Y36984D01*
X285924Y37010D01*
X285951Y37097D01*
X285985Y37182D01*
X285989Y37223D01*
X285996Y37245D01*
X285995Y37277D01*
X286003Y37349D01*
X286003Y47255D01*
X285989Y47345D01*
X285981Y47436D01*
X285969Y47466D01*
X285964Y47498D01*
X285921Y47578D01*
X285885Y47662D01*
X285859Y47694D01*
X285848Y47715D01*
X285825Y47737D01*
X285780Y47793D01*
X284761Y48812D01*
X284761Y51833D01*
X284750Y51904D01*
X284748Y51976D01*
X284730Y52025D01*
X284722Y52076D01*
X284688Y52139D01*
X284663Y52207D01*
X284631Y52248D01*
X284606Y52294D01*
X284555Y52343D01*
X284510Y52399D01*
X284466Y52427D01*
X284428Y52463D01*
X284363Y52493D01*
X284303Y52532D01*
X284252Y52545D01*
X284205Y52567D01*
X284134Y52575D01*
X284064Y52592D01*
X284012Y52588D01*
X283961Y52594D01*
X283890Y52578D01*
X283819Y52573D01*
X283771Y52553D01*
X283720Y52541D01*
X283659Y52505D01*
X283593Y52477D01*
X283537Y52432D01*
X283509Y52415D01*
X283494Y52397D01*
X283462Y52372D01*
X263449Y32359D01*
X263381Y32265D01*
X263311Y32170D01*
X263309Y32164D01*
X263305Y32159D01*
X263271Y32048D01*
X263235Y31936D01*
X263235Y31930D01*
X263233Y31924D01*
X263236Y31807D01*
X263237Y31690D01*
X263239Y31683D01*
X263239Y31678D01*
X263246Y31661D01*
X263284Y31529D01*
X264923Y27573D01*
X264923Y23227D01*
X263260Y19213D01*
X260187Y16140D01*
X256173Y14477D01*
X251827Y14477D01*
X247813Y16140D01*
X244740Y19213D01*
X243077Y23227D01*
X243077Y27573D01*
X243591Y28814D01*
X243598Y28840D01*
X243610Y28864D01*
X243626Y28959D01*
X243648Y29053D01*
X243645Y29080D01*
X243649Y29106D01*
X243634Y29202D01*
X243625Y29298D01*
X243614Y29323D01*
X243609Y29349D01*
X243564Y29435D01*
X243525Y29523D01*
X243506Y29543D01*
X243494Y29566D01*
X243378Y29688D01*
X236913Y35127D01*
X236865Y35155D01*
X236855Y35164D01*
X236854Y35165D01*
X236818Y35195D01*
X236758Y35219D01*
X236702Y35252D01*
X236645Y35265D01*
X236590Y35287D01*
X236493Y35298D01*
X236462Y35304D01*
X236447Y35303D01*
X236423Y35305D01*
X235980Y35305D01*
X235909Y35294D01*
X235837Y35292D01*
X235788Y35274D01*
X235737Y35266D01*
X235674Y35232D01*
X235606Y35207D01*
X235566Y35175D01*
X235519Y35150D01*
X235470Y35098D01*
X235414Y35054D01*
X235386Y35010D01*
X235350Y34972D01*
X235320Y34907D01*
X235281Y34847D01*
X235268Y34796D01*
X235246Y34749D01*
X235239Y34678D01*
X235221Y34608D01*
X235225Y34556D01*
X235219Y34505D01*
X235235Y34434D01*
X235240Y34363D01*
X235261Y34315D01*
X235272Y34264D01*
X235308Y34203D01*
X235337Y34137D01*
X235381Y34081D01*
X235398Y34053D01*
X235416Y34038D01*
X235441Y34006D01*
X237860Y31587D01*
X239523Y27573D01*
X239523Y23227D01*
X237860Y19213D01*
X234787Y16140D01*
X230773Y14477D01*
X226427Y14477D01*
X222413Y16140D01*
X219340Y19213D01*
X217677Y23227D01*
X217677Y27573D01*
X219340Y31587D01*
X222082Y34329D01*
X222093Y34345D01*
X222109Y34357D01*
X222165Y34445D01*
X222225Y34529D01*
X222231Y34548D01*
X222242Y34564D01*
X222267Y34665D01*
X222298Y34764D01*
X222297Y34784D01*
X222302Y34803D01*
X222294Y34906D01*
X222291Y35009D01*
X222284Y35028D01*
X222283Y35048D01*
X222242Y35143D01*
X222207Y35241D01*
X222194Y35256D01*
X222187Y35274D01*
X222082Y35405D01*
X219875Y37612D01*
X210467Y47020D01*
X210393Y47073D01*
X210323Y47133D01*
X210293Y47145D01*
X210267Y47164D01*
X210180Y47191D01*
X210095Y47225D01*
X210054Y47229D01*
X210032Y47236D01*
X210000Y47235D01*
X209928Y47243D01*
X194354Y47243D01*
X194239Y47224D01*
X194123Y47207D01*
X194117Y47205D01*
X194111Y47204D01*
X194008Y47149D01*
X193903Y47096D01*
X193899Y47091D01*
X193893Y47088D01*
X193814Y47004D01*
X193731Y46920D01*
X193728Y46914D01*
X193724Y46910D01*
X193716Y46893D01*
X193650Y46773D01*
X193173Y45620D01*
X190600Y43047D01*
X187239Y41655D01*
X168361Y41655D01*
X165000Y43047D01*
X162427Y45620D01*
X161035Y48981D01*
X161035Y52619D01*
X162427Y55980D01*
X165000Y58553D01*
X168361Y59945D01*
X187239Y59945D01*
X190600Y58553D01*
X193173Y55980D01*
X193650Y54827D01*
X193712Y54727D01*
X193772Y54627D01*
X193777Y54623D01*
X193780Y54618D01*
X193870Y54543D01*
X193959Y54467D01*
X193965Y54465D01*
X193969Y54461D01*
X194078Y54419D01*
X194187Y54375D01*
X194194Y54374D01*
X194199Y54373D01*
X194217Y54372D01*
X194354Y54357D01*
X213190Y54357D01*
X217394Y50153D01*
X217452Y50111D01*
X217504Y50062D01*
X217551Y50040D01*
X217593Y50010D01*
X217662Y49989D01*
X217727Y49958D01*
X217779Y49953D01*
X217829Y49937D01*
X217900Y49939D01*
X217971Y49931D01*
X218022Y49942D01*
X218074Y49944D01*
X218142Y49968D01*
X218212Y49984D01*
X218257Y50010D01*
X218305Y50028D01*
X218361Y50073D01*
X218423Y50110D01*
X218457Y50149D01*
X218497Y50182D01*
X218536Y50242D01*
X218583Y50297D01*
X218602Y50345D01*
X218630Y50389D01*
X218648Y50458D01*
X218675Y50525D01*
X218683Y50596D01*
X218691Y50627D01*
X218689Y50651D01*
X218693Y50692D01*
X218693Y54904D01*
X224496Y60707D01*
X232704Y60707D01*
X238507Y54904D01*
X238507Y46696D01*
X235528Y43718D01*
X235487Y43660D01*
X235437Y43608D01*
X235415Y43561D01*
X235385Y43519D01*
X235364Y43450D01*
X235334Y43385D01*
X235328Y43333D01*
X235313Y43283D01*
X235314Y43212D01*
X235307Y43141D01*
X235318Y43090D01*
X235319Y43038D01*
X235344Y42970D01*
X235359Y42900D01*
X235386Y42855D01*
X235403Y42807D01*
X235448Y42751D01*
X235485Y42689D01*
X235525Y42655D01*
X235557Y42615D01*
X235617Y42576D01*
X235672Y42529D01*
X235720Y42510D01*
X235764Y42482D01*
X235833Y42464D01*
X235900Y42437D01*
X235971Y42429D01*
X236003Y42421D01*
X236026Y42423D01*
X236067Y42419D01*
X237812Y42419D01*
X237836Y42423D01*
X237878Y42422D01*
X239173Y42533D01*
X239178Y42529D01*
X239238Y42505D01*
X239294Y42472D01*
X239351Y42459D01*
X239406Y42437D01*
X239459Y42431D01*
X240382Y41508D01*
X240401Y41494D01*
X240430Y41464D01*
X247931Y35153D01*
X248004Y35110D01*
X248072Y35060D01*
X248109Y35048D01*
X248143Y35028D01*
X248225Y35010D01*
X248306Y34983D01*
X248345Y34984D01*
X248383Y34976D01*
X248467Y34985D01*
X248552Y34986D01*
X248600Y35000D01*
X248627Y35003D01*
X248655Y35016D01*
X248713Y35033D01*
X251827Y36323D01*
X256173Y36323D01*
X256537Y36172D01*
X256651Y36145D01*
X256764Y36117D01*
X256771Y36117D01*
X256777Y36116D01*
X256893Y36127D01*
X257010Y36136D01*
X257015Y36138D01*
X257022Y36139D01*
X257129Y36187D01*
X257236Y36232D01*
X257242Y36237D01*
X257246Y36239D01*
X257260Y36251D01*
X257367Y36337D01*
X351587Y130557D01*
X357442Y130557D01*
X357557Y130576D01*
X357673Y130593D01*
X357678Y130595D01*
X357685Y130596D01*
X357787Y130651D01*
X357892Y130704D01*
X357897Y130709D01*
X357902Y130712D01*
X357982Y130796D01*
X358064Y130880D01*
X358068Y130886D01*
X358071Y130890D01*
X358079Y130907D01*
X358145Y131027D01*
X359040Y133187D01*
X362113Y136260D01*
X366127Y137923D01*
X370473Y137923D01*
X374487Y136260D01*
X377560Y133187D01*
X379223Y129173D01*
X379223Y124827D01*
X377560Y120813D01*
X374487Y117740D01*
X370473Y116077D01*
X366127Y116077D01*
X362113Y117740D01*
X359040Y120813D01*
X358145Y122973D01*
X358084Y123073D01*
X358024Y123173D01*
X358019Y123177D01*
X358016Y123182D01*
X357926Y123257D01*
X357837Y123333D01*
X357831Y123335D01*
X357826Y123339D01*
X357718Y123381D01*
X357609Y123425D01*
X357601Y123426D01*
X357597Y123427D01*
X357578Y123428D01*
X357442Y123443D01*
X354849Y123443D01*
X354758Y123429D01*
X354668Y123421D01*
X354638Y123409D01*
X354606Y123404D01*
X354525Y123361D01*
X354441Y123325D01*
X354409Y123299D01*
X354388Y123288D01*
X354366Y123265D01*
X354310Y123220D01*
X303228Y72138D01*
X303186Y72080D01*
X303137Y72028D01*
X303115Y71981D01*
X303085Y71939D01*
X303064Y71870D01*
X303033Y71805D01*
X303028Y71753D01*
X303012Y71703D01*
X303014Y71632D01*
X303006Y71561D01*
X303017Y71510D01*
X303019Y71458D01*
X303043Y71390D01*
X303059Y71320D01*
X303085Y71275D01*
X303103Y71227D01*
X303148Y71171D01*
X303185Y71109D01*
X303224Y71075D01*
X303257Y71035D01*
X303317Y70996D01*
X303372Y70949D01*
X303420Y70930D01*
X303464Y70902D01*
X303533Y70884D01*
X303600Y70857D01*
X303671Y70849D01*
X303702Y70841D01*
X303726Y70843D01*
X303767Y70839D01*
X306788Y70839D01*
X309638Y67988D01*
X309638Y67987D01*
X309681Y67906D01*
X309717Y67822D01*
X309743Y67790D01*
X309754Y67769D01*
X309777Y67747D01*
X309822Y67691D01*
X320295Y57218D01*
X320295Y40651D01*
X320309Y40560D01*
X320317Y40470D01*
X320329Y40440D01*
X320334Y40408D01*
X320377Y40327D01*
X320413Y40243D01*
X320439Y40211D01*
X320450Y40190D01*
X320473Y40168D01*
X320518Y40112D01*
X325037Y35593D01*
X325131Y35525D01*
X325226Y35455D01*
X325232Y35453D01*
X325237Y35449D01*
X325348Y35415D01*
X325460Y35379D01*
X325466Y35379D01*
X325472Y35377D01*
X325589Y35380D01*
X325706Y35381D01*
X325713Y35383D01*
X325718Y35383D01*
X325735Y35390D01*
X325867Y35428D01*
X328027Y36323D01*
X332373Y36323D01*
X336387Y34660D01*
X339460Y31587D01*
X341123Y27573D01*
X341123Y23227D01*
X339460Y19213D01*
X337549Y17302D01*
X337507Y17244D01*
X337458Y17192D01*
X337436Y17145D01*
X337406Y17103D01*
X337385Y17034D01*
X337354Y16969D01*
X337349Y16917D01*
X337333Y16867D01*
X337335Y16796D01*
X337327Y16725D01*
X337338Y16674D01*
X337340Y16622D01*
X337364Y16554D01*
X337380Y16484D01*
X337406Y16439D01*
X337424Y16391D01*
X337469Y16335D01*
X337506Y16273D01*
X337545Y16239D01*
X337578Y16199D01*
X337638Y16160D01*
X337693Y16113D01*
X337741Y16094D01*
X337785Y16066D01*
X337854Y16048D01*
X337921Y16021D01*
X337992Y16013D01*
X338023Y16005D01*
X338047Y16007D01*
X338088Y16003D01*
X346477Y16003D01*
X346567Y16017D01*
X346658Y16025D01*
X346688Y16037D01*
X346720Y16042D01*
X346801Y16085D01*
X346884Y16121D01*
X346917Y16147D01*
X346937Y16158D01*
X346959Y16181D01*
X347015Y16226D01*
X352074Y21285D01*
X352127Y21358D01*
X352187Y21428D01*
X352199Y21458D01*
X352218Y21484D01*
X352245Y21571D01*
X352279Y21656D01*
X352283Y21697D01*
X352290Y21719D01*
X352289Y21752D01*
X352297Y21823D01*
X352297Y65227D01*
X354604Y67534D01*
X357154Y70084D01*
X357207Y70158D01*
X357267Y70228D01*
X357279Y70258D01*
X357298Y70284D01*
X357325Y70371D01*
X357359Y70456D01*
X357363Y70497D01*
X357370Y70519D01*
X357369Y70551D01*
X357377Y70623D01*
X357377Y86230D01*
X358270Y87123D01*
X378330Y87123D01*
X379223Y86230D01*
X379223Y66170D01*
X378330Y65277D01*
X362723Y65277D01*
X362632Y65263D01*
X362542Y65255D01*
X362512Y65243D01*
X362480Y65238D01*
X362399Y65195D01*
X362315Y65159D01*
X362283Y65133D01*
X362262Y65122D01*
X362240Y65099D01*
X362184Y65054D01*
X359634Y62504D01*
X359581Y62430D01*
X359521Y62360D01*
X359509Y62330D01*
X359490Y62304D01*
X359463Y62217D01*
X359429Y62132D01*
X359425Y62091D01*
X359418Y62069D01*
X359419Y62037D01*
X359411Y61965D01*
X359411Y18561D01*
X349739Y8889D01*
X297961Y8889D01*
G37*
%LPD*%
%LPC*%
G36*
X92161Y67055D02*
X92161Y67055D01*
X88800Y68447D01*
X86227Y71020D01*
X84835Y74381D01*
X84835Y78019D01*
X86227Y81380D01*
X88800Y83953D01*
X92161Y85345D01*
X105399Y85345D01*
X105490Y85359D01*
X105580Y85367D01*
X105610Y85379D01*
X105642Y85384D01*
X105723Y85427D01*
X105807Y85463D01*
X105839Y85489D01*
X105860Y85500D01*
X105882Y85523D01*
X105938Y85568D01*
X180360Y159990D01*
X180402Y160048D01*
X180451Y160100D01*
X180473Y160147D01*
X180503Y160189D01*
X180524Y160258D01*
X180555Y160323D01*
X180560Y160375D01*
X180576Y160425D01*
X180574Y160496D01*
X180582Y160567D01*
X180571Y160618D01*
X180569Y160670D01*
X180545Y160738D01*
X180529Y160808D01*
X180503Y160852D01*
X180485Y160901D01*
X180440Y160957D01*
X180403Y161019D01*
X180364Y161053D01*
X180331Y161093D01*
X180271Y161132D01*
X180216Y161179D01*
X180168Y161198D01*
X180124Y161226D01*
X180055Y161244D01*
X179988Y161271D01*
X179917Y161279D01*
X179886Y161287D01*
X179862Y161285D01*
X179821Y161289D01*
X118375Y161289D01*
X118284Y161275D01*
X118194Y161267D01*
X118164Y161255D01*
X118132Y161250D01*
X118051Y161207D01*
X117967Y161171D01*
X117935Y161145D01*
X117914Y161134D01*
X117892Y161111D01*
X117836Y161066D01*
X114930Y158160D01*
X114918Y158143D01*
X114902Y158131D01*
X114846Y158044D01*
X114786Y157960D01*
X114780Y157941D01*
X114769Y157924D01*
X114744Y157824D01*
X114714Y157725D01*
X114714Y157705D01*
X114709Y157686D01*
X114717Y157583D01*
X114720Y157479D01*
X114727Y157460D01*
X114728Y157440D01*
X114769Y157346D01*
X114804Y157248D01*
X114817Y157232D01*
X114825Y157214D01*
X114930Y157083D01*
X116973Y155040D01*
X118365Y151679D01*
X118365Y148041D01*
X116973Y144680D01*
X114400Y142107D01*
X111039Y140715D01*
X92161Y140715D01*
X88800Y142107D01*
X86227Y144680D01*
X84835Y148041D01*
X84835Y151679D01*
X86227Y155040D01*
X88800Y157613D01*
X92161Y159005D01*
X105399Y159005D01*
X105490Y159019D01*
X105580Y159027D01*
X105610Y159039D01*
X105642Y159044D01*
X105723Y159087D01*
X105807Y159123D01*
X105839Y159149D01*
X105860Y159160D01*
X105882Y159183D01*
X105938Y159228D01*
X112806Y166096D01*
X115113Y168403D01*
X119112Y168403D01*
X119183Y168414D01*
X119255Y168416D01*
X119304Y168434D01*
X119355Y168442D01*
X119418Y168476D01*
X119486Y168501D01*
X119526Y168533D01*
X119573Y168558D01*
X119622Y168610D01*
X119678Y168654D01*
X119706Y168698D01*
X119742Y168736D01*
X119772Y168801D01*
X119811Y168861D01*
X119824Y168912D01*
X119846Y168959D01*
X119853Y169030D01*
X119871Y169100D01*
X119867Y169152D01*
X119873Y169203D01*
X119857Y169274D01*
X119852Y169345D01*
X119831Y169393D01*
X119820Y169444D01*
X119784Y169505D01*
X119755Y169571D01*
X119711Y169627D01*
X119694Y169655D01*
X119676Y169670D01*
X119651Y169702D01*
X117740Y171613D01*
X116077Y175627D01*
X116077Y179973D01*
X117740Y183987D01*
X120813Y187060D01*
X124827Y188723D01*
X129173Y188723D01*
X133187Y187060D01*
X136260Y183987D01*
X137923Y179973D01*
X137923Y175627D01*
X136260Y171613D01*
X134349Y169702D01*
X134307Y169644D01*
X134258Y169592D01*
X134236Y169545D01*
X134206Y169503D01*
X134185Y169434D01*
X134154Y169369D01*
X134149Y169317D01*
X134133Y169267D01*
X134135Y169196D01*
X134127Y169125D01*
X134138Y169074D01*
X134140Y169022D01*
X134164Y168954D01*
X134180Y168884D01*
X134206Y168839D01*
X134224Y168791D01*
X134269Y168735D01*
X134306Y168673D01*
X134345Y168639D01*
X134378Y168599D01*
X134438Y168560D01*
X134493Y168513D01*
X134541Y168494D01*
X134585Y168466D01*
X134654Y168448D01*
X134721Y168421D01*
X134792Y168413D01*
X134823Y168405D01*
X134847Y168407D01*
X134888Y168403D01*
X144512Y168403D01*
X144583Y168414D01*
X144655Y168416D01*
X144704Y168434D01*
X144755Y168442D01*
X144818Y168476D01*
X144886Y168501D01*
X144926Y168533D01*
X144973Y168558D01*
X145022Y168610D01*
X145078Y168654D01*
X145106Y168698D01*
X145142Y168736D01*
X145172Y168801D01*
X145211Y168861D01*
X145224Y168912D01*
X145246Y168959D01*
X145253Y169030D01*
X145271Y169100D01*
X145267Y169152D01*
X145273Y169203D01*
X145257Y169274D01*
X145252Y169345D01*
X145231Y169393D01*
X145220Y169444D01*
X145184Y169505D01*
X145155Y169571D01*
X145111Y169627D01*
X145094Y169655D01*
X145076Y169670D01*
X145051Y169702D01*
X143140Y171613D01*
X141477Y175627D01*
X141477Y179973D01*
X143140Y183987D01*
X146213Y187060D01*
X150227Y188723D01*
X154573Y188723D01*
X158587Y187060D01*
X161660Y183987D01*
X163323Y179973D01*
X163323Y175627D01*
X161660Y171613D01*
X159749Y169702D01*
X159707Y169644D01*
X159658Y169592D01*
X159636Y169545D01*
X159606Y169503D01*
X159585Y169434D01*
X159554Y169369D01*
X159549Y169317D01*
X159533Y169267D01*
X159535Y169196D01*
X159527Y169125D01*
X159538Y169074D01*
X159540Y169022D01*
X159564Y168954D01*
X159580Y168884D01*
X159606Y168839D01*
X159624Y168791D01*
X159669Y168735D01*
X159706Y168673D01*
X159745Y168639D01*
X159778Y168599D01*
X159838Y168560D01*
X159893Y168513D01*
X159941Y168494D01*
X159985Y168466D01*
X160054Y168448D01*
X160121Y168421D01*
X160192Y168413D01*
X160223Y168405D01*
X160247Y168407D01*
X160288Y168403D01*
X169912Y168403D01*
X169983Y168414D01*
X170055Y168416D01*
X170104Y168434D01*
X170155Y168442D01*
X170218Y168476D01*
X170286Y168501D01*
X170326Y168533D01*
X170373Y168558D01*
X170422Y168610D01*
X170478Y168654D01*
X170506Y168698D01*
X170542Y168736D01*
X170572Y168801D01*
X170611Y168861D01*
X170624Y168912D01*
X170646Y168959D01*
X170653Y169030D01*
X170671Y169100D01*
X170667Y169152D01*
X170673Y169203D01*
X170657Y169274D01*
X170652Y169345D01*
X170631Y169393D01*
X170620Y169444D01*
X170584Y169505D01*
X170555Y169571D01*
X170511Y169627D01*
X170494Y169655D01*
X170476Y169670D01*
X170451Y169702D01*
X168540Y171613D01*
X166877Y175627D01*
X166877Y179973D01*
X168540Y183987D01*
X171613Y187060D01*
X175627Y188723D01*
X179973Y188723D01*
X183987Y187060D01*
X187060Y183987D01*
X188723Y179973D01*
X188723Y175627D01*
X187060Y171613D01*
X185149Y169702D01*
X185107Y169644D01*
X185058Y169592D01*
X185036Y169545D01*
X185006Y169503D01*
X184985Y169434D01*
X184954Y169369D01*
X184949Y169317D01*
X184933Y169267D01*
X184935Y169196D01*
X184927Y169125D01*
X184938Y169074D01*
X184940Y169022D01*
X184964Y168954D01*
X184980Y168884D01*
X185006Y168839D01*
X185024Y168791D01*
X185069Y168735D01*
X185106Y168673D01*
X185145Y168639D01*
X185178Y168599D01*
X185238Y168560D01*
X185293Y168513D01*
X185341Y168494D01*
X185385Y168466D01*
X185454Y168448D01*
X185521Y168421D01*
X185592Y168413D01*
X185623Y168405D01*
X185647Y168407D01*
X185688Y168403D01*
X195312Y168403D01*
X195383Y168414D01*
X195455Y168416D01*
X195504Y168434D01*
X195555Y168442D01*
X195618Y168476D01*
X195686Y168501D01*
X195726Y168533D01*
X195773Y168558D01*
X195822Y168610D01*
X195878Y168654D01*
X195906Y168698D01*
X195942Y168736D01*
X195972Y168801D01*
X196011Y168861D01*
X196024Y168912D01*
X196046Y168959D01*
X196053Y169030D01*
X196071Y169100D01*
X196067Y169152D01*
X196073Y169203D01*
X196057Y169274D01*
X196052Y169345D01*
X196031Y169393D01*
X196020Y169444D01*
X195984Y169505D01*
X195955Y169571D01*
X195911Y169627D01*
X195894Y169655D01*
X195876Y169670D01*
X195851Y169702D01*
X193940Y171613D01*
X192277Y175627D01*
X192277Y179973D01*
X193940Y183987D01*
X197013Y187060D01*
X201027Y188723D01*
X205373Y188723D01*
X209387Y187060D01*
X212460Y183987D01*
X214123Y179973D01*
X214123Y177271D01*
X214134Y177200D01*
X214136Y177128D01*
X214154Y177079D01*
X214162Y177028D01*
X214196Y176965D01*
X214221Y176897D01*
X214253Y176857D01*
X214278Y176811D01*
X214329Y176761D01*
X214374Y176705D01*
X214418Y176677D01*
X214456Y176641D01*
X214521Y176611D01*
X214581Y176572D01*
X214632Y176560D01*
X214679Y176538D01*
X214750Y176530D01*
X214820Y176512D01*
X214872Y176516D01*
X214923Y176511D01*
X214994Y176526D01*
X215065Y176531D01*
X215113Y176552D01*
X215164Y176563D01*
X215225Y176600D01*
X215291Y176628D01*
X215347Y176672D01*
X215375Y176689D01*
X215390Y176707D01*
X215422Y176732D01*
X217454Y178765D01*
X217507Y178838D01*
X217567Y178908D01*
X217579Y178938D01*
X217598Y178964D01*
X217625Y179051D01*
X217659Y179136D01*
X217663Y179177D01*
X217670Y179199D01*
X217669Y179232D01*
X217677Y179303D01*
X217677Y179973D01*
X219340Y183987D01*
X222413Y187060D01*
X226427Y188723D01*
X230773Y188723D01*
X234787Y187060D01*
X237860Y183987D01*
X239523Y179973D01*
X239523Y177271D01*
X239534Y177200D01*
X239536Y177128D01*
X239554Y177079D01*
X239562Y177028D01*
X239596Y176965D01*
X239621Y176897D01*
X239653Y176857D01*
X239678Y176811D01*
X239730Y176761D01*
X239774Y176705D01*
X239818Y176677D01*
X239856Y176641D01*
X239921Y176611D01*
X239981Y176572D01*
X240032Y176560D01*
X240079Y176538D01*
X240150Y176530D01*
X240220Y176512D01*
X240272Y176516D01*
X240323Y176511D01*
X240394Y176526D01*
X240465Y176531D01*
X240513Y176552D01*
X240564Y176563D01*
X240625Y176600D01*
X240691Y176628D01*
X240747Y176672D01*
X240775Y176689D01*
X240790Y176707D01*
X240822Y176732D01*
X242854Y178765D01*
X242907Y178839D01*
X242967Y178908D01*
X242979Y178938D01*
X242998Y178964D01*
X243025Y179051D01*
X243059Y179136D01*
X243063Y179177D01*
X243070Y179199D01*
X243069Y179232D01*
X243077Y179303D01*
X243077Y179973D01*
X244740Y183987D01*
X247813Y187060D01*
X251827Y188723D01*
X256173Y188723D01*
X260187Y187060D01*
X263260Y183987D01*
X264923Y179973D01*
X264923Y175627D01*
X263260Y171613D01*
X260187Y168540D01*
X256173Y166877D01*
X251827Y166877D01*
X247813Y168540D01*
X245790Y170563D01*
X245773Y170575D01*
X245761Y170591D01*
X245694Y170633D01*
X245655Y170667D01*
X245634Y170675D01*
X245590Y170707D01*
X245571Y170713D01*
X245554Y170724D01*
X245454Y170749D01*
X245444Y170752D01*
X245427Y170759D01*
X245419Y170759D01*
X245355Y170779D01*
X245335Y170779D01*
X245316Y170784D01*
X245213Y170776D01*
X245109Y170773D01*
X245090Y170766D01*
X245070Y170764D01*
X245011Y170739D01*
X244999Y170737D01*
X244972Y170723D01*
X244878Y170688D01*
X244862Y170676D01*
X244844Y170668D01*
X244796Y170629D01*
X244782Y170622D01*
X244767Y170607D01*
X244713Y170563D01*
X237745Y163596D01*
X235426Y161276D01*
X235416Y161276D01*
X235367Y161258D01*
X235316Y161250D01*
X235253Y161216D01*
X235185Y161191D01*
X235145Y161159D01*
X235099Y161134D01*
X235049Y161082D01*
X234993Y161038D01*
X234965Y160994D01*
X234929Y160956D01*
X234899Y160891D01*
X234860Y160831D01*
X234848Y160780D01*
X234826Y160733D01*
X234818Y160662D01*
X234800Y160592D01*
X234804Y160540D01*
X234799Y160489D01*
X234814Y160418D01*
X234819Y160347D01*
X234840Y160299D01*
X234851Y160248D01*
X234888Y160187D01*
X234916Y160121D01*
X234960Y160065D01*
X234977Y160037D01*
X234995Y160022D01*
X235020Y159990D01*
X238507Y156504D01*
X238507Y148296D01*
X232704Y142493D01*
X224496Y142493D01*
X218693Y148296D01*
X218693Y156504D01*
X222180Y159990D01*
X222221Y160048D01*
X222271Y160100D01*
X222293Y160147D01*
X222323Y160189D01*
X222344Y160258D01*
X222374Y160323D01*
X222380Y160375D01*
X222395Y160425D01*
X222394Y160496D01*
X222401Y160567D01*
X222390Y160618D01*
X222389Y160670D01*
X222364Y160738D01*
X222349Y160808D01*
X222322Y160853D01*
X222305Y160901D01*
X222260Y160957D01*
X222223Y161019D01*
X222183Y161053D01*
X222151Y161093D01*
X222091Y161132D01*
X222036Y161179D01*
X221988Y161198D01*
X221944Y161226D01*
X221875Y161244D01*
X221808Y161271D01*
X221737Y161279D01*
X221705Y161287D01*
X221682Y161285D01*
X221641Y161289D01*
X218257Y161289D01*
X218167Y161275D01*
X218076Y161267D01*
X218046Y161255D01*
X218014Y161250D01*
X217934Y161207D01*
X217850Y161171D01*
X217818Y161145D01*
X217797Y161134D01*
X217775Y161111D01*
X217719Y161066D01*
X212354Y155701D01*
X186447Y155701D01*
X186356Y155687D01*
X186266Y155679D01*
X186236Y155667D01*
X186204Y155662D01*
X186123Y155619D01*
X186039Y155583D01*
X186007Y155557D01*
X185986Y155546D01*
X185964Y155523D01*
X185908Y155478D01*
X114930Y84500D01*
X114918Y84483D01*
X114902Y84471D01*
X114846Y84384D01*
X114786Y84300D01*
X114780Y84281D01*
X114769Y84264D01*
X114744Y84164D01*
X114714Y84065D01*
X114714Y84045D01*
X114709Y84026D01*
X114717Y83923D01*
X114720Y83819D01*
X114727Y83800D01*
X114728Y83780D01*
X114769Y83685D01*
X114804Y83588D01*
X114817Y83572D01*
X114825Y83554D01*
X114930Y83423D01*
X116973Y81380D01*
X118365Y78019D01*
X118365Y74381D01*
X116973Y71020D01*
X114400Y68447D01*
X111039Y67055D01*
X92161Y67055D01*
G37*
%LPD*%
%LPC*%
G36*
X404227Y14477D02*
X404227Y14477D01*
X400213Y16140D01*
X397140Y19213D01*
X395477Y23227D01*
X395477Y27573D01*
X396372Y29733D01*
X396399Y29847D01*
X396427Y29960D01*
X396427Y29967D01*
X396428Y29973D01*
X396417Y30089D01*
X396408Y30206D01*
X396406Y30211D01*
X396405Y30218D01*
X396357Y30325D01*
X396312Y30432D01*
X396307Y30438D01*
X396305Y30442D01*
X396293Y30456D01*
X396207Y30563D01*
X386028Y40742D01*
X386012Y40753D01*
X386000Y40769D01*
X385912Y40825D01*
X385829Y40885D01*
X385810Y40891D01*
X385793Y40902D01*
X385692Y40927D01*
X385594Y40958D01*
X385574Y40957D01*
X385554Y40962D01*
X385451Y40954D01*
X385348Y40951D01*
X385329Y40944D01*
X385309Y40943D01*
X385214Y40902D01*
X385189Y40893D01*
X376896Y40893D01*
X371093Y46696D01*
X371093Y54904D01*
X376896Y60707D01*
X385104Y60707D01*
X390907Y54904D01*
X390907Y46626D01*
X390898Y46613D01*
X390873Y46512D01*
X390843Y46414D01*
X390843Y46394D01*
X390838Y46374D01*
X390846Y46271D01*
X390849Y46168D01*
X390856Y46149D01*
X390857Y46129D01*
X390898Y46034D01*
X390933Y45937D01*
X390946Y45921D01*
X390954Y45903D01*
X391058Y45772D01*
X401237Y35593D01*
X401332Y35524D01*
X401426Y35455D01*
X401432Y35453D01*
X401437Y35449D01*
X401549Y35415D01*
X401660Y35379D01*
X401666Y35379D01*
X401672Y35377D01*
X401789Y35380D01*
X401906Y35381D01*
X401913Y35383D01*
X401918Y35383D01*
X401935Y35390D01*
X402067Y35428D01*
X404227Y36323D01*
X408573Y36323D01*
X410733Y35428D01*
X410847Y35401D01*
X410960Y35373D01*
X410967Y35373D01*
X410973Y35372D01*
X411089Y35383D01*
X411206Y35392D01*
X411211Y35394D01*
X411218Y35395D01*
X411325Y35443D01*
X411432Y35488D01*
X411438Y35493D01*
X411442Y35495D01*
X411456Y35507D01*
X411563Y35593D01*
X428020Y52050D01*
X428073Y52124D01*
X428133Y52194D01*
X428145Y52224D01*
X428164Y52250D01*
X428191Y52337D01*
X428225Y52422D01*
X428229Y52463D01*
X428236Y52485D01*
X428235Y52517D01*
X428243Y52589D01*
X428243Y166942D01*
X428224Y167057D01*
X428207Y167173D01*
X428205Y167178D01*
X428204Y167185D01*
X428149Y167287D01*
X428096Y167392D01*
X428091Y167397D01*
X428088Y167402D01*
X428004Y167482D01*
X427920Y167564D01*
X427914Y167568D01*
X427910Y167571D01*
X427893Y167579D01*
X427773Y167645D01*
X425613Y168540D01*
X422540Y171613D01*
X420877Y175627D01*
X420877Y179973D01*
X422540Y183987D01*
X425613Y187060D01*
X429627Y188723D01*
X433973Y188723D01*
X437987Y187060D01*
X441060Y183987D01*
X442723Y179973D01*
X442723Y175627D01*
X441060Y171613D01*
X437987Y168540D01*
X435827Y167645D01*
X435727Y167584D01*
X435627Y167524D01*
X435623Y167519D01*
X435618Y167516D01*
X435543Y167426D01*
X435467Y167337D01*
X435465Y167331D01*
X435461Y167326D01*
X435419Y167218D01*
X435375Y167109D01*
X435374Y167101D01*
X435373Y167097D01*
X435372Y167078D01*
X435357Y166942D01*
X435357Y49327D01*
X416593Y30563D01*
X416525Y30468D01*
X416455Y30374D01*
X416453Y30368D01*
X416449Y30363D01*
X416415Y30252D01*
X416379Y30140D01*
X416379Y30134D01*
X416377Y30128D01*
X416380Y30011D01*
X416381Y29894D01*
X416383Y29887D01*
X416383Y29882D01*
X416390Y29865D01*
X416428Y29733D01*
X417323Y27573D01*
X417323Y23227D01*
X415660Y19213D01*
X412587Y16140D01*
X408573Y14477D01*
X404227Y14477D01*
G37*
%LPD*%
%LPC*%
G36*
X168361Y115315D02*
X168361Y115315D01*
X165000Y116707D01*
X162427Y119280D01*
X161035Y122641D01*
X161035Y126279D01*
X162427Y129640D01*
X165000Y132213D01*
X168361Y133605D01*
X187239Y133605D01*
X190600Y132213D01*
X193173Y129640D01*
X194565Y126279D01*
X194565Y122641D01*
X193173Y119280D01*
X190600Y116707D01*
X187239Y115315D01*
X168361Y115315D01*
G37*
%LPD*%
%LPC*%
G36*
X41361Y115315D02*
X41361Y115315D01*
X38000Y116707D01*
X35427Y119280D01*
X34035Y122641D01*
X34035Y126279D01*
X35427Y129640D01*
X38000Y132213D01*
X41361Y133605D01*
X60239Y133605D01*
X63600Y132213D01*
X66173Y129640D01*
X67565Y126279D01*
X67565Y122641D01*
X66173Y119280D01*
X63600Y116707D01*
X60239Y115315D01*
X41361Y115315D01*
G37*
%LPD*%
%LPC*%
G36*
X41361Y41655D02*
X41361Y41655D01*
X38000Y43047D01*
X35427Y45620D01*
X34035Y48981D01*
X34035Y52619D01*
X35427Y55980D01*
X38000Y58553D01*
X41361Y59945D01*
X60239Y59945D01*
X63600Y58553D01*
X66173Y55980D01*
X67565Y52619D01*
X67565Y48981D01*
X66173Y45620D01*
X63600Y43047D01*
X60239Y41655D01*
X41361Y41655D01*
G37*
%LPD*%
%LPC*%
G36*
X429627Y14477D02*
X429627Y14477D01*
X425613Y16140D01*
X422540Y19213D01*
X420877Y23227D01*
X420877Y27573D01*
X422540Y31587D01*
X425613Y34660D01*
X429627Y36323D01*
X433973Y36323D01*
X437987Y34660D01*
X441060Y31587D01*
X442723Y27573D01*
X442723Y23227D01*
X441060Y19213D01*
X437987Y16140D01*
X433973Y14477D01*
X429627Y14477D01*
G37*
%LPD*%
%LPC*%
G36*
X455027Y166877D02*
X455027Y166877D01*
X451013Y168540D01*
X447940Y171613D01*
X446277Y175627D01*
X446277Y179973D01*
X447940Y183987D01*
X451013Y187060D01*
X455027Y188723D01*
X459373Y188723D01*
X463387Y187060D01*
X466460Y183987D01*
X468123Y179973D01*
X468123Y175627D01*
X466460Y171613D01*
X463387Y168540D01*
X459373Y166877D01*
X455027Y166877D01*
G37*
%LPD*%
%LPC*%
G36*
X404227Y166877D02*
X404227Y166877D01*
X400213Y168540D01*
X397140Y171613D01*
X395477Y175627D01*
X395477Y179973D01*
X397140Y183987D01*
X400213Y187060D01*
X404227Y188723D01*
X408573Y188723D01*
X412587Y187060D01*
X415660Y183987D01*
X417323Y179973D01*
X417323Y175627D01*
X415660Y171613D01*
X412587Y168540D01*
X408573Y166877D01*
X404227Y166877D01*
G37*
%LPD*%
%LPC*%
G36*
X277227Y166877D02*
X277227Y166877D01*
X273213Y168540D01*
X270140Y171613D01*
X268477Y175627D01*
X268477Y179973D01*
X270140Y183987D01*
X273213Y187060D01*
X277227Y188723D01*
X281573Y188723D01*
X285587Y187060D01*
X288660Y183987D01*
X290323Y179973D01*
X290323Y175627D01*
X288660Y171613D01*
X285587Y168540D01*
X281573Y166877D01*
X277227Y166877D01*
G37*
%LPD*%
%LPC*%
G36*
X48627Y166877D02*
X48627Y166877D01*
X44613Y168540D01*
X41540Y171613D01*
X39877Y175627D01*
X39877Y179973D01*
X41540Y183987D01*
X44613Y187060D01*
X48627Y188723D01*
X52973Y188723D01*
X56987Y187060D01*
X60060Y183987D01*
X61723Y179973D01*
X61723Y175627D01*
X60060Y171613D01*
X56987Y168540D01*
X52973Y166877D01*
X48627Y166877D01*
G37*
%LPD*%
%LPC*%
G36*
X74027Y166877D02*
X74027Y166877D01*
X70013Y168540D01*
X66940Y171613D01*
X65277Y175627D01*
X65277Y179973D01*
X66940Y183987D01*
X70013Y187060D01*
X74027Y188723D01*
X78373Y188723D01*
X82387Y187060D01*
X85460Y183987D01*
X87123Y179973D01*
X87123Y175627D01*
X85460Y171613D01*
X82387Y168540D01*
X78373Y166877D01*
X74027Y166877D01*
G37*
%LPD*%
%LPC*%
G36*
X328027Y166877D02*
X328027Y166877D01*
X324013Y168540D01*
X320940Y171613D01*
X319277Y175627D01*
X319277Y179973D01*
X320940Y183987D01*
X324013Y187060D01*
X328027Y188723D01*
X332373Y188723D01*
X336387Y187060D01*
X339460Y183987D01*
X341123Y179973D01*
X341123Y175627D01*
X339460Y171613D01*
X336387Y168540D01*
X332373Y166877D01*
X328027Y166877D01*
G37*
%LPD*%
%LPC*%
G36*
X99427Y166877D02*
X99427Y166877D01*
X95413Y168540D01*
X92340Y171613D01*
X90677Y175627D01*
X90677Y179973D01*
X92340Y183987D01*
X95413Y187060D01*
X99427Y188723D01*
X103773Y188723D01*
X107787Y187060D01*
X110860Y183987D01*
X112523Y179973D01*
X112523Y175627D01*
X110860Y171613D01*
X107787Y168540D01*
X103773Y166877D01*
X99427Y166877D01*
G37*
%LPD*%
%LPC*%
G36*
X302627Y166877D02*
X302627Y166877D01*
X298613Y168540D01*
X295540Y171613D01*
X293877Y175627D01*
X293877Y179973D01*
X295540Y183987D01*
X298613Y187060D01*
X302627Y188723D01*
X306973Y188723D01*
X310987Y187060D01*
X314060Y183987D01*
X315723Y179973D01*
X315723Y175627D01*
X314060Y171613D01*
X310987Y168540D01*
X306973Y166877D01*
X302627Y166877D01*
G37*
%LPD*%
%LPC*%
G36*
X74027Y14477D02*
X74027Y14477D01*
X70013Y16140D01*
X66940Y19213D01*
X65277Y23227D01*
X65277Y27573D01*
X66940Y31587D01*
X70013Y34660D01*
X74027Y36323D01*
X78373Y36323D01*
X82387Y34660D01*
X85460Y31587D01*
X87123Y27573D01*
X87123Y23227D01*
X85460Y19213D01*
X82387Y16140D01*
X78373Y14477D01*
X74027Y14477D01*
G37*
%LPD*%
%LPC*%
G36*
X99427Y14477D02*
X99427Y14477D01*
X95413Y16140D01*
X92340Y19213D01*
X90677Y23227D01*
X90677Y27573D01*
X92340Y31587D01*
X95413Y34660D01*
X99427Y36323D01*
X103773Y36323D01*
X107787Y34660D01*
X110860Y31587D01*
X112523Y27573D01*
X112523Y23227D01*
X110860Y19213D01*
X107787Y16140D01*
X103773Y14477D01*
X99427Y14477D01*
G37*
%LPD*%
%LPC*%
G36*
X124827Y14477D02*
X124827Y14477D01*
X120813Y16140D01*
X117740Y19213D01*
X116077Y23227D01*
X116077Y27573D01*
X117740Y31587D01*
X120813Y34660D01*
X124827Y36323D01*
X129173Y36323D01*
X133187Y34660D01*
X136260Y31587D01*
X137923Y27573D01*
X137923Y23227D01*
X136260Y19213D01*
X133187Y16140D01*
X129173Y14477D01*
X124827Y14477D01*
G37*
%LPD*%
%LPC*%
G36*
X226427Y65277D02*
X226427Y65277D01*
X222413Y66940D01*
X219340Y70013D01*
X217677Y74027D01*
X217677Y78373D01*
X219340Y82387D01*
X222413Y85460D01*
X226427Y87123D01*
X230773Y87123D01*
X234787Y85460D01*
X237860Y82387D01*
X239523Y78373D01*
X239523Y74027D01*
X237860Y70013D01*
X234787Y66940D01*
X230773Y65277D01*
X226427Y65277D01*
G37*
%LPD*%
%LPC*%
G36*
X175627Y14477D02*
X175627Y14477D01*
X171613Y16140D01*
X168540Y19213D01*
X166877Y23227D01*
X166877Y27573D01*
X168540Y31587D01*
X171613Y34660D01*
X175627Y36323D01*
X179973Y36323D01*
X183987Y34660D01*
X187060Y31587D01*
X188723Y27573D01*
X188723Y23227D01*
X187060Y19213D01*
X183987Y16140D01*
X179973Y14477D01*
X175627Y14477D01*
G37*
%LPD*%
%LPC*%
G36*
X226427Y116077D02*
X226427Y116077D01*
X222413Y117740D01*
X219340Y120813D01*
X217677Y124827D01*
X217677Y129173D01*
X219340Y133187D01*
X222413Y136260D01*
X226427Y137923D01*
X230773Y137923D01*
X234787Y136260D01*
X237860Y133187D01*
X239523Y129173D01*
X239523Y124827D01*
X237860Y120813D01*
X234787Y117740D01*
X230773Y116077D01*
X226427Y116077D01*
G37*
%LPD*%
%LPC*%
G36*
X378827Y14477D02*
X378827Y14477D01*
X374813Y16140D01*
X371740Y19213D01*
X370077Y23227D01*
X370077Y27573D01*
X371740Y31587D01*
X374813Y34660D01*
X378827Y36323D01*
X383173Y36323D01*
X387187Y34660D01*
X390260Y31587D01*
X391923Y27573D01*
X391923Y23227D01*
X390260Y19213D01*
X387187Y16140D01*
X383173Y14477D01*
X378827Y14477D01*
G37*
%LPD*%
%LPC*%
G36*
X201027Y14477D02*
X201027Y14477D01*
X197013Y16140D01*
X193940Y19213D01*
X192277Y23227D01*
X192277Y27573D01*
X193940Y31587D01*
X197013Y34660D01*
X201027Y36323D01*
X205373Y36323D01*
X209387Y34660D01*
X212460Y31587D01*
X214123Y27573D01*
X214123Y23227D01*
X212460Y19213D01*
X209387Y16140D01*
X205373Y14477D01*
X201027Y14477D01*
G37*
%LPD*%
%LPC*%
G36*
X150227Y14477D02*
X150227Y14477D01*
X146213Y16140D01*
X143140Y19213D01*
X141477Y23227D01*
X141477Y27573D01*
X143140Y31587D01*
X146213Y34660D01*
X150227Y36323D01*
X154573Y36323D01*
X158587Y34660D01*
X161660Y31587D01*
X163323Y27573D01*
X163323Y23227D01*
X161660Y19213D01*
X158587Y16140D01*
X154573Y14477D01*
X150227Y14477D01*
G37*
%LPD*%
%LPC*%
G36*
X453096Y40893D02*
X453096Y40893D01*
X447293Y46696D01*
X447293Y54904D01*
X453096Y60707D01*
X461304Y60707D01*
X467107Y54904D01*
X467107Y46696D01*
X461304Y40893D01*
X453096Y40893D01*
G37*
%LPD*%
%LPC*%
G36*
X453096Y142493D02*
X453096Y142493D01*
X447293Y148296D01*
X447293Y156504D01*
X453096Y162307D01*
X461304Y162307D01*
X467107Y156504D01*
X467107Y148296D01*
X461304Y142493D01*
X453096Y142493D01*
G37*
%LPD*%
%LPC*%
G36*
X376896Y142493D02*
X376896Y142493D01*
X371093Y148296D01*
X371093Y156504D01*
X376896Y162307D01*
X385104Y162307D01*
X390907Y156504D01*
X390907Y148296D01*
X385104Y142493D01*
X376896Y142493D01*
G37*
%LPD*%
%LPC*%
G36*
X300696Y142493D02*
X300696Y142493D01*
X294893Y148296D01*
X294893Y156504D01*
X300696Y162307D01*
X308904Y162307D01*
X314707Y156504D01*
X314707Y148296D01*
X308904Y142493D01*
X300696Y142493D01*
G37*
%LPD*%
%LPC*%
G36*
X458723Y26923D02*
X458723Y26923D01*
X458723Y37246D01*
X459996Y37045D01*
X461783Y36464D01*
X463457Y35611D01*
X464978Y34506D01*
X466306Y33178D01*
X467411Y31657D01*
X468264Y29983D01*
X468845Y28196D01*
X469046Y26923D01*
X458723Y26923D01*
G37*
%LPD*%
%LPC*%
G36*
X255523Y77723D02*
X255523Y77723D01*
X255523Y88046D01*
X256796Y87845D01*
X258583Y87264D01*
X260257Y86411D01*
X261778Y85306D01*
X263106Y83978D01*
X264211Y82457D01*
X265064Y80783D01*
X265645Y78996D01*
X265846Y77723D01*
X255523Y77723D01*
G37*
%LPD*%
%LPC*%
G36*
X52323Y26923D02*
X52323Y26923D01*
X52323Y37246D01*
X53596Y37045D01*
X55383Y36464D01*
X57057Y35611D01*
X58578Y34506D01*
X59906Y33178D01*
X61011Y31657D01*
X61864Y29983D01*
X62445Y28196D01*
X62646Y26923D01*
X52323Y26923D01*
G37*
%LPD*%
%LPC*%
G36*
X382523Y179323D02*
X382523Y179323D01*
X382523Y189646D01*
X383796Y189445D01*
X385583Y188864D01*
X387257Y188011D01*
X388778Y186906D01*
X390106Y185578D01*
X391211Y184057D01*
X392064Y182383D01*
X392645Y180596D01*
X392846Y179323D01*
X382523Y179323D01*
G37*
%LPD*%
%LPC*%
G36*
X255523Y128523D02*
X255523Y128523D01*
X255523Y138846D01*
X256796Y138645D01*
X258583Y138064D01*
X260257Y137211D01*
X261778Y136106D01*
X263106Y134778D01*
X264211Y133257D01*
X265064Y131583D01*
X265645Y129796D01*
X265846Y128523D01*
X255523Y128523D01*
G37*
%LPD*%
%LPC*%
G36*
X369823Y103123D02*
X369823Y103123D01*
X369823Y113446D01*
X371096Y113245D01*
X372883Y112664D01*
X374557Y111811D01*
X376078Y110706D01*
X377406Y109378D01*
X378511Y107857D01*
X379364Y106183D01*
X379945Y104396D01*
X380146Y103123D01*
X369823Y103123D01*
G37*
%LPD*%
%LPC*%
G36*
X255523Y74677D02*
X255523Y74677D01*
X265846Y74677D01*
X265645Y73404D01*
X265064Y71617D01*
X264211Y69943D01*
X263106Y68422D01*
X261778Y67094D01*
X260257Y65989D01*
X258583Y65136D01*
X256796Y64555D01*
X255523Y64354D01*
X255523Y74677D01*
G37*
%LPD*%
%LPC*%
G36*
X255523Y125477D02*
X255523Y125477D01*
X265846Y125477D01*
X265645Y124204D01*
X265064Y122417D01*
X264211Y120743D01*
X263106Y119222D01*
X261778Y117894D01*
X260257Y116789D01*
X258583Y115936D01*
X256796Y115355D01*
X255523Y115154D01*
X255523Y125477D01*
G37*
%LPD*%
%LPC*%
G36*
X445354Y26923D02*
X445354Y26923D01*
X445555Y28196D01*
X446136Y29983D01*
X446989Y31657D01*
X448094Y33178D01*
X449422Y34506D01*
X450943Y35611D01*
X452617Y36464D01*
X454404Y37045D01*
X455677Y37246D01*
X455677Y26923D01*
X445354Y26923D01*
G37*
%LPD*%
%LPC*%
G36*
X38954Y26923D02*
X38954Y26923D01*
X39155Y28196D01*
X39736Y29983D01*
X40589Y31657D01*
X41694Y33178D01*
X43022Y34506D01*
X44543Y35611D01*
X46217Y36464D01*
X48004Y37045D01*
X49277Y37246D01*
X49277Y26923D01*
X38954Y26923D01*
G37*
%LPD*%
%LPC*%
G36*
X242154Y128523D02*
X242154Y128523D01*
X242355Y129796D01*
X242936Y131583D01*
X243789Y133257D01*
X244894Y134778D01*
X246222Y136106D01*
X247743Y137211D01*
X249417Y138064D01*
X251204Y138645D01*
X252477Y138846D01*
X252477Y128523D01*
X242154Y128523D01*
G37*
%LPD*%
%LPC*%
G36*
X382523Y176277D02*
X382523Y176277D01*
X392846Y176277D01*
X392645Y175004D01*
X392064Y173217D01*
X391211Y171543D01*
X390106Y170022D01*
X388778Y168694D01*
X387257Y167589D01*
X385583Y166736D01*
X383796Y166155D01*
X382523Y165954D01*
X382523Y176277D01*
G37*
%LPD*%
%LPC*%
G36*
X369154Y179323D02*
X369154Y179323D01*
X369355Y180596D01*
X369936Y182383D01*
X370789Y184057D01*
X371894Y185578D01*
X373222Y186906D01*
X374743Y188011D01*
X376417Y188864D01*
X378204Y189445D01*
X379477Y189646D01*
X379477Y179323D01*
X369154Y179323D01*
G37*
%LPD*%
%LPC*%
G36*
X369823Y100077D02*
X369823Y100077D01*
X380146Y100077D01*
X379945Y98804D01*
X379364Y97017D01*
X378511Y95343D01*
X377406Y93822D01*
X376078Y92494D01*
X374557Y91389D01*
X372883Y90536D01*
X371096Y89955D01*
X369823Y89754D01*
X369823Y100077D01*
G37*
%LPD*%
%LPC*%
G36*
X242154Y77723D02*
X242154Y77723D01*
X242355Y78996D01*
X242936Y80783D01*
X243789Y82457D01*
X244894Y83978D01*
X246222Y85306D01*
X247743Y86411D01*
X249417Y87264D01*
X251204Y87845D01*
X252477Y88046D01*
X252477Y77723D01*
X242154Y77723D01*
G37*
%LPD*%
%LPC*%
G36*
X356454Y103123D02*
X356454Y103123D01*
X356655Y104396D01*
X357236Y106183D01*
X358089Y107857D01*
X359194Y109378D01*
X360522Y110706D01*
X362043Y111811D01*
X363717Y112664D01*
X365504Y113245D01*
X366777Y113446D01*
X366777Y103123D01*
X356454Y103123D01*
G37*
%LPD*%
%LPC*%
G36*
X458723Y23877D02*
X458723Y23877D01*
X469046Y23877D01*
X468845Y22604D01*
X468264Y20817D01*
X467411Y19143D01*
X466306Y17622D01*
X464978Y16294D01*
X463457Y15189D01*
X461783Y14336D01*
X459996Y13755D01*
X458723Y13554D01*
X458723Y23877D01*
G37*
%LPD*%
%LPC*%
G36*
X52323Y23877D02*
X52323Y23877D01*
X62646Y23877D01*
X62445Y22604D01*
X61864Y20817D01*
X61011Y19143D01*
X59906Y17622D01*
X58578Y16294D01*
X57057Y15189D01*
X55383Y14336D01*
X53596Y13755D01*
X52323Y13554D01*
X52323Y23877D01*
G37*
%LPD*%
%LPC*%
G36*
X251204Y115355D02*
X251204Y115355D01*
X249417Y115936D01*
X247743Y116789D01*
X246222Y117894D01*
X244894Y119222D01*
X243789Y120743D01*
X242936Y122417D01*
X242355Y124204D01*
X242154Y125477D01*
X252477Y125477D01*
X252477Y115154D01*
X251204Y115355D01*
G37*
%LPD*%
%LPC*%
G36*
X251204Y64555D02*
X251204Y64555D01*
X249417Y65136D01*
X247743Y65989D01*
X246222Y67094D01*
X244894Y68422D01*
X243789Y69943D01*
X242936Y71617D01*
X242355Y73404D01*
X242154Y74677D01*
X252477Y74677D01*
X252477Y64354D01*
X251204Y64555D01*
G37*
%LPD*%
%LPC*%
G36*
X365504Y89955D02*
X365504Y89955D01*
X363717Y90536D01*
X362043Y91389D01*
X360522Y92494D01*
X359194Y93822D01*
X358089Y95343D01*
X357236Y97017D01*
X356655Y98804D01*
X356454Y100077D01*
X366777Y100077D01*
X366777Y89754D01*
X365504Y89955D01*
G37*
%LPD*%
%LPC*%
G36*
X378204Y166155D02*
X378204Y166155D01*
X376417Y166736D01*
X374743Y167589D01*
X373222Y168694D01*
X371894Y170022D01*
X370789Y171543D01*
X369936Y173217D01*
X369355Y175004D01*
X369154Y176277D01*
X379477Y176277D01*
X379477Y165954D01*
X378204Y166155D01*
G37*
%LPD*%
%LPC*%
G36*
X454404Y13755D02*
X454404Y13755D01*
X452617Y14336D01*
X450943Y15189D01*
X449422Y16294D01*
X448094Y17622D01*
X446989Y19143D01*
X446136Y20817D01*
X445555Y22604D01*
X445354Y23877D01*
X455677Y23877D01*
X455677Y13554D01*
X454404Y13755D01*
G37*
%LPD*%
%LPC*%
G36*
X48004Y13755D02*
X48004Y13755D01*
X46217Y14336D01*
X44543Y15189D01*
X43022Y16294D01*
X41694Y17622D01*
X40589Y19143D01*
X39736Y20817D01*
X39155Y22604D01*
X38954Y23877D01*
X49277Y23877D01*
X49277Y13554D01*
X48004Y13755D01*
G37*
%LPD*%
%LPC*%
G36*
X253999Y76199D02*
X253999Y76199D01*
X253999Y76201D01*
X254001Y76201D01*
X254001Y76199D01*
X253999Y76199D01*
G37*
%LPD*%
%LPC*%
G36*
X253999Y126999D02*
X253999Y126999D01*
X253999Y127001D01*
X254001Y127001D01*
X254001Y126999D01*
X253999Y126999D01*
G37*
%LPD*%
%LPC*%
G36*
X380999Y177799D02*
X380999Y177799D01*
X380999Y177801D01*
X381001Y177801D01*
X381001Y177799D01*
X380999Y177799D01*
G37*
%LPD*%
%LPC*%
G36*
X368299Y101599D02*
X368299Y101599D01*
X368299Y101601D01*
X368301Y101601D01*
X368301Y101599D01*
X368299Y101599D01*
G37*
%LPD*%
%LPC*%
G36*
X457199Y25399D02*
X457199Y25399D01*
X457199Y25401D01*
X457201Y25401D01*
X457201Y25399D01*
X457199Y25399D01*
G37*
%LPD*%
%LPC*%
G36*
X50799Y25399D02*
X50799Y25399D01*
X50799Y25401D01*
X50801Y25401D01*
X50801Y25399D01*
X50799Y25399D01*
G37*
%LPD*%
D10*
X368300Y76200D03*
D11*
X368300Y101600D03*
X368300Y127000D03*
D12*
X228600Y50800D03*
X304800Y50800D03*
X228600Y152400D03*
X304800Y152400D03*
D13*
X185420Y50800D02*
X170180Y50800D01*
X58420Y50800D02*
X43180Y50800D01*
X93980Y76200D02*
X109220Y76200D01*
X170180Y124460D02*
X185420Y124460D01*
X58420Y124460D02*
X43180Y124460D01*
X93980Y149860D02*
X109220Y149860D01*
D11*
X50800Y25400D03*
X76200Y25400D03*
X101600Y25400D03*
X127000Y25400D03*
X152400Y25400D03*
X177800Y25400D03*
X203200Y25400D03*
X228600Y25400D03*
X254000Y25400D03*
X279400Y25400D03*
X304800Y25400D03*
X330200Y25400D03*
X50800Y177800D03*
X76200Y177800D03*
X101600Y177800D03*
X127000Y177800D03*
X152400Y177800D03*
X177800Y177800D03*
X203200Y177800D03*
X228600Y177800D03*
X254000Y177800D03*
X279400Y177800D03*
X304800Y177800D03*
X330200Y177800D03*
X228600Y76200D03*
X254000Y76200D03*
X228600Y127000D03*
X254000Y127000D03*
X457200Y25400D03*
X431800Y25400D03*
X406400Y25400D03*
X381000Y25400D03*
X381000Y177800D03*
X406400Y177800D03*
X431800Y177800D03*
X457200Y177800D03*
D14*
X457200Y152400D03*
X381000Y152400D03*
D12*
X381000Y50800D03*
X457200Y50800D03*
D15*
X431800Y50800D02*
X431800Y177800D01*
X431800Y50800D02*
X406400Y25400D01*
X381000Y50800D01*
X368300Y127000D02*
X353060Y127000D01*
X254000Y27940D01*
X254000Y25400D01*
X211717Y50800D02*
X177800Y50800D01*
X237998Y38862D02*
X254000Y25400D01*
X223655Y38862D02*
X211717Y50800D01*
X223655Y38862D02*
X237998Y38862D01*
X348266Y12446D02*
X355854Y20034D01*
X355854Y63754D02*
X368300Y76200D01*
X355854Y63754D02*
X355854Y20034D01*
X286480Y25400D02*
X279400Y25400D01*
X299434Y12446D02*
X348266Y12446D01*
X299434Y12446D02*
X286480Y25400D01*
D16*
X289560Y50800D03*
D15*
X289560Y35560D02*
X279400Y25400D01*
X289560Y35560D02*
X289560Y50800D01*
X304800Y50800D02*
X304800Y25400D01*
X304800Y66040D02*
X306443Y66040D01*
X316738Y38862D02*
X330200Y25400D01*
X316738Y55745D02*
X306443Y66040D01*
X316738Y55745D02*
X316738Y38862D01*
D16*
X304800Y66040D03*
D15*
X184658Y159258D02*
X101600Y76200D01*
X184658Y159258D02*
X210880Y159258D01*
X246920Y177800D02*
X254000Y177800D01*
X216468Y164846D02*
X210880Y159258D01*
X233966Y164846D02*
X246920Y177800D01*
X233966Y164846D02*
X216468Y164846D01*
X221520Y177800D02*
X228600Y177800D01*
X116586Y164846D02*
X101600Y149860D01*
X208566Y164846D02*
X221520Y177800D01*
X208566Y164846D02*
X116586Y164846D01*
M02*
