G04 EAGLE Gerber RS-274X export*
G75*
%MOMM*%
%FSLAX34Y34*%
%LPD*%
%INSilkscreen Bottom*%
%IPPOS*%
%AMOC8*
5,1,8,0,0,1.08239X$1,22.5*%
G01*
%ADD10C,0.127000*%
%ADD11C,0.152400*%
%ADD12C,0.025400*%
%ADD13C,0.254000*%
%ADD14C,0.000000*%


D10*
X422839Y145421D02*
X422774Y145419D01*
X422710Y145413D01*
X422646Y145403D01*
X422582Y145390D01*
X422520Y145372D01*
X422459Y145351D01*
X422399Y145327D01*
X422341Y145298D01*
X422284Y145266D01*
X422230Y145231D01*
X422178Y145193D01*
X422128Y145151D01*
X422081Y145107D01*
X422037Y145060D01*
X421995Y145010D01*
X421957Y144958D01*
X421922Y144904D01*
X421890Y144847D01*
X421861Y144789D01*
X421837Y144729D01*
X421816Y144668D01*
X421798Y144606D01*
X421785Y144542D01*
X421775Y144478D01*
X421769Y144414D01*
X421767Y144349D01*
X421769Y144255D01*
X421775Y144161D01*
X421785Y144067D01*
X421798Y143974D01*
X421816Y143882D01*
X421837Y143790D01*
X421862Y143699D01*
X421891Y143609D01*
X421924Y143521D01*
X421960Y143434D01*
X422000Y143349D01*
X422043Y143265D01*
X422090Y143184D01*
X422140Y143104D01*
X422193Y143026D01*
X422250Y142951D01*
X422309Y142878D01*
X422372Y142808D01*
X422437Y142740D01*
X425521Y142875D02*
X425586Y142877D01*
X425650Y142883D01*
X425714Y142893D01*
X425778Y142906D01*
X425840Y142924D01*
X425901Y142945D01*
X425961Y142969D01*
X426019Y142998D01*
X426076Y143030D01*
X426130Y143065D01*
X426182Y143103D01*
X426232Y143145D01*
X426279Y143189D01*
X426323Y143236D01*
X426365Y143286D01*
X426403Y143338D01*
X426438Y143392D01*
X426470Y143449D01*
X426499Y143507D01*
X426523Y143567D01*
X426544Y143628D01*
X426562Y143690D01*
X426575Y143754D01*
X426585Y143818D01*
X426591Y143882D01*
X426593Y143947D01*
X426591Y144033D01*
X426586Y144119D01*
X426576Y144205D01*
X426563Y144290D01*
X426547Y144375D01*
X426527Y144459D01*
X426503Y144542D01*
X426476Y144624D01*
X426445Y144704D01*
X426411Y144784D01*
X426373Y144861D01*
X426332Y144937D01*
X426288Y145011D01*
X426241Y145083D01*
X426191Y145154D01*
X424583Y143410D02*
X424616Y143357D01*
X424653Y143306D01*
X424692Y143257D01*
X424734Y143210D01*
X424779Y143166D01*
X424826Y143125D01*
X424875Y143086D01*
X424927Y143050D01*
X424981Y143017D01*
X425036Y142988D01*
X425093Y142962D01*
X425152Y142939D01*
X425211Y142919D01*
X425272Y142903D01*
X425333Y142890D01*
X425396Y142881D01*
X425458Y142876D01*
X425521Y142874D01*
X423777Y144885D02*
X423744Y144938D01*
X423707Y144989D01*
X423668Y145038D01*
X423626Y145085D01*
X423581Y145129D01*
X423534Y145170D01*
X423485Y145209D01*
X423433Y145245D01*
X423379Y145278D01*
X423324Y145307D01*
X423267Y145333D01*
X423208Y145356D01*
X423149Y145376D01*
X423088Y145392D01*
X423027Y145405D01*
X422964Y145414D01*
X422902Y145419D01*
X422839Y145421D01*
X423778Y144885D02*
X424582Y143410D01*
X426593Y148227D02*
X421767Y148227D01*
X426593Y148227D02*
X426593Y149567D01*
X426591Y149637D01*
X426586Y149707D01*
X426576Y149777D01*
X426564Y149846D01*
X426547Y149914D01*
X426527Y149981D01*
X426504Y150048D01*
X426477Y150112D01*
X426447Y150176D01*
X426413Y150238D01*
X426377Y150297D01*
X426337Y150355D01*
X426294Y150411D01*
X426249Y150464D01*
X426200Y150515D01*
X426149Y150564D01*
X426096Y150609D01*
X426040Y150652D01*
X425982Y150692D01*
X425923Y150728D01*
X425861Y150762D01*
X425797Y150792D01*
X425733Y150819D01*
X425666Y150842D01*
X425599Y150862D01*
X425531Y150879D01*
X425462Y150891D01*
X425392Y150901D01*
X425322Y150906D01*
X425252Y150908D01*
X423108Y150908D01*
X423038Y150906D01*
X422968Y150901D01*
X422898Y150891D01*
X422829Y150879D01*
X422761Y150862D01*
X422694Y150842D01*
X422627Y150819D01*
X422563Y150792D01*
X422499Y150762D01*
X422438Y150728D01*
X422378Y150692D01*
X422320Y150652D01*
X422264Y150609D01*
X422211Y150564D01*
X422160Y150515D01*
X422111Y150464D01*
X422066Y150411D01*
X422023Y150355D01*
X421983Y150297D01*
X421947Y150238D01*
X421913Y150176D01*
X421883Y150112D01*
X421856Y150048D01*
X421833Y149981D01*
X421813Y149914D01*
X421796Y149846D01*
X421784Y149777D01*
X421774Y149707D01*
X421769Y149637D01*
X421767Y149567D01*
X421767Y148227D01*
X421767Y153628D02*
X426593Y155236D01*
X421767Y156845D01*
X422974Y156443D02*
X422974Y154030D01*
X410139Y51576D02*
X410074Y51574D01*
X410010Y51568D01*
X409946Y51558D01*
X409882Y51545D01*
X409820Y51527D01*
X409759Y51506D01*
X409699Y51482D01*
X409641Y51453D01*
X409584Y51421D01*
X409530Y51386D01*
X409478Y51348D01*
X409428Y51306D01*
X409381Y51262D01*
X409337Y51215D01*
X409295Y51165D01*
X409257Y51113D01*
X409222Y51059D01*
X409190Y51002D01*
X409161Y50944D01*
X409137Y50884D01*
X409116Y50823D01*
X409098Y50761D01*
X409085Y50697D01*
X409075Y50633D01*
X409069Y50569D01*
X409067Y50504D01*
X409069Y50410D01*
X409075Y50316D01*
X409085Y50222D01*
X409098Y50129D01*
X409116Y50037D01*
X409137Y49945D01*
X409162Y49854D01*
X409191Y49764D01*
X409224Y49676D01*
X409260Y49589D01*
X409300Y49504D01*
X409343Y49420D01*
X409390Y49339D01*
X409440Y49259D01*
X409493Y49181D01*
X409550Y49106D01*
X409609Y49033D01*
X409672Y48963D01*
X409737Y48895D01*
X412821Y49029D02*
X412886Y49031D01*
X412950Y49037D01*
X413014Y49047D01*
X413078Y49060D01*
X413140Y49078D01*
X413201Y49099D01*
X413261Y49123D01*
X413319Y49152D01*
X413376Y49184D01*
X413430Y49219D01*
X413482Y49257D01*
X413532Y49299D01*
X413579Y49343D01*
X413623Y49390D01*
X413665Y49440D01*
X413703Y49492D01*
X413738Y49546D01*
X413770Y49603D01*
X413799Y49661D01*
X413823Y49721D01*
X413844Y49782D01*
X413862Y49844D01*
X413875Y49908D01*
X413885Y49972D01*
X413891Y50036D01*
X413893Y50101D01*
X413891Y50187D01*
X413886Y50273D01*
X413876Y50359D01*
X413863Y50444D01*
X413847Y50529D01*
X413827Y50613D01*
X413803Y50696D01*
X413776Y50778D01*
X413745Y50858D01*
X413711Y50938D01*
X413673Y51015D01*
X413632Y51091D01*
X413588Y51165D01*
X413541Y51237D01*
X413491Y51308D01*
X411883Y49565D02*
X411916Y49512D01*
X411953Y49461D01*
X411992Y49412D01*
X412034Y49365D01*
X412079Y49321D01*
X412126Y49280D01*
X412175Y49241D01*
X412227Y49205D01*
X412281Y49172D01*
X412336Y49143D01*
X412393Y49117D01*
X412452Y49094D01*
X412511Y49074D01*
X412572Y49058D01*
X412633Y49045D01*
X412696Y49036D01*
X412758Y49031D01*
X412821Y49029D01*
X411077Y51040D02*
X411044Y51093D01*
X411007Y51144D01*
X410968Y51193D01*
X410926Y51240D01*
X410881Y51284D01*
X410834Y51325D01*
X410785Y51364D01*
X410733Y51400D01*
X410679Y51433D01*
X410624Y51462D01*
X410567Y51488D01*
X410508Y51511D01*
X410449Y51531D01*
X410388Y51547D01*
X410327Y51560D01*
X410264Y51569D01*
X410202Y51574D01*
X410139Y51576D01*
X411078Y51040D02*
X411882Y49565D01*
X413893Y54381D02*
X409067Y54381D01*
X413893Y54381D02*
X413893Y55722D01*
X413891Y55792D01*
X413886Y55862D01*
X413876Y55932D01*
X413864Y56001D01*
X413847Y56069D01*
X413827Y56136D01*
X413804Y56203D01*
X413777Y56267D01*
X413747Y56331D01*
X413713Y56393D01*
X413677Y56452D01*
X413637Y56510D01*
X413594Y56566D01*
X413549Y56619D01*
X413500Y56670D01*
X413449Y56719D01*
X413396Y56764D01*
X413340Y56807D01*
X413282Y56847D01*
X413223Y56883D01*
X413161Y56917D01*
X413097Y56947D01*
X413033Y56974D01*
X412966Y56997D01*
X412899Y57017D01*
X412831Y57034D01*
X412762Y57046D01*
X412692Y57056D01*
X412622Y57061D01*
X412552Y57063D01*
X412552Y57062D02*
X410408Y57062D01*
X410408Y57063D02*
X410338Y57061D01*
X410268Y57056D01*
X410198Y57046D01*
X410129Y57034D01*
X410061Y57017D01*
X409994Y56997D01*
X409927Y56974D01*
X409863Y56947D01*
X409799Y56917D01*
X409738Y56883D01*
X409678Y56847D01*
X409620Y56807D01*
X409564Y56764D01*
X409511Y56719D01*
X409460Y56670D01*
X409411Y56619D01*
X409366Y56566D01*
X409323Y56510D01*
X409283Y56452D01*
X409247Y56393D01*
X409213Y56331D01*
X409183Y56267D01*
X409156Y56203D01*
X409133Y56136D01*
X409113Y56069D01*
X409096Y56001D01*
X409084Y55932D01*
X409074Y55862D01*
X409069Y55792D01*
X409067Y55722D01*
X409067Y54381D01*
X409067Y59783D02*
X413893Y61391D01*
X409067Y63000D01*
X410274Y62598D02*
X410274Y60185D01*
X397439Y51576D02*
X397374Y51574D01*
X397310Y51568D01*
X397246Y51558D01*
X397182Y51545D01*
X397120Y51527D01*
X397059Y51506D01*
X396999Y51482D01*
X396941Y51453D01*
X396884Y51421D01*
X396830Y51386D01*
X396778Y51348D01*
X396728Y51306D01*
X396681Y51262D01*
X396637Y51215D01*
X396595Y51165D01*
X396557Y51113D01*
X396522Y51059D01*
X396490Y51002D01*
X396461Y50944D01*
X396437Y50884D01*
X396416Y50823D01*
X396398Y50761D01*
X396385Y50697D01*
X396375Y50633D01*
X396369Y50569D01*
X396367Y50504D01*
X396369Y50410D01*
X396375Y50316D01*
X396385Y50222D01*
X396398Y50129D01*
X396416Y50037D01*
X396437Y49945D01*
X396462Y49854D01*
X396491Y49764D01*
X396524Y49676D01*
X396560Y49589D01*
X396600Y49504D01*
X396643Y49420D01*
X396690Y49339D01*
X396740Y49259D01*
X396793Y49181D01*
X396850Y49106D01*
X396909Y49033D01*
X396972Y48963D01*
X397037Y48895D01*
X400121Y49029D02*
X400186Y49031D01*
X400250Y49037D01*
X400314Y49047D01*
X400378Y49060D01*
X400440Y49078D01*
X400501Y49099D01*
X400561Y49123D01*
X400619Y49152D01*
X400676Y49184D01*
X400730Y49219D01*
X400782Y49257D01*
X400832Y49299D01*
X400879Y49343D01*
X400923Y49390D01*
X400965Y49440D01*
X401003Y49492D01*
X401038Y49546D01*
X401070Y49603D01*
X401099Y49661D01*
X401123Y49721D01*
X401144Y49782D01*
X401162Y49844D01*
X401175Y49908D01*
X401185Y49972D01*
X401191Y50036D01*
X401193Y50101D01*
X401191Y50187D01*
X401186Y50273D01*
X401176Y50359D01*
X401163Y50444D01*
X401147Y50529D01*
X401127Y50613D01*
X401103Y50696D01*
X401076Y50778D01*
X401045Y50858D01*
X401011Y50938D01*
X400973Y51015D01*
X400932Y51091D01*
X400888Y51165D01*
X400841Y51237D01*
X400791Y51308D01*
X399183Y49565D02*
X399216Y49512D01*
X399253Y49461D01*
X399292Y49412D01*
X399334Y49365D01*
X399379Y49321D01*
X399426Y49280D01*
X399475Y49241D01*
X399527Y49205D01*
X399581Y49172D01*
X399636Y49143D01*
X399693Y49117D01*
X399752Y49094D01*
X399811Y49074D01*
X399872Y49058D01*
X399933Y49045D01*
X399996Y49036D01*
X400058Y49031D01*
X400121Y49029D01*
X398377Y51040D02*
X398344Y51093D01*
X398307Y51144D01*
X398268Y51193D01*
X398226Y51240D01*
X398181Y51284D01*
X398134Y51325D01*
X398085Y51364D01*
X398033Y51400D01*
X397979Y51433D01*
X397924Y51462D01*
X397867Y51488D01*
X397808Y51511D01*
X397749Y51531D01*
X397688Y51547D01*
X397627Y51560D01*
X397564Y51569D01*
X397502Y51574D01*
X397439Y51576D01*
X398378Y51040D02*
X399182Y49565D01*
X396367Y55242D02*
X396367Y56315D01*
X396367Y55242D02*
X396369Y55177D01*
X396375Y55113D01*
X396385Y55049D01*
X396398Y54985D01*
X396416Y54923D01*
X396437Y54862D01*
X396461Y54802D01*
X396490Y54744D01*
X396522Y54687D01*
X396557Y54633D01*
X396595Y54581D01*
X396637Y54531D01*
X396681Y54484D01*
X396728Y54440D01*
X396778Y54398D01*
X396830Y54360D01*
X396884Y54325D01*
X396941Y54293D01*
X396999Y54264D01*
X397059Y54240D01*
X397120Y54219D01*
X397182Y54201D01*
X397246Y54188D01*
X397310Y54178D01*
X397374Y54172D01*
X397439Y54170D01*
X400121Y54170D01*
X400186Y54172D01*
X400250Y54178D01*
X400314Y54188D01*
X400378Y54201D01*
X400440Y54219D01*
X400501Y54240D01*
X400561Y54264D01*
X400619Y54293D01*
X400676Y54325D01*
X400730Y54360D01*
X400782Y54398D01*
X400832Y54440D01*
X400879Y54484D01*
X400923Y54531D01*
X400965Y54581D01*
X401003Y54633D01*
X401038Y54687D01*
X401070Y54744D01*
X401099Y54802D01*
X401123Y54862D01*
X401144Y54923D01*
X401162Y54985D01*
X401175Y55049D01*
X401185Y55113D01*
X401191Y55177D01*
X401193Y55242D01*
X401193Y56315D01*
X401193Y58973D02*
X396367Y58973D01*
X396367Y61118D01*
X437007Y146231D02*
X437009Y146296D01*
X437015Y146360D01*
X437025Y146424D01*
X437038Y146488D01*
X437056Y146550D01*
X437077Y146611D01*
X437101Y146671D01*
X437130Y146729D01*
X437162Y146786D01*
X437197Y146840D01*
X437235Y146892D01*
X437277Y146942D01*
X437321Y146989D01*
X437368Y147033D01*
X437418Y147075D01*
X437470Y147113D01*
X437524Y147148D01*
X437581Y147180D01*
X437639Y147209D01*
X437699Y147233D01*
X437760Y147254D01*
X437822Y147272D01*
X437886Y147285D01*
X437950Y147295D01*
X438014Y147301D01*
X438079Y147303D01*
X437007Y146231D02*
X437009Y146137D01*
X437015Y146043D01*
X437025Y145949D01*
X437038Y145856D01*
X437056Y145764D01*
X437077Y145672D01*
X437102Y145581D01*
X437131Y145491D01*
X437164Y145403D01*
X437200Y145316D01*
X437240Y145231D01*
X437283Y145147D01*
X437330Y145066D01*
X437380Y144986D01*
X437433Y144908D01*
X437490Y144833D01*
X437549Y144760D01*
X437612Y144690D01*
X437677Y144622D01*
X440761Y144757D02*
X440826Y144759D01*
X440890Y144765D01*
X440954Y144775D01*
X441018Y144788D01*
X441080Y144806D01*
X441141Y144827D01*
X441201Y144851D01*
X441259Y144880D01*
X441316Y144912D01*
X441370Y144947D01*
X441422Y144985D01*
X441472Y145027D01*
X441519Y145071D01*
X441563Y145118D01*
X441605Y145168D01*
X441643Y145220D01*
X441678Y145274D01*
X441710Y145331D01*
X441739Y145389D01*
X441763Y145449D01*
X441784Y145510D01*
X441802Y145572D01*
X441815Y145636D01*
X441825Y145700D01*
X441831Y145764D01*
X441833Y145829D01*
X441831Y145915D01*
X441826Y146001D01*
X441816Y146087D01*
X441803Y146172D01*
X441787Y146257D01*
X441767Y146341D01*
X441743Y146424D01*
X441716Y146506D01*
X441685Y146586D01*
X441651Y146666D01*
X441613Y146743D01*
X441572Y146819D01*
X441528Y146893D01*
X441481Y146965D01*
X441431Y147036D01*
X439823Y145292D02*
X439856Y145239D01*
X439893Y145188D01*
X439932Y145139D01*
X439974Y145092D01*
X440019Y145048D01*
X440066Y145007D01*
X440115Y144968D01*
X440167Y144932D01*
X440221Y144899D01*
X440276Y144870D01*
X440333Y144844D01*
X440392Y144821D01*
X440451Y144801D01*
X440512Y144785D01*
X440573Y144772D01*
X440636Y144763D01*
X440698Y144758D01*
X440761Y144756D01*
X439017Y146767D02*
X438984Y146820D01*
X438947Y146871D01*
X438908Y146920D01*
X438866Y146967D01*
X438821Y147011D01*
X438774Y147052D01*
X438725Y147091D01*
X438673Y147127D01*
X438619Y147160D01*
X438564Y147189D01*
X438507Y147215D01*
X438448Y147238D01*
X438389Y147258D01*
X438328Y147274D01*
X438267Y147287D01*
X438204Y147296D01*
X438142Y147301D01*
X438079Y147303D01*
X439018Y146767D02*
X439822Y145293D01*
X437007Y150969D02*
X437007Y152042D01*
X437007Y150969D02*
X437009Y150904D01*
X437015Y150840D01*
X437025Y150776D01*
X437038Y150712D01*
X437056Y150650D01*
X437077Y150589D01*
X437101Y150529D01*
X437130Y150471D01*
X437162Y150414D01*
X437197Y150360D01*
X437235Y150308D01*
X437277Y150258D01*
X437321Y150211D01*
X437368Y150167D01*
X437418Y150125D01*
X437470Y150087D01*
X437524Y150052D01*
X437581Y150020D01*
X437639Y149991D01*
X437699Y149967D01*
X437760Y149946D01*
X437822Y149928D01*
X437886Y149915D01*
X437950Y149905D01*
X438014Y149899D01*
X438079Y149897D01*
X440761Y149897D01*
X440761Y149898D02*
X440826Y149900D01*
X440890Y149906D01*
X440954Y149916D01*
X441018Y149929D01*
X441080Y149947D01*
X441141Y149968D01*
X441201Y149992D01*
X441259Y150021D01*
X441316Y150053D01*
X441370Y150088D01*
X441422Y150126D01*
X441472Y150168D01*
X441519Y150212D01*
X441563Y150259D01*
X441605Y150309D01*
X441643Y150361D01*
X441678Y150415D01*
X441710Y150472D01*
X441739Y150530D01*
X441763Y150590D01*
X441784Y150651D01*
X441802Y150713D01*
X441815Y150777D01*
X441825Y150841D01*
X441831Y150905D01*
X441833Y150970D01*
X441833Y150969D02*
X441833Y152042D01*
X441833Y154700D02*
X437007Y154700D01*
X437007Y156845D01*
X399048Y145141D02*
X399048Y144336D01*
X399048Y145141D02*
X396367Y145141D01*
X396367Y143532D01*
X396369Y143467D01*
X396375Y143403D01*
X396385Y143339D01*
X396398Y143275D01*
X396416Y143213D01*
X396437Y143152D01*
X396461Y143092D01*
X396490Y143034D01*
X396522Y142977D01*
X396557Y142923D01*
X396595Y142871D01*
X396637Y142821D01*
X396681Y142774D01*
X396728Y142730D01*
X396778Y142688D01*
X396830Y142650D01*
X396884Y142615D01*
X396941Y142583D01*
X396999Y142554D01*
X397059Y142530D01*
X397120Y142509D01*
X397182Y142491D01*
X397246Y142478D01*
X397310Y142468D01*
X397374Y142462D01*
X397439Y142460D01*
X400121Y142460D01*
X400186Y142462D01*
X400250Y142468D01*
X400314Y142478D01*
X400378Y142491D01*
X400440Y142509D01*
X400501Y142530D01*
X400561Y142554D01*
X400619Y142583D01*
X400676Y142615D01*
X400730Y142650D01*
X400782Y142688D01*
X400832Y142730D01*
X400879Y142774D01*
X400923Y142821D01*
X400965Y142871D01*
X401003Y142923D01*
X401038Y142977D01*
X401070Y143034D01*
X401099Y143092D01*
X401123Y143152D01*
X401144Y143213D01*
X401162Y143275D01*
X401175Y143339D01*
X401185Y143403D01*
X401191Y143467D01*
X401193Y143532D01*
X401193Y145141D01*
X401193Y148312D02*
X396367Y148312D01*
X396367Y150993D02*
X401193Y148312D01*
X401193Y150993D02*
X396367Y150993D01*
X396367Y154164D02*
X401193Y154164D01*
X401193Y155504D01*
X401191Y155574D01*
X401186Y155644D01*
X401176Y155714D01*
X401164Y155783D01*
X401147Y155851D01*
X401127Y155918D01*
X401104Y155985D01*
X401077Y156049D01*
X401047Y156113D01*
X401013Y156175D01*
X400977Y156234D01*
X400937Y156292D01*
X400894Y156348D01*
X400849Y156401D01*
X400800Y156452D01*
X400749Y156501D01*
X400696Y156546D01*
X400640Y156589D01*
X400582Y156629D01*
X400523Y156665D01*
X400461Y156699D01*
X400397Y156729D01*
X400333Y156756D01*
X400266Y156779D01*
X400199Y156799D01*
X400131Y156816D01*
X400062Y156828D01*
X399992Y156838D01*
X399922Y156843D01*
X399852Y156845D01*
X397708Y156845D01*
X397638Y156843D01*
X397568Y156838D01*
X397498Y156828D01*
X397429Y156816D01*
X397361Y156799D01*
X397294Y156779D01*
X397227Y156756D01*
X397163Y156729D01*
X397099Y156699D01*
X397038Y156665D01*
X396978Y156629D01*
X396920Y156589D01*
X396864Y156546D01*
X396811Y156501D01*
X396760Y156452D01*
X396711Y156401D01*
X396666Y156348D01*
X396623Y156292D01*
X396583Y156234D01*
X396547Y156175D01*
X396513Y156113D01*
X396483Y156049D01*
X396456Y155985D01*
X396433Y155918D01*
X396413Y155851D01*
X396396Y155783D01*
X396384Y155714D01*
X396374Y155644D01*
X396369Y155574D01*
X396367Y155504D01*
X396367Y154164D01*
X439688Y51576D02*
X439688Y50772D01*
X439688Y51576D02*
X437007Y51576D01*
X437007Y49967D01*
X437009Y49902D01*
X437015Y49838D01*
X437025Y49774D01*
X437038Y49710D01*
X437056Y49648D01*
X437077Y49587D01*
X437101Y49527D01*
X437130Y49469D01*
X437162Y49412D01*
X437197Y49358D01*
X437235Y49306D01*
X437277Y49256D01*
X437321Y49209D01*
X437368Y49165D01*
X437418Y49123D01*
X437470Y49085D01*
X437524Y49050D01*
X437581Y49018D01*
X437639Y48989D01*
X437699Y48965D01*
X437760Y48944D01*
X437822Y48926D01*
X437886Y48913D01*
X437950Y48903D01*
X438014Y48897D01*
X438079Y48895D01*
X440761Y48895D01*
X440826Y48897D01*
X440890Y48903D01*
X440954Y48913D01*
X441018Y48926D01*
X441080Y48944D01*
X441141Y48965D01*
X441201Y48989D01*
X441259Y49018D01*
X441316Y49050D01*
X441370Y49085D01*
X441422Y49123D01*
X441472Y49165D01*
X441519Y49209D01*
X441563Y49256D01*
X441605Y49306D01*
X441643Y49358D01*
X441678Y49412D01*
X441710Y49469D01*
X441739Y49527D01*
X441763Y49587D01*
X441784Y49648D01*
X441802Y49710D01*
X441815Y49774D01*
X441825Y49838D01*
X441831Y49902D01*
X441833Y49967D01*
X441833Y51576D01*
X441833Y54747D02*
X437007Y54747D01*
X437007Y57428D02*
X441833Y54747D01*
X441833Y57428D02*
X437007Y57428D01*
X437007Y60599D02*
X441833Y60599D01*
X441833Y61940D01*
X441831Y62010D01*
X441826Y62080D01*
X441816Y62150D01*
X441804Y62219D01*
X441787Y62287D01*
X441767Y62354D01*
X441744Y62421D01*
X441717Y62485D01*
X441687Y62549D01*
X441653Y62611D01*
X441617Y62670D01*
X441577Y62728D01*
X441534Y62784D01*
X441489Y62837D01*
X441440Y62888D01*
X441389Y62937D01*
X441336Y62982D01*
X441280Y63025D01*
X441222Y63065D01*
X441163Y63101D01*
X441101Y63135D01*
X441037Y63165D01*
X440973Y63192D01*
X440906Y63215D01*
X440839Y63235D01*
X440771Y63252D01*
X440702Y63264D01*
X440632Y63274D01*
X440562Y63279D01*
X440492Y63281D01*
X440492Y63280D02*
X438348Y63280D01*
X438348Y63281D02*
X438278Y63279D01*
X438208Y63274D01*
X438138Y63264D01*
X438069Y63252D01*
X438001Y63235D01*
X437934Y63215D01*
X437867Y63192D01*
X437803Y63165D01*
X437739Y63135D01*
X437678Y63101D01*
X437618Y63065D01*
X437560Y63025D01*
X437504Y62982D01*
X437451Y62937D01*
X437400Y62888D01*
X437351Y62837D01*
X437306Y62784D01*
X437263Y62728D01*
X437223Y62670D01*
X437187Y62611D01*
X437153Y62549D01*
X437123Y62485D01*
X437096Y62421D01*
X437073Y62354D01*
X437053Y62287D01*
X437036Y62219D01*
X437024Y62150D01*
X437014Y62080D01*
X437009Y62010D01*
X437007Y61940D01*
X437007Y60599D01*
X410944Y142289D02*
X410944Y145507D01*
X412552Y143898D02*
X409335Y143898D01*
X409067Y148409D02*
X409067Y150018D01*
X409069Y150083D01*
X409075Y150147D01*
X409085Y150211D01*
X409098Y150275D01*
X409116Y150337D01*
X409137Y150398D01*
X409161Y150458D01*
X409190Y150516D01*
X409222Y150573D01*
X409257Y150627D01*
X409295Y150679D01*
X409337Y150729D01*
X409381Y150776D01*
X409428Y150820D01*
X409478Y150862D01*
X409530Y150900D01*
X409584Y150935D01*
X409641Y150967D01*
X409699Y150996D01*
X409759Y151020D01*
X409820Y151041D01*
X409882Y151059D01*
X409946Y151072D01*
X410010Y151082D01*
X410074Y151088D01*
X410139Y151090D01*
X410139Y151091D02*
X410676Y151091D01*
X410676Y151090D02*
X410741Y151088D01*
X410805Y151082D01*
X410869Y151072D01*
X410933Y151059D01*
X410995Y151041D01*
X411056Y151020D01*
X411116Y150996D01*
X411174Y150967D01*
X411231Y150935D01*
X411285Y150900D01*
X411337Y150862D01*
X411387Y150820D01*
X411434Y150776D01*
X411478Y150729D01*
X411520Y150679D01*
X411558Y150627D01*
X411593Y150573D01*
X411625Y150516D01*
X411654Y150458D01*
X411678Y150398D01*
X411699Y150337D01*
X411717Y150275D01*
X411730Y150211D01*
X411740Y150147D01*
X411746Y150083D01*
X411748Y150018D01*
X411748Y148409D01*
X413893Y148409D01*
X413893Y151091D01*
X413893Y153628D02*
X409067Y155236D01*
X413893Y156845D01*
X423644Y52112D02*
X423644Y48895D01*
X425252Y50504D02*
X422035Y50504D01*
X421767Y55015D02*
X421767Y56624D01*
X421769Y56689D01*
X421775Y56753D01*
X421785Y56817D01*
X421798Y56881D01*
X421816Y56943D01*
X421837Y57004D01*
X421861Y57064D01*
X421890Y57122D01*
X421922Y57179D01*
X421957Y57233D01*
X421995Y57285D01*
X422037Y57335D01*
X422081Y57382D01*
X422128Y57426D01*
X422178Y57468D01*
X422230Y57506D01*
X422284Y57541D01*
X422341Y57573D01*
X422399Y57602D01*
X422459Y57626D01*
X422520Y57647D01*
X422582Y57665D01*
X422646Y57678D01*
X422710Y57688D01*
X422774Y57694D01*
X422839Y57696D01*
X423376Y57696D01*
X423441Y57694D01*
X423505Y57688D01*
X423569Y57678D01*
X423633Y57665D01*
X423695Y57647D01*
X423756Y57626D01*
X423816Y57602D01*
X423874Y57573D01*
X423931Y57541D01*
X423985Y57506D01*
X424037Y57468D01*
X424087Y57426D01*
X424134Y57382D01*
X424178Y57335D01*
X424220Y57285D01*
X424258Y57233D01*
X424293Y57179D01*
X424325Y57122D01*
X424354Y57064D01*
X424378Y57004D01*
X424399Y56943D01*
X424417Y56881D01*
X424430Y56817D01*
X424440Y56753D01*
X424446Y56689D01*
X424448Y56624D01*
X424448Y55015D01*
X426593Y55015D01*
X426593Y57696D01*
X426593Y60233D02*
X421767Y61842D01*
X426593Y63451D01*
D11*
X439420Y43180D02*
X449580Y33020D01*
X398780Y43180D02*
X388620Y33020D01*
X424180Y43180D02*
X424180Y45720D01*
X398780Y45720D02*
X398780Y43180D01*
X439420Y43180D02*
X439420Y45720D01*
X426720Y40640D02*
X424180Y43180D01*
X411480Y43180D02*
X411480Y45720D01*
X411480Y43180D02*
X408940Y40640D01*
X398780Y160020D02*
X398780Y162560D01*
X391160Y170180D01*
X439420Y162560D02*
X439420Y160020D01*
X439420Y162560D02*
X447040Y170180D01*
X411480Y162560D02*
X411480Y160020D01*
X411480Y162560D02*
X408940Y165100D01*
X424180Y162560D02*
X424180Y160020D01*
X424180Y162560D02*
X426720Y165100D01*
D12*
X257706Y90038D02*
X255950Y88574D01*
X255950Y88575D02*
X255649Y88922D01*
X255340Y89262D01*
X255023Y89595D01*
X254698Y89920D01*
X254366Y90237D01*
X254026Y90546D01*
X253678Y90847D01*
X253324Y91140D01*
X252962Y91423D01*
X252594Y91698D01*
X252219Y91965D01*
X251838Y92222D01*
X251451Y92470D01*
X251059Y92708D01*
X250660Y92937D01*
X250256Y93157D01*
X249848Y93367D01*
X249434Y93567D01*
X249015Y93757D01*
X248592Y93936D01*
X248165Y94106D01*
X247734Y94265D01*
X247299Y94414D01*
X246861Y94553D01*
X246420Y94681D01*
X245975Y94798D01*
X245528Y94905D01*
X245079Y95001D01*
X244627Y95086D01*
X244174Y95160D01*
X243718Y95224D01*
X243262Y95276D01*
X242804Y95318D01*
X242346Y95348D01*
X241886Y95368D01*
X241427Y95377D01*
X241426Y97662D01*
X241427Y97663D01*
X241942Y97653D01*
X242457Y97632D01*
X242971Y97598D01*
X243484Y97552D01*
X243996Y97493D01*
X244506Y97422D01*
X245015Y97339D01*
X245521Y97244D01*
X246025Y97136D01*
X246526Y97017D01*
X247024Y96886D01*
X247519Y96742D01*
X248010Y96587D01*
X248498Y96420D01*
X248981Y96241D01*
X249460Y96051D01*
X249934Y95850D01*
X250403Y95637D01*
X250867Y95413D01*
X251326Y95178D01*
X251778Y94931D01*
X252225Y94675D01*
X252665Y94407D01*
X253099Y94129D01*
X253526Y93841D01*
X253946Y93542D01*
X254358Y93233D01*
X254764Y92915D01*
X255161Y92587D01*
X255550Y92250D01*
X255931Y91903D01*
X256304Y91547D01*
X256668Y91183D01*
X257023Y90810D01*
X257369Y90428D01*
X257706Y90038D01*
X257522Y89884D01*
X257189Y90270D01*
X256847Y90647D01*
X256495Y91016D01*
X256135Y91376D01*
X255767Y91728D01*
X255390Y92071D01*
X255005Y92404D01*
X254612Y92729D01*
X254212Y93043D01*
X253804Y93348D01*
X253389Y93644D01*
X252967Y93929D01*
X252538Y94204D01*
X252102Y94468D01*
X251661Y94722D01*
X251213Y94965D01*
X250760Y95198D01*
X250302Y95419D01*
X249838Y95630D01*
X249369Y95829D01*
X248895Y96017D01*
X248418Y96194D01*
X247936Y96359D01*
X247450Y96512D01*
X246961Y96654D01*
X246468Y96784D01*
X245973Y96902D01*
X245475Y97008D01*
X244974Y97103D01*
X244471Y97185D01*
X243967Y97255D01*
X243461Y97313D01*
X242953Y97358D01*
X242445Y97392D01*
X241936Y97413D01*
X241427Y97423D01*
X241427Y97183D01*
X241930Y97174D01*
X242433Y97152D01*
X242936Y97119D01*
X243437Y97074D01*
X243938Y97017D01*
X244436Y96947D01*
X244933Y96866D01*
X245428Y96773D01*
X245921Y96668D01*
X246410Y96551D01*
X246897Y96423D01*
X247381Y96283D01*
X247861Y96131D01*
X248337Y95968D01*
X248810Y95793D01*
X249278Y95607D01*
X249741Y95410D01*
X250200Y95202D01*
X250653Y94983D01*
X251101Y94753D01*
X251544Y94513D01*
X251980Y94262D01*
X252410Y94000D01*
X252834Y93728D01*
X253252Y93447D01*
X253662Y93155D01*
X254065Y92853D01*
X254461Y92542D01*
X254850Y92222D01*
X255230Y91892D01*
X255603Y91553D01*
X255967Y91206D01*
X256323Y90849D01*
X256670Y90485D01*
X257008Y90112D01*
X257338Y89731D01*
X257153Y89577D01*
X256828Y89954D01*
X256493Y90322D01*
X256150Y90683D01*
X255798Y91035D01*
X255438Y91378D01*
X255070Y91713D01*
X254694Y92039D01*
X254310Y92356D01*
X253919Y92663D01*
X253520Y92961D01*
X253114Y93250D01*
X252702Y93528D01*
X252283Y93797D01*
X251858Y94055D01*
X251426Y94303D01*
X250989Y94541D01*
X250546Y94768D01*
X250098Y94985D01*
X249645Y95190D01*
X249187Y95385D01*
X248724Y95569D01*
X248257Y95741D01*
X247786Y95903D01*
X247312Y96053D01*
X246834Y96191D01*
X246353Y96318D01*
X245869Y96434D01*
X245382Y96537D01*
X244893Y96630D01*
X244401Y96710D01*
X243909Y96778D01*
X243414Y96835D01*
X242918Y96880D01*
X242422Y96913D01*
X241924Y96934D01*
X241427Y96943D01*
X241427Y96703D01*
X241919Y96694D01*
X242410Y96673D01*
X242901Y96640D01*
X243391Y96596D01*
X243879Y96540D01*
X244367Y96472D01*
X244852Y96393D01*
X245335Y96302D01*
X245816Y96199D01*
X246295Y96085D01*
X246770Y95960D01*
X247243Y95823D01*
X247712Y95675D01*
X248177Y95515D01*
X248638Y95345D01*
X249096Y95163D01*
X249548Y94971D01*
X249996Y94767D01*
X250439Y94554D01*
X250877Y94329D01*
X251309Y94094D01*
X251735Y93849D01*
X252155Y93593D01*
X252570Y93328D01*
X252977Y93053D01*
X253378Y92768D01*
X253772Y92473D01*
X254159Y92169D01*
X254538Y91856D01*
X254910Y91534D01*
X255274Y91203D01*
X255630Y90864D01*
X255977Y90516D01*
X256317Y90160D01*
X256647Y89796D01*
X256969Y89423D01*
X256784Y89270D01*
X256467Y89637D01*
X256140Y89997D01*
X255805Y90349D01*
X255461Y90693D01*
X255110Y91029D01*
X254750Y91355D01*
X254383Y91674D01*
X254008Y91983D01*
X253625Y92283D01*
X253236Y92574D01*
X252840Y92856D01*
X252437Y93128D01*
X252028Y93390D01*
X251613Y93642D01*
X251191Y93885D01*
X250764Y94117D01*
X250332Y94339D01*
X249894Y94550D01*
X249452Y94751D01*
X249004Y94941D01*
X248553Y95121D01*
X248097Y95289D01*
X247637Y95447D01*
X247174Y95593D01*
X246707Y95728D01*
X246237Y95852D01*
X245764Y95965D01*
X245289Y96067D01*
X244811Y96156D01*
X244332Y96235D01*
X243850Y96302D01*
X243367Y96357D01*
X242883Y96401D01*
X242398Y96433D01*
X241913Y96454D01*
X241427Y96463D01*
X241427Y96223D01*
X241907Y96214D01*
X242387Y96193D01*
X242866Y96162D01*
X243344Y96118D01*
X243821Y96064D01*
X244297Y95997D01*
X244771Y95920D01*
X245242Y95831D01*
X245712Y95731D01*
X246179Y95619D01*
X246643Y95497D01*
X247105Y95363D01*
X247562Y95218D01*
X248017Y95063D01*
X248467Y94896D01*
X248913Y94719D01*
X249355Y94531D01*
X249793Y94333D01*
X250225Y94124D01*
X250652Y93905D01*
X251074Y93675D01*
X251490Y93436D01*
X251901Y93187D01*
X252305Y92928D01*
X252703Y92659D01*
X253094Y92381D01*
X253479Y92093D01*
X253857Y91797D01*
X254227Y91491D01*
X254590Y91177D01*
X254945Y90854D01*
X255293Y90522D01*
X255632Y90183D01*
X255963Y89835D01*
X256286Y89479D01*
X256600Y89116D01*
X256416Y88963D01*
X256105Y89321D01*
X255787Y89672D01*
X255459Y90016D01*
X255124Y90351D01*
X254781Y90679D01*
X254430Y90998D01*
X254071Y91308D01*
X253705Y91610D01*
X253332Y91903D01*
X252952Y92187D01*
X252566Y92462D01*
X252173Y92727D01*
X251773Y92983D01*
X251368Y93230D01*
X250957Y93466D01*
X250540Y93693D01*
X250118Y93909D01*
X249691Y94115D01*
X249259Y94311D01*
X248822Y94497D01*
X248381Y94672D01*
X247937Y94837D01*
X247488Y94990D01*
X247036Y95133D01*
X246580Y95265D01*
X246121Y95387D01*
X245660Y95497D01*
X245196Y95596D01*
X244730Y95683D01*
X244262Y95760D01*
X243792Y95825D01*
X243321Y95880D01*
X242848Y95922D01*
X242375Y95954D01*
X241901Y95974D01*
X241427Y95983D01*
X241427Y95743D01*
X241895Y95734D01*
X242363Y95714D01*
X242831Y95683D01*
X243297Y95641D01*
X243763Y95587D01*
X244227Y95523D01*
X244689Y95447D01*
X245150Y95360D01*
X245608Y95262D01*
X246064Y95154D01*
X246516Y95034D01*
X246966Y94903D01*
X247413Y94762D01*
X247856Y94610D01*
X248296Y94448D01*
X248731Y94275D01*
X249162Y94092D01*
X249589Y93898D01*
X250011Y93694D01*
X250428Y93480D01*
X250839Y93257D01*
X251245Y93023D01*
X251646Y92780D01*
X252040Y92527D01*
X252429Y92265D01*
X252810Y91994D01*
X253186Y91713D01*
X253554Y91424D01*
X253916Y91126D01*
X254270Y90819D01*
X254616Y90504D01*
X254956Y90181D01*
X255287Y89849D01*
X255610Y89510D01*
X255925Y89163D01*
X256231Y88809D01*
X256047Y88655D01*
X255744Y89005D01*
X255433Y89348D01*
X255114Y89683D01*
X254787Y90010D01*
X254452Y90329D01*
X254110Y90640D01*
X253760Y90943D01*
X253403Y91237D01*
X253039Y91523D01*
X252669Y91800D01*
X252291Y92068D01*
X251908Y92327D01*
X251518Y92577D01*
X251123Y92817D01*
X250722Y93047D01*
X250315Y93268D01*
X249904Y93479D01*
X249487Y93681D01*
X249066Y93872D01*
X248640Y94053D01*
X248210Y94224D01*
X247776Y94384D01*
X247338Y94534D01*
X246897Y94674D01*
X246453Y94802D01*
X246006Y94921D01*
X245556Y95028D01*
X245103Y95125D01*
X244649Y95210D01*
X244192Y95285D01*
X243734Y95349D01*
X243274Y95402D01*
X242813Y95444D01*
X242352Y95474D01*
X241889Y95494D01*
X241427Y95503D01*
X241174Y97662D02*
X241174Y95376D01*
X241173Y95377D02*
X240708Y95368D01*
X240243Y95348D01*
X239779Y95317D01*
X239316Y95274D01*
X238854Y95220D01*
X238393Y95155D01*
X237934Y95079D01*
X237477Y94992D01*
X237022Y94894D01*
X236570Y94784D01*
X236120Y94664D01*
X235674Y94533D01*
X235231Y94391D01*
X234791Y94238D01*
X234356Y94075D01*
X233924Y93901D01*
X233497Y93717D01*
X233074Y93523D01*
X232656Y93318D01*
X232243Y93103D01*
X231836Y92878D01*
X231434Y92644D01*
X231038Y92400D01*
X230648Y92146D01*
X230264Y91883D01*
X229887Y91610D01*
X229517Y91329D01*
X229153Y91039D01*
X228797Y90740D01*
X228448Y90432D01*
X228106Y90116D01*
X227772Y89792D01*
X227447Y89459D01*
X227129Y89119D01*
X226820Y88772D01*
X226519Y88417D01*
X226227Y88055D01*
X225944Y87685D01*
X225670Y87309D01*
X225405Y86927D01*
X225149Y86538D01*
X224903Y86143D01*
X224667Y85742D01*
X224440Y85336D01*
X222423Y86411D01*
X222423Y86412D01*
X222677Y86867D01*
X222941Y87317D01*
X223217Y87759D01*
X223503Y88195D01*
X223800Y88624D01*
X224106Y89046D01*
X224424Y89460D01*
X224751Y89866D01*
X225088Y90264D01*
X225434Y90653D01*
X225790Y91035D01*
X226155Y91407D01*
X226529Y91770D01*
X226911Y92125D01*
X227302Y92470D01*
X227702Y92805D01*
X228109Y93130D01*
X228524Y93446D01*
X228947Y93751D01*
X229377Y94046D01*
X229814Y94330D01*
X230258Y94604D01*
X230708Y94867D01*
X231165Y95119D01*
X231627Y95359D01*
X232096Y95589D01*
X232569Y95807D01*
X233048Y96013D01*
X233532Y96208D01*
X234020Y96390D01*
X234513Y96561D01*
X235010Y96720D01*
X235510Y96867D01*
X236014Y97002D01*
X236521Y97124D01*
X237030Y97234D01*
X237543Y97331D01*
X238057Y97416D01*
X238574Y97489D01*
X239091Y97549D01*
X239611Y97596D01*
X240131Y97631D01*
X240652Y97653D01*
X241173Y97663D01*
X241173Y97423D01*
X240658Y97413D01*
X240143Y97391D01*
X239628Y97357D01*
X239115Y97310D01*
X238603Y97251D01*
X238092Y97179D01*
X237584Y97095D01*
X237077Y96998D01*
X236573Y96890D01*
X236072Y96769D01*
X235574Y96636D01*
X235079Y96491D01*
X234588Y96333D01*
X234101Y96164D01*
X233619Y95984D01*
X233140Y95791D01*
X232667Y95587D01*
X232198Y95372D01*
X231735Y95145D01*
X231278Y94907D01*
X230827Y94658D01*
X230381Y94398D01*
X229943Y94128D01*
X229510Y93847D01*
X229085Y93555D01*
X228667Y93253D01*
X228257Y92941D01*
X227854Y92619D01*
X227459Y92288D01*
X227073Y91947D01*
X226694Y91597D01*
X226325Y91237D01*
X225964Y90869D01*
X225612Y90492D01*
X225269Y90107D01*
X224936Y89713D01*
X224613Y89312D01*
X224299Y88903D01*
X223996Y88486D01*
X223703Y88062D01*
X223420Y87631D01*
X223147Y87193D01*
X222886Y86749D01*
X222635Y86299D01*
X222846Y86186D01*
X223094Y86631D01*
X223353Y87070D01*
X223622Y87503D01*
X223902Y87929D01*
X224192Y88348D01*
X224492Y88760D01*
X224802Y89164D01*
X225122Y89561D01*
X225451Y89950D01*
X225790Y90331D01*
X226138Y90704D01*
X226494Y91068D01*
X226860Y91423D01*
X227234Y91769D01*
X227616Y92106D01*
X228006Y92434D01*
X228405Y92752D01*
X228810Y93060D01*
X229224Y93359D01*
X229644Y93647D01*
X230071Y93925D01*
X230505Y94193D01*
X230945Y94449D01*
X231391Y94696D01*
X231843Y94931D01*
X232301Y95155D01*
X232764Y95368D01*
X233232Y95570D01*
X233705Y95760D01*
X234182Y95939D01*
X234664Y96106D01*
X235149Y96261D01*
X235638Y96404D01*
X236131Y96536D01*
X236626Y96656D01*
X237124Y96763D01*
X237625Y96858D01*
X238128Y96942D01*
X238632Y97013D01*
X239139Y97071D01*
X239646Y97118D01*
X240155Y97152D01*
X240664Y97173D01*
X241173Y97183D01*
X241173Y96943D01*
X240670Y96933D01*
X240166Y96912D01*
X239664Y96878D01*
X239162Y96832D01*
X238662Y96774D01*
X238163Y96704D01*
X237666Y96622D01*
X237171Y96528D01*
X236679Y96421D01*
X236189Y96303D01*
X235702Y96173D01*
X235219Y96031D01*
X234739Y95878D01*
X234263Y95713D01*
X233791Y95536D01*
X233324Y95348D01*
X232862Y95149D01*
X232404Y94938D01*
X231951Y94716D01*
X231505Y94484D01*
X231063Y94241D01*
X230628Y93987D01*
X230200Y93722D01*
X229777Y93448D01*
X229362Y93163D01*
X228954Y92868D01*
X228552Y92563D01*
X228159Y92249D01*
X227773Y91925D01*
X227395Y91592D01*
X227025Y91249D01*
X226664Y90898D01*
X226312Y90538D01*
X225968Y90170D01*
X225633Y89794D01*
X225308Y89409D01*
X224992Y89017D01*
X224685Y88617D01*
X224389Y88210D01*
X224102Y87796D01*
X223825Y87375D01*
X223559Y86947D01*
X223303Y86513D01*
X223058Y86073D01*
X223270Y85960D01*
X223512Y86395D01*
X223765Y86824D01*
X224028Y87246D01*
X224302Y87663D01*
X224585Y88072D01*
X224878Y88474D01*
X225181Y88869D01*
X225493Y89257D01*
X225815Y89637D01*
X226146Y90009D01*
X226486Y90373D01*
X226834Y90729D01*
X227191Y91076D01*
X227556Y91414D01*
X227930Y91743D01*
X228311Y92063D01*
X228700Y92374D01*
X229097Y92675D01*
X229500Y92966D01*
X229911Y93248D01*
X230328Y93520D01*
X230752Y93781D01*
X231182Y94032D01*
X231618Y94272D01*
X232059Y94502D01*
X232507Y94721D01*
X232959Y94929D01*
X233416Y95126D01*
X233878Y95312D01*
X234344Y95487D01*
X234814Y95650D01*
X235289Y95802D01*
X235766Y95942D01*
X236247Y96070D01*
X236731Y96187D01*
X237218Y96292D01*
X237707Y96386D01*
X238198Y96467D01*
X238691Y96536D01*
X239186Y96594D01*
X239681Y96639D01*
X240178Y96672D01*
X240676Y96693D01*
X241173Y96703D01*
X241173Y96463D01*
X240682Y96454D01*
X240190Y96433D01*
X239699Y96400D01*
X239209Y96355D01*
X238721Y96298D01*
X238233Y96229D01*
X237748Y96149D01*
X237265Y96057D01*
X236784Y95953D01*
X236306Y95838D01*
X235830Y95711D01*
X235358Y95572D01*
X234890Y95422D01*
X234425Y95261D01*
X233964Y95088D01*
X233508Y94904D01*
X233056Y94710D01*
X232609Y94504D01*
X232167Y94288D01*
X231731Y94061D01*
X231300Y93823D01*
X230875Y93575D01*
X230457Y93317D01*
X230044Y93049D01*
X229639Y92770D01*
X229240Y92482D01*
X228848Y92185D01*
X228464Y91878D01*
X228087Y91561D01*
X227718Y91236D01*
X227357Y90902D01*
X227004Y90559D01*
X226659Y90208D01*
X226324Y89848D01*
X225997Y89480D01*
X225679Y89105D01*
X225370Y88722D01*
X225071Y88332D01*
X224781Y87934D01*
X224501Y87529D01*
X224231Y87118D01*
X223971Y86701D01*
X223721Y86277D01*
X223482Y85847D01*
X223694Y85734D01*
X223930Y86159D01*
X224177Y86577D01*
X224434Y86990D01*
X224701Y87396D01*
X224978Y87796D01*
X225264Y88189D01*
X225560Y88574D01*
X225865Y88953D01*
X226179Y89324D01*
X226502Y89687D01*
X226833Y90042D01*
X227174Y90389D01*
X227522Y90728D01*
X227879Y91058D01*
X228244Y91380D01*
X228616Y91692D01*
X228996Y91996D01*
X229383Y92290D01*
X229777Y92574D01*
X230178Y92849D01*
X230585Y93114D01*
X230999Y93369D01*
X231419Y93614D01*
X231844Y93849D01*
X232275Y94073D01*
X232712Y94287D01*
X233154Y94490D01*
X233600Y94683D01*
X234051Y94864D01*
X234506Y95035D01*
X234965Y95194D01*
X235428Y95342D01*
X235894Y95479D01*
X236364Y95605D01*
X236837Y95719D01*
X237312Y95822D01*
X237789Y95913D01*
X238269Y95992D01*
X238750Y96060D01*
X239233Y96116D01*
X239717Y96160D01*
X240202Y96193D01*
X240687Y96214D01*
X241173Y96223D01*
X241173Y95983D01*
X240693Y95974D01*
X240214Y95953D01*
X239735Y95921D01*
X239256Y95877D01*
X238779Y95822D01*
X238304Y95755D01*
X237830Y95676D01*
X237359Y95586D01*
X236889Y95485D01*
X236422Y95372D01*
X235959Y95248D01*
X235498Y95113D01*
X235041Y94966D01*
X234587Y94809D01*
X234137Y94640D01*
X233692Y94461D01*
X233251Y94271D01*
X232815Y94070D01*
X232383Y93859D01*
X231957Y93637D01*
X231537Y93406D01*
X231122Y93164D01*
X230714Y92911D01*
X230311Y92650D01*
X229915Y92378D01*
X229526Y92097D01*
X229143Y91806D01*
X228768Y91507D01*
X228400Y91198D01*
X228040Y90881D01*
X227688Y90554D01*
X227344Y90220D01*
X227007Y89877D01*
X226680Y89526D01*
X226361Y89167D01*
X226050Y88801D01*
X225749Y88427D01*
X225457Y88046D01*
X225174Y87658D01*
X224901Y87263D01*
X224637Y86862D01*
X224383Y86454D01*
X224139Y86041D01*
X223905Y85621D01*
X224117Y85508D01*
X224348Y85922D01*
X224589Y86331D01*
X224840Y86734D01*
X225100Y87130D01*
X225370Y87520D01*
X225650Y87903D01*
X225938Y88279D01*
X226236Y88649D01*
X226542Y89011D01*
X226858Y89365D01*
X227181Y89712D01*
X227513Y90050D01*
X227854Y90381D01*
X228202Y90703D01*
X228557Y91017D01*
X228921Y91321D01*
X229291Y91617D01*
X229669Y91904D01*
X230053Y92182D01*
X230445Y92450D01*
X230842Y92709D01*
X231246Y92958D01*
X231655Y93197D01*
X232071Y93426D01*
X232491Y93645D01*
X232917Y93853D01*
X233348Y94052D01*
X233784Y94239D01*
X234224Y94417D01*
X234668Y94583D01*
X235116Y94738D01*
X235568Y94883D01*
X236023Y95017D01*
X236481Y95139D01*
X236942Y95251D01*
X237405Y95351D01*
X237871Y95440D01*
X238339Y95517D01*
X238809Y95583D01*
X239280Y95638D01*
X239752Y95682D01*
X240225Y95713D01*
X240699Y95734D01*
X241173Y95743D01*
X241173Y95503D01*
X240705Y95494D01*
X240237Y95474D01*
X239770Y95442D01*
X239303Y95399D01*
X238838Y95345D01*
X238374Y95280D01*
X237912Y95203D01*
X237452Y95115D01*
X236994Y95016D01*
X236539Y94906D01*
X236087Y94785D01*
X235637Y94653D01*
X235191Y94511D01*
X234749Y94357D01*
X234310Y94193D01*
X233876Y94018D01*
X233446Y93832D01*
X233020Y93637D01*
X232599Y93430D01*
X232184Y93214D01*
X231774Y92988D01*
X231369Y92752D01*
X230971Y92506D01*
X230578Y92251D01*
X230192Y91986D01*
X229812Y91712D01*
X229439Y91428D01*
X229073Y91136D01*
X228714Y90835D01*
X228363Y90525D01*
X228019Y90207D01*
X227683Y89881D01*
X227355Y89546D01*
X227036Y89204D01*
X226724Y88854D01*
X226421Y88497D01*
X226128Y88132D01*
X225842Y87760D01*
X225567Y87382D01*
X225300Y86997D01*
X225043Y86605D01*
X224795Y86208D01*
X224557Y85804D01*
X224329Y85395D01*
X241426Y54738D02*
X241426Y57024D01*
X241427Y57023D02*
X241895Y57032D01*
X242363Y57053D01*
X242831Y57084D01*
X243298Y57127D01*
X243763Y57182D01*
X244227Y57248D01*
X244689Y57325D01*
X245149Y57413D01*
X245607Y57513D01*
X246063Y57624D01*
X246515Y57746D01*
X246964Y57879D01*
X247410Y58023D01*
X247853Y58177D01*
X248291Y58343D01*
X248725Y58519D01*
X249155Y58706D01*
X249580Y58903D01*
X250000Y59110D01*
X250415Y59328D01*
X250825Y59556D01*
X251229Y59793D01*
X251627Y60041D01*
X252018Y60298D01*
X252404Y60565D01*
X252783Y60841D01*
X253154Y61126D01*
X253519Y61420D01*
X253877Y61723D01*
X254227Y62035D01*
X254569Y62355D01*
X254903Y62683D01*
X255229Y63019D01*
X255547Y63364D01*
X255857Y63716D01*
X257601Y62239D01*
X257602Y62239D01*
X257255Y61844D01*
X256899Y61458D01*
X256534Y61081D01*
X256159Y60712D01*
X255776Y60353D01*
X255383Y60004D01*
X254983Y59664D01*
X254574Y59334D01*
X254157Y59014D01*
X253733Y58705D01*
X253301Y58406D01*
X252862Y58117D01*
X252416Y57840D01*
X251963Y57573D01*
X251504Y57318D01*
X251039Y57074D01*
X250568Y56841D01*
X250091Y56620D01*
X249609Y56411D01*
X249122Y56213D01*
X248631Y56028D01*
X248135Y55854D01*
X247635Y55693D01*
X247131Y55544D01*
X246624Y55408D01*
X246113Y55284D01*
X245600Y55172D01*
X245084Y55073D01*
X244566Y54987D01*
X244046Y54913D01*
X243524Y54853D01*
X243001Y54805D01*
X242477Y54769D01*
X241952Y54747D01*
X241427Y54737D01*
X241427Y54977D01*
X241946Y54987D01*
X242465Y55009D01*
X242983Y55044D01*
X243500Y55091D01*
X244016Y55152D01*
X244530Y55224D01*
X245043Y55310D01*
X245553Y55407D01*
X246060Y55518D01*
X246565Y55640D01*
X247067Y55775D01*
X247565Y55923D01*
X248059Y56082D01*
X248549Y56253D01*
X249035Y56437D01*
X249516Y56632D01*
X249993Y56839D01*
X250464Y57057D01*
X250930Y57287D01*
X251390Y57529D01*
X251843Y57781D01*
X252291Y58045D01*
X252732Y58319D01*
X253166Y58604D01*
X253593Y58900D01*
X254013Y59206D01*
X254425Y59522D01*
X254829Y59848D01*
X255225Y60184D01*
X255613Y60530D01*
X255992Y60885D01*
X256362Y61249D01*
X256724Y61622D01*
X257076Y62004D01*
X257419Y62394D01*
X257235Y62549D01*
X256897Y62163D01*
X256549Y61786D01*
X256191Y61417D01*
X255825Y61057D01*
X255450Y60706D01*
X255067Y60365D01*
X254675Y60033D01*
X254276Y59710D01*
X253869Y59398D01*
X253454Y59095D01*
X253032Y58803D01*
X252602Y58521D01*
X252166Y58250D01*
X251724Y57989D01*
X251275Y57740D01*
X250821Y57501D01*
X250360Y57274D01*
X249895Y57058D01*
X249424Y56853D01*
X248948Y56660D01*
X248467Y56479D01*
X247983Y56310D01*
X247494Y56152D01*
X247002Y56007D01*
X246506Y55873D01*
X246007Y55752D01*
X245505Y55643D01*
X245001Y55546D01*
X244495Y55462D01*
X243986Y55390D01*
X243476Y55330D01*
X242965Y55283D01*
X242453Y55249D01*
X241940Y55227D01*
X241427Y55217D01*
X241427Y55457D01*
X241934Y55467D01*
X242441Y55488D01*
X242947Y55523D01*
X243453Y55569D01*
X243957Y55628D01*
X244459Y55699D01*
X244960Y55782D01*
X245458Y55878D01*
X245954Y55986D01*
X246447Y56106D01*
X246937Y56238D01*
X247424Y56382D01*
X247907Y56537D01*
X248386Y56705D01*
X248861Y56884D01*
X249331Y57075D01*
X249796Y57277D01*
X250257Y57490D01*
X250712Y57715D01*
X251161Y57951D01*
X251605Y58198D01*
X252042Y58455D01*
X252473Y58723D01*
X252897Y59002D01*
X253314Y59290D01*
X253724Y59589D01*
X254127Y59898D01*
X254522Y60217D01*
X254909Y60545D01*
X255288Y60883D01*
X255658Y61230D01*
X256020Y61585D01*
X256373Y61950D01*
X256717Y62323D01*
X257052Y62704D01*
X256869Y62859D01*
X256538Y62482D01*
X256198Y62114D01*
X255849Y61754D01*
X255491Y61402D01*
X255125Y61059D01*
X254751Y60726D01*
X254368Y60401D01*
X253978Y60086D01*
X253580Y59781D01*
X253175Y59486D01*
X252762Y59200D01*
X252343Y58925D01*
X251917Y58660D01*
X251485Y58406D01*
X251047Y58162D01*
X250603Y57929D01*
X250153Y57707D01*
X249698Y57496D01*
X249238Y57296D01*
X248773Y57108D01*
X248304Y56930D01*
X247831Y56765D01*
X247353Y56611D01*
X246872Y56469D01*
X246388Y56338D01*
X245901Y56220D01*
X245411Y56113D01*
X244918Y56019D01*
X244424Y55936D01*
X243927Y55866D01*
X243429Y55808D01*
X242929Y55762D01*
X242429Y55728D01*
X241928Y55707D01*
X241427Y55697D01*
X241427Y55937D01*
X241922Y55947D01*
X242417Y55968D01*
X242912Y56001D01*
X243405Y56047D01*
X243897Y56104D01*
X244388Y56174D01*
X244877Y56255D01*
X245363Y56349D01*
X245848Y56454D01*
X246329Y56571D01*
X246808Y56700D01*
X247283Y56840D01*
X247755Y56993D01*
X248222Y57156D01*
X248686Y57331D01*
X249145Y57517D01*
X249600Y57715D01*
X250049Y57923D01*
X250494Y58143D01*
X250932Y58373D01*
X251366Y58614D01*
X251793Y58865D01*
X252213Y59127D01*
X252628Y59399D01*
X253035Y59681D01*
X253436Y59973D01*
X253829Y60275D01*
X254214Y60586D01*
X254592Y60906D01*
X254962Y61236D01*
X255324Y61574D01*
X255678Y61922D01*
X256023Y62278D01*
X256359Y62642D01*
X256686Y63014D01*
X256503Y63169D01*
X256179Y62801D01*
X255847Y62442D01*
X255507Y62090D01*
X255157Y61747D01*
X254800Y61412D01*
X254434Y61087D01*
X254061Y60770D01*
X253680Y60463D01*
X253291Y60165D01*
X252896Y59876D01*
X252493Y59598D01*
X252084Y59329D01*
X251668Y59070D01*
X251246Y58822D01*
X250818Y58584D01*
X250385Y58357D01*
X249946Y58140D01*
X249501Y57934D01*
X249052Y57739D01*
X248599Y57555D01*
X248141Y57382D01*
X247679Y57220D01*
X247213Y57070D01*
X246743Y56931D01*
X246270Y56804D01*
X245795Y56688D01*
X245316Y56584D01*
X244835Y56492D01*
X244352Y56411D01*
X243868Y56342D01*
X243381Y56285D01*
X242894Y56241D01*
X242405Y56208D01*
X241916Y56186D01*
X241427Y56177D01*
X241427Y56417D01*
X241910Y56426D01*
X242393Y56447D01*
X242876Y56480D01*
X243358Y56524D01*
X243838Y56580D01*
X244317Y56648D01*
X244794Y56728D01*
X245269Y56819D01*
X245741Y56922D01*
X246211Y57036D01*
X246678Y57162D01*
X247142Y57299D01*
X247602Y57448D01*
X248059Y57607D01*
X248511Y57778D01*
X248960Y57960D01*
X249403Y58153D01*
X249842Y58356D01*
X250276Y58570D01*
X250704Y58795D01*
X251127Y59030D01*
X251543Y59275D01*
X251954Y59531D01*
X252358Y59796D01*
X252756Y60072D01*
X253147Y60356D01*
X253531Y60651D01*
X253907Y60954D01*
X254276Y61267D01*
X254637Y61589D01*
X254990Y61919D01*
X255335Y62258D01*
X255672Y62605D01*
X256000Y62961D01*
X256319Y63324D01*
X256136Y63479D01*
X255821Y63120D01*
X255497Y62769D01*
X255164Y62426D01*
X254823Y62092D01*
X254475Y61765D01*
X254118Y61448D01*
X253753Y61139D01*
X253382Y60839D01*
X253003Y60548D01*
X252617Y60267D01*
X252224Y59995D01*
X251824Y59733D01*
X251419Y59481D01*
X251007Y59238D01*
X250590Y59006D01*
X250167Y58784D01*
X249738Y58573D01*
X249305Y58372D01*
X248867Y58181D01*
X248424Y58002D01*
X247977Y57833D01*
X247526Y57675D01*
X247072Y57529D01*
X246614Y57393D01*
X246152Y57269D01*
X245688Y57156D01*
X245221Y57054D01*
X244752Y56964D01*
X244281Y56886D01*
X243808Y56819D01*
X243334Y56763D01*
X242858Y56719D01*
X242381Y56687D01*
X241904Y56666D01*
X241427Y56657D01*
X241427Y56897D01*
X241898Y56906D01*
X242370Y56927D01*
X242840Y56959D01*
X243310Y57002D01*
X243779Y57057D01*
X244246Y57123D01*
X244711Y57201D01*
X245174Y57290D01*
X245635Y57390D01*
X246093Y57502D01*
X246549Y57624D01*
X247001Y57758D01*
X247450Y57903D01*
X247896Y58059D01*
X248337Y58225D01*
X248774Y58403D01*
X249207Y58591D01*
X249635Y58789D01*
X250058Y58998D01*
X250475Y59217D01*
X250888Y59446D01*
X251294Y59686D01*
X251695Y59935D01*
X252089Y60194D01*
X252477Y60462D01*
X252858Y60740D01*
X253233Y61027D01*
X253600Y61323D01*
X253960Y61628D01*
X254312Y61942D01*
X254657Y62264D01*
X254993Y62595D01*
X255321Y62933D01*
X255641Y63280D01*
X255953Y63634D01*
X222728Y65441D02*
X224713Y66576D01*
X224712Y66575D02*
X224950Y66177D01*
X225196Y65785D01*
X225453Y65400D01*
X225718Y65020D01*
X225992Y64647D01*
X226276Y64281D01*
X226568Y63922D01*
X226869Y63570D01*
X227178Y63225D01*
X227495Y62888D01*
X227821Y62558D01*
X228154Y62237D01*
X228495Y61923D01*
X228844Y61618D01*
X229199Y61322D01*
X229562Y61034D01*
X229932Y60755D01*
X230308Y60485D01*
X230691Y60224D01*
X231080Y59973D01*
X231474Y59731D01*
X231875Y59498D01*
X232281Y59276D01*
X232692Y59063D01*
X233109Y58860D01*
X233530Y58667D01*
X233955Y58485D01*
X234385Y58313D01*
X234819Y58151D01*
X235257Y58000D01*
X235698Y57859D01*
X236143Y57729D01*
X236590Y57610D01*
X237040Y57502D01*
X237493Y57404D01*
X237948Y57318D01*
X238405Y57243D01*
X238864Y57178D01*
X239324Y57125D01*
X239785Y57083D01*
X240247Y57052D01*
X240710Y57032D01*
X241173Y57023D01*
X241173Y54738D01*
X241173Y54737D01*
X240654Y54747D01*
X240135Y54769D01*
X239617Y54803D01*
X239100Y54850D01*
X238585Y54909D01*
X238071Y54981D01*
X237559Y55065D01*
X237049Y55162D01*
X236541Y55271D01*
X236037Y55392D01*
X235535Y55525D01*
X235037Y55671D01*
X234542Y55828D01*
X234052Y55998D01*
X233565Y56179D01*
X233083Y56372D01*
X232606Y56576D01*
X232135Y56792D01*
X231668Y57019D01*
X231207Y57258D01*
X230752Y57507D01*
X230303Y57768D01*
X229861Y58039D01*
X229425Y58321D01*
X228996Y58613D01*
X228574Y58916D01*
X228160Y59229D01*
X227754Y59551D01*
X227355Y59884D01*
X226964Y60226D01*
X226582Y60577D01*
X226209Y60937D01*
X225844Y61307D01*
X225489Y61685D01*
X225142Y62071D01*
X224805Y62466D01*
X224478Y62869D01*
X224161Y63279D01*
X223853Y63698D01*
X223556Y64123D01*
X223269Y64556D01*
X222993Y64995D01*
X222728Y65441D01*
X222936Y65560D01*
X223198Y65119D01*
X223472Y64685D01*
X223755Y64257D01*
X224049Y63836D01*
X224353Y63423D01*
X224667Y63017D01*
X224991Y62619D01*
X225324Y62228D01*
X225666Y61846D01*
X226018Y61473D01*
X226378Y61107D01*
X226747Y60751D01*
X227125Y60404D01*
X227511Y60066D01*
X227905Y59737D01*
X228307Y59418D01*
X228717Y59109D01*
X229134Y58810D01*
X229558Y58521D01*
X229989Y58242D01*
X230426Y57974D01*
X230870Y57716D01*
X231320Y57470D01*
X231775Y57234D01*
X232237Y57009D01*
X232703Y56796D01*
X233175Y56593D01*
X233651Y56403D01*
X234132Y56224D01*
X234617Y56056D01*
X235106Y55901D01*
X235599Y55757D01*
X236095Y55625D01*
X236594Y55505D01*
X237095Y55397D01*
X237600Y55302D01*
X238106Y55219D01*
X238614Y55148D01*
X239124Y55089D01*
X239635Y55042D01*
X240147Y55008D01*
X240660Y54987D01*
X241173Y54977D01*
X241173Y55217D01*
X240665Y55227D01*
X240159Y55248D01*
X239652Y55282D01*
X239147Y55328D01*
X238643Y55386D01*
X238141Y55456D01*
X237640Y55538D01*
X237142Y55633D01*
X236646Y55739D01*
X236153Y55858D01*
X235663Y55988D01*
X235176Y56130D01*
X234692Y56284D01*
X234213Y56450D01*
X233737Y56627D01*
X233267Y56815D01*
X232800Y57015D01*
X232339Y57226D01*
X231883Y57448D01*
X231432Y57681D01*
X230988Y57925D01*
X230549Y58180D01*
X230116Y58445D01*
X229691Y58721D01*
X229271Y59006D01*
X228859Y59302D01*
X228454Y59608D01*
X228057Y59923D01*
X227668Y60248D01*
X227286Y60582D01*
X226912Y60925D01*
X226547Y61278D01*
X226191Y61639D01*
X225843Y62008D01*
X225505Y62386D01*
X225176Y62772D01*
X224856Y63165D01*
X224545Y63567D01*
X224245Y63975D01*
X223954Y64391D01*
X223674Y64814D01*
X223404Y65243D01*
X223144Y65679D01*
X223353Y65798D01*
X223609Y65367D01*
X223876Y64943D01*
X224153Y64525D01*
X224441Y64114D01*
X224738Y63710D01*
X225044Y63314D01*
X225361Y62924D01*
X225686Y62543D01*
X226021Y62170D01*
X226364Y61805D01*
X226717Y61448D01*
X227077Y61100D01*
X227447Y60760D01*
X227824Y60430D01*
X228209Y60109D01*
X228602Y59797D01*
X229002Y59495D01*
X229409Y59203D01*
X229823Y58920D01*
X230244Y58648D01*
X230672Y58386D01*
X231106Y58134D01*
X231545Y57893D01*
X231991Y57663D01*
X232441Y57443D01*
X232897Y57235D01*
X233358Y57037D01*
X233824Y56851D01*
X234293Y56676D01*
X234767Y56512D01*
X235245Y56360D01*
X235726Y56220D01*
X236211Y56091D01*
X236699Y55974D01*
X237189Y55868D01*
X237681Y55775D01*
X238176Y55693D01*
X238673Y55624D01*
X239171Y55566D01*
X239670Y55521D01*
X240170Y55488D01*
X240671Y55467D01*
X241173Y55457D01*
X241173Y55697D01*
X240677Y55706D01*
X240182Y55727D01*
X239688Y55760D01*
X239194Y55805D01*
X238702Y55862D01*
X238211Y55931D01*
X237722Y56011D01*
X237235Y56104D01*
X236751Y56208D01*
X236269Y56324D01*
X235790Y56451D01*
X235315Y56590D01*
X234842Y56740D01*
X234374Y56902D01*
X233910Y57075D01*
X233450Y57259D01*
X232994Y57454D01*
X232544Y57660D01*
X232098Y57877D01*
X231658Y58105D01*
X231224Y58343D01*
X230795Y58592D01*
X230372Y58851D01*
X229956Y59120D01*
X229547Y59399D01*
X229144Y59688D01*
X228749Y59987D01*
X228361Y60295D01*
X227980Y60612D01*
X227607Y60939D01*
X227243Y61274D01*
X226886Y61618D01*
X226538Y61971D01*
X226198Y62331D01*
X225867Y62700D01*
X225546Y63077D01*
X225233Y63462D01*
X224930Y63854D01*
X224636Y64253D01*
X224353Y64659D01*
X224079Y65072D01*
X223815Y65491D01*
X223561Y65917D01*
X223769Y66036D01*
X224020Y65616D01*
X224281Y65201D01*
X224552Y64793D01*
X224832Y64392D01*
X225122Y63997D01*
X225422Y63610D01*
X225731Y63230D01*
X226049Y62858D01*
X226375Y62493D01*
X226711Y62137D01*
X227055Y61788D01*
X227408Y61448D01*
X227768Y61117D01*
X228136Y60794D01*
X228513Y60481D01*
X228896Y60176D01*
X229287Y59881D01*
X229685Y59596D01*
X230089Y59320D01*
X230500Y59054D01*
X230918Y58798D01*
X231341Y58552D01*
X231771Y58317D01*
X232206Y58092D01*
X232646Y57878D01*
X233091Y57674D01*
X233541Y57481D01*
X233996Y57299D01*
X234455Y57128D01*
X234917Y56968D01*
X235384Y56820D01*
X235854Y56682D01*
X236327Y56556D01*
X236803Y56442D01*
X237282Y56339D01*
X237763Y56248D01*
X238246Y56168D01*
X238731Y56100D01*
X239218Y56044D01*
X239705Y56000D01*
X240194Y55967D01*
X240683Y55946D01*
X241173Y55937D01*
X241173Y56177D01*
X240689Y56186D01*
X240206Y56207D01*
X239723Y56239D01*
X239241Y56283D01*
X238760Y56339D01*
X238281Y56406D01*
X237804Y56484D01*
X237329Y56575D01*
X236856Y56676D01*
X236385Y56789D01*
X235918Y56914D01*
X235453Y57049D01*
X234992Y57196D01*
X234535Y57354D01*
X234082Y57523D01*
X233633Y57703D01*
X233188Y57893D01*
X232748Y58095D01*
X232313Y58307D01*
X231884Y58529D01*
X231459Y58761D01*
X231041Y59004D01*
X230628Y59257D01*
X230222Y59520D01*
X229822Y59792D01*
X229429Y60074D01*
X229043Y60366D01*
X228664Y60667D01*
X228293Y60976D01*
X227929Y61295D01*
X227573Y61622D01*
X227224Y61958D01*
X226884Y62303D01*
X226553Y62655D01*
X226230Y63015D01*
X225916Y63383D01*
X225611Y63758D01*
X225315Y64141D01*
X225028Y64531D01*
X224751Y64927D01*
X224483Y65330D01*
X224226Y65740D01*
X223978Y66155D01*
X224186Y66274D01*
X224431Y65864D01*
X224686Y65459D01*
X224950Y65061D01*
X225224Y64670D01*
X225507Y64285D01*
X225799Y63907D01*
X226101Y63536D01*
X226411Y63172D01*
X226730Y62817D01*
X227058Y62469D01*
X227394Y62129D01*
X227738Y61797D01*
X228089Y61473D01*
X228449Y61159D01*
X228816Y60853D01*
X229191Y60555D01*
X229572Y60268D01*
X229960Y59989D01*
X230355Y59720D01*
X230756Y59460D01*
X231164Y59210D01*
X231577Y58971D01*
X231996Y58741D01*
X232421Y58521D01*
X232850Y58312D01*
X233285Y58113D01*
X233724Y57925D01*
X234168Y57747D01*
X234616Y57580D01*
X235067Y57424D01*
X235523Y57279D01*
X235982Y57145D01*
X236443Y57022D01*
X236908Y56910D01*
X237375Y56810D01*
X237845Y56721D01*
X238316Y56643D01*
X238790Y56577D01*
X239264Y56522D01*
X239740Y56478D01*
X240217Y56447D01*
X240695Y56426D01*
X241173Y56417D01*
X241173Y56657D01*
X240701Y56666D01*
X240229Y56686D01*
X239758Y56718D01*
X239288Y56761D01*
X238819Y56815D01*
X238351Y56881D01*
X237886Y56957D01*
X237422Y57045D01*
X236960Y57145D01*
X236502Y57255D01*
X236045Y57376D01*
X235592Y57509D01*
X235142Y57652D01*
X234696Y57806D01*
X234254Y57971D01*
X233816Y58146D01*
X233382Y58332D01*
X232953Y58529D01*
X232528Y58736D01*
X232109Y58953D01*
X231695Y59180D01*
X231287Y59416D01*
X230884Y59663D01*
X230488Y59920D01*
X230098Y60185D01*
X229714Y60461D01*
X229338Y60745D01*
X228968Y61038D01*
X228605Y61341D01*
X228250Y61652D01*
X227903Y61971D01*
X227563Y62299D01*
X227231Y62635D01*
X226908Y62978D01*
X226592Y63330D01*
X226286Y63689D01*
X225988Y64055D01*
X225699Y64428D01*
X225419Y64808D01*
X225149Y65195D01*
X224888Y65589D01*
X224636Y65988D01*
X224395Y66393D01*
X224603Y66513D01*
X224842Y66112D01*
X225090Y65718D01*
X225348Y65329D01*
X225615Y64947D01*
X225891Y64572D01*
X226177Y64203D01*
X226471Y63841D01*
X226774Y63487D01*
X227085Y63140D01*
X227404Y62801D01*
X227732Y62469D01*
X228068Y62145D01*
X228411Y61830D01*
X228762Y61523D01*
X229120Y61224D01*
X229485Y60935D01*
X229857Y60654D01*
X230236Y60382D01*
X230621Y60119D01*
X231012Y59866D01*
X231410Y59623D01*
X231813Y59389D01*
X232222Y59164D01*
X232636Y58950D01*
X233055Y58746D01*
X233479Y58552D01*
X233907Y58368D01*
X234340Y58195D01*
X234777Y58032D01*
X235217Y57880D01*
X235662Y57739D01*
X236109Y57608D01*
X236560Y57488D01*
X237013Y57379D01*
X237469Y57281D01*
X237927Y57194D01*
X238387Y57118D01*
X238848Y57053D01*
X239311Y57000D01*
X239776Y56957D01*
X240241Y56926D01*
X240706Y56906D01*
X241173Y56897D01*
D13*
X257048Y84074D02*
X257048Y89154D01*
X257048Y67818D02*
X257048Y63246D01*
D12*
X257706Y140838D02*
X255950Y139374D01*
X255950Y139375D02*
X255649Y139722D01*
X255340Y140062D01*
X255023Y140395D01*
X254698Y140720D01*
X254366Y141037D01*
X254026Y141346D01*
X253678Y141647D01*
X253324Y141940D01*
X252962Y142223D01*
X252594Y142498D01*
X252219Y142765D01*
X251838Y143022D01*
X251451Y143270D01*
X251059Y143508D01*
X250660Y143737D01*
X250256Y143957D01*
X249848Y144167D01*
X249434Y144367D01*
X249015Y144557D01*
X248592Y144736D01*
X248165Y144906D01*
X247734Y145065D01*
X247299Y145214D01*
X246861Y145353D01*
X246420Y145481D01*
X245975Y145598D01*
X245528Y145705D01*
X245079Y145801D01*
X244627Y145886D01*
X244174Y145960D01*
X243718Y146024D01*
X243262Y146076D01*
X242804Y146118D01*
X242346Y146148D01*
X241886Y146168D01*
X241427Y146177D01*
X241426Y148462D01*
X241427Y148463D01*
X241942Y148453D01*
X242457Y148432D01*
X242971Y148398D01*
X243484Y148352D01*
X243996Y148293D01*
X244506Y148222D01*
X245015Y148139D01*
X245521Y148044D01*
X246025Y147936D01*
X246526Y147817D01*
X247024Y147686D01*
X247519Y147542D01*
X248010Y147387D01*
X248498Y147220D01*
X248981Y147041D01*
X249460Y146851D01*
X249934Y146650D01*
X250403Y146437D01*
X250867Y146213D01*
X251326Y145978D01*
X251778Y145731D01*
X252225Y145475D01*
X252665Y145207D01*
X253099Y144929D01*
X253526Y144641D01*
X253946Y144342D01*
X254358Y144033D01*
X254764Y143715D01*
X255161Y143387D01*
X255550Y143050D01*
X255931Y142703D01*
X256304Y142347D01*
X256668Y141983D01*
X257023Y141610D01*
X257369Y141228D01*
X257706Y140838D01*
X257522Y140684D01*
X257189Y141070D01*
X256847Y141447D01*
X256495Y141816D01*
X256135Y142176D01*
X255767Y142528D01*
X255390Y142871D01*
X255005Y143204D01*
X254612Y143529D01*
X254212Y143843D01*
X253804Y144148D01*
X253389Y144444D01*
X252967Y144729D01*
X252538Y145004D01*
X252102Y145268D01*
X251661Y145522D01*
X251213Y145765D01*
X250760Y145998D01*
X250302Y146219D01*
X249838Y146430D01*
X249369Y146629D01*
X248895Y146817D01*
X248418Y146994D01*
X247936Y147159D01*
X247450Y147312D01*
X246961Y147454D01*
X246468Y147584D01*
X245973Y147702D01*
X245475Y147808D01*
X244974Y147903D01*
X244471Y147985D01*
X243967Y148055D01*
X243461Y148113D01*
X242953Y148158D01*
X242445Y148192D01*
X241936Y148213D01*
X241427Y148223D01*
X241427Y147983D01*
X241930Y147974D01*
X242433Y147952D01*
X242936Y147919D01*
X243437Y147874D01*
X243938Y147817D01*
X244436Y147747D01*
X244933Y147666D01*
X245428Y147573D01*
X245921Y147468D01*
X246410Y147351D01*
X246897Y147223D01*
X247381Y147083D01*
X247861Y146931D01*
X248337Y146768D01*
X248810Y146593D01*
X249278Y146407D01*
X249741Y146210D01*
X250200Y146002D01*
X250653Y145783D01*
X251101Y145553D01*
X251544Y145313D01*
X251980Y145062D01*
X252410Y144800D01*
X252834Y144528D01*
X253252Y144247D01*
X253662Y143955D01*
X254065Y143653D01*
X254461Y143342D01*
X254850Y143022D01*
X255230Y142692D01*
X255603Y142353D01*
X255967Y142006D01*
X256323Y141649D01*
X256670Y141285D01*
X257008Y140912D01*
X257338Y140531D01*
X257153Y140377D01*
X256828Y140754D01*
X256493Y141122D01*
X256150Y141483D01*
X255798Y141835D01*
X255438Y142178D01*
X255070Y142513D01*
X254694Y142839D01*
X254310Y143156D01*
X253919Y143463D01*
X253520Y143761D01*
X253114Y144050D01*
X252702Y144328D01*
X252283Y144597D01*
X251858Y144855D01*
X251426Y145103D01*
X250989Y145341D01*
X250546Y145568D01*
X250098Y145785D01*
X249645Y145990D01*
X249187Y146185D01*
X248724Y146369D01*
X248257Y146541D01*
X247786Y146703D01*
X247312Y146853D01*
X246834Y146991D01*
X246353Y147118D01*
X245869Y147234D01*
X245382Y147337D01*
X244893Y147430D01*
X244401Y147510D01*
X243909Y147578D01*
X243414Y147635D01*
X242918Y147680D01*
X242422Y147713D01*
X241924Y147734D01*
X241427Y147743D01*
X241427Y147503D01*
X241919Y147494D01*
X242410Y147473D01*
X242901Y147440D01*
X243391Y147396D01*
X243879Y147340D01*
X244367Y147272D01*
X244852Y147193D01*
X245335Y147102D01*
X245816Y146999D01*
X246295Y146885D01*
X246770Y146760D01*
X247243Y146623D01*
X247712Y146475D01*
X248177Y146315D01*
X248638Y146145D01*
X249096Y145963D01*
X249548Y145771D01*
X249996Y145567D01*
X250439Y145354D01*
X250877Y145129D01*
X251309Y144894D01*
X251735Y144649D01*
X252155Y144393D01*
X252570Y144128D01*
X252977Y143853D01*
X253378Y143568D01*
X253772Y143273D01*
X254159Y142969D01*
X254538Y142656D01*
X254910Y142334D01*
X255274Y142003D01*
X255630Y141664D01*
X255977Y141316D01*
X256317Y140960D01*
X256647Y140596D01*
X256969Y140223D01*
X256784Y140070D01*
X256467Y140437D01*
X256140Y140797D01*
X255805Y141149D01*
X255461Y141493D01*
X255110Y141829D01*
X254750Y142155D01*
X254383Y142474D01*
X254008Y142783D01*
X253625Y143083D01*
X253236Y143374D01*
X252840Y143656D01*
X252437Y143928D01*
X252028Y144190D01*
X251613Y144442D01*
X251191Y144685D01*
X250764Y144917D01*
X250332Y145139D01*
X249894Y145350D01*
X249452Y145551D01*
X249004Y145741D01*
X248553Y145921D01*
X248097Y146089D01*
X247637Y146247D01*
X247174Y146393D01*
X246707Y146528D01*
X246237Y146652D01*
X245764Y146765D01*
X245289Y146867D01*
X244811Y146956D01*
X244332Y147035D01*
X243850Y147102D01*
X243367Y147157D01*
X242883Y147201D01*
X242398Y147233D01*
X241913Y147254D01*
X241427Y147263D01*
X241427Y147023D01*
X241907Y147014D01*
X242387Y146993D01*
X242866Y146962D01*
X243344Y146918D01*
X243821Y146864D01*
X244297Y146797D01*
X244771Y146720D01*
X245242Y146631D01*
X245712Y146531D01*
X246179Y146419D01*
X246643Y146297D01*
X247105Y146163D01*
X247562Y146018D01*
X248017Y145863D01*
X248467Y145696D01*
X248913Y145519D01*
X249355Y145331D01*
X249793Y145133D01*
X250225Y144924D01*
X250652Y144705D01*
X251074Y144475D01*
X251490Y144236D01*
X251901Y143987D01*
X252305Y143728D01*
X252703Y143459D01*
X253094Y143181D01*
X253479Y142893D01*
X253857Y142597D01*
X254227Y142291D01*
X254590Y141977D01*
X254945Y141654D01*
X255293Y141322D01*
X255632Y140983D01*
X255963Y140635D01*
X256286Y140279D01*
X256600Y139916D01*
X256416Y139763D01*
X256105Y140121D01*
X255787Y140472D01*
X255459Y140816D01*
X255124Y141151D01*
X254781Y141479D01*
X254430Y141798D01*
X254071Y142108D01*
X253705Y142410D01*
X253332Y142703D01*
X252952Y142987D01*
X252566Y143262D01*
X252173Y143527D01*
X251773Y143783D01*
X251368Y144030D01*
X250957Y144266D01*
X250540Y144493D01*
X250118Y144709D01*
X249691Y144915D01*
X249259Y145111D01*
X248822Y145297D01*
X248381Y145472D01*
X247937Y145637D01*
X247488Y145790D01*
X247036Y145933D01*
X246580Y146065D01*
X246121Y146187D01*
X245660Y146297D01*
X245196Y146396D01*
X244730Y146483D01*
X244262Y146560D01*
X243792Y146625D01*
X243321Y146680D01*
X242848Y146722D01*
X242375Y146754D01*
X241901Y146774D01*
X241427Y146783D01*
X241427Y146543D01*
X241895Y146534D01*
X242363Y146514D01*
X242831Y146483D01*
X243297Y146441D01*
X243763Y146387D01*
X244227Y146323D01*
X244689Y146247D01*
X245150Y146160D01*
X245608Y146062D01*
X246064Y145954D01*
X246516Y145834D01*
X246966Y145703D01*
X247413Y145562D01*
X247856Y145410D01*
X248296Y145248D01*
X248731Y145075D01*
X249162Y144892D01*
X249589Y144698D01*
X250011Y144494D01*
X250428Y144280D01*
X250839Y144057D01*
X251245Y143823D01*
X251646Y143580D01*
X252040Y143327D01*
X252429Y143065D01*
X252810Y142794D01*
X253186Y142513D01*
X253554Y142224D01*
X253916Y141926D01*
X254270Y141619D01*
X254616Y141304D01*
X254956Y140981D01*
X255287Y140649D01*
X255610Y140310D01*
X255925Y139963D01*
X256231Y139609D01*
X256047Y139455D01*
X255744Y139805D01*
X255433Y140148D01*
X255114Y140483D01*
X254787Y140810D01*
X254452Y141129D01*
X254110Y141440D01*
X253760Y141743D01*
X253403Y142037D01*
X253039Y142323D01*
X252669Y142600D01*
X252291Y142868D01*
X251908Y143127D01*
X251518Y143377D01*
X251123Y143617D01*
X250722Y143847D01*
X250315Y144068D01*
X249904Y144279D01*
X249487Y144481D01*
X249066Y144672D01*
X248640Y144853D01*
X248210Y145024D01*
X247776Y145184D01*
X247338Y145334D01*
X246897Y145474D01*
X246453Y145602D01*
X246006Y145721D01*
X245556Y145828D01*
X245103Y145925D01*
X244649Y146010D01*
X244192Y146085D01*
X243734Y146149D01*
X243274Y146202D01*
X242813Y146244D01*
X242352Y146274D01*
X241889Y146294D01*
X241427Y146303D01*
X241174Y148462D02*
X241174Y146176D01*
X241173Y146177D02*
X240708Y146168D01*
X240243Y146148D01*
X239779Y146117D01*
X239316Y146074D01*
X238854Y146020D01*
X238393Y145955D01*
X237934Y145879D01*
X237477Y145792D01*
X237022Y145694D01*
X236570Y145584D01*
X236120Y145464D01*
X235674Y145333D01*
X235231Y145191D01*
X234791Y145038D01*
X234356Y144875D01*
X233924Y144701D01*
X233497Y144517D01*
X233074Y144323D01*
X232656Y144118D01*
X232243Y143903D01*
X231836Y143678D01*
X231434Y143444D01*
X231038Y143200D01*
X230648Y142946D01*
X230264Y142683D01*
X229887Y142410D01*
X229517Y142129D01*
X229153Y141839D01*
X228797Y141540D01*
X228448Y141232D01*
X228106Y140916D01*
X227772Y140592D01*
X227447Y140259D01*
X227129Y139919D01*
X226820Y139572D01*
X226519Y139217D01*
X226227Y138855D01*
X225944Y138485D01*
X225670Y138109D01*
X225405Y137727D01*
X225149Y137338D01*
X224903Y136943D01*
X224667Y136542D01*
X224440Y136136D01*
X222423Y137211D01*
X222423Y137212D01*
X222677Y137667D01*
X222941Y138117D01*
X223217Y138559D01*
X223503Y138995D01*
X223800Y139424D01*
X224106Y139846D01*
X224424Y140260D01*
X224751Y140666D01*
X225088Y141064D01*
X225434Y141453D01*
X225790Y141835D01*
X226155Y142207D01*
X226529Y142570D01*
X226911Y142925D01*
X227302Y143270D01*
X227702Y143605D01*
X228109Y143930D01*
X228524Y144246D01*
X228947Y144551D01*
X229377Y144846D01*
X229814Y145130D01*
X230258Y145404D01*
X230708Y145667D01*
X231165Y145919D01*
X231627Y146159D01*
X232096Y146389D01*
X232569Y146607D01*
X233048Y146813D01*
X233532Y147008D01*
X234020Y147190D01*
X234513Y147361D01*
X235010Y147520D01*
X235510Y147667D01*
X236014Y147802D01*
X236521Y147924D01*
X237030Y148034D01*
X237543Y148131D01*
X238057Y148216D01*
X238574Y148289D01*
X239091Y148349D01*
X239611Y148396D01*
X240131Y148431D01*
X240652Y148453D01*
X241173Y148463D01*
X241173Y148223D01*
X240658Y148213D01*
X240143Y148191D01*
X239628Y148157D01*
X239115Y148110D01*
X238603Y148051D01*
X238092Y147979D01*
X237584Y147895D01*
X237077Y147798D01*
X236573Y147690D01*
X236072Y147569D01*
X235574Y147436D01*
X235079Y147291D01*
X234588Y147133D01*
X234101Y146964D01*
X233619Y146784D01*
X233140Y146591D01*
X232667Y146387D01*
X232198Y146172D01*
X231735Y145945D01*
X231278Y145707D01*
X230827Y145458D01*
X230381Y145198D01*
X229943Y144928D01*
X229510Y144647D01*
X229085Y144355D01*
X228667Y144053D01*
X228257Y143741D01*
X227854Y143419D01*
X227459Y143088D01*
X227073Y142747D01*
X226694Y142397D01*
X226325Y142037D01*
X225964Y141669D01*
X225612Y141292D01*
X225269Y140907D01*
X224936Y140513D01*
X224613Y140112D01*
X224299Y139703D01*
X223996Y139286D01*
X223703Y138862D01*
X223420Y138431D01*
X223147Y137993D01*
X222886Y137549D01*
X222635Y137099D01*
X222846Y136986D01*
X223094Y137431D01*
X223353Y137870D01*
X223622Y138303D01*
X223902Y138729D01*
X224192Y139148D01*
X224492Y139560D01*
X224802Y139964D01*
X225122Y140361D01*
X225451Y140750D01*
X225790Y141131D01*
X226138Y141504D01*
X226494Y141868D01*
X226860Y142223D01*
X227234Y142569D01*
X227616Y142906D01*
X228006Y143234D01*
X228405Y143552D01*
X228810Y143860D01*
X229224Y144159D01*
X229644Y144447D01*
X230071Y144725D01*
X230505Y144993D01*
X230945Y145249D01*
X231391Y145496D01*
X231843Y145731D01*
X232301Y145955D01*
X232764Y146168D01*
X233232Y146370D01*
X233705Y146560D01*
X234182Y146739D01*
X234664Y146906D01*
X235149Y147061D01*
X235638Y147204D01*
X236131Y147336D01*
X236626Y147456D01*
X237124Y147563D01*
X237625Y147658D01*
X238128Y147742D01*
X238632Y147813D01*
X239139Y147871D01*
X239646Y147918D01*
X240155Y147952D01*
X240664Y147973D01*
X241173Y147983D01*
X241173Y147743D01*
X240670Y147733D01*
X240166Y147712D01*
X239664Y147678D01*
X239162Y147632D01*
X238662Y147574D01*
X238163Y147504D01*
X237666Y147422D01*
X237171Y147328D01*
X236679Y147221D01*
X236189Y147103D01*
X235702Y146973D01*
X235219Y146831D01*
X234739Y146678D01*
X234263Y146513D01*
X233791Y146336D01*
X233324Y146148D01*
X232862Y145949D01*
X232404Y145738D01*
X231951Y145516D01*
X231505Y145284D01*
X231063Y145041D01*
X230628Y144787D01*
X230200Y144522D01*
X229777Y144248D01*
X229362Y143963D01*
X228954Y143668D01*
X228552Y143363D01*
X228159Y143049D01*
X227773Y142725D01*
X227395Y142392D01*
X227025Y142049D01*
X226664Y141698D01*
X226312Y141338D01*
X225968Y140970D01*
X225633Y140594D01*
X225308Y140209D01*
X224992Y139817D01*
X224685Y139417D01*
X224389Y139010D01*
X224102Y138596D01*
X223825Y138175D01*
X223559Y137747D01*
X223303Y137313D01*
X223058Y136873D01*
X223270Y136760D01*
X223512Y137195D01*
X223765Y137624D01*
X224028Y138046D01*
X224302Y138463D01*
X224585Y138872D01*
X224878Y139274D01*
X225181Y139669D01*
X225493Y140057D01*
X225815Y140437D01*
X226146Y140809D01*
X226486Y141173D01*
X226834Y141529D01*
X227191Y141876D01*
X227556Y142214D01*
X227930Y142543D01*
X228311Y142863D01*
X228700Y143174D01*
X229097Y143475D01*
X229500Y143766D01*
X229911Y144048D01*
X230328Y144320D01*
X230752Y144581D01*
X231182Y144832D01*
X231618Y145072D01*
X232059Y145302D01*
X232507Y145521D01*
X232959Y145729D01*
X233416Y145926D01*
X233878Y146112D01*
X234344Y146287D01*
X234814Y146450D01*
X235289Y146602D01*
X235766Y146742D01*
X236247Y146870D01*
X236731Y146987D01*
X237218Y147092D01*
X237707Y147186D01*
X238198Y147267D01*
X238691Y147336D01*
X239186Y147394D01*
X239681Y147439D01*
X240178Y147472D01*
X240676Y147493D01*
X241173Y147503D01*
X241173Y147263D01*
X240682Y147254D01*
X240190Y147233D01*
X239699Y147200D01*
X239209Y147155D01*
X238721Y147098D01*
X238233Y147029D01*
X237748Y146949D01*
X237265Y146857D01*
X236784Y146753D01*
X236306Y146638D01*
X235830Y146511D01*
X235358Y146372D01*
X234890Y146222D01*
X234425Y146061D01*
X233964Y145888D01*
X233508Y145704D01*
X233056Y145510D01*
X232609Y145304D01*
X232167Y145088D01*
X231731Y144861D01*
X231300Y144623D01*
X230875Y144375D01*
X230457Y144117D01*
X230044Y143849D01*
X229639Y143570D01*
X229240Y143282D01*
X228848Y142985D01*
X228464Y142678D01*
X228087Y142361D01*
X227718Y142036D01*
X227357Y141702D01*
X227004Y141359D01*
X226659Y141008D01*
X226324Y140648D01*
X225997Y140280D01*
X225679Y139905D01*
X225370Y139522D01*
X225071Y139132D01*
X224781Y138734D01*
X224501Y138329D01*
X224231Y137918D01*
X223971Y137501D01*
X223721Y137077D01*
X223482Y136647D01*
X223694Y136534D01*
X223930Y136959D01*
X224177Y137377D01*
X224434Y137790D01*
X224701Y138196D01*
X224978Y138596D01*
X225264Y138989D01*
X225560Y139374D01*
X225865Y139753D01*
X226179Y140124D01*
X226502Y140487D01*
X226833Y140842D01*
X227174Y141189D01*
X227522Y141528D01*
X227879Y141858D01*
X228244Y142180D01*
X228616Y142492D01*
X228996Y142796D01*
X229383Y143090D01*
X229777Y143374D01*
X230178Y143649D01*
X230585Y143914D01*
X230999Y144169D01*
X231419Y144414D01*
X231844Y144649D01*
X232275Y144873D01*
X232712Y145087D01*
X233154Y145290D01*
X233600Y145483D01*
X234051Y145664D01*
X234506Y145835D01*
X234965Y145994D01*
X235428Y146142D01*
X235894Y146279D01*
X236364Y146405D01*
X236837Y146519D01*
X237312Y146622D01*
X237789Y146713D01*
X238269Y146792D01*
X238750Y146860D01*
X239233Y146916D01*
X239717Y146960D01*
X240202Y146993D01*
X240687Y147014D01*
X241173Y147023D01*
X241173Y146783D01*
X240693Y146774D01*
X240214Y146753D01*
X239735Y146721D01*
X239256Y146677D01*
X238779Y146622D01*
X238304Y146555D01*
X237830Y146476D01*
X237359Y146386D01*
X236889Y146285D01*
X236422Y146172D01*
X235959Y146048D01*
X235498Y145913D01*
X235041Y145766D01*
X234587Y145609D01*
X234137Y145440D01*
X233692Y145261D01*
X233251Y145071D01*
X232815Y144870D01*
X232383Y144659D01*
X231957Y144437D01*
X231537Y144206D01*
X231122Y143964D01*
X230714Y143711D01*
X230311Y143450D01*
X229915Y143178D01*
X229526Y142897D01*
X229143Y142606D01*
X228768Y142307D01*
X228400Y141998D01*
X228040Y141681D01*
X227688Y141354D01*
X227344Y141020D01*
X227007Y140677D01*
X226680Y140326D01*
X226361Y139967D01*
X226050Y139601D01*
X225749Y139227D01*
X225457Y138846D01*
X225174Y138458D01*
X224901Y138063D01*
X224637Y137662D01*
X224383Y137254D01*
X224139Y136841D01*
X223905Y136421D01*
X224117Y136308D01*
X224348Y136722D01*
X224589Y137131D01*
X224840Y137534D01*
X225100Y137930D01*
X225370Y138320D01*
X225650Y138703D01*
X225938Y139079D01*
X226236Y139449D01*
X226542Y139811D01*
X226858Y140165D01*
X227181Y140512D01*
X227513Y140850D01*
X227854Y141181D01*
X228202Y141503D01*
X228557Y141817D01*
X228921Y142121D01*
X229291Y142417D01*
X229669Y142704D01*
X230053Y142982D01*
X230445Y143250D01*
X230842Y143509D01*
X231246Y143758D01*
X231655Y143997D01*
X232071Y144226D01*
X232491Y144445D01*
X232917Y144653D01*
X233348Y144852D01*
X233784Y145039D01*
X234224Y145217D01*
X234668Y145383D01*
X235116Y145538D01*
X235568Y145683D01*
X236023Y145817D01*
X236481Y145939D01*
X236942Y146051D01*
X237405Y146151D01*
X237871Y146240D01*
X238339Y146317D01*
X238809Y146383D01*
X239280Y146438D01*
X239752Y146482D01*
X240225Y146513D01*
X240699Y146534D01*
X241173Y146543D01*
X241173Y146303D01*
X240705Y146294D01*
X240237Y146274D01*
X239770Y146242D01*
X239303Y146199D01*
X238838Y146145D01*
X238374Y146080D01*
X237912Y146003D01*
X237452Y145915D01*
X236994Y145816D01*
X236539Y145706D01*
X236087Y145585D01*
X235637Y145453D01*
X235191Y145311D01*
X234749Y145157D01*
X234310Y144993D01*
X233876Y144818D01*
X233446Y144632D01*
X233020Y144437D01*
X232599Y144230D01*
X232184Y144014D01*
X231774Y143788D01*
X231369Y143552D01*
X230971Y143306D01*
X230578Y143051D01*
X230192Y142786D01*
X229812Y142512D01*
X229439Y142228D01*
X229073Y141936D01*
X228714Y141635D01*
X228363Y141325D01*
X228019Y141007D01*
X227683Y140681D01*
X227355Y140346D01*
X227036Y140004D01*
X226724Y139654D01*
X226421Y139297D01*
X226128Y138932D01*
X225842Y138560D01*
X225567Y138182D01*
X225300Y137797D01*
X225043Y137405D01*
X224795Y137008D01*
X224557Y136604D01*
X224329Y136195D01*
X241426Y105538D02*
X241426Y107824D01*
X241427Y107823D02*
X241895Y107832D01*
X242363Y107853D01*
X242831Y107884D01*
X243298Y107927D01*
X243763Y107982D01*
X244227Y108048D01*
X244689Y108125D01*
X245149Y108213D01*
X245607Y108313D01*
X246063Y108424D01*
X246515Y108546D01*
X246964Y108679D01*
X247410Y108823D01*
X247853Y108977D01*
X248291Y109143D01*
X248725Y109319D01*
X249155Y109506D01*
X249580Y109703D01*
X250000Y109910D01*
X250415Y110128D01*
X250825Y110356D01*
X251229Y110593D01*
X251627Y110841D01*
X252018Y111098D01*
X252404Y111365D01*
X252783Y111641D01*
X253154Y111926D01*
X253519Y112220D01*
X253877Y112523D01*
X254227Y112835D01*
X254569Y113155D01*
X254903Y113483D01*
X255229Y113819D01*
X255547Y114164D01*
X255857Y114516D01*
X257601Y113039D01*
X257602Y113039D01*
X257255Y112644D01*
X256899Y112258D01*
X256534Y111881D01*
X256159Y111512D01*
X255776Y111153D01*
X255383Y110804D01*
X254983Y110464D01*
X254574Y110134D01*
X254157Y109814D01*
X253733Y109505D01*
X253301Y109206D01*
X252862Y108917D01*
X252416Y108640D01*
X251963Y108373D01*
X251504Y108118D01*
X251039Y107874D01*
X250568Y107641D01*
X250091Y107420D01*
X249609Y107211D01*
X249122Y107013D01*
X248631Y106828D01*
X248135Y106654D01*
X247635Y106493D01*
X247131Y106344D01*
X246624Y106208D01*
X246113Y106084D01*
X245600Y105972D01*
X245084Y105873D01*
X244566Y105787D01*
X244046Y105713D01*
X243524Y105653D01*
X243001Y105605D01*
X242477Y105569D01*
X241952Y105547D01*
X241427Y105537D01*
X241427Y105777D01*
X241946Y105787D01*
X242465Y105809D01*
X242983Y105844D01*
X243500Y105891D01*
X244016Y105952D01*
X244530Y106024D01*
X245043Y106110D01*
X245553Y106207D01*
X246060Y106318D01*
X246565Y106440D01*
X247067Y106575D01*
X247565Y106723D01*
X248059Y106882D01*
X248549Y107053D01*
X249035Y107237D01*
X249516Y107432D01*
X249993Y107639D01*
X250464Y107857D01*
X250930Y108087D01*
X251390Y108329D01*
X251843Y108581D01*
X252291Y108845D01*
X252732Y109119D01*
X253166Y109404D01*
X253593Y109700D01*
X254013Y110006D01*
X254425Y110322D01*
X254829Y110648D01*
X255225Y110984D01*
X255613Y111330D01*
X255992Y111685D01*
X256362Y112049D01*
X256724Y112422D01*
X257076Y112804D01*
X257419Y113194D01*
X257235Y113349D01*
X256897Y112963D01*
X256549Y112586D01*
X256191Y112217D01*
X255825Y111857D01*
X255450Y111506D01*
X255067Y111165D01*
X254675Y110833D01*
X254276Y110510D01*
X253869Y110198D01*
X253454Y109895D01*
X253032Y109603D01*
X252602Y109321D01*
X252166Y109050D01*
X251724Y108789D01*
X251275Y108540D01*
X250821Y108301D01*
X250360Y108074D01*
X249895Y107858D01*
X249424Y107653D01*
X248948Y107460D01*
X248467Y107279D01*
X247983Y107110D01*
X247494Y106952D01*
X247002Y106807D01*
X246506Y106673D01*
X246007Y106552D01*
X245505Y106443D01*
X245001Y106346D01*
X244495Y106262D01*
X243986Y106190D01*
X243476Y106130D01*
X242965Y106083D01*
X242453Y106049D01*
X241940Y106027D01*
X241427Y106017D01*
X241427Y106257D01*
X241934Y106267D01*
X242441Y106288D01*
X242947Y106323D01*
X243453Y106369D01*
X243957Y106428D01*
X244459Y106499D01*
X244960Y106582D01*
X245458Y106678D01*
X245954Y106786D01*
X246447Y106906D01*
X246937Y107038D01*
X247424Y107182D01*
X247907Y107337D01*
X248386Y107505D01*
X248861Y107684D01*
X249331Y107875D01*
X249796Y108077D01*
X250257Y108290D01*
X250712Y108515D01*
X251161Y108751D01*
X251605Y108998D01*
X252042Y109255D01*
X252473Y109523D01*
X252897Y109802D01*
X253314Y110090D01*
X253724Y110389D01*
X254127Y110698D01*
X254522Y111017D01*
X254909Y111345D01*
X255288Y111683D01*
X255658Y112030D01*
X256020Y112385D01*
X256373Y112750D01*
X256717Y113123D01*
X257052Y113504D01*
X256869Y113659D01*
X256538Y113282D01*
X256198Y112914D01*
X255849Y112554D01*
X255491Y112202D01*
X255125Y111859D01*
X254751Y111526D01*
X254368Y111201D01*
X253978Y110886D01*
X253580Y110581D01*
X253175Y110286D01*
X252762Y110000D01*
X252343Y109725D01*
X251917Y109460D01*
X251485Y109206D01*
X251047Y108962D01*
X250603Y108729D01*
X250153Y108507D01*
X249698Y108296D01*
X249238Y108096D01*
X248773Y107908D01*
X248304Y107730D01*
X247831Y107565D01*
X247353Y107411D01*
X246872Y107269D01*
X246388Y107138D01*
X245901Y107020D01*
X245411Y106913D01*
X244918Y106819D01*
X244424Y106736D01*
X243927Y106666D01*
X243429Y106608D01*
X242929Y106562D01*
X242429Y106528D01*
X241928Y106507D01*
X241427Y106497D01*
X241427Y106737D01*
X241922Y106747D01*
X242417Y106768D01*
X242912Y106801D01*
X243405Y106847D01*
X243897Y106904D01*
X244388Y106974D01*
X244877Y107055D01*
X245363Y107149D01*
X245848Y107254D01*
X246329Y107371D01*
X246808Y107500D01*
X247283Y107640D01*
X247755Y107793D01*
X248222Y107956D01*
X248686Y108131D01*
X249145Y108317D01*
X249600Y108515D01*
X250049Y108723D01*
X250494Y108943D01*
X250932Y109173D01*
X251366Y109414D01*
X251793Y109665D01*
X252213Y109927D01*
X252628Y110199D01*
X253035Y110481D01*
X253436Y110773D01*
X253829Y111075D01*
X254214Y111386D01*
X254592Y111706D01*
X254962Y112036D01*
X255324Y112374D01*
X255678Y112722D01*
X256023Y113078D01*
X256359Y113442D01*
X256686Y113814D01*
X256503Y113969D01*
X256179Y113601D01*
X255847Y113242D01*
X255507Y112890D01*
X255157Y112547D01*
X254800Y112212D01*
X254434Y111887D01*
X254061Y111570D01*
X253680Y111263D01*
X253291Y110965D01*
X252896Y110676D01*
X252493Y110398D01*
X252084Y110129D01*
X251668Y109870D01*
X251246Y109622D01*
X250818Y109384D01*
X250385Y109157D01*
X249946Y108940D01*
X249501Y108734D01*
X249052Y108539D01*
X248599Y108355D01*
X248141Y108182D01*
X247679Y108020D01*
X247213Y107870D01*
X246743Y107731D01*
X246270Y107604D01*
X245795Y107488D01*
X245316Y107384D01*
X244835Y107292D01*
X244352Y107211D01*
X243868Y107142D01*
X243381Y107085D01*
X242894Y107041D01*
X242405Y107008D01*
X241916Y106986D01*
X241427Y106977D01*
X241427Y107217D01*
X241910Y107226D01*
X242393Y107247D01*
X242876Y107280D01*
X243358Y107324D01*
X243838Y107380D01*
X244317Y107448D01*
X244794Y107528D01*
X245269Y107619D01*
X245741Y107722D01*
X246211Y107836D01*
X246678Y107962D01*
X247142Y108099D01*
X247602Y108248D01*
X248059Y108407D01*
X248511Y108578D01*
X248960Y108760D01*
X249403Y108953D01*
X249842Y109156D01*
X250276Y109370D01*
X250704Y109595D01*
X251127Y109830D01*
X251543Y110075D01*
X251954Y110331D01*
X252358Y110596D01*
X252756Y110872D01*
X253147Y111156D01*
X253531Y111451D01*
X253907Y111754D01*
X254276Y112067D01*
X254637Y112389D01*
X254990Y112719D01*
X255335Y113058D01*
X255672Y113405D01*
X256000Y113761D01*
X256319Y114124D01*
X256136Y114279D01*
X255821Y113920D01*
X255497Y113569D01*
X255164Y113226D01*
X254823Y112892D01*
X254475Y112565D01*
X254118Y112248D01*
X253753Y111939D01*
X253382Y111639D01*
X253003Y111348D01*
X252617Y111067D01*
X252224Y110795D01*
X251824Y110533D01*
X251419Y110281D01*
X251007Y110038D01*
X250590Y109806D01*
X250167Y109584D01*
X249738Y109373D01*
X249305Y109172D01*
X248867Y108981D01*
X248424Y108802D01*
X247977Y108633D01*
X247526Y108475D01*
X247072Y108329D01*
X246614Y108193D01*
X246152Y108069D01*
X245688Y107956D01*
X245221Y107854D01*
X244752Y107764D01*
X244281Y107686D01*
X243808Y107619D01*
X243334Y107563D01*
X242858Y107519D01*
X242381Y107487D01*
X241904Y107466D01*
X241427Y107457D01*
X241427Y107697D01*
X241898Y107706D01*
X242370Y107727D01*
X242840Y107759D01*
X243310Y107802D01*
X243779Y107857D01*
X244246Y107923D01*
X244711Y108001D01*
X245174Y108090D01*
X245635Y108190D01*
X246093Y108302D01*
X246549Y108424D01*
X247001Y108558D01*
X247450Y108703D01*
X247896Y108859D01*
X248337Y109025D01*
X248774Y109203D01*
X249207Y109391D01*
X249635Y109589D01*
X250058Y109798D01*
X250475Y110017D01*
X250888Y110246D01*
X251294Y110486D01*
X251695Y110735D01*
X252089Y110994D01*
X252477Y111262D01*
X252858Y111540D01*
X253233Y111827D01*
X253600Y112123D01*
X253960Y112428D01*
X254312Y112742D01*
X254657Y113064D01*
X254993Y113395D01*
X255321Y113733D01*
X255641Y114080D01*
X255953Y114434D01*
X222728Y116241D02*
X224713Y117376D01*
X224712Y117375D02*
X224950Y116977D01*
X225196Y116585D01*
X225453Y116200D01*
X225718Y115820D01*
X225992Y115447D01*
X226276Y115081D01*
X226568Y114722D01*
X226869Y114370D01*
X227178Y114025D01*
X227495Y113688D01*
X227821Y113358D01*
X228154Y113037D01*
X228495Y112723D01*
X228844Y112418D01*
X229199Y112122D01*
X229562Y111834D01*
X229932Y111555D01*
X230308Y111285D01*
X230691Y111024D01*
X231080Y110773D01*
X231474Y110531D01*
X231875Y110298D01*
X232281Y110076D01*
X232692Y109863D01*
X233109Y109660D01*
X233530Y109467D01*
X233955Y109285D01*
X234385Y109113D01*
X234819Y108951D01*
X235257Y108800D01*
X235698Y108659D01*
X236143Y108529D01*
X236590Y108410D01*
X237040Y108302D01*
X237493Y108204D01*
X237948Y108118D01*
X238405Y108043D01*
X238864Y107978D01*
X239324Y107925D01*
X239785Y107883D01*
X240247Y107852D01*
X240710Y107832D01*
X241173Y107823D01*
X241173Y105538D01*
X241173Y105537D01*
X240654Y105547D01*
X240135Y105569D01*
X239617Y105603D01*
X239100Y105650D01*
X238585Y105709D01*
X238071Y105781D01*
X237559Y105865D01*
X237049Y105962D01*
X236541Y106071D01*
X236037Y106192D01*
X235535Y106325D01*
X235037Y106471D01*
X234542Y106628D01*
X234052Y106798D01*
X233565Y106979D01*
X233083Y107172D01*
X232606Y107376D01*
X232135Y107592D01*
X231668Y107819D01*
X231207Y108058D01*
X230752Y108307D01*
X230303Y108568D01*
X229861Y108839D01*
X229425Y109121D01*
X228996Y109413D01*
X228574Y109716D01*
X228160Y110029D01*
X227754Y110351D01*
X227355Y110684D01*
X226964Y111026D01*
X226582Y111377D01*
X226209Y111737D01*
X225844Y112107D01*
X225489Y112485D01*
X225142Y112871D01*
X224805Y113266D01*
X224478Y113669D01*
X224161Y114079D01*
X223853Y114498D01*
X223556Y114923D01*
X223269Y115356D01*
X222993Y115795D01*
X222728Y116241D01*
X222936Y116360D01*
X223198Y115919D01*
X223472Y115485D01*
X223755Y115057D01*
X224049Y114636D01*
X224353Y114223D01*
X224667Y113817D01*
X224991Y113419D01*
X225324Y113028D01*
X225666Y112646D01*
X226018Y112273D01*
X226378Y111907D01*
X226747Y111551D01*
X227125Y111204D01*
X227511Y110866D01*
X227905Y110537D01*
X228307Y110218D01*
X228717Y109909D01*
X229134Y109610D01*
X229558Y109321D01*
X229989Y109042D01*
X230426Y108774D01*
X230870Y108516D01*
X231320Y108270D01*
X231775Y108034D01*
X232237Y107809D01*
X232703Y107596D01*
X233175Y107393D01*
X233651Y107203D01*
X234132Y107024D01*
X234617Y106856D01*
X235106Y106701D01*
X235599Y106557D01*
X236095Y106425D01*
X236594Y106305D01*
X237095Y106197D01*
X237600Y106102D01*
X238106Y106019D01*
X238614Y105948D01*
X239124Y105889D01*
X239635Y105842D01*
X240147Y105808D01*
X240660Y105787D01*
X241173Y105777D01*
X241173Y106017D01*
X240665Y106027D01*
X240159Y106048D01*
X239652Y106082D01*
X239147Y106128D01*
X238643Y106186D01*
X238141Y106256D01*
X237640Y106338D01*
X237142Y106433D01*
X236646Y106539D01*
X236153Y106658D01*
X235663Y106788D01*
X235176Y106930D01*
X234692Y107084D01*
X234213Y107250D01*
X233737Y107427D01*
X233267Y107615D01*
X232800Y107815D01*
X232339Y108026D01*
X231883Y108248D01*
X231432Y108481D01*
X230988Y108725D01*
X230549Y108980D01*
X230116Y109245D01*
X229691Y109521D01*
X229271Y109806D01*
X228859Y110102D01*
X228454Y110408D01*
X228057Y110723D01*
X227668Y111048D01*
X227286Y111382D01*
X226912Y111725D01*
X226547Y112078D01*
X226191Y112439D01*
X225843Y112808D01*
X225505Y113186D01*
X225176Y113572D01*
X224856Y113965D01*
X224545Y114367D01*
X224245Y114775D01*
X223954Y115191D01*
X223674Y115614D01*
X223404Y116043D01*
X223144Y116479D01*
X223353Y116598D01*
X223609Y116167D01*
X223876Y115743D01*
X224153Y115325D01*
X224441Y114914D01*
X224738Y114510D01*
X225044Y114114D01*
X225361Y113724D01*
X225686Y113343D01*
X226021Y112970D01*
X226364Y112605D01*
X226717Y112248D01*
X227077Y111900D01*
X227447Y111560D01*
X227824Y111230D01*
X228209Y110909D01*
X228602Y110597D01*
X229002Y110295D01*
X229409Y110003D01*
X229823Y109720D01*
X230244Y109448D01*
X230672Y109186D01*
X231106Y108934D01*
X231545Y108693D01*
X231991Y108463D01*
X232441Y108243D01*
X232897Y108035D01*
X233358Y107837D01*
X233824Y107651D01*
X234293Y107476D01*
X234767Y107312D01*
X235245Y107160D01*
X235726Y107020D01*
X236211Y106891D01*
X236699Y106774D01*
X237189Y106668D01*
X237681Y106575D01*
X238176Y106493D01*
X238673Y106424D01*
X239171Y106366D01*
X239670Y106321D01*
X240170Y106288D01*
X240671Y106267D01*
X241173Y106257D01*
X241173Y106497D01*
X240677Y106506D01*
X240182Y106527D01*
X239688Y106560D01*
X239194Y106605D01*
X238702Y106662D01*
X238211Y106731D01*
X237722Y106811D01*
X237235Y106904D01*
X236751Y107008D01*
X236269Y107124D01*
X235790Y107251D01*
X235315Y107390D01*
X234842Y107540D01*
X234374Y107702D01*
X233910Y107875D01*
X233450Y108059D01*
X232994Y108254D01*
X232544Y108460D01*
X232098Y108677D01*
X231658Y108905D01*
X231224Y109143D01*
X230795Y109392D01*
X230372Y109651D01*
X229956Y109920D01*
X229547Y110199D01*
X229144Y110488D01*
X228749Y110787D01*
X228361Y111095D01*
X227980Y111412D01*
X227607Y111739D01*
X227243Y112074D01*
X226886Y112418D01*
X226538Y112771D01*
X226198Y113131D01*
X225867Y113500D01*
X225546Y113877D01*
X225233Y114262D01*
X224930Y114654D01*
X224636Y115053D01*
X224353Y115459D01*
X224079Y115872D01*
X223815Y116291D01*
X223561Y116717D01*
X223769Y116836D01*
X224020Y116416D01*
X224281Y116001D01*
X224552Y115593D01*
X224832Y115192D01*
X225122Y114797D01*
X225422Y114410D01*
X225731Y114030D01*
X226049Y113658D01*
X226375Y113293D01*
X226711Y112937D01*
X227055Y112588D01*
X227408Y112248D01*
X227768Y111917D01*
X228136Y111594D01*
X228513Y111281D01*
X228896Y110976D01*
X229287Y110681D01*
X229685Y110396D01*
X230089Y110120D01*
X230500Y109854D01*
X230918Y109598D01*
X231341Y109352D01*
X231771Y109117D01*
X232206Y108892D01*
X232646Y108678D01*
X233091Y108474D01*
X233541Y108281D01*
X233996Y108099D01*
X234455Y107928D01*
X234917Y107768D01*
X235384Y107620D01*
X235854Y107482D01*
X236327Y107356D01*
X236803Y107242D01*
X237282Y107139D01*
X237763Y107048D01*
X238246Y106968D01*
X238731Y106900D01*
X239218Y106844D01*
X239705Y106800D01*
X240194Y106767D01*
X240683Y106746D01*
X241173Y106737D01*
X241173Y106977D01*
X240689Y106986D01*
X240206Y107007D01*
X239723Y107039D01*
X239241Y107083D01*
X238760Y107139D01*
X238281Y107206D01*
X237804Y107284D01*
X237329Y107375D01*
X236856Y107476D01*
X236385Y107589D01*
X235918Y107714D01*
X235453Y107849D01*
X234992Y107996D01*
X234535Y108154D01*
X234082Y108323D01*
X233633Y108503D01*
X233188Y108693D01*
X232748Y108895D01*
X232313Y109107D01*
X231884Y109329D01*
X231459Y109561D01*
X231041Y109804D01*
X230628Y110057D01*
X230222Y110320D01*
X229822Y110592D01*
X229429Y110874D01*
X229043Y111166D01*
X228664Y111467D01*
X228293Y111776D01*
X227929Y112095D01*
X227573Y112422D01*
X227224Y112758D01*
X226884Y113103D01*
X226553Y113455D01*
X226230Y113815D01*
X225916Y114183D01*
X225611Y114558D01*
X225315Y114941D01*
X225028Y115331D01*
X224751Y115727D01*
X224483Y116130D01*
X224226Y116540D01*
X223978Y116955D01*
X224186Y117074D01*
X224431Y116664D01*
X224686Y116259D01*
X224950Y115861D01*
X225224Y115470D01*
X225507Y115085D01*
X225799Y114707D01*
X226101Y114336D01*
X226411Y113972D01*
X226730Y113617D01*
X227058Y113269D01*
X227394Y112929D01*
X227738Y112597D01*
X228089Y112273D01*
X228449Y111959D01*
X228816Y111653D01*
X229191Y111355D01*
X229572Y111068D01*
X229960Y110789D01*
X230355Y110520D01*
X230756Y110260D01*
X231164Y110010D01*
X231577Y109771D01*
X231996Y109541D01*
X232421Y109321D01*
X232850Y109112D01*
X233285Y108913D01*
X233724Y108725D01*
X234168Y108547D01*
X234616Y108380D01*
X235067Y108224D01*
X235523Y108079D01*
X235982Y107945D01*
X236443Y107822D01*
X236908Y107710D01*
X237375Y107610D01*
X237845Y107521D01*
X238316Y107443D01*
X238790Y107377D01*
X239264Y107322D01*
X239740Y107278D01*
X240217Y107247D01*
X240695Y107226D01*
X241173Y107217D01*
X241173Y107457D01*
X240701Y107466D01*
X240229Y107486D01*
X239758Y107518D01*
X239288Y107561D01*
X238819Y107615D01*
X238351Y107681D01*
X237886Y107757D01*
X237422Y107845D01*
X236960Y107945D01*
X236502Y108055D01*
X236045Y108176D01*
X235592Y108309D01*
X235142Y108452D01*
X234696Y108606D01*
X234254Y108771D01*
X233816Y108946D01*
X233382Y109132D01*
X232953Y109329D01*
X232528Y109536D01*
X232109Y109753D01*
X231695Y109980D01*
X231287Y110216D01*
X230884Y110463D01*
X230488Y110720D01*
X230098Y110985D01*
X229714Y111261D01*
X229338Y111545D01*
X228968Y111838D01*
X228605Y112141D01*
X228250Y112452D01*
X227903Y112771D01*
X227563Y113099D01*
X227231Y113435D01*
X226908Y113778D01*
X226592Y114130D01*
X226286Y114489D01*
X225988Y114855D01*
X225699Y115228D01*
X225419Y115608D01*
X225149Y115995D01*
X224888Y116389D01*
X224636Y116788D01*
X224395Y117193D01*
X224603Y117313D01*
X224842Y116912D01*
X225090Y116518D01*
X225348Y116129D01*
X225615Y115747D01*
X225891Y115372D01*
X226177Y115003D01*
X226471Y114641D01*
X226774Y114287D01*
X227085Y113940D01*
X227404Y113601D01*
X227732Y113269D01*
X228068Y112945D01*
X228411Y112630D01*
X228762Y112323D01*
X229120Y112024D01*
X229485Y111735D01*
X229857Y111454D01*
X230236Y111182D01*
X230621Y110919D01*
X231012Y110666D01*
X231410Y110423D01*
X231813Y110189D01*
X232222Y109964D01*
X232636Y109750D01*
X233055Y109546D01*
X233479Y109352D01*
X233907Y109168D01*
X234340Y108995D01*
X234777Y108832D01*
X235217Y108680D01*
X235662Y108539D01*
X236109Y108408D01*
X236560Y108288D01*
X237013Y108179D01*
X237469Y108081D01*
X237927Y107994D01*
X238387Y107918D01*
X238848Y107853D01*
X239311Y107800D01*
X239776Y107757D01*
X240241Y107726D01*
X240706Y107706D01*
X241173Y107697D01*
D13*
X257048Y134874D02*
X257048Y139954D01*
X257048Y118618D02*
X257048Y114046D01*
D10*
X88925Y44676D02*
X84099Y44676D01*
X88925Y43336D02*
X88925Y46017D01*
X88925Y48786D02*
X84099Y48786D01*
X88925Y48786D02*
X88925Y50126D01*
X88923Y50197D01*
X88917Y50269D01*
X88908Y50339D01*
X88895Y50409D01*
X88878Y50479D01*
X88857Y50547D01*
X88833Y50614D01*
X88805Y50680D01*
X88774Y50744D01*
X88739Y50807D01*
X88701Y50867D01*
X88660Y50926D01*
X88616Y50982D01*
X88569Y51036D01*
X88520Y51087D01*
X88467Y51135D01*
X88412Y51181D01*
X88355Y51223D01*
X88295Y51263D01*
X88234Y51299D01*
X88170Y51332D01*
X88105Y51361D01*
X88039Y51387D01*
X87971Y51410D01*
X87902Y51429D01*
X87832Y51444D01*
X87762Y51455D01*
X87691Y51463D01*
X87620Y51467D01*
X87548Y51467D01*
X87477Y51463D01*
X87406Y51455D01*
X87336Y51444D01*
X87266Y51429D01*
X87197Y51410D01*
X87129Y51387D01*
X87063Y51361D01*
X86998Y51332D01*
X86934Y51299D01*
X86873Y51263D01*
X86813Y51223D01*
X86756Y51181D01*
X86701Y51135D01*
X86648Y51087D01*
X86599Y51036D01*
X86552Y50982D01*
X86508Y50926D01*
X86467Y50867D01*
X86429Y50807D01*
X86394Y50744D01*
X86363Y50680D01*
X86335Y50614D01*
X86311Y50547D01*
X86290Y50479D01*
X86273Y50409D01*
X86260Y50339D01*
X86251Y50269D01*
X86245Y50197D01*
X86243Y50126D01*
X86244Y50126D02*
X86244Y48786D01*
X87853Y53943D02*
X88925Y55283D01*
X84099Y55283D01*
X84099Y53943D02*
X84099Y56624D01*
D14*
X109149Y42164D02*
X109149Y41910D01*
X109220Y42164D02*
X109079Y42164D01*
X108997Y42164D02*
X108997Y41910D01*
X108997Y42164D02*
X108927Y42164D01*
X108911Y42162D01*
X108896Y42157D01*
X108883Y42149D01*
X108871Y42137D01*
X108863Y42124D01*
X108858Y42109D01*
X108856Y42093D01*
X108858Y42077D01*
X108863Y42062D01*
X108871Y42049D01*
X108883Y42037D01*
X108896Y42029D01*
X108911Y42024D01*
X108927Y42022D01*
X108927Y42023D02*
X108997Y42023D01*
X108723Y41910D02*
X108723Y42164D01*
X108793Y42164D02*
X108652Y42164D01*
X108571Y42164D02*
X108571Y41910D01*
X108571Y42164D02*
X108500Y42164D01*
X108484Y42162D01*
X108469Y42157D01*
X108456Y42149D01*
X108444Y42137D01*
X108436Y42124D01*
X108431Y42109D01*
X108429Y42093D01*
X108431Y42077D01*
X108436Y42062D01*
X108444Y42049D01*
X108456Y42037D01*
X108469Y42029D01*
X108484Y42024D01*
X108500Y42022D01*
X108500Y42023D02*
X108571Y42023D01*
X108351Y42108D02*
X108281Y42164D01*
X108281Y41910D01*
X108351Y41910D02*
X108210Y41910D01*
X108123Y41981D02*
X108121Y41997D01*
X108116Y42012D01*
X108108Y42025D01*
X108096Y42037D01*
X108083Y42045D01*
X108068Y42050D01*
X108052Y42052D01*
X108036Y42050D01*
X108021Y42045D01*
X108008Y42037D01*
X107996Y42025D01*
X107988Y42012D01*
X107983Y41997D01*
X107981Y41981D01*
X107983Y41965D01*
X107988Y41950D01*
X107996Y41937D01*
X108008Y41925D01*
X108021Y41917D01*
X108036Y41912D01*
X108052Y41910D01*
X108068Y41912D01*
X108083Y41917D01*
X108096Y41925D01*
X108108Y41937D01*
X108116Y41950D01*
X108121Y41965D01*
X108123Y41981D01*
X108108Y42108D02*
X108106Y42121D01*
X108102Y42134D01*
X108094Y42145D01*
X108084Y42154D01*
X108072Y42160D01*
X108059Y42164D01*
X108045Y42164D01*
X108032Y42160D01*
X108020Y42154D01*
X108010Y42145D01*
X108002Y42134D01*
X107998Y42121D01*
X107996Y42108D01*
X107998Y42095D01*
X108002Y42082D01*
X108010Y42071D01*
X108020Y42062D01*
X108032Y42056D01*
X108045Y42052D01*
X108059Y42052D01*
X108072Y42056D01*
X108084Y42062D01*
X108094Y42071D01*
X108102Y42082D01*
X108106Y42095D01*
X108108Y42108D01*
X107886Y42164D02*
X107886Y41910D01*
X107886Y42164D02*
X107815Y42164D01*
X107799Y42162D01*
X107784Y42157D01*
X107771Y42149D01*
X107759Y42137D01*
X107751Y42124D01*
X107746Y42109D01*
X107744Y42093D01*
X107746Y42077D01*
X107751Y42062D01*
X107759Y42049D01*
X107771Y42037D01*
X107784Y42029D01*
X107799Y42024D01*
X107815Y42022D01*
X107815Y42023D02*
X107886Y42023D01*
X107801Y42023D02*
X107745Y41910D01*
D10*
X139979Y44676D02*
X144805Y44676D01*
X144805Y43336D02*
X144805Y46017D01*
X144805Y48786D02*
X139979Y48786D01*
X144805Y48786D02*
X144805Y50126D01*
X144803Y50197D01*
X144797Y50269D01*
X144788Y50339D01*
X144775Y50409D01*
X144758Y50479D01*
X144737Y50547D01*
X144713Y50614D01*
X144685Y50680D01*
X144654Y50744D01*
X144619Y50807D01*
X144581Y50867D01*
X144540Y50926D01*
X144496Y50982D01*
X144449Y51036D01*
X144400Y51087D01*
X144347Y51135D01*
X144292Y51181D01*
X144235Y51223D01*
X144175Y51263D01*
X144114Y51299D01*
X144050Y51332D01*
X143985Y51361D01*
X143919Y51387D01*
X143851Y51410D01*
X143782Y51429D01*
X143712Y51444D01*
X143642Y51455D01*
X143571Y51463D01*
X143500Y51467D01*
X143428Y51467D01*
X143357Y51463D01*
X143286Y51455D01*
X143216Y51444D01*
X143146Y51429D01*
X143077Y51410D01*
X143009Y51387D01*
X142943Y51361D01*
X142878Y51332D01*
X142814Y51299D01*
X142753Y51263D01*
X142693Y51223D01*
X142636Y51181D01*
X142581Y51135D01*
X142528Y51087D01*
X142479Y51036D01*
X142432Y50982D01*
X142388Y50926D01*
X142347Y50867D01*
X142309Y50807D01*
X142274Y50744D01*
X142243Y50680D01*
X142215Y50614D01*
X142191Y50547D01*
X142170Y50479D01*
X142153Y50409D01*
X142140Y50339D01*
X142131Y50269D01*
X142125Y50197D01*
X142123Y50126D01*
X142124Y50126D02*
X142124Y48786D01*
X144805Y55417D02*
X144803Y55485D01*
X144797Y55552D01*
X144788Y55619D01*
X144775Y55686D01*
X144758Y55751D01*
X144737Y55816D01*
X144713Y55879D01*
X144685Y55941D01*
X144654Y56001D01*
X144620Y56059D01*
X144582Y56115D01*
X144542Y56170D01*
X144498Y56221D01*
X144451Y56270D01*
X144402Y56317D01*
X144351Y56361D01*
X144296Y56401D01*
X144240Y56439D01*
X144182Y56473D01*
X144122Y56504D01*
X144060Y56532D01*
X143997Y56556D01*
X143932Y56577D01*
X143867Y56594D01*
X143800Y56607D01*
X143733Y56616D01*
X143666Y56622D01*
X143598Y56624D01*
X144805Y55417D02*
X144803Y55339D01*
X144797Y55261D01*
X144787Y55184D01*
X144774Y55107D01*
X144756Y55031D01*
X144735Y54956D01*
X144710Y54882D01*
X144681Y54810D01*
X144649Y54739D01*
X144613Y54670D01*
X144574Y54602D01*
X144531Y54537D01*
X144485Y54474D01*
X144436Y54413D01*
X144384Y54355D01*
X144329Y54300D01*
X144272Y54247D01*
X144212Y54198D01*
X144149Y54151D01*
X144084Y54108D01*
X144018Y54068D01*
X143949Y54031D01*
X143878Y53998D01*
X143806Y53968D01*
X143733Y53942D01*
X142660Y56222D02*
X142709Y56271D01*
X142761Y56318D01*
X142816Y56361D01*
X142873Y56402D01*
X142932Y56440D01*
X142993Y56474D01*
X143056Y56505D01*
X143120Y56533D01*
X143186Y56557D01*
X143252Y56577D01*
X143320Y56594D01*
X143389Y56607D01*
X143458Y56616D01*
X143528Y56622D01*
X143598Y56624D01*
X142660Y56222D02*
X139979Y53943D01*
X139979Y56624D01*
D14*
X134549Y42164D02*
X134549Y41910D01*
X134620Y42164D02*
X134479Y42164D01*
X134397Y42164D02*
X134397Y41910D01*
X134397Y42164D02*
X134327Y42164D01*
X134311Y42162D01*
X134296Y42157D01*
X134283Y42149D01*
X134271Y42137D01*
X134263Y42124D01*
X134258Y42109D01*
X134256Y42093D01*
X134258Y42077D01*
X134263Y42062D01*
X134271Y42049D01*
X134283Y42037D01*
X134296Y42029D01*
X134311Y42024D01*
X134327Y42022D01*
X134327Y42023D02*
X134397Y42023D01*
X134123Y41910D02*
X134123Y42164D01*
X134193Y42164D02*
X134052Y42164D01*
X133971Y42164D02*
X133971Y41910D01*
X133971Y42164D02*
X133900Y42164D01*
X133884Y42162D01*
X133869Y42157D01*
X133856Y42149D01*
X133844Y42137D01*
X133836Y42124D01*
X133831Y42109D01*
X133829Y42093D01*
X133831Y42077D01*
X133836Y42062D01*
X133844Y42049D01*
X133856Y42037D01*
X133869Y42029D01*
X133884Y42024D01*
X133900Y42022D01*
X133900Y42023D02*
X133971Y42023D01*
X133751Y42108D02*
X133681Y42164D01*
X133681Y41910D01*
X133751Y41910D02*
X133610Y41910D01*
X133523Y41981D02*
X133521Y41997D01*
X133516Y42012D01*
X133508Y42025D01*
X133496Y42037D01*
X133483Y42045D01*
X133468Y42050D01*
X133452Y42052D01*
X133436Y42050D01*
X133421Y42045D01*
X133408Y42037D01*
X133396Y42025D01*
X133388Y42012D01*
X133383Y41997D01*
X133381Y41981D01*
X133383Y41965D01*
X133388Y41950D01*
X133396Y41937D01*
X133408Y41925D01*
X133421Y41917D01*
X133436Y41912D01*
X133452Y41910D01*
X133468Y41912D01*
X133483Y41917D01*
X133496Y41925D01*
X133508Y41937D01*
X133516Y41950D01*
X133521Y41965D01*
X133523Y41981D01*
X133508Y42108D02*
X133506Y42121D01*
X133502Y42134D01*
X133494Y42145D01*
X133484Y42154D01*
X133472Y42160D01*
X133459Y42164D01*
X133445Y42164D01*
X133432Y42160D01*
X133420Y42154D01*
X133410Y42145D01*
X133402Y42134D01*
X133398Y42121D01*
X133396Y42108D01*
X133398Y42095D01*
X133402Y42082D01*
X133410Y42071D01*
X133420Y42062D01*
X133432Y42056D01*
X133445Y42052D01*
X133459Y42052D01*
X133472Y42056D01*
X133484Y42062D01*
X133494Y42071D01*
X133502Y42082D01*
X133506Y42095D01*
X133508Y42108D01*
X133286Y42164D02*
X133286Y41910D01*
X133286Y42164D02*
X133215Y42164D01*
X133199Y42162D01*
X133184Y42157D01*
X133171Y42149D01*
X133159Y42137D01*
X133151Y42124D01*
X133146Y42109D01*
X133144Y42093D01*
X133146Y42077D01*
X133151Y42062D01*
X133159Y42049D01*
X133171Y42037D01*
X133184Y42029D01*
X133199Y42024D01*
X133215Y42022D01*
X133215Y42023D02*
X133286Y42023D01*
X133201Y42023D02*
X133145Y41910D01*
D10*
X88925Y118336D02*
X84099Y118336D01*
X88925Y116996D02*
X88925Y119677D01*
X88925Y122446D02*
X84099Y122446D01*
X88925Y122446D02*
X88925Y123786D01*
X88923Y123857D01*
X88917Y123929D01*
X88908Y123999D01*
X88895Y124069D01*
X88878Y124139D01*
X88857Y124207D01*
X88833Y124274D01*
X88805Y124340D01*
X88774Y124404D01*
X88739Y124467D01*
X88701Y124527D01*
X88660Y124586D01*
X88616Y124642D01*
X88569Y124696D01*
X88520Y124747D01*
X88467Y124795D01*
X88412Y124841D01*
X88355Y124883D01*
X88295Y124923D01*
X88234Y124959D01*
X88170Y124992D01*
X88105Y125021D01*
X88039Y125047D01*
X87971Y125070D01*
X87902Y125089D01*
X87832Y125104D01*
X87762Y125115D01*
X87691Y125123D01*
X87620Y125127D01*
X87548Y125127D01*
X87477Y125123D01*
X87406Y125115D01*
X87336Y125104D01*
X87266Y125089D01*
X87197Y125070D01*
X87129Y125047D01*
X87063Y125021D01*
X86998Y124992D01*
X86934Y124959D01*
X86873Y124923D01*
X86813Y124883D01*
X86756Y124841D01*
X86701Y124795D01*
X86648Y124747D01*
X86599Y124696D01*
X86552Y124642D01*
X86508Y124586D01*
X86467Y124527D01*
X86429Y124467D01*
X86394Y124404D01*
X86363Y124340D01*
X86335Y124274D01*
X86311Y124207D01*
X86290Y124139D01*
X86273Y124069D01*
X86260Y123999D01*
X86251Y123929D01*
X86245Y123857D01*
X86243Y123786D01*
X86244Y123786D02*
X86244Y122446D01*
X84099Y127603D02*
X84099Y128943D01*
X84101Y129014D01*
X84107Y129086D01*
X84116Y129156D01*
X84129Y129226D01*
X84146Y129296D01*
X84167Y129364D01*
X84191Y129431D01*
X84219Y129497D01*
X84250Y129561D01*
X84285Y129624D01*
X84323Y129684D01*
X84364Y129743D01*
X84408Y129799D01*
X84455Y129853D01*
X84504Y129904D01*
X84557Y129952D01*
X84612Y129998D01*
X84669Y130040D01*
X84729Y130080D01*
X84790Y130116D01*
X84854Y130149D01*
X84919Y130178D01*
X84985Y130204D01*
X85053Y130227D01*
X85122Y130246D01*
X85192Y130261D01*
X85262Y130272D01*
X85333Y130280D01*
X85404Y130284D01*
X85476Y130284D01*
X85547Y130280D01*
X85618Y130272D01*
X85688Y130261D01*
X85758Y130246D01*
X85827Y130227D01*
X85895Y130204D01*
X85961Y130178D01*
X86026Y130149D01*
X86090Y130116D01*
X86151Y130080D01*
X86211Y130040D01*
X86268Y129998D01*
X86323Y129952D01*
X86376Y129904D01*
X86425Y129853D01*
X86472Y129799D01*
X86516Y129743D01*
X86557Y129684D01*
X86595Y129624D01*
X86630Y129561D01*
X86661Y129497D01*
X86689Y129431D01*
X86713Y129364D01*
X86734Y129296D01*
X86751Y129226D01*
X86764Y129156D01*
X86773Y129086D01*
X86779Y129014D01*
X86781Y128943D01*
X88925Y129212D02*
X88925Y127603D01*
X88925Y129212D02*
X88923Y129277D01*
X88917Y129341D01*
X88907Y129405D01*
X88894Y129469D01*
X88876Y129531D01*
X88855Y129592D01*
X88831Y129652D01*
X88802Y129710D01*
X88770Y129767D01*
X88735Y129821D01*
X88697Y129873D01*
X88655Y129923D01*
X88611Y129970D01*
X88564Y130014D01*
X88514Y130056D01*
X88462Y130094D01*
X88408Y130129D01*
X88351Y130161D01*
X88293Y130190D01*
X88233Y130214D01*
X88172Y130235D01*
X88110Y130253D01*
X88046Y130266D01*
X87982Y130276D01*
X87918Y130282D01*
X87853Y130284D01*
X87788Y130282D01*
X87724Y130276D01*
X87660Y130266D01*
X87596Y130253D01*
X87534Y130235D01*
X87473Y130214D01*
X87413Y130190D01*
X87355Y130161D01*
X87298Y130129D01*
X87244Y130094D01*
X87192Y130056D01*
X87142Y130014D01*
X87095Y129970D01*
X87051Y129923D01*
X87009Y129873D01*
X86971Y129821D01*
X86936Y129767D01*
X86904Y129710D01*
X86875Y129652D01*
X86851Y129592D01*
X86830Y129531D01*
X86812Y129469D01*
X86799Y129405D01*
X86789Y129341D01*
X86783Y129277D01*
X86781Y129212D01*
X86780Y129212D02*
X86780Y128139D01*
D14*
X110236Y130675D02*
X110490Y130675D01*
X110490Y130605D02*
X110490Y130746D01*
X110490Y130827D02*
X110236Y130827D01*
X110490Y130827D02*
X110490Y130898D01*
X110488Y130914D01*
X110483Y130929D01*
X110475Y130942D01*
X110463Y130954D01*
X110450Y130962D01*
X110435Y130967D01*
X110419Y130969D01*
X110403Y130967D01*
X110388Y130962D01*
X110375Y130954D01*
X110363Y130942D01*
X110355Y130929D01*
X110350Y130914D01*
X110348Y130898D01*
X110349Y130898D02*
X110349Y130827D01*
X110236Y131102D02*
X110490Y131102D01*
X110490Y131031D02*
X110490Y131173D01*
X110490Y131254D02*
X110236Y131254D01*
X110490Y131254D02*
X110490Y131325D01*
X110488Y131341D01*
X110483Y131356D01*
X110475Y131369D01*
X110463Y131381D01*
X110450Y131389D01*
X110435Y131394D01*
X110419Y131396D01*
X110403Y131394D01*
X110388Y131389D01*
X110375Y131381D01*
X110363Y131369D01*
X110355Y131356D01*
X110350Y131341D01*
X110348Y131325D01*
X110349Y131325D02*
X110349Y131254D01*
X110434Y131473D02*
X110490Y131544D01*
X110236Y131544D01*
X110236Y131614D02*
X110236Y131473D01*
X110307Y131702D02*
X110323Y131704D01*
X110338Y131709D01*
X110351Y131717D01*
X110363Y131729D01*
X110371Y131742D01*
X110376Y131757D01*
X110378Y131773D01*
X110376Y131789D01*
X110371Y131804D01*
X110363Y131817D01*
X110351Y131829D01*
X110338Y131837D01*
X110323Y131842D01*
X110307Y131844D01*
X110291Y131842D01*
X110276Y131837D01*
X110263Y131829D01*
X110251Y131817D01*
X110243Y131804D01*
X110238Y131789D01*
X110236Y131773D01*
X110238Y131757D01*
X110243Y131742D01*
X110251Y131729D01*
X110263Y131717D01*
X110276Y131709D01*
X110291Y131704D01*
X110307Y131702D01*
X110434Y131717D02*
X110447Y131719D01*
X110460Y131723D01*
X110471Y131731D01*
X110480Y131741D01*
X110486Y131753D01*
X110490Y131766D01*
X110490Y131780D01*
X110486Y131793D01*
X110480Y131805D01*
X110471Y131815D01*
X110460Y131823D01*
X110447Y131827D01*
X110434Y131829D01*
X110421Y131827D01*
X110408Y131823D01*
X110397Y131815D01*
X110388Y131805D01*
X110382Y131793D01*
X110378Y131780D01*
X110378Y131766D01*
X110382Y131753D01*
X110388Y131741D01*
X110397Y131731D01*
X110408Y131723D01*
X110421Y131719D01*
X110434Y131717D01*
X110490Y131939D02*
X110236Y131939D01*
X110490Y131939D02*
X110490Y132009D01*
X110488Y132025D01*
X110483Y132040D01*
X110475Y132053D01*
X110463Y132065D01*
X110450Y132073D01*
X110435Y132078D01*
X110419Y132080D01*
X110403Y132078D01*
X110388Y132073D01*
X110375Y132065D01*
X110363Y132053D01*
X110355Y132040D01*
X110350Y132025D01*
X110348Y132009D01*
X110349Y132009D02*
X110349Y131939D01*
X110349Y132024D02*
X110236Y132080D01*
D10*
X139979Y118336D02*
X144805Y118336D01*
X144805Y116996D02*
X144805Y119677D01*
X144805Y122446D02*
X139979Y122446D01*
X144805Y122446D02*
X144805Y123786D01*
X144803Y123857D01*
X144797Y123929D01*
X144788Y123999D01*
X144775Y124069D01*
X144758Y124139D01*
X144737Y124207D01*
X144713Y124274D01*
X144685Y124340D01*
X144654Y124404D01*
X144619Y124467D01*
X144581Y124527D01*
X144540Y124586D01*
X144496Y124642D01*
X144449Y124696D01*
X144400Y124747D01*
X144347Y124795D01*
X144292Y124841D01*
X144235Y124883D01*
X144175Y124923D01*
X144114Y124959D01*
X144050Y124992D01*
X143985Y125021D01*
X143919Y125047D01*
X143851Y125070D01*
X143782Y125089D01*
X143712Y125104D01*
X143642Y125115D01*
X143571Y125123D01*
X143500Y125127D01*
X143428Y125127D01*
X143357Y125123D01*
X143286Y125115D01*
X143216Y125104D01*
X143146Y125089D01*
X143077Y125070D01*
X143009Y125047D01*
X142943Y125021D01*
X142878Y124992D01*
X142814Y124959D01*
X142753Y124923D01*
X142693Y124883D01*
X142636Y124841D01*
X142581Y124795D01*
X142528Y124747D01*
X142479Y124696D01*
X142432Y124642D01*
X142388Y124586D01*
X142347Y124527D01*
X142309Y124467D01*
X142274Y124404D01*
X142243Y124340D01*
X142215Y124274D01*
X142191Y124207D01*
X142170Y124139D01*
X142153Y124069D01*
X142140Y123999D01*
X142131Y123929D01*
X142125Y123857D01*
X142123Y123786D01*
X142124Y123786D02*
X142124Y122446D01*
X141051Y127603D02*
X144805Y128675D01*
X141051Y127603D02*
X141051Y130284D01*
X142124Y129480D02*
X139979Y129480D01*
D14*
X134549Y115824D02*
X134549Y115570D01*
X134620Y115824D02*
X134479Y115824D01*
X134397Y115824D02*
X134397Y115570D01*
X134397Y115824D02*
X134327Y115824D01*
X134311Y115822D01*
X134296Y115817D01*
X134283Y115809D01*
X134271Y115797D01*
X134263Y115784D01*
X134258Y115769D01*
X134256Y115753D01*
X134258Y115737D01*
X134263Y115722D01*
X134271Y115709D01*
X134283Y115697D01*
X134296Y115689D01*
X134311Y115684D01*
X134327Y115682D01*
X134327Y115683D02*
X134397Y115683D01*
X134123Y115570D02*
X134123Y115824D01*
X134193Y115824D02*
X134052Y115824D01*
X133971Y115824D02*
X133971Y115570D01*
X133971Y115824D02*
X133900Y115824D01*
X133884Y115822D01*
X133869Y115817D01*
X133856Y115809D01*
X133844Y115797D01*
X133836Y115784D01*
X133831Y115769D01*
X133829Y115753D01*
X133831Y115737D01*
X133836Y115722D01*
X133844Y115709D01*
X133856Y115697D01*
X133869Y115689D01*
X133884Y115684D01*
X133900Y115682D01*
X133900Y115683D02*
X133971Y115683D01*
X133751Y115768D02*
X133681Y115824D01*
X133681Y115570D01*
X133751Y115570D02*
X133610Y115570D01*
X133523Y115641D02*
X133521Y115657D01*
X133516Y115672D01*
X133508Y115685D01*
X133496Y115697D01*
X133483Y115705D01*
X133468Y115710D01*
X133452Y115712D01*
X133436Y115710D01*
X133421Y115705D01*
X133408Y115697D01*
X133396Y115685D01*
X133388Y115672D01*
X133383Y115657D01*
X133381Y115641D01*
X133383Y115625D01*
X133388Y115610D01*
X133396Y115597D01*
X133408Y115585D01*
X133421Y115577D01*
X133436Y115572D01*
X133452Y115570D01*
X133468Y115572D01*
X133483Y115577D01*
X133496Y115585D01*
X133508Y115597D01*
X133516Y115610D01*
X133521Y115625D01*
X133523Y115641D01*
X133508Y115768D02*
X133506Y115781D01*
X133502Y115794D01*
X133494Y115805D01*
X133484Y115814D01*
X133472Y115820D01*
X133459Y115824D01*
X133445Y115824D01*
X133432Y115820D01*
X133420Y115814D01*
X133410Y115805D01*
X133402Y115794D01*
X133398Y115781D01*
X133396Y115768D01*
X133398Y115755D01*
X133402Y115742D01*
X133410Y115731D01*
X133420Y115722D01*
X133432Y115716D01*
X133445Y115712D01*
X133459Y115712D01*
X133472Y115716D01*
X133484Y115722D01*
X133494Y115731D01*
X133502Y115742D01*
X133506Y115755D01*
X133508Y115768D01*
X133286Y115824D02*
X133286Y115570D01*
X133286Y115824D02*
X133215Y115824D01*
X133199Y115822D01*
X133184Y115817D01*
X133171Y115809D01*
X133159Y115797D01*
X133151Y115784D01*
X133146Y115769D01*
X133144Y115753D01*
X133146Y115737D01*
X133151Y115722D01*
X133159Y115709D01*
X133171Y115697D01*
X133184Y115689D01*
X133199Y115684D01*
X133215Y115682D01*
X133215Y115683D02*
X133286Y115683D01*
X133201Y115683D02*
X133145Y115570D01*
M02*
