G04 EAGLE Gerber RS-274X export*
G75*
%MOMM*%
%FSLAX34Y34*%
%LPD*%
%INSilkscreen Top*%
%IPPOS*%
%AMOC8*
5,1,8,0,0,1.08239X$1,22.5*%
G01*
%ADD10C,0.127000*%
%ADD11C,0.152400*%
%ADD12R,0.381000X0.508000*%
%ADD13R,1.905000X0.889000*%
%ADD14R,1.397000X0.762000*%
%ADD15C,0.203200*%
%ADD16C,0.025400*%
%ADD17C,0.254000*%


D10*
X392430Y63500D02*
X420370Y63500D01*
X420370Y139700D02*
X392430Y139700D01*
X392430Y132080D01*
X392430Y121920D02*
X392430Y106680D01*
X392430Y96520D02*
X392430Y81280D01*
X392430Y71120D02*
X392430Y63500D01*
X506730Y80645D02*
X506730Y122555D01*
X504190Y78105D02*
X420370Y78105D01*
X420370Y125095D02*
X504190Y125095D01*
X420370Y78105D02*
X420370Y63500D01*
X420370Y78105D02*
X420370Y125095D01*
X420370Y139700D01*
X392430Y63500D02*
X342900Y63500D01*
X342900Y139700D01*
X392430Y139700D01*
X392430Y96520D02*
X400050Y96520D01*
X400050Y106680D01*
X392430Y106680D01*
X392430Y71120D02*
X400050Y71120D01*
X400050Y81280D01*
X392430Y81280D01*
X392430Y121920D02*
X400050Y121920D01*
X400050Y132080D01*
X392430Y132080D01*
X504190Y78105D02*
X504290Y78107D01*
X504389Y78113D01*
X504489Y78123D01*
X504587Y78136D01*
X504686Y78154D01*
X504783Y78175D01*
X504879Y78200D01*
X504975Y78229D01*
X505069Y78262D01*
X505162Y78298D01*
X505253Y78338D01*
X505343Y78382D01*
X505431Y78429D01*
X505517Y78479D01*
X505601Y78533D01*
X505683Y78590D01*
X505762Y78650D01*
X505840Y78714D01*
X505914Y78780D01*
X505986Y78849D01*
X506055Y78921D01*
X506121Y78995D01*
X506185Y79073D01*
X506245Y79152D01*
X506302Y79234D01*
X506356Y79318D01*
X506406Y79404D01*
X506453Y79492D01*
X506497Y79582D01*
X506537Y79673D01*
X506573Y79766D01*
X506606Y79860D01*
X506635Y79956D01*
X506660Y80052D01*
X506681Y80149D01*
X506699Y80248D01*
X506712Y80346D01*
X506722Y80446D01*
X506728Y80545D01*
X506730Y80645D01*
X506730Y122555D02*
X506728Y122655D01*
X506722Y122754D01*
X506712Y122854D01*
X506699Y122952D01*
X506681Y123051D01*
X506660Y123148D01*
X506635Y123244D01*
X506606Y123340D01*
X506573Y123434D01*
X506537Y123527D01*
X506497Y123618D01*
X506453Y123708D01*
X506406Y123796D01*
X506356Y123882D01*
X506302Y123966D01*
X506245Y124048D01*
X506185Y124127D01*
X506121Y124205D01*
X506055Y124279D01*
X505986Y124351D01*
X505914Y124420D01*
X505840Y124486D01*
X505762Y124550D01*
X505683Y124610D01*
X505601Y124667D01*
X505517Y124721D01*
X505431Y124771D01*
X505343Y124818D01*
X505253Y124862D01*
X505162Y124902D01*
X505069Y124938D01*
X504975Y124971D01*
X504879Y125000D01*
X504783Y125025D01*
X504686Y125046D01*
X504587Y125064D01*
X504489Y125077D01*
X504389Y125087D01*
X504290Y125093D01*
X504190Y125095D01*
X337383Y64474D02*
X333629Y64474D01*
X337383Y64473D02*
X337448Y64471D01*
X337512Y64465D01*
X337576Y64455D01*
X337640Y64442D01*
X337702Y64424D01*
X337763Y64403D01*
X337823Y64379D01*
X337881Y64350D01*
X337938Y64318D01*
X337992Y64283D01*
X338044Y64245D01*
X338094Y64203D01*
X338141Y64159D01*
X338185Y64112D01*
X338227Y64062D01*
X338265Y64010D01*
X338300Y63956D01*
X338332Y63899D01*
X338361Y63841D01*
X338385Y63781D01*
X338406Y63720D01*
X338424Y63658D01*
X338437Y63594D01*
X338447Y63530D01*
X338453Y63466D01*
X338455Y63401D01*
X338455Y62865D01*
X334701Y67422D02*
X333629Y68762D01*
X338455Y68762D01*
X338455Y67422D02*
X338455Y70103D01*
D11*
X243840Y60960D02*
X243740Y60958D01*
X243641Y60952D01*
X243541Y60942D01*
X243443Y60929D01*
X243344Y60911D01*
X243247Y60890D01*
X243151Y60865D01*
X243055Y60836D01*
X242961Y60803D01*
X242868Y60767D01*
X242777Y60727D01*
X242687Y60683D01*
X242599Y60636D01*
X242513Y60586D01*
X242429Y60532D01*
X242347Y60475D01*
X242268Y60415D01*
X242190Y60351D01*
X242116Y60285D01*
X242044Y60216D01*
X241975Y60144D01*
X241909Y60070D01*
X241845Y59992D01*
X241785Y59913D01*
X241728Y59831D01*
X241674Y59747D01*
X241624Y59661D01*
X241577Y59573D01*
X241533Y59483D01*
X241493Y59392D01*
X241457Y59299D01*
X241424Y59205D01*
X241395Y59109D01*
X241370Y59013D01*
X241349Y58916D01*
X241331Y58817D01*
X241318Y58719D01*
X241308Y58619D01*
X241302Y58520D01*
X241300Y58420D01*
X241300Y43180D02*
X241302Y43080D01*
X241308Y42981D01*
X241318Y42881D01*
X241331Y42783D01*
X241349Y42684D01*
X241370Y42587D01*
X241395Y42491D01*
X241424Y42395D01*
X241457Y42301D01*
X241493Y42208D01*
X241533Y42117D01*
X241577Y42027D01*
X241624Y41939D01*
X241674Y41853D01*
X241728Y41769D01*
X241785Y41687D01*
X241845Y41608D01*
X241909Y41530D01*
X241975Y41456D01*
X242044Y41384D01*
X242116Y41315D01*
X242190Y41249D01*
X242268Y41185D01*
X242347Y41125D01*
X242429Y41068D01*
X242513Y41014D01*
X242599Y40964D01*
X242687Y40917D01*
X242777Y40873D01*
X242868Y40833D01*
X242961Y40797D01*
X243055Y40764D01*
X243151Y40735D01*
X243247Y40710D01*
X243344Y40689D01*
X243443Y40671D01*
X243541Y40658D01*
X243641Y40648D01*
X243740Y40642D01*
X243840Y40640D01*
X289560Y40640D02*
X289660Y40642D01*
X289759Y40648D01*
X289859Y40658D01*
X289957Y40671D01*
X290056Y40689D01*
X290153Y40710D01*
X290249Y40735D01*
X290345Y40764D01*
X290439Y40797D01*
X290532Y40833D01*
X290623Y40873D01*
X290713Y40917D01*
X290801Y40964D01*
X290887Y41014D01*
X290971Y41068D01*
X291053Y41125D01*
X291132Y41185D01*
X291210Y41249D01*
X291284Y41315D01*
X291356Y41384D01*
X291425Y41456D01*
X291491Y41530D01*
X291555Y41608D01*
X291615Y41687D01*
X291672Y41769D01*
X291726Y41853D01*
X291776Y41939D01*
X291823Y42027D01*
X291867Y42117D01*
X291907Y42208D01*
X291943Y42301D01*
X291976Y42395D01*
X292005Y42491D01*
X292030Y42587D01*
X292051Y42684D01*
X292069Y42783D01*
X292082Y42881D01*
X292092Y42981D01*
X292098Y43080D01*
X292100Y43180D01*
X292100Y58420D02*
X292098Y58520D01*
X292092Y58619D01*
X292082Y58719D01*
X292069Y58817D01*
X292051Y58916D01*
X292030Y59013D01*
X292005Y59109D01*
X291976Y59205D01*
X291943Y59299D01*
X291907Y59392D01*
X291867Y59483D01*
X291823Y59573D01*
X291776Y59661D01*
X291726Y59747D01*
X291672Y59831D01*
X291615Y59913D01*
X291555Y59992D01*
X291491Y60070D01*
X291425Y60144D01*
X291356Y60216D01*
X291284Y60285D01*
X291210Y60351D01*
X291132Y60415D01*
X291053Y60475D01*
X290971Y60532D01*
X290887Y60586D01*
X290801Y60636D01*
X290713Y60683D01*
X290623Y60727D01*
X290532Y60767D01*
X290439Y60803D01*
X290345Y60836D01*
X290249Y60865D01*
X290153Y60890D01*
X290056Y60911D01*
X289957Y60929D01*
X289859Y60942D01*
X289759Y60952D01*
X289660Y60958D01*
X289560Y60960D01*
X241300Y58420D02*
X241300Y43180D01*
X243840Y60960D02*
X247650Y60960D01*
X248920Y59690D01*
X247650Y40640D02*
X243840Y40640D01*
X247650Y40640D02*
X248920Y41910D01*
X284480Y59690D02*
X285750Y60960D01*
X284480Y59690D02*
X248920Y59690D01*
X284480Y41910D02*
X285750Y40640D01*
X284480Y41910D02*
X248920Y41910D01*
X285750Y60960D02*
X289560Y60960D01*
X289560Y40640D02*
X285750Y40640D01*
X292100Y43180D02*
X292100Y58420D01*
D12*
X294005Y50800D03*
X239395Y50800D03*
D10*
X286639Y64528D02*
X291465Y64528D01*
X286639Y64528D02*
X286639Y65869D01*
X286641Y65940D01*
X286647Y66012D01*
X286656Y66082D01*
X286669Y66152D01*
X286686Y66222D01*
X286707Y66290D01*
X286731Y66357D01*
X286759Y66423D01*
X286790Y66487D01*
X286825Y66550D01*
X286863Y66610D01*
X286904Y66669D01*
X286948Y66725D01*
X286995Y66779D01*
X287044Y66830D01*
X287097Y66878D01*
X287152Y66924D01*
X287209Y66966D01*
X287269Y67006D01*
X287330Y67042D01*
X287394Y67075D01*
X287459Y67104D01*
X287525Y67130D01*
X287593Y67153D01*
X287662Y67172D01*
X287732Y67187D01*
X287802Y67198D01*
X287873Y67206D01*
X287944Y67210D01*
X288016Y67210D01*
X288087Y67206D01*
X288158Y67198D01*
X288228Y67187D01*
X288298Y67172D01*
X288367Y67153D01*
X288435Y67130D01*
X288501Y67104D01*
X288566Y67075D01*
X288630Y67042D01*
X288691Y67006D01*
X288751Y66966D01*
X288808Y66924D01*
X288863Y66878D01*
X288916Y66830D01*
X288965Y66779D01*
X289012Y66725D01*
X289056Y66669D01*
X289097Y66610D01*
X289135Y66550D01*
X289170Y66487D01*
X289201Y66423D01*
X289229Y66357D01*
X289253Y66290D01*
X289274Y66222D01*
X289291Y66152D01*
X289304Y66082D01*
X289313Y66012D01*
X289319Y65940D01*
X289321Y65869D01*
X289320Y65869D02*
X289320Y64528D01*
X289320Y66137D02*
X291465Y67209D01*
X287711Y69951D02*
X286639Y71291D01*
X291465Y71291D01*
X291465Y69951D02*
X291465Y72632D01*
X295529Y63348D02*
X296601Y62007D01*
X295529Y63348D02*
X300355Y63348D01*
X300355Y64688D02*
X300355Y62007D01*
X297942Y67494D02*
X297822Y67496D01*
X297702Y67501D01*
X297582Y67510D01*
X297462Y67523D01*
X297343Y67539D01*
X297224Y67559D01*
X297106Y67583D01*
X296989Y67610D01*
X296873Y67640D01*
X296758Y67674D01*
X296643Y67712D01*
X296530Y67753D01*
X296419Y67797D01*
X296308Y67845D01*
X296199Y67896D01*
X296142Y67917D01*
X296086Y67943D01*
X296031Y67971D01*
X295979Y68003D01*
X295928Y68039D01*
X295880Y68077D01*
X295834Y68118D01*
X295791Y68162D01*
X295751Y68208D01*
X295714Y68257D01*
X295680Y68309D01*
X295649Y68362D01*
X295621Y68417D01*
X295597Y68473D01*
X295576Y68531D01*
X295559Y68590D01*
X295546Y68650D01*
X295537Y68711D01*
X295531Y68773D01*
X295529Y68834D01*
X295531Y68895D01*
X295537Y68957D01*
X295546Y69018D01*
X295559Y69078D01*
X295576Y69137D01*
X295597Y69195D01*
X295621Y69251D01*
X295649Y69306D01*
X295680Y69359D01*
X295714Y69411D01*
X295751Y69460D01*
X295791Y69506D01*
X295834Y69550D01*
X295880Y69591D01*
X295928Y69629D01*
X295979Y69665D01*
X296031Y69697D01*
X296086Y69725D01*
X296142Y69751D01*
X296199Y69772D01*
X296308Y69823D01*
X296419Y69871D01*
X296530Y69915D01*
X296643Y69956D01*
X296758Y69994D01*
X296873Y70028D01*
X296989Y70058D01*
X297106Y70085D01*
X297224Y70109D01*
X297343Y70129D01*
X297462Y70145D01*
X297582Y70158D01*
X297702Y70167D01*
X297822Y70172D01*
X297942Y70174D01*
X297942Y67494D02*
X298062Y67496D01*
X298182Y67501D01*
X298302Y67510D01*
X298422Y67523D01*
X298541Y67539D01*
X298660Y67559D01*
X298778Y67583D01*
X298895Y67610D01*
X299011Y67640D01*
X299126Y67674D01*
X299241Y67712D01*
X299354Y67753D01*
X299465Y67797D01*
X299576Y67845D01*
X299685Y67896D01*
X299742Y67917D01*
X299798Y67943D01*
X299853Y67971D01*
X299905Y68003D01*
X299956Y68039D01*
X300004Y68077D01*
X300050Y68118D01*
X300093Y68162D01*
X300133Y68208D01*
X300170Y68257D01*
X300204Y68309D01*
X300235Y68362D01*
X300263Y68417D01*
X300287Y68473D01*
X300308Y68531D01*
X300325Y68590D01*
X300338Y68650D01*
X300347Y68711D01*
X300353Y68773D01*
X300355Y68834D01*
X299685Y69772D02*
X299576Y69823D01*
X299465Y69871D01*
X299354Y69915D01*
X299241Y69956D01*
X299126Y69994D01*
X299011Y70028D01*
X298895Y70058D01*
X298778Y70085D01*
X298660Y70109D01*
X298541Y70129D01*
X298422Y70145D01*
X298302Y70158D01*
X298182Y70167D01*
X298062Y70172D01*
X297942Y70174D01*
X299685Y69772D02*
X299742Y69751D01*
X299798Y69725D01*
X299853Y69697D01*
X299905Y69665D01*
X299956Y69629D01*
X300004Y69591D01*
X300050Y69550D01*
X300093Y69506D01*
X300133Y69459D01*
X300170Y69411D01*
X300204Y69359D01*
X300235Y69306D01*
X300263Y69251D01*
X300287Y69195D01*
X300308Y69137D01*
X300325Y69078D01*
X300338Y69018D01*
X300347Y68957D01*
X300353Y68895D01*
X300355Y68834D01*
X299283Y67762D02*
X296601Y69906D01*
X297942Y72980D02*
X297822Y72982D01*
X297702Y72987D01*
X297582Y72996D01*
X297462Y73009D01*
X297343Y73025D01*
X297224Y73045D01*
X297106Y73069D01*
X296989Y73096D01*
X296873Y73126D01*
X296758Y73160D01*
X296643Y73198D01*
X296530Y73239D01*
X296419Y73283D01*
X296308Y73331D01*
X296199Y73382D01*
X296142Y73403D01*
X296086Y73429D01*
X296031Y73457D01*
X295979Y73489D01*
X295928Y73525D01*
X295880Y73563D01*
X295834Y73604D01*
X295791Y73648D01*
X295751Y73694D01*
X295714Y73743D01*
X295680Y73795D01*
X295649Y73848D01*
X295621Y73903D01*
X295597Y73959D01*
X295576Y74017D01*
X295559Y74076D01*
X295546Y74136D01*
X295537Y74197D01*
X295531Y74259D01*
X295529Y74320D01*
X295531Y74381D01*
X295537Y74443D01*
X295546Y74504D01*
X295559Y74564D01*
X295576Y74623D01*
X295597Y74681D01*
X295621Y74737D01*
X295649Y74792D01*
X295680Y74845D01*
X295714Y74897D01*
X295751Y74946D01*
X295791Y74992D01*
X295834Y75036D01*
X295880Y75077D01*
X295928Y75115D01*
X295979Y75151D01*
X296031Y75183D01*
X296086Y75211D01*
X296142Y75237D01*
X296199Y75258D01*
X296199Y75259D02*
X296308Y75310D01*
X296419Y75358D01*
X296530Y75402D01*
X296643Y75443D01*
X296758Y75481D01*
X296873Y75515D01*
X296989Y75545D01*
X297106Y75572D01*
X297224Y75596D01*
X297343Y75616D01*
X297462Y75632D01*
X297582Y75645D01*
X297702Y75654D01*
X297822Y75659D01*
X297942Y75661D01*
X297942Y72980D02*
X298062Y72982D01*
X298182Y72987D01*
X298302Y72996D01*
X298422Y73009D01*
X298541Y73025D01*
X298660Y73045D01*
X298778Y73069D01*
X298895Y73096D01*
X299011Y73126D01*
X299126Y73160D01*
X299241Y73198D01*
X299354Y73239D01*
X299465Y73283D01*
X299576Y73331D01*
X299685Y73382D01*
X299742Y73403D01*
X299798Y73429D01*
X299853Y73457D01*
X299905Y73489D01*
X299956Y73525D01*
X300004Y73563D01*
X300050Y73604D01*
X300093Y73648D01*
X300133Y73694D01*
X300170Y73743D01*
X300204Y73795D01*
X300235Y73848D01*
X300263Y73903D01*
X300287Y73959D01*
X300308Y74017D01*
X300325Y74076D01*
X300338Y74136D01*
X300347Y74197D01*
X300353Y74259D01*
X300355Y74320D01*
X299685Y75259D02*
X299576Y75310D01*
X299465Y75358D01*
X299354Y75402D01*
X299241Y75443D01*
X299126Y75481D01*
X299011Y75515D01*
X298895Y75545D01*
X298778Y75572D01*
X298660Y75596D01*
X298541Y75616D01*
X298422Y75632D01*
X298302Y75645D01*
X298182Y75654D01*
X298062Y75659D01*
X297942Y75661D01*
X299685Y75258D02*
X299742Y75237D01*
X299798Y75211D01*
X299853Y75183D01*
X299905Y75151D01*
X299956Y75115D01*
X300004Y75077D01*
X300050Y75036D01*
X300093Y74992D01*
X300133Y74945D01*
X300170Y74897D01*
X300204Y74845D01*
X300235Y74792D01*
X300263Y74737D01*
X300287Y74681D01*
X300308Y74623D01*
X300325Y74564D01*
X300338Y74504D01*
X300347Y74443D01*
X300353Y74381D01*
X300355Y74320D01*
X299283Y73248D02*
X296601Y75393D01*
D11*
X241300Y160020D02*
X241302Y160120D01*
X241308Y160219D01*
X241318Y160319D01*
X241331Y160417D01*
X241349Y160516D01*
X241370Y160613D01*
X241395Y160709D01*
X241424Y160805D01*
X241457Y160899D01*
X241493Y160992D01*
X241533Y161083D01*
X241577Y161173D01*
X241624Y161261D01*
X241674Y161347D01*
X241728Y161431D01*
X241785Y161513D01*
X241845Y161592D01*
X241909Y161670D01*
X241975Y161744D01*
X242044Y161816D01*
X242116Y161885D01*
X242190Y161951D01*
X242268Y162015D01*
X242347Y162075D01*
X242429Y162132D01*
X242513Y162186D01*
X242599Y162236D01*
X242687Y162283D01*
X242777Y162327D01*
X242868Y162367D01*
X242961Y162403D01*
X243055Y162436D01*
X243151Y162465D01*
X243247Y162490D01*
X243344Y162511D01*
X243443Y162529D01*
X243541Y162542D01*
X243641Y162552D01*
X243740Y162558D01*
X243840Y162560D01*
X241300Y144780D02*
X241302Y144680D01*
X241308Y144581D01*
X241318Y144481D01*
X241331Y144383D01*
X241349Y144284D01*
X241370Y144187D01*
X241395Y144091D01*
X241424Y143995D01*
X241457Y143901D01*
X241493Y143808D01*
X241533Y143717D01*
X241577Y143627D01*
X241624Y143539D01*
X241674Y143453D01*
X241728Y143369D01*
X241785Y143287D01*
X241845Y143208D01*
X241909Y143130D01*
X241975Y143056D01*
X242044Y142984D01*
X242116Y142915D01*
X242190Y142849D01*
X242268Y142785D01*
X242347Y142725D01*
X242429Y142668D01*
X242513Y142614D01*
X242599Y142564D01*
X242687Y142517D01*
X242777Y142473D01*
X242868Y142433D01*
X242961Y142397D01*
X243055Y142364D01*
X243151Y142335D01*
X243247Y142310D01*
X243344Y142289D01*
X243443Y142271D01*
X243541Y142258D01*
X243641Y142248D01*
X243740Y142242D01*
X243840Y142240D01*
X289560Y142240D02*
X289660Y142242D01*
X289759Y142248D01*
X289859Y142258D01*
X289957Y142271D01*
X290056Y142289D01*
X290153Y142310D01*
X290249Y142335D01*
X290345Y142364D01*
X290439Y142397D01*
X290532Y142433D01*
X290623Y142473D01*
X290713Y142517D01*
X290801Y142564D01*
X290887Y142614D01*
X290971Y142668D01*
X291053Y142725D01*
X291132Y142785D01*
X291210Y142849D01*
X291284Y142915D01*
X291356Y142984D01*
X291425Y143056D01*
X291491Y143130D01*
X291555Y143208D01*
X291615Y143287D01*
X291672Y143369D01*
X291726Y143453D01*
X291776Y143539D01*
X291823Y143627D01*
X291867Y143717D01*
X291907Y143808D01*
X291943Y143901D01*
X291976Y143995D01*
X292005Y144091D01*
X292030Y144187D01*
X292051Y144284D01*
X292069Y144383D01*
X292082Y144481D01*
X292092Y144581D01*
X292098Y144680D01*
X292100Y144780D01*
X292100Y160020D02*
X292098Y160120D01*
X292092Y160219D01*
X292082Y160319D01*
X292069Y160417D01*
X292051Y160516D01*
X292030Y160613D01*
X292005Y160709D01*
X291976Y160805D01*
X291943Y160899D01*
X291907Y160992D01*
X291867Y161083D01*
X291823Y161173D01*
X291776Y161261D01*
X291726Y161347D01*
X291672Y161431D01*
X291615Y161513D01*
X291555Y161592D01*
X291491Y161670D01*
X291425Y161744D01*
X291356Y161816D01*
X291284Y161885D01*
X291210Y161951D01*
X291132Y162015D01*
X291053Y162075D01*
X290971Y162132D01*
X290887Y162186D01*
X290801Y162236D01*
X290713Y162283D01*
X290623Y162327D01*
X290532Y162367D01*
X290439Y162403D01*
X290345Y162436D01*
X290249Y162465D01*
X290153Y162490D01*
X290056Y162511D01*
X289957Y162529D01*
X289859Y162542D01*
X289759Y162552D01*
X289660Y162558D01*
X289560Y162560D01*
X241300Y160020D02*
X241300Y144780D01*
X243840Y162560D02*
X247650Y162560D01*
X248920Y161290D01*
X247650Y142240D02*
X243840Y142240D01*
X247650Y142240D02*
X248920Y143510D01*
X284480Y161290D02*
X285750Y162560D01*
X284480Y161290D02*
X248920Y161290D01*
X284480Y143510D02*
X285750Y142240D01*
X284480Y143510D02*
X248920Y143510D01*
X285750Y162560D02*
X289560Y162560D01*
X289560Y142240D02*
X285750Y142240D01*
X292100Y144780D02*
X292100Y160020D01*
D12*
X294005Y152400D03*
X239395Y152400D03*
D10*
X286639Y130568D02*
X291465Y130568D01*
X286639Y130568D02*
X286639Y131909D01*
X286641Y131980D01*
X286647Y132052D01*
X286656Y132122D01*
X286669Y132192D01*
X286686Y132262D01*
X286707Y132330D01*
X286731Y132397D01*
X286759Y132463D01*
X286790Y132527D01*
X286825Y132590D01*
X286863Y132650D01*
X286904Y132709D01*
X286948Y132765D01*
X286995Y132819D01*
X287044Y132870D01*
X287097Y132918D01*
X287152Y132964D01*
X287209Y133006D01*
X287269Y133046D01*
X287330Y133082D01*
X287394Y133115D01*
X287459Y133144D01*
X287525Y133170D01*
X287593Y133193D01*
X287662Y133212D01*
X287732Y133227D01*
X287802Y133238D01*
X287873Y133246D01*
X287944Y133250D01*
X288016Y133250D01*
X288087Y133246D01*
X288158Y133238D01*
X288228Y133227D01*
X288298Y133212D01*
X288367Y133193D01*
X288435Y133170D01*
X288501Y133144D01*
X288566Y133115D01*
X288630Y133082D01*
X288691Y133046D01*
X288751Y133006D01*
X288808Y132964D01*
X288863Y132918D01*
X288916Y132870D01*
X288965Y132819D01*
X289012Y132765D01*
X289056Y132709D01*
X289097Y132650D01*
X289135Y132590D01*
X289170Y132527D01*
X289201Y132463D01*
X289229Y132397D01*
X289253Y132330D01*
X289274Y132262D01*
X289291Y132192D01*
X289304Y132122D01*
X289313Y132052D01*
X289319Y131980D01*
X289321Y131909D01*
X289320Y131909D02*
X289320Y130568D01*
X289320Y132177D02*
X291465Y133249D01*
X286639Y137465D02*
X286641Y137533D01*
X286647Y137600D01*
X286656Y137667D01*
X286669Y137734D01*
X286686Y137799D01*
X286707Y137864D01*
X286731Y137927D01*
X286759Y137989D01*
X286790Y138049D01*
X286824Y138107D01*
X286862Y138163D01*
X286902Y138218D01*
X286946Y138269D01*
X286993Y138318D01*
X287042Y138365D01*
X287093Y138409D01*
X287148Y138449D01*
X287204Y138487D01*
X287262Y138521D01*
X287322Y138552D01*
X287384Y138580D01*
X287447Y138604D01*
X287512Y138625D01*
X287577Y138642D01*
X287644Y138655D01*
X287711Y138664D01*
X287778Y138670D01*
X287846Y138672D01*
X286639Y137465D02*
X286641Y137387D01*
X286647Y137309D01*
X286657Y137232D01*
X286670Y137155D01*
X286688Y137079D01*
X286709Y137004D01*
X286734Y136930D01*
X286763Y136858D01*
X286795Y136787D01*
X286831Y136718D01*
X286870Y136650D01*
X286913Y136585D01*
X286959Y136522D01*
X287008Y136461D01*
X287060Y136403D01*
X287115Y136348D01*
X287172Y136295D01*
X287232Y136246D01*
X287295Y136199D01*
X287360Y136156D01*
X287426Y136116D01*
X287495Y136079D01*
X287566Y136046D01*
X287638Y136016D01*
X287712Y135990D01*
X288784Y138270D02*
X288735Y138319D01*
X288683Y138366D01*
X288628Y138409D01*
X288571Y138450D01*
X288512Y138488D01*
X288451Y138522D01*
X288388Y138553D01*
X288324Y138581D01*
X288258Y138605D01*
X288192Y138625D01*
X288124Y138642D01*
X288055Y138655D01*
X287986Y138664D01*
X287916Y138670D01*
X287846Y138672D01*
X288784Y138270D02*
X291465Y135991D01*
X291465Y138672D01*
X295529Y129388D02*
X296601Y128047D01*
X295529Y129388D02*
X300355Y129388D01*
X300355Y130728D02*
X300355Y128047D01*
X300355Y133533D02*
X300355Y135142D01*
X300353Y135207D01*
X300347Y135271D01*
X300337Y135335D01*
X300324Y135399D01*
X300306Y135461D01*
X300285Y135522D01*
X300261Y135582D01*
X300232Y135640D01*
X300200Y135697D01*
X300165Y135751D01*
X300127Y135803D01*
X300085Y135853D01*
X300041Y135900D01*
X299994Y135944D01*
X299944Y135986D01*
X299892Y136024D01*
X299838Y136059D01*
X299781Y136091D01*
X299723Y136120D01*
X299663Y136144D01*
X299602Y136165D01*
X299540Y136183D01*
X299476Y136196D01*
X299412Y136206D01*
X299348Y136212D01*
X299283Y136214D01*
X299283Y136215D02*
X298746Y136215D01*
X298746Y136214D02*
X298681Y136212D01*
X298617Y136206D01*
X298553Y136196D01*
X298489Y136183D01*
X298427Y136165D01*
X298366Y136144D01*
X298306Y136120D01*
X298248Y136091D01*
X298191Y136059D01*
X298137Y136024D01*
X298085Y135986D01*
X298035Y135944D01*
X297988Y135900D01*
X297944Y135853D01*
X297902Y135803D01*
X297864Y135751D01*
X297829Y135697D01*
X297797Y135640D01*
X297768Y135582D01*
X297744Y135522D01*
X297723Y135461D01*
X297705Y135399D01*
X297692Y135335D01*
X297682Y135271D01*
X297676Y135207D01*
X297674Y135142D01*
X297674Y133533D01*
X295529Y133533D01*
X295529Y136215D01*
X296199Y139422D02*
X296308Y139371D01*
X296419Y139323D01*
X296530Y139279D01*
X296643Y139238D01*
X296758Y139200D01*
X296873Y139166D01*
X296989Y139136D01*
X297106Y139109D01*
X297224Y139085D01*
X297343Y139065D01*
X297462Y139049D01*
X297582Y139036D01*
X297702Y139027D01*
X297822Y139022D01*
X297942Y139020D01*
X296199Y139422D02*
X296142Y139443D01*
X296086Y139469D01*
X296031Y139497D01*
X295979Y139529D01*
X295928Y139565D01*
X295880Y139603D01*
X295834Y139644D01*
X295791Y139688D01*
X295751Y139734D01*
X295714Y139783D01*
X295680Y139835D01*
X295649Y139888D01*
X295621Y139943D01*
X295597Y139999D01*
X295576Y140057D01*
X295559Y140116D01*
X295546Y140176D01*
X295537Y140237D01*
X295531Y140299D01*
X295529Y140360D01*
X295531Y140421D01*
X295537Y140483D01*
X295546Y140544D01*
X295559Y140604D01*
X295576Y140663D01*
X295597Y140721D01*
X295621Y140777D01*
X295649Y140832D01*
X295680Y140885D01*
X295714Y140937D01*
X295751Y140986D01*
X295791Y141032D01*
X295834Y141076D01*
X295880Y141117D01*
X295928Y141155D01*
X295979Y141191D01*
X296031Y141223D01*
X296086Y141251D01*
X296142Y141277D01*
X296199Y141298D01*
X296199Y141299D02*
X296308Y141350D01*
X296419Y141398D01*
X296530Y141442D01*
X296643Y141483D01*
X296758Y141521D01*
X296873Y141555D01*
X296989Y141585D01*
X297106Y141612D01*
X297224Y141636D01*
X297343Y141656D01*
X297462Y141672D01*
X297582Y141685D01*
X297702Y141694D01*
X297822Y141699D01*
X297942Y141701D01*
X297942Y139020D02*
X298062Y139022D01*
X298182Y139027D01*
X298302Y139036D01*
X298422Y139049D01*
X298541Y139065D01*
X298660Y139085D01*
X298778Y139109D01*
X298895Y139136D01*
X299011Y139166D01*
X299126Y139200D01*
X299241Y139238D01*
X299354Y139279D01*
X299465Y139323D01*
X299576Y139371D01*
X299685Y139422D01*
X299742Y139443D01*
X299798Y139469D01*
X299853Y139497D01*
X299905Y139529D01*
X299956Y139565D01*
X300004Y139603D01*
X300050Y139644D01*
X300093Y139688D01*
X300133Y139734D01*
X300170Y139783D01*
X300204Y139835D01*
X300235Y139888D01*
X300263Y139943D01*
X300287Y139999D01*
X300308Y140057D01*
X300325Y140116D01*
X300338Y140176D01*
X300347Y140237D01*
X300353Y140299D01*
X300355Y140360D01*
X299685Y141299D02*
X299576Y141350D01*
X299465Y141398D01*
X299354Y141442D01*
X299241Y141483D01*
X299126Y141521D01*
X299011Y141555D01*
X298895Y141585D01*
X298778Y141612D01*
X298660Y141636D01*
X298541Y141656D01*
X298422Y141672D01*
X298302Y141685D01*
X298182Y141694D01*
X298062Y141699D01*
X297942Y141701D01*
X299685Y141298D02*
X299742Y141277D01*
X299798Y141251D01*
X299853Y141223D01*
X299905Y141191D01*
X299956Y141155D01*
X300004Y141117D01*
X300050Y141076D01*
X300093Y141032D01*
X300133Y140985D01*
X300170Y140937D01*
X300204Y140885D01*
X300235Y140832D01*
X300263Y140777D01*
X300287Y140721D01*
X300308Y140663D01*
X300325Y140604D01*
X300338Y140544D01*
X300347Y140483D01*
X300353Y140421D01*
X300355Y140360D01*
X299283Y139288D02*
X296601Y141433D01*
D11*
X215900Y39370D02*
X19050Y39370D01*
X215900Y39370D02*
X215900Y90170D01*
X19050Y90170D01*
X19050Y39370D01*
X172720Y76200D02*
X176530Y76200D01*
X175260Y74930D01*
X176530Y76200D02*
X175260Y77470D01*
X173990Y78740D02*
X173990Y73660D01*
X172720Y72390D01*
X173990Y78740D02*
X172720Y80010D01*
X175260Y77470D02*
X175260Y74930D01*
X173990Y73660D01*
X175260Y77470D02*
X173990Y78740D01*
X172720Y80010D02*
X172720Y76200D01*
X172720Y72390D01*
X171450Y71120D01*
X172720Y80010D02*
X171450Y81280D01*
X171450Y71120D01*
X172720Y76200D02*
X152400Y76200D01*
D10*
X191135Y53975D02*
X194310Y56515D01*
X194310Y45085D01*
X191135Y45085D02*
X197485Y45085D01*
X29210Y45085D02*
X26035Y45085D01*
X29210Y45085D02*
X29321Y45087D01*
X29431Y45093D01*
X29542Y45102D01*
X29652Y45116D01*
X29761Y45133D01*
X29870Y45154D01*
X29978Y45179D01*
X30085Y45208D01*
X30191Y45240D01*
X30296Y45276D01*
X30399Y45316D01*
X30501Y45359D01*
X30602Y45406D01*
X30701Y45457D01*
X30797Y45510D01*
X30892Y45567D01*
X30985Y45628D01*
X31076Y45691D01*
X31165Y45758D01*
X31251Y45828D01*
X31334Y45901D01*
X31416Y45976D01*
X31494Y46054D01*
X31569Y46136D01*
X31642Y46219D01*
X31712Y46305D01*
X31779Y46394D01*
X31842Y46485D01*
X31903Y46578D01*
X31960Y46672D01*
X32013Y46769D01*
X32064Y46868D01*
X32111Y46969D01*
X32154Y47071D01*
X32194Y47174D01*
X32230Y47279D01*
X32262Y47385D01*
X32291Y47492D01*
X32316Y47600D01*
X32337Y47709D01*
X32354Y47818D01*
X32368Y47928D01*
X32377Y48039D01*
X32383Y48149D01*
X32385Y48260D01*
X32383Y48371D01*
X32377Y48481D01*
X32368Y48592D01*
X32354Y48702D01*
X32337Y48811D01*
X32316Y48920D01*
X32291Y49028D01*
X32262Y49135D01*
X32230Y49241D01*
X32194Y49346D01*
X32154Y49449D01*
X32111Y49551D01*
X32064Y49652D01*
X32013Y49751D01*
X31960Y49847D01*
X31903Y49942D01*
X31842Y50035D01*
X31779Y50126D01*
X31712Y50215D01*
X31642Y50301D01*
X31569Y50384D01*
X31494Y50466D01*
X31416Y50544D01*
X31334Y50619D01*
X31251Y50692D01*
X31165Y50762D01*
X31076Y50829D01*
X30985Y50892D01*
X30892Y50953D01*
X30798Y51010D01*
X30701Y51063D01*
X30602Y51114D01*
X30501Y51161D01*
X30399Y51204D01*
X30296Y51244D01*
X30191Y51280D01*
X30085Y51312D01*
X29978Y51341D01*
X29870Y51366D01*
X29761Y51387D01*
X29652Y51404D01*
X29542Y51418D01*
X29431Y51427D01*
X29321Y51433D01*
X29210Y51435D01*
X29845Y56515D02*
X26035Y56515D01*
X29845Y56515D02*
X29945Y56513D01*
X30044Y56507D01*
X30144Y56497D01*
X30242Y56484D01*
X30341Y56466D01*
X30438Y56445D01*
X30534Y56420D01*
X30630Y56391D01*
X30724Y56358D01*
X30817Y56322D01*
X30908Y56282D01*
X30998Y56238D01*
X31086Y56191D01*
X31172Y56141D01*
X31256Y56087D01*
X31338Y56030D01*
X31417Y55970D01*
X31495Y55906D01*
X31569Y55840D01*
X31641Y55771D01*
X31710Y55699D01*
X31776Y55625D01*
X31840Y55547D01*
X31900Y55468D01*
X31957Y55386D01*
X32011Y55302D01*
X32061Y55216D01*
X32108Y55128D01*
X32152Y55038D01*
X32192Y54947D01*
X32228Y54854D01*
X32261Y54760D01*
X32290Y54664D01*
X32315Y54568D01*
X32336Y54471D01*
X32354Y54372D01*
X32367Y54274D01*
X32377Y54174D01*
X32383Y54075D01*
X32385Y53975D01*
X32383Y53875D01*
X32377Y53776D01*
X32367Y53676D01*
X32354Y53578D01*
X32336Y53479D01*
X32315Y53382D01*
X32290Y53286D01*
X32261Y53190D01*
X32228Y53096D01*
X32192Y53003D01*
X32152Y52912D01*
X32108Y52822D01*
X32061Y52734D01*
X32011Y52648D01*
X31957Y52564D01*
X31900Y52482D01*
X31840Y52403D01*
X31776Y52325D01*
X31710Y52251D01*
X31641Y52179D01*
X31569Y52110D01*
X31495Y52044D01*
X31417Y51980D01*
X31338Y51920D01*
X31256Y51863D01*
X31172Y51809D01*
X31086Y51759D01*
X30998Y51712D01*
X30908Y51668D01*
X30817Y51628D01*
X30724Y51592D01*
X30630Y51559D01*
X30534Y51530D01*
X30438Y51505D01*
X30341Y51484D01*
X30242Y51466D01*
X30144Y51453D01*
X30044Y51443D01*
X29945Y51437D01*
X29845Y51435D01*
X27305Y51435D01*
X79058Y81916D02*
X79162Y81914D01*
X79267Y81908D01*
X79371Y81899D01*
X79474Y81886D01*
X79577Y81868D01*
X79679Y81848D01*
X79781Y81823D01*
X79881Y81795D01*
X79981Y81763D01*
X80079Y81727D01*
X80176Y81688D01*
X80271Y81646D01*
X80365Y81600D01*
X80457Y81550D01*
X80547Y81498D01*
X80635Y81442D01*
X80721Y81382D01*
X80805Y81320D01*
X80886Y81255D01*
X80965Y81187D01*
X81042Y81115D01*
X81115Y81042D01*
X81187Y80965D01*
X81255Y80886D01*
X81320Y80805D01*
X81382Y80721D01*
X81442Y80635D01*
X81498Y80547D01*
X81550Y80457D01*
X81600Y80365D01*
X81646Y80271D01*
X81688Y80176D01*
X81727Y80079D01*
X81763Y79981D01*
X81795Y79881D01*
X81823Y79781D01*
X81848Y79679D01*
X81868Y79577D01*
X81886Y79474D01*
X81899Y79371D01*
X81908Y79267D01*
X81914Y79162D01*
X81916Y79058D01*
X79058Y81915D02*
X78940Y81913D01*
X78821Y81907D01*
X78703Y81898D01*
X78586Y81885D01*
X78469Y81867D01*
X78352Y81847D01*
X78236Y81822D01*
X78121Y81794D01*
X78008Y81761D01*
X77895Y81726D01*
X77783Y81686D01*
X77673Y81644D01*
X77564Y81597D01*
X77456Y81547D01*
X77351Y81494D01*
X77247Y81437D01*
X77145Y81377D01*
X77045Y81314D01*
X76947Y81247D01*
X76851Y81178D01*
X76758Y81105D01*
X76667Y81029D01*
X76578Y80951D01*
X76492Y80869D01*
X76409Y80785D01*
X76328Y80699D01*
X76251Y80609D01*
X76176Y80518D01*
X76104Y80424D01*
X76035Y80327D01*
X75970Y80229D01*
X75907Y80128D01*
X75848Y80025D01*
X75792Y79921D01*
X75740Y79815D01*
X75691Y79707D01*
X75646Y79598D01*
X75604Y79487D01*
X75566Y79375D01*
X80963Y76836D02*
X81039Y76911D01*
X81114Y76990D01*
X81185Y77071D01*
X81254Y77155D01*
X81319Y77241D01*
X81381Y77329D01*
X81441Y77419D01*
X81497Y77511D01*
X81550Y77606D01*
X81599Y77702D01*
X81645Y77800D01*
X81688Y77899D01*
X81727Y78000D01*
X81762Y78102D01*
X81794Y78205D01*
X81822Y78309D01*
X81847Y78414D01*
X81868Y78521D01*
X81885Y78627D01*
X81898Y78734D01*
X81907Y78842D01*
X81913Y78950D01*
X81915Y79058D01*
X80963Y76835D02*
X75565Y70485D01*
X81915Y70485D01*
X178943Y70485D02*
X182118Y70485D01*
X182229Y70487D01*
X182339Y70493D01*
X182450Y70502D01*
X182560Y70516D01*
X182669Y70533D01*
X182778Y70554D01*
X182886Y70579D01*
X182993Y70608D01*
X183099Y70640D01*
X183204Y70676D01*
X183307Y70716D01*
X183409Y70759D01*
X183510Y70806D01*
X183609Y70857D01*
X183705Y70910D01*
X183800Y70967D01*
X183893Y71028D01*
X183984Y71091D01*
X184073Y71158D01*
X184159Y71228D01*
X184242Y71301D01*
X184324Y71376D01*
X184402Y71454D01*
X184477Y71536D01*
X184550Y71619D01*
X184620Y71705D01*
X184687Y71794D01*
X184750Y71885D01*
X184811Y71978D01*
X184868Y72072D01*
X184921Y72169D01*
X184972Y72268D01*
X185019Y72369D01*
X185062Y72471D01*
X185102Y72574D01*
X185138Y72679D01*
X185170Y72785D01*
X185199Y72892D01*
X185224Y73000D01*
X185245Y73109D01*
X185262Y73218D01*
X185276Y73328D01*
X185285Y73439D01*
X185291Y73549D01*
X185293Y73660D01*
X185291Y73771D01*
X185285Y73881D01*
X185276Y73992D01*
X185262Y74102D01*
X185245Y74211D01*
X185224Y74320D01*
X185199Y74428D01*
X185170Y74535D01*
X185138Y74641D01*
X185102Y74746D01*
X185062Y74849D01*
X185019Y74951D01*
X184972Y75052D01*
X184921Y75151D01*
X184868Y75247D01*
X184811Y75342D01*
X184750Y75435D01*
X184687Y75526D01*
X184620Y75615D01*
X184550Y75701D01*
X184477Y75784D01*
X184402Y75866D01*
X184324Y75944D01*
X184242Y76019D01*
X184159Y76092D01*
X184073Y76162D01*
X183984Y76229D01*
X183893Y76292D01*
X183800Y76353D01*
X183706Y76410D01*
X183609Y76463D01*
X183510Y76514D01*
X183409Y76561D01*
X183307Y76604D01*
X183204Y76644D01*
X183099Y76680D01*
X182993Y76712D01*
X182886Y76741D01*
X182778Y76766D01*
X182669Y76787D01*
X182560Y76804D01*
X182450Y76818D01*
X182339Y76827D01*
X182229Y76833D01*
X182118Y76835D01*
X182753Y81915D02*
X178943Y81915D01*
X182753Y81915D02*
X182853Y81913D01*
X182952Y81907D01*
X183052Y81897D01*
X183150Y81884D01*
X183249Y81866D01*
X183346Y81845D01*
X183442Y81820D01*
X183538Y81791D01*
X183632Y81758D01*
X183725Y81722D01*
X183816Y81682D01*
X183906Y81638D01*
X183994Y81591D01*
X184080Y81541D01*
X184164Y81487D01*
X184246Y81430D01*
X184325Y81370D01*
X184403Y81306D01*
X184477Y81240D01*
X184549Y81171D01*
X184618Y81099D01*
X184684Y81025D01*
X184748Y80947D01*
X184808Y80868D01*
X184865Y80786D01*
X184919Y80702D01*
X184969Y80616D01*
X185016Y80528D01*
X185060Y80438D01*
X185100Y80347D01*
X185136Y80254D01*
X185169Y80160D01*
X185198Y80064D01*
X185223Y79968D01*
X185244Y79871D01*
X185262Y79772D01*
X185275Y79674D01*
X185285Y79574D01*
X185291Y79475D01*
X185293Y79375D01*
X185291Y79275D01*
X185285Y79176D01*
X185275Y79076D01*
X185262Y78978D01*
X185244Y78879D01*
X185223Y78782D01*
X185198Y78686D01*
X185169Y78590D01*
X185136Y78496D01*
X185100Y78403D01*
X185060Y78312D01*
X185016Y78222D01*
X184969Y78134D01*
X184919Y78048D01*
X184865Y77964D01*
X184808Y77882D01*
X184748Y77803D01*
X184684Y77725D01*
X184618Y77651D01*
X184549Y77579D01*
X184477Y77510D01*
X184403Y77444D01*
X184325Y77380D01*
X184246Y77320D01*
X184164Y77263D01*
X184080Y77209D01*
X183994Y77159D01*
X183906Y77112D01*
X183816Y77068D01*
X183725Y77028D01*
X183632Y76992D01*
X183538Y76959D01*
X183442Y76930D01*
X183346Y76905D01*
X183249Y76884D01*
X183150Y76866D01*
X183052Y76853D01*
X182952Y76843D01*
X182853Y76837D01*
X182753Y76835D01*
X180213Y76835D01*
X140208Y81915D02*
X137033Y79375D01*
X140208Y81915D02*
X140208Y70485D01*
X137033Y70485D02*
X143383Y70485D01*
D13*
X9525Y55245D03*
X9525Y71755D03*
D14*
X12065Y63500D03*
D10*
X8255Y29361D02*
X3429Y29361D01*
X3429Y30702D01*
X3431Y30773D01*
X3437Y30845D01*
X3446Y30915D01*
X3459Y30985D01*
X3476Y31055D01*
X3497Y31123D01*
X3521Y31190D01*
X3549Y31256D01*
X3580Y31320D01*
X3615Y31383D01*
X3653Y31443D01*
X3694Y31502D01*
X3738Y31558D01*
X3785Y31612D01*
X3834Y31663D01*
X3887Y31711D01*
X3942Y31757D01*
X3999Y31799D01*
X4059Y31839D01*
X4120Y31875D01*
X4184Y31908D01*
X4249Y31937D01*
X4315Y31963D01*
X4383Y31986D01*
X4452Y32005D01*
X4522Y32020D01*
X4592Y32031D01*
X4663Y32039D01*
X4734Y32043D01*
X4806Y32043D01*
X4877Y32039D01*
X4948Y32031D01*
X5018Y32020D01*
X5088Y32005D01*
X5157Y31986D01*
X5225Y31963D01*
X5291Y31937D01*
X5356Y31908D01*
X5420Y31875D01*
X5481Y31839D01*
X5541Y31799D01*
X5598Y31757D01*
X5653Y31711D01*
X5706Y31663D01*
X5755Y31612D01*
X5802Y31558D01*
X5846Y31502D01*
X5887Y31443D01*
X5925Y31383D01*
X5960Y31320D01*
X5991Y31256D01*
X6019Y31190D01*
X6043Y31123D01*
X6064Y31055D01*
X6081Y30985D01*
X6094Y30915D01*
X6103Y30845D01*
X6109Y30773D01*
X6111Y30702D01*
X6110Y30702D02*
X6110Y29361D01*
X6110Y30970D02*
X8255Y32042D01*
X8255Y34784D02*
X8255Y36124D01*
X8253Y36195D01*
X8247Y36267D01*
X8238Y36337D01*
X8225Y36407D01*
X8208Y36477D01*
X8187Y36545D01*
X8163Y36612D01*
X8135Y36678D01*
X8104Y36742D01*
X8069Y36805D01*
X8031Y36865D01*
X7990Y36924D01*
X7946Y36980D01*
X7899Y37034D01*
X7850Y37085D01*
X7797Y37133D01*
X7742Y37179D01*
X7685Y37221D01*
X7625Y37261D01*
X7564Y37297D01*
X7500Y37330D01*
X7435Y37359D01*
X7369Y37385D01*
X7301Y37408D01*
X7232Y37427D01*
X7162Y37442D01*
X7092Y37453D01*
X7021Y37461D01*
X6950Y37465D01*
X6878Y37465D01*
X6807Y37461D01*
X6736Y37453D01*
X6666Y37442D01*
X6596Y37427D01*
X6527Y37408D01*
X6459Y37385D01*
X6393Y37359D01*
X6328Y37330D01*
X6264Y37297D01*
X6203Y37261D01*
X6143Y37221D01*
X6086Y37179D01*
X6031Y37133D01*
X5978Y37085D01*
X5929Y37034D01*
X5882Y36980D01*
X5838Y36924D01*
X5797Y36865D01*
X5759Y36805D01*
X5724Y36742D01*
X5693Y36678D01*
X5665Y36612D01*
X5641Y36545D01*
X5620Y36477D01*
X5603Y36407D01*
X5590Y36337D01*
X5581Y36267D01*
X5575Y36195D01*
X5573Y36124D01*
X3429Y36393D02*
X3429Y34784D01*
X3429Y36393D02*
X3431Y36458D01*
X3437Y36522D01*
X3447Y36586D01*
X3460Y36650D01*
X3478Y36712D01*
X3499Y36773D01*
X3523Y36833D01*
X3552Y36891D01*
X3584Y36948D01*
X3619Y37002D01*
X3657Y37054D01*
X3699Y37104D01*
X3743Y37151D01*
X3790Y37195D01*
X3840Y37237D01*
X3892Y37275D01*
X3946Y37310D01*
X4003Y37342D01*
X4061Y37371D01*
X4121Y37395D01*
X4182Y37416D01*
X4244Y37434D01*
X4308Y37447D01*
X4372Y37457D01*
X4436Y37463D01*
X4501Y37465D01*
X4566Y37463D01*
X4630Y37457D01*
X4694Y37447D01*
X4758Y37434D01*
X4820Y37416D01*
X4881Y37395D01*
X4941Y37371D01*
X4999Y37342D01*
X5056Y37310D01*
X5110Y37275D01*
X5162Y37237D01*
X5212Y37195D01*
X5259Y37151D01*
X5303Y37104D01*
X5345Y37054D01*
X5383Y37002D01*
X5418Y36948D01*
X5450Y36891D01*
X5479Y36833D01*
X5503Y36773D01*
X5524Y36712D01*
X5542Y36650D01*
X5555Y36586D01*
X5565Y36522D01*
X5571Y36458D01*
X5573Y36393D01*
X5574Y36393D02*
X5574Y35320D01*
X12319Y29821D02*
X13391Y28481D01*
X12319Y29821D02*
X17145Y29821D01*
X17145Y28481D02*
X17145Y31162D01*
X17145Y34248D02*
X12319Y34248D01*
X15000Y35856D01*
X12319Y37465D01*
X17145Y37465D01*
D11*
X19050Y113030D02*
X215900Y113030D01*
X215900Y163830D01*
X19050Y163830D01*
X19050Y113030D01*
X172720Y149860D02*
X176530Y149860D01*
X175260Y148590D01*
X176530Y149860D02*
X175260Y151130D01*
X173990Y152400D02*
X173990Y147320D01*
X172720Y146050D01*
X173990Y152400D02*
X172720Y153670D01*
X175260Y151130D02*
X175260Y148590D01*
X173990Y147320D01*
X175260Y151130D02*
X173990Y152400D01*
X172720Y153670D02*
X172720Y149860D01*
X172720Y146050D01*
X171450Y144780D01*
X172720Y153670D02*
X171450Y154940D01*
X171450Y144780D01*
X172720Y149860D02*
X152400Y149860D01*
D10*
X191135Y127635D02*
X194310Y130175D01*
X194310Y118745D01*
X191135Y118745D02*
X197485Y118745D01*
X29210Y118745D02*
X26035Y118745D01*
X29210Y118745D02*
X29321Y118747D01*
X29431Y118753D01*
X29542Y118762D01*
X29652Y118776D01*
X29761Y118793D01*
X29870Y118814D01*
X29978Y118839D01*
X30085Y118868D01*
X30191Y118900D01*
X30296Y118936D01*
X30399Y118976D01*
X30501Y119019D01*
X30602Y119066D01*
X30701Y119117D01*
X30797Y119170D01*
X30892Y119227D01*
X30985Y119288D01*
X31076Y119351D01*
X31165Y119418D01*
X31251Y119488D01*
X31334Y119561D01*
X31416Y119636D01*
X31494Y119714D01*
X31569Y119796D01*
X31642Y119879D01*
X31712Y119965D01*
X31779Y120054D01*
X31842Y120145D01*
X31903Y120238D01*
X31960Y120332D01*
X32013Y120429D01*
X32064Y120528D01*
X32111Y120629D01*
X32154Y120731D01*
X32194Y120834D01*
X32230Y120939D01*
X32262Y121045D01*
X32291Y121152D01*
X32316Y121260D01*
X32337Y121369D01*
X32354Y121478D01*
X32368Y121588D01*
X32377Y121699D01*
X32383Y121809D01*
X32385Y121920D01*
X32383Y122031D01*
X32377Y122141D01*
X32368Y122252D01*
X32354Y122362D01*
X32337Y122471D01*
X32316Y122580D01*
X32291Y122688D01*
X32262Y122795D01*
X32230Y122901D01*
X32194Y123006D01*
X32154Y123109D01*
X32111Y123211D01*
X32064Y123312D01*
X32013Y123411D01*
X31960Y123507D01*
X31903Y123602D01*
X31842Y123695D01*
X31779Y123786D01*
X31712Y123875D01*
X31642Y123961D01*
X31569Y124044D01*
X31494Y124126D01*
X31416Y124204D01*
X31334Y124279D01*
X31251Y124352D01*
X31165Y124422D01*
X31076Y124489D01*
X30985Y124552D01*
X30892Y124613D01*
X30798Y124670D01*
X30701Y124723D01*
X30602Y124774D01*
X30501Y124821D01*
X30399Y124864D01*
X30296Y124904D01*
X30191Y124940D01*
X30085Y124972D01*
X29978Y125001D01*
X29870Y125026D01*
X29761Y125047D01*
X29652Y125064D01*
X29542Y125078D01*
X29431Y125087D01*
X29321Y125093D01*
X29210Y125095D01*
X29845Y130175D02*
X26035Y130175D01*
X29845Y130175D02*
X29945Y130173D01*
X30044Y130167D01*
X30144Y130157D01*
X30242Y130144D01*
X30341Y130126D01*
X30438Y130105D01*
X30534Y130080D01*
X30630Y130051D01*
X30724Y130018D01*
X30817Y129982D01*
X30908Y129942D01*
X30998Y129898D01*
X31086Y129851D01*
X31172Y129801D01*
X31256Y129747D01*
X31338Y129690D01*
X31417Y129630D01*
X31495Y129566D01*
X31569Y129500D01*
X31641Y129431D01*
X31710Y129359D01*
X31776Y129285D01*
X31840Y129207D01*
X31900Y129128D01*
X31957Y129046D01*
X32011Y128962D01*
X32061Y128876D01*
X32108Y128788D01*
X32152Y128698D01*
X32192Y128607D01*
X32228Y128514D01*
X32261Y128420D01*
X32290Y128324D01*
X32315Y128228D01*
X32336Y128131D01*
X32354Y128032D01*
X32367Y127934D01*
X32377Y127834D01*
X32383Y127735D01*
X32385Y127635D01*
X32383Y127535D01*
X32377Y127436D01*
X32367Y127336D01*
X32354Y127238D01*
X32336Y127139D01*
X32315Y127042D01*
X32290Y126946D01*
X32261Y126850D01*
X32228Y126756D01*
X32192Y126663D01*
X32152Y126572D01*
X32108Y126482D01*
X32061Y126394D01*
X32011Y126308D01*
X31957Y126224D01*
X31900Y126142D01*
X31840Y126063D01*
X31776Y125985D01*
X31710Y125911D01*
X31641Y125839D01*
X31569Y125770D01*
X31495Y125704D01*
X31417Y125640D01*
X31338Y125580D01*
X31256Y125523D01*
X31172Y125469D01*
X31086Y125419D01*
X30998Y125372D01*
X30908Y125328D01*
X30817Y125288D01*
X30724Y125252D01*
X30630Y125219D01*
X30534Y125190D01*
X30438Y125165D01*
X30341Y125144D01*
X30242Y125126D01*
X30144Y125113D01*
X30044Y125103D01*
X29945Y125097D01*
X29845Y125095D01*
X27305Y125095D01*
X79058Y155576D02*
X79162Y155574D01*
X79267Y155568D01*
X79371Y155559D01*
X79474Y155546D01*
X79577Y155528D01*
X79679Y155508D01*
X79781Y155483D01*
X79881Y155455D01*
X79981Y155423D01*
X80079Y155387D01*
X80176Y155348D01*
X80271Y155306D01*
X80365Y155260D01*
X80457Y155210D01*
X80547Y155158D01*
X80635Y155102D01*
X80721Y155042D01*
X80805Y154980D01*
X80886Y154915D01*
X80965Y154847D01*
X81042Y154775D01*
X81115Y154702D01*
X81187Y154625D01*
X81255Y154546D01*
X81320Y154465D01*
X81382Y154381D01*
X81442Y154295D01*
X81498Y154207D01*
X81550Y154117D01*
X81600Y154025D01*
X81646Y153931D01*
X81688Y153836D01*
X81727Y153739D01*
X81763Y153641D01*
X81795Y153541D01*
X81823Y153441D01*
X81848Y153339D01*
X81868Y153237D01*
X81886Y153134D01*
X81899Y153031D01*
X81908Y152927D01*
X81914Y152822D01*
X81916Y152718D01*
X79058Y155575D02*
X78940Y155573D01*
X78821Y155567D01*
X78703Y155558D01*
X78586Y155545D01*
X78469Y155527D01*
X78352Y155507D01*
X78236Y155482D01*
X78121Y155454D01*
X78008Y155421D01*
X77895Y155386D01*
X77783Y155346D01*
X77673Y155304D01*
X77564Y155257D01*
X77456Y155207D01*
X77351Y155154D01*
X77247Y155097D01*
X77145Y155037D01*
X77045Y154974D01*
X76947Y154907D01*
X76851Y154838D01*
X76758Y154765D01*
X76667Y154689D01*
X76578Y154611D01*
X76492Y154529D01*
X76409Y154445D01*
X76328Y154359D01*
X76251Y154269D01*
X76176Y154178D01*
X76104Y154084D01*
X76035Y153987D01*
X75970Y153889D01*
X75907Y153788D01*
X75848Y153685D01*
X75792Y153581D01*
X75740Y153475D01*
X75691Y153367D01*
X75646Y153258D01*
X75604Y153147D01*
X75566Y153035D01*
X80963Y150496D02*
X81039Y150571D01*
X81114Y150650D01*
X81185Y150731D01*
X81254Y150815D01*
X81319Y150901D01*
X81381Y150989D01*
X81441Y151079D01*
X81497Y151171D01*
X81550Y151266D01*
X81599Y151362D01*
X81645Y151460D01*
X81688Y151559D01*
X81727Y151660D01*
X81762Y151762D01*
X81794Y151865D01*
X81822Y151969D01*
X81847Y152074D01*
X81868Y152181D01*
X81885Y152287D01*
X81898Y152394D01*
X81907Y152502D01*
X81913Y152610D01*
X81915Y152718D01*
X80963Y150495D02*
X75565Y144145D01*
X81915Y144145D01*
X178943Y144145D02*
X182118Y144145D01*
X182229Y144147D01*
X182339Y144153D01*
X182450Y144162D01*
X182560Y144176D01*
X182669Y144193D01*
X182778Y144214D01*
X182886Y144239D01*
X182993Y144268D01*
X183099Y144300D01*
X183204Y144336D01*
X183307Y144376D01*
X183409Y144419D01*
X183510Y144466D01*
X183609Y144517D01*
X183705Y144570D01*
X183800Y144627D01*
X183893Y144688D01*
X183984Y144751D01*
X184073Y144818D01*
X184159Y144888D01*
X184242Y144961D01*
X184324Y145036D01*
X184402Y145114D01*
X184477Y145196D01*
X184550Y145279D01*
X184620Y145365D01*
X184687Y145454D01*
X184750Y145545D01*
X184811Y145638D01*
X184868Y145732D01*
X184921Y145829D01*
X184972Y145928D01*
X185019Y146029D01*
X185062Y146131D01*
X185102Y146234D01*
X185138Y146339D01*
X185170Y146445D01*
X185199Y146552D01*
X185224Y146660D01*
X185245Y146769D01*
X185262Y146878D01*
X185276Y146988D01*
X185285Y147099D01*
X185291Y147209D01*
X185293Y147320D01*
X185291Y147431D01*
X185285Y147541D01*
X185276Y147652D01*
X185262Y147762D01*
X185245Y147871D01*
X185224Y147980D01*
X185199Y148088D01*
X185170Y148195D01*
X185138Y148301D01*
X185102Y148406D01*
X185062Y148509D01*
X185019Y148611D01*
X184972Y148712D01*
X184921Y148811D01*
X184868Y148907D01*
X184811Y149002D01*
X184750Y149095D01*
X184687Y149186D01*
X184620Y149275D01*
X184550Y149361D01*
X184477Y149444D01*
X184402Y149526D01*
X184324Y149604D01*
X184242Y149679D01*
X184159Y149752D01*
X184073Y149822D01*
X183984Y149889D01*
X183893Y149952D01*
X183800Y150013D01*
X183706Y150070D01*
X183609Y150123D01*
X183510Y150174D01*
X183409Y150221D01*
X183307Y150264D01*
X183204Y150304D01*
X183099Y150340D01*
X182993Y150372D01*
X182886Y150401D01*
X182778Y150426D01*
X182669Y150447D01*
X182560Y150464D01*
X182450Y150478D01*
X182339Y150487D01*
X182229Y150493D01*
X182118Y150495D01*
X182753Y155575D02*
X178943Y155575D01*
X182753Y155575D02*
X182853Y155573D01*
X182952Y155567D01*
X183052Y155557D01*
X183150Y155544D01*
X183249Y155526D01*
X183346Y155505D01*
X183442Y155480D01*
X183538Y155451D01*
X183632Y155418D01*
X183725Y155382D01*
X183816Y155342D01*
X183906Y155298D01*
X183994Y155251D01*
X184080Y155201D01*
X184164Y155147D01*
X184246Y155090D01*
X184325Y155030D01*
X184403Y154966D01*
X184477Y154900D01*
X184549Y154831D01*
X184618Y154759D01*
X184684Y154685D01*
X184748Y154607D01*
X184808Y154528D01*
X184865Y154446D01*
X184919Y154362D01*
X184969Y154276D01*
X185016Y154188D01*
X185060Y154098D01*
X185100Y154007D01*
X185136Y153914D01*
X185169Y153820D01*
X185198Y153724D01*
X185223Y153628D01*
X185244Y153531D01*
X185262Y153432D01*
X185275Y153334D01*
X185285Y153234D01*
X185291Y153135D01*
X185293Y153035D01*
X185291Y152935D01*
X185285Y152836D01*
X185275Y152736D01*
X185262Y152638D01*
X185244Y152539D01*
X185223Y152442D01*
X185198Y152346D01*
X185169Y152250D01*
X185136Y152156D01*
X185100Y152063D01*
X185060Y151972D01*
X185016Y151882D01*
X184969Y151794D01*
X184919Y151708D01*
X184865Y151624D01*
X184808Y151542D01*
X184748Y151463D01*
X184684Y151385D01*
X184618Y151311D01*
X184549Y151239D01*
X184477Y151170D01*
X184403Y151104D01*
X184325Y151040D01*
X184246Y150980D01*
X184164Y150923D01*
X184080Y150869D01*
X183994Y150819D01*
X183906Y150772D01*
X183816Y150728D01*
X183725Y150688D01*
X183632Y150652D01*
X183538Y150619D01*
X183442Y150590D01*
X183346Y150565D01*
X183249Y150544D01*
X183150Y150526D01*
X183052Y150513D01*
X182952Y150503D01*
X182853Y150497D01*
X182753Y150495D01*
X180213Y150495D01*
X140208Y155575D02*
X137033Y153035D01*
X140208Y155575D02*
X140208Y144145D01*
X137033Y144145D02*
X143383Y144145D01*
D13*
X9525Y128905D03*
X9525Y145415D03*
D14*
X12065Y137160D03*
D10*
X8255Y165735D02*
X3429Y165735D01*
X3429Y167076D01*
X3431Y167147D01*
X3437Y167219D01*
X3446Y167289D01*
X3459Y167359D01*
X3476Y167429D01*
X3497Y167497D01*
X3521Y167564D01*
X3549Y167630D01*
X3580Y167694D01*
X3615Y167757D01*
X3653Y167817D01*
X3694Y167876D01*
X3738Y167932D01*
X3785Y167986D01*
X3834Y168037D01*
X3887Y168085D01*
X3942Y168131D01*
X3999Y168173D01*
X4059Y168213D01*
X4120Y168249D01*
X4184Y168282D01*
X4249Y168311D01*
X4315Y168337D01*
X4383Y168360D01*
X4452Y168379D01*
X4522Y168394D01*
X4592Y168405D01*
X4663Y168413D01*
X4734Y168417D01*
X4806Y168417D01*
X4877Y168413D01*
X4948Y168405D01*
X5018Y168394D01*
X5088Y168379D01*
X5157Y168360D01*
X5225Y168337D01*
X5291Y168311D01*
X5356Y168282D01*
X5420Y168249D01*
X5481Y168213D01*
X5541Y168173D01*
X5598Y168131D01*
X5653Y168085D01*
X5706Y168037D01*
X5755Y167986D01*
X5802Y167932D01*
X5846Y167876D01*
X5887Y167817D01*
X5925Y167757D01*
X5960Y167694D01*
X5991Y167630D01*
X6019Y167564D01*
X6043Y167497D01*
X6064Y167429D01*
X6081Y167359D01*
X6094Y167289D01*
X6103Y167219D01*
X6109Y167147D01*
X6111Y167076D01*
X6110Y167076D02*
X6110Y165735D01*
X6110Y167344D02*
X8255Y168416D01*
X7183Y171158D02*
X3429Y172230D01*
X7183Y171158D02*
X7183Y173839D01*
X8255Y173034D02*
X6110Y173034D01*
X12319Y167076D02*
X13391Y165735D01*
X12319Y167076D02*
X17145Y167076D01*
X17145Y168416D02*
X17145Y165735D01*
X17145Y171502D02*
X12319Y171502D01*
X15000Y173111D01*
X12319Y174719D01*
X17145Y174719D01*
D15*
X196850Y38100D02*
X209550Y38100D01*
X215900Y31750D01*
X215900Y19050D02*
X209550Y12700D01*
X171450Y38100D02*
X165100Y31750D01*
X171450Y38100D02*
X184150Y38100D01*
X190500Y31750D01*
X190500Y19050D02*
X184150Y12700D01*
X171450Y12700D01*
X165100Y19050D01*
X190500Y31750D02*
X196850Y38100D01*
X190500Y19050D02*
X196850Y12700D01*
X209550Y12700D01*
X133350Y38100D02*
X120650Y38100D01*
X133350Y38100D02*
X139700Y31750D01*
X139700Y19050D02*
X133350Y12700D01*
X139700Y31750D02*
X146050Y38100D01*
X158750Y38100D01*
X165100Y31750D01*
X165100Y19050D02*
X158750Y12700D01*
X146050Y12700D01*
X139700Y19050D01*
X95250Y38100D02*
X88900Y31750D01*
X95250Y38100D02*
X107950Y38100D01*
X114300Y31750D01*
X114300Y19050D02*
X107950Y12700D01*
X95250Y12700D01*
X88900Y19050D01*
X114300Y31750D02*
X120650Y38100D01*
X114300Y19050D02*
X120650Y12700D01*
X133350Y12700D01*
X57150Y38100D02*
X44450Y38100D01*
X57150Y38100D02*
X63500Y31750D01*
X63500Y19050D02*
X57150Y12700D01*
X63500Y31750D02*
X69850Y38100D01*
X82550Y38100D01*
X88900Y31750D01*
X88900Y19050D02*
X82550Y12700D01*
X69850Y12700D01*
X63500Y19050D01*
X38100Y19050D02*
X38100Y31750D01*
X44450Y38100D01*
X38100Y19050D02*
X44450Y12700D01*
X57150Y12700D01*
X222250Y38100D02*
X234950Y38100D01*
X241300Y31750D01*
X241300Y19050D02*
X234950Y12700D01*
X215900Y31750D02*
X222250Y38100D01*
X215900Y19050D02*
X222250Y12700D01*
X234950Y12700D01*
X247650Y38100D02*
X260350Y38100D01*
X266700Y31750D01*
X266700Y19050D02*
X260350Y12700D01*
X241300Y31750D02*
X247650Y38100D01*
X241300Y19050D02*
X247650Y12700D01*
X260350Y12700D01*
X273050Y38100D02*
X285750Y38100D01*
X292100Y31750D01*
X292100Y19050D02*
X285750Y12700D01*
X266700Y31750D02*
X273050Y38100D01*
X266700Y19050D02*
X273050Y12700D01*
X285750Y12700D01*
X298450Y38100D02*
X311150Y38100D01*
X317500Y31750D01*
X317500Y19050D02*
X311150Y12700D01*
X292100Y31750D02*
X298450Y38100D01*
X292100Y19050D02*
X298450Y12700D01*
X311150Y12700D01*
X323850Y38100D02*
X336550Y38100D01*
X342900Y31750D01*
X342900Y19050D01*
X336550Y12700D01*
X317500Y31750D02*
X323850Y38100D01*
X317500Y19050D02*
X323850Y12700D01*
X336550Y12700D01*
D10*
X32583Y23390D02*
X28829Y23390D01*
X32583Y23389D02*
X32648Y23387D01*
X32712Y23381D01*
X32776Y23371D01*
X32840Y23358D01*
X32902Y23340D01*
X32963Y23319D01*
X33023Y23295D01*
X33081Y23266D01*
X33138Y23234D01*
X33192Y23199D01*
X33244Y23161D01*
X33294Y23119D01*
X33341Y23075D01*
X33385Y23028D01*
X33427Y22978D01*
X33465Y22926D01*
X33500Y22872D01*
X33532Y22815D01*
X33561Y22757D01*
X33585Y22697D01*
X33606Y22636D01*
X33624Y22574D01*
X33637Y22510D01*
X33647Y22446D01*
X33653Y22382D01*
X33655Y22317D01*
X33655Y21781D01*
X28829Y27812D02*
X28831Y27880D01*
X28837Y27947D01*
X28846Y28014D01*
X28859Y28081D01*
X28876Y28146D01*
X28897Y28211D01*
X28921Y28274D01*
X28949Y28336D01*
X28980Y28396D01*
X29014Y28454D01*
X29052Y28510D01*
X29092Y28565D01*
X29136Y28616D01*
X29183Y28665D01*
X29232Y28712D01*
X29283Y28756D01*
X29338Y28796D01*
X29394Y28834D01*
X29452Y28868D01*
X29512Y28899D01*
X29574Y28927D01*
X29637Y28951D01*
X29702Y28972D01*
X29767Y28989D01*
X29834Y29002D01*
X29901Y29011D01*
X29968Y29017D01*
X30036Y29019D01*
X28829Y27812D02*
X28831Y27734D01*
X28837Y27656D01*
X28847Y27579D01*
X28860Y27502D01*
X28878Y27426D01*
X28899Y27351D01*
X28924Y27277D01*
X28953Y27205D01*
X28985Y27134D01*
X29021Y27065D01*
X29060Y26997D01*
X29103Y26932D01*
X29149Y26869D01*
X29198Y26808D01*
X29250Y26750D01*
X29305Y26695D01*
X29362Y26642D01*
X29422Y26593D01*
X29485Y26546D01*
X29550Y26503D01*
X29616Y26463D01*
X29685Y26426D01*
X29756Y26393D01*
X29828Y26363D01*
X29902Y26337D01*
X30974Y28617D02*
X30925Y28666D01*
X30873Y28713D01*
X30818Y28756D01*
X30761Y28797D01*
X30702Y28835D01*
X30641Y28869D01*
X30578Y28900D01*
X30514Y28928D01*
X30448Y28952D01*
X30382Y28972D01*
X30314Y28989D01*
X30245Y29002D01*
X30176Y29011D01*
X30106Y29017D01*
X30036Y29019D01*
X30974Y28617D02*
X33655Y26338D01*
X33655Y29019D01*
D15*
X196850Y190500D02*
X209550Y190500D01*
X215900Y184150D01*
X215900Y171450D02*
X209550Y165100D01*
X171450Y190500D02*
X165100Y184150D01*
X171450Y190500D02*
X184150Y190500D01*
X190500Y184150D01*
X190500Y171450D02*
X184150Y165100D01*
X171450Y165100D01*
X165100Y171450D01*
X190500Y184150D02*
X196850Y190500D01*
X190500Y171450D02*
X196850Y165100D01*
X209550Y165100D01*
X133350Y190500D02*
X120650Y190500D01*
X133350Y190500D02*
X139700Y184150D01*
X139700Y171450D02*
X133350Y165100D01*
X139700Y184150D02*
X146050Y190500D01*
X158750Y190500D01*
X165100Y184150D01*
X165100Y171450D02*
X158750Y165100D01*
X146050Y165100D01*
X139700Y171450D01*
X95250Y190500D02*
X88900Y184150D01*
X95250Y190500D02*
X107950Y190500D01*
X114300Y184150D01*
X114300Y171450D02*
X107950Y165100D01*
X95250Y165100D01*
X88900Y171450D01*
X114300Y184150D02*
X120650Y190500D01*
X114300Y171450D02*
X120650Y165100D01*
X133350Y165100D01*
X57150Y190500D02*
X44450Y190500D01*
X57150Y190500D02*
X63500Y184150D01*
X63500Y171450D02*
X57150Y165100D01*
X63500Y184150D02*
X69850Y190500D01*
X82550Y190500D01*
X88900Y184150D01*
X88900Y171450D02*
X82550Y165100D01*
X69850Y165100D01*
X63500Y171450D01*
X38100Y171450D02*
X38100Y184150D01*
X44450Y190500D01*
X38100Y171450D02*
X44450Y165100D01*
X57150Y165100D01*
X222250Y190500D02*
X234950Y190500D01*
X241300Y184150D01*
X241300Y171450D02*
X234950Y165100D01*
X215900Y184150D02*
X222250Y190500D01*
X215900Y171450D02*
X222250Y165100D01*
X234950Y165100D01*
X247650Y190500D02*
X260350Y190500D01*
X266700Y184150D01*
X266700Y171450D02*
X260350Y165100D01*
X241300Y184150D02*
X247650Y190500D01*
X241300Y171450D02*
X247650Y165100D01*
X260350Y165100D01*
X273050Y190500D02*
X285750Y190500D01*
X292100Y184150D01*
X292100Y171450D02*
X285750Y165100D01*
X266700Y184150D02*
X273050Y190500D01*
X266700Y171450D02*
X273050Y165100D01*
X285750Y165100D01*
X298450Y190500D02*
X311150Y190500D01*
X317500Y184150D01*
X317500Y171450D02*
X311150Y165100D01*
X292100Y184150D02*
X298450Y190500D01*
X292100Y171450D02*
X298450Y165100D01*
X311150Y165100D01*
X323850Y190500D02*
X336550Y190500D01*
X342900Y184150D01*
X342900Y171450D01*
X336550Y165100D01*
X317500Y184150D02*
X323850Y190500D01*
X317500Y171450D02*
X323850Y165100D01*
X336550Y165100D01*
D10*
X32583Y175790D02*
X28829Y175790D01*
X32583Y175789D02*
X32648Y175787D01*
X32712Y175781D01*
X32776Y175771D01*
X32840Y175758D01*
X32902Y175740D01*
X32963Y175719D01*
X33023Y175695D01*
X33081Y175666D01*
X33138Y175634D01*
X33192Y175599D01*
X33244Y175561D01*
X33294Y175519D01*
X33341Y175475D01*
X33385Y175428D01*
X33427Y175378D01*
X33465Y175326D01*
X33500Y175272D01*
X33532Y175215D01*
X33561Y175157D01*
X33585Y175097D01*
X33606Y175036D01*
X33624Y174974D01*
X33637Y174910D01*
X33647Y174846D01*
X33653Y174782D01*
X33655Y174717D01*
X33655Y174181D01*
X33655Y178738D02*
X33655Y180078D01*
X33653Y180149D01*
X33647Y180221D01*
X33638Y180291D01*
X33625Y180361D01*
X33608Y180431D01*
X33587Y180499D01*
X33563Y180566D01*
X33535Y180632D01*
X33504Y180696D01*
X33469Y180759D01*
X33431Y180819D01*
X33390Y180878D01*
X33346Y180934D01*
X33299Y180988D01*
X33250Y181039D01*
X33197Y181087D01*
X33142Y181133D01*
X33085Y181175D01*
X33025Y181215D01*
X32964Y181251D01*
X32900Y181284D01*
X32835Y181313D01*
X32769Y181339D01*
X32701Y181362D01*
X32632Y181381D01*
X32562Y181396D01*
X32492Y181407D01*
X32421Y181415D01*
X32350Y181419D01*
X32278Y181419D01*
X32207Y181415D01*
X32136Y181407D01*
X32066Y181396D01*
X31996Y181381D01*
X31927Y181362D01*
X31859Y181339D01*
X31793Y181313D01*
X31728Y181284D01*
X31664Y181251D01*
X31603Y181215D01*
X31543Y181175D01*
X31486Y181133D01*
X31431Y181087D01*
X31378Y181039D01*
X31329Y180988D01*
X31282Y180934D01*
X31238Y180878D01*
X31197Y180819D01*
X31159Y180759D01*
X31124Y180696D01*
X31093Y180632D01*
X31065Y180566D01*
X31041Y180499D01*
X31020Y180431D01*
X31003Y180361D01*
X30990Y180291D01*
X30981Y180221D01*
X30975Y180149D01*
X30973Y180078D01*
X28829Y180346D02*
X28829Y178738D01*
X28829Y180346D02*
X28831Y180411D01*
X28837Y180475D01*
X28847Y180539D01*
X28860Y180603D01*
X28878Y180665D01*
X28899Y180726D01*
X28923Y180786D01*
X28952Y180844D01*
X28984Y180901D01*
X29019Y180955D01*
X29057Y181007D01*
X29099Y181057D01*
X29143Y181104D01*
X29190Y181148D01*
X29240Y181190D01*
X29292Y181228D01*
X29346Y181263D01*
X29403Y181295D01*
X29461Y181324D01*
X29521Y181348D01*
X29582Y181369D01*
X29644Y181387D01*
X29708Y181400D01*
X29772Y181410D01*
X29836Y181416D01*
X29901Y181418D01*
X29966Y181416D01*
X30030Y181410D01*
X30094Y181400D01*
X30158Y181387D01*
X30220Y181369D01*
X30281Y181348D01*
X30341Y181324D01*
X30399Y181295D01*
X30456Y181263D01*
X30510Y181228D01*
X30562Y181190D01*
X30612Y181148D01*
X30659Y181104D01*
X30703Y181057D01*
X30745Y181007D01*
X30783Y180955D01*
X30818Y180901D01*
X30850Y180844D01*
X30879Y180786D01*
X30903Y180726D01*
X30924Y180665D01*
X30942Y180603D01*
X30955Y180539D01*
X30965Y180475D01*
X30971Y180411D01*
X30973Y180346D01*
X30974Y180346D02*
X30974Y179274D01*
D16*
X257706Y90038D02*
X255950Y88574D01*
X255950Y88575D02*
X255649Y88922D01*
X255340Y89262D01*
X255023Y89595D01*
X254698Y89920D01*
X254366Y90237D01*
X254026Y90546D01*
X253678Y90847D01*
X253324Y91140D01*
X252962Y91423D01*
X252594Y91698D01*
X252219Y91965D01*
X251838Y92222D01*
X251451Y92470D01*
X251059Y92708D01*
X250660Y92937D01*
X250256Y93157D01*
X249848Y93367D01*
X249434Y93567D01*
X249015Y93757D01*
X248592Y93936D01*
X248165Y94106D01*
X247734Y94265D01*
X247299Y94414D01*
X246861Y94553D01*
X246420Y94681D01*
X245975Y94798D01*
X245528Y94905D01*
X245079Y95001D01*
X244627Y95086D01*
X244174Y95160D01*
X243718Y95224D01*
X243262Y95276D01*
X242804Y95318D01*
X242346Y95348D01*
X241886Y95368D01*
X241427Y95377D01*
X241426Y97662D01*
X241427Y97663D01*
X241942Y97653D01*
X242457Y97632D01*
X242971Y97598D01*
X243484Y97552D01*
X243996Y97493D01*
X244506Y97422D01*
X245015Y97339D01*
X245521Y97244D01*
X246025Y97136D01*
X246526Y97017D01*
X247024Y96886D01*
X247519Y96742D01*
X248010Y96587D01*
X248498Y96420D01*
X248981Y96241D01*
X249460Y96051D01*
X249934Y95850D01*
X250403Y95637D01*
X250867Y95413D01*
X251326Y95178D01*
X251778Y94931D01*
X252225Y94675D01*
X252665Y94407D01*
X253099Y94129D01*
X253526Y93841D01*
X253946Y93542D01*
X254358Y93233D01*
X254764Y92915D01*
X255161Y92587D01*
X255550Y92250D01*
X255931Y91903D01*
X256304Y91547D01*
X256668Y91183D01*
X257023Y90810D01*
X257369Y90428D01*
X257706Y90038D01*
X257522Y89884D01*
X257189Y90270D01*
X256847Y90647D01*
X256495Y91016D01*
X256135Y91376D01*
X255767Y91728D01*
X255390Y92071D01*
X255005Y92404D01*
X254612Y92729D01*
X254212Y93043D01*
X253804Y93348D01*
X253389Y93644D01*
X252967Y93929D01*
X252538Y94204D01*
X252102Y94468D01*
X251661Y94722D01*
X251213Y94965D01*
X250760Y95198D01*
X250302Y95419D01*
X249838Y95630D01*
X249369Y95829D01*
X248895Y96017D01*
X248418Y96194D01*
X247936Y96359D01*
X247450Y96512D01*
X246961Y96654D01*
X246468Y96784D01*
X245973Y96902D01*
X245475Y97008D01*
X244974Y97103D01*
X244471Y97185D01*
X243967Y97255D01*
X243461Y97313D01*
X242953Y97358D01*
X242445Y97392D01*
X241936Y97413D01*
X241427Y97423D01*
X241427Y97183D01*
X241930Y97174D01*
X242433Y97152D01*
X242936Y97119D01*
X243437Y97074D01*
X243938Y97017D01*
X244436Y96947D01*
X244933Y96866D01*
X245428Y96773D01*
X245921Y96668D01*
X246410Y96551D01*
X246897Y96423D01*
X247381Y96283D01*
X247861Y96131D01*
X248337Y95968D01*
X248810Y95793D01*
X249278Y95607D01*
X249741Y95410D01*
X250200Y95202D01*
X250653Y94983D01*
X251101Y94753D01*
X251544Y94513D01*
X251980Y94262D01*
X252410Y94000D01*
X252834Y93728D01*
X253252Y93447D01*
X253662Y93155D01*
X254065Y92853D01*
X254461Y92542D01*
X254850Y92222D01*
X255230Y91892D01*
X255603Y91553D01*
X255967Y91206D01*
X256323Y90849D01*
X256670Y90485D01*
X257008Y90112D01*
X257338Y89731D01*
X257153Y89577D01*
X256828Y89954D01*
X256493Y90322D01*
X256150Y90683D01*
X255798Y91035D01*
X255438Y91378D01*
X255070Y91713D01*
X254694Y92039D01*
X254310Y92356D01*
X253919Y92663D01*
X253520Y92961D01*
X253114Y93250D01*
X252702Y93528D01*
X252283Y93797D01*
X251858Y94055D01*
X251426Y94303D01*
X250989Y94541D01*
X250546Y94768D01*
X250098Y94985D01*
X249645Y95190D01*
X249187Y95385D01*
X248724Y95569D01*
X248257Y95741D01*
X247786Y95903D01*
X247312Y96053D01*
X246834Y96191D01*
X246353Y96318D01*
X245869Y96434D01*
X245382Y96537D01*
X244893Y96630D01*
X244401Y96710D01*
X243909Y96778D01*
X243414Y96835D01*
X242918Y96880D01*
X242422Y96913D01*
X241924Y96934D01*
X241427Y96943D01*
X241427Y96703D01*
X241919Y96694D01*
X242410Y96673D01*
X242901Y96640D01*
X243391Y96596D01*
X243879Y96540D01*
X244367Y96472D01*
X244852Y96393D01*
X245335Y96302D01*
X245816Y96199D01*
X246295Y96085D01*
X246770Y95960D01*
X247243Y95823D01*
X247712Y95675D01*
X248177Y95515D01*
X248638Y95345D01*
X249096Y95163D01*
X249548Y94971D01*
X249996Y94767D01*
X250439Y94554D01*
X250877Y94329D01*
X251309Y94094D01*
X251735Y93849D01*
X252155Y93593D01*
X252570Y93328D01*
X252977Y93053D01*
X253378Y92768D01*
X253772Y92473D01*
X254159Y92169D01*
X254538Y91856D01*
X254910Y91534D01*
X255274Y91203D01*
X255630Y90864D01*
X255977Y90516D01*
X256317Y90160D01*
X256647Y89796D01*
X256969Y89423D01*
X256784Y89270D01*
X256467Y89637D01*
X256140Y89997D01*
X255805Y90349D01*
X255461Y90693D01*
X255110Y91029D01*
X254750Y91355D01*
X254383Y91674D01*
X254008Y91983D01*
X253625Y92283D01*
X253236Y92574D01*
X252840Y92856D01*
X252437Y93128D01*
X252028Y93390D01*
X251613Y93642D01*
X251191Y93885D01*
X250764Y94117D01*
X250332Y94339D01*
X249894Y94550D01*
X249452Y94751D01*
X249004Y94941D01*
X248553Y95121D01*
X248097Y95289D01*
X247637Y95447D01*
X247174Y95593D01*
X246707Y95728D01*
X246237Y95852D01*
X245764Y95965D01*
X245289Y96067D01*
X244811Y96156D01*
X244332Y96235D01*
X243850Y96302D01*
X243367Y96357D01*
X242883Y96401D01*
X242398Y96433D01*
X241913Y96454D01*
X241427Y96463D01*
X241427Y96223D01*
X241907Y96214D01*
X242387Y96193D01*
X242866Y96162D01*
X243344Y96118D01*
X243821Y96064D01*
X244297Y95997D01*
X244771Y95920D01*
X245242Y95831D01*
X245712Y95731D01*
X246179Y95619D01*
X246643Y95497D01*
X247105Y95363D01*
X247562Y95218D01*
X248017Y95063D01*
X248467Y94896D01*
X248913Y94719D01*
X249355Y94531D01*
X249793Y94333D01*
X250225Y94124D01*
X250652Y93905D01*
X251074Y93675D01*
X251490Y93436D01*
X251901Y93187D01*
X252305Y92928D01*
X252703Y92659D01*
X253094Y92381D01*
X253479Y92093D01*
X253857Y91797D01*
X254227Y91491D01*
X254590Y91177D01*
X254945Y90854D01*
X255293Y90522D01*
X255632Y90183D01*
X255963Y89835D01*
X256286Y89479D01*
X256600Y89116D01*
X256416Y88963D01*
X256105Y89321D01*
X255787Y89672D01*
X255459Y90016D01*
X255124Y90351D01*
X254781Y90679D01*
X254430Y90998D01*
X254071Y91308D01*
X253705Y91610D01*
X253332Y91903D01*
X252952Y92187D01*
X252566Y92462D01*
X252173Y92727D01*
X251773Y92983D01*
X251368Y93230D01*
X250957Y93466D01*
X250540Y93693D01*
X250118Y93909D01*
X249691Y94115D01*
X249259Y94311D01*
X248822Y94497D01*
X248381Y94672D01*
X247937Y94837D01*
X247488Y94990D01*
X247036Y95133D01*
X246580Y95265D01*
X246121Y95387D01*
X245660Y95497D01*
X245196Y95596D01*
X244730Y95683D01*
X244262Y95760D01*
X243792Y95825D01*
X243321Y95880D01*
X242848Y95922D01*
X242375Y95954D01*
X241901Y95974D01*
X241427Y95983D01*
X241427Y95743D01*
X241895Y95734D01*
X242363Y95714D01*
X242831Y95683D01*
X243297Y95641D01*
X243763Y95587D01*
X244227Y95523D01*
X244689Y95447D01*
X245150Y95360D01*
X245608Y95262D01*
X246064Y95154D01*
X246516Y95034D01*
X246966Y94903D01*
X247413Y94762D01*
X247856Y94610D01*
X248296Y94448D01*
X248731Y94275D01*
X249162Y94092D01*
X249589Y93898D01*
X250011Y93694D01*
X250428Y93480D01*
X250839Y93257D01*
X251245Y93023D01*
X251646Y92780D01*
X252040Y92527D01*
X252429Y92265D01*
X252810Y91994D01*
X253186Y91713D01*
X253554Y91424D01*
X253916Y91126D01*
X254270Y90819D01*
X254616Y90504D01*
X254956Y90181D01*
X255287Y89849D01*
X255610Y89510D01*
X255925Y89163D01*
X256231Y88809D01*
X256047Y88655D01*
X255744Y89005D01*
X255433Y89348D01*
X255114Y89683D01*
X254787Y90010D01*
X254452Y90329D01*
X254110Y90640D01*
X253760Y90943D01*
X253403Y91237D01*
X253039Y91523D01*
X252669Y91800D01*
X252291Y92068D01*
X251908Y92327D01*
X251518Y92577D01*
X251123Y92817D01*
X250722Y93047D01*
X250315Y93268D01*
X249904Y93479D01*
X249487Y93681D01*
X249066Y93872D01*
X248640Y94053D01*
X248210Y94224D01*
X247776Y94384D01*
X247338Y94534D01*
X246897Y94674D01*
X246453Y94802D01*
X246006Y94921D01*
X245556Y95028D01*
X245103Y95125D01*
X244649Y95210D01*
X244192Y95285D01*
X243734Y95349D01*
X243274Y95402D01*
X242813Y95444D01*
X242352Y95474D01*
X241889Y95494D01*
X241427Y95503D01*
X241174Y97662D02*
X241174Y95376D01*
X241173Y95377D02*
X240708Y95368D01*
X240243Y95348D01*
X239779Y95317D01*
X239316Y95274D01*
X238854Y95220D01*
X238393Y95155D01*
X237934Y95079D01*
X237477Y94992D01*
X237022Y94894D01*
X236570Y94784D01*
X236120Y94664D01*
X235674Y94533D01*
X235231Y94391D01*
X234791Y94238D01*
X234356Y94075D01*
X233924Y93901D01*
X233497Y93717D01*
X233074Y93523D01*
X232656Y93318D01*
X232243Y93103D01*
X231836Y92878D01*
X231434Y92644D01*
X231038Y92400D01*
X230648Y92146D01*
X230264Y91883D01*
X229887Y91610D01*
X229517Y91329D01*
X229153Y91039D01*
X228797Y90740D01*
X228448Y90432D01*
X228106Y90116D01*
X227772Y89792D01*
X227447Y89459D01*
X227129Y89119D01*
X226820Y88772D01*
X226519Y88417D01*
X226227Y88055D01*
X225944Y87685D01*
X225670Y87309D01*
X225405Y86927D01*
X225149Y86538D01*
X224903Y86143D01*
X224667Y85742D01*
X224440Y85336D01*
X222423Y86411D01*
X222423Y86412D01*
X222677Y86867D01*
X222941Y87317D01*
X223217Y87759D01*
X223503Y88195D01*
X223800Y88624D01*
X224106Y89046D01*
X224424Y89460D01*
X224751Y89866D01*
X225088Y90264D01*
X225434Y90653D01*
X225790Y91035D01*
X226155Y91407D01*
X226529Y91770D01*
X226911Y92125D01*
X227302Y92470D01*
X227702Y92805D01*
X228109Y93130D01*
X228524Y93446D01*
X228947Y93751D01*
X229377Y94046D01*
X229814Y94330D01*
X230258Y94604D01*
X230708Y94867D01*
X231165Y95119D01*
X231627Y95359D01*
X232096Y95589D01*
X232569Y95807D01*
X233048Y96013D01*
X233532Y96208D01*
X234020Y96390D01*
X234513Y96561D01*
X235010Y96720D01*
X235510Y96867D01*
X236014Y97002D01*
X236521Y97124D01*
X237030Y97234D01*
X237543Y97331D01*
X238057Y97416D01*
X238574Y97489D01*
X239091Y97549D01*
X239611Y97596D01*
X240131Y97631D01*
X240652Y97653D01*
X241173Y97663D01*
X241173Y97423D01*
X240658Y97413D01*
X240143Y97391D01*
X239628Y97357D01*
X239115Y97310D01*
X238603Y97251D01*
X238092Y97179D01*
X237584Y97095D01*
X237077Y96998D01*
X236573Y96890D01*
X236072Y96769D01*
X235574Y96636D01*
X235079Y96491D01*
X234588Y96333D01*
X234101Y96164D01*
X233619Y95984D01*
X233140Y95791D01*
X232667Y95587D01*
X232198Y95372D01*
X231735Y95145D01*
X231278Y94907D01*
X230827Y94658D01*
X230381Y94398D01*
X229943Y94128D01*
X229510Y93847D01*
X229085Y93555D01*
X228667Y93253D01*
X228257Y92941D01*
X227854Y92619D01*
X227459Y92288D01*
X227073Y91947D01*
X226694Y91597D01*
X226325Y91237D01*
X225964Y90869D01*
X225612Y90492D01*
X225269Y90107D01*
X224936Y89713D01*
X224613Y89312D01*
X224299Y88903D01*
X223996Y88486D01*
X223703Y88062D01*
X223420Y87631D01*
X223147Y87193D01*
X222886Y86749D01*
X222635Y86299D01*
X222846Y86186D01*
X223094Y86631D01*
X223353Y87070D01*
X223622Y87503D01*
X223902Y87929D01*
X224192Y88348D01*
X224492Y88760D01*
X224802Y89164D01*
X225122Y89561D01*
X225451Y89950D01*
X225790Y90331D01*
X226138Y90704D01*
X226494Y91068D01*
X226860Y91423D01*
X227234Y91769D01*
X227616Y92106D01*
X228006Y92434D01*
X228405Y92752D01*
X228810Y93060D01*
X229224Y93359D01*
X229644Y93647D01*
X230071Y93925D01*
X230505Y94193D01*
X230945Y94449D01*
X231391Y94696D01*
X231843Y94931D01*
X232301Y95155D01*
X232764Y95368D01*
X233232Y95570D01*
X233705Y95760D01*
X234182Y95939D01*
X234664Y96106D01*
X235149Y96261D01*
X235638Y96404D01*
X236131Y96536D01*
X236626Y96656D01*
X237124Y96763D01*
X237625Y96858D01*
X238128Y96942D01*
X238632Y97013D01*
X239139Y97071D01*
X239646Y97118D01*
X240155Y97152D01*
X240664Y97173D01*
X241173Y97183D01*
X241173Y96943D01*
X240670Y96933D01*
X240166Y96912D01*
X239664Y96878D01*
X239162Y96832D01*
X238662Y96774D01*
X238163Y96704D01*
X237666Y96622D01*
X237171Y96528D01*
X236679Y96421D01*
X236189Y96303D01*
X235702Y96173D01*
X235219Y96031D01*
X234739Y95878D01*
X234263Y95713D01*
X233791Y95536D01*
X233324Y95348D01*
X232862Y95149D01*
X232404Y94938D01*
X231951Y94716D01*
X231505Y94484D01*
X231063Y94241D01*
X230628Y93987D01*
X230200Y93722D01*
X229777Y93448D01*
X229362Y93163D01*
X228954Y92868D01*
X228552Y92563D01*
X228159Y92249D01*
X227773Y91925D01*
X227395Y91592D01*
X227025Y91249D01*
X226664Y90898D01*
X226312Y90538D01*
X225968Y90170D01*
X225633Y89794D01*
X225308Y89409D01*
X224992Y89017D01*
X224685Y88617D01*
X224389Y88210D01*
X224102Y87796D01*
X223825Y87375D01*
X223559Y86947D01*
X223303Y86513D01*
X223058Y86073D01*
X223270Y85960D01*
X223512Y86395D01*
X223765Y86824D01*
X224028Y87246D01*
X224302Y87663D01*
X224585Y88072D01*
X224878Y88474D01*
X225181Y88869D01*
X225493Y89257D01*
X225815Y89637D01*
X226146Y90009D01*
X226486Y90373D01*
X226834Y90729D01*
X227191Y91076D01*
X227556Y91414D01*
X227930Y91743D01*
X228311Y92063D01*
X228700Y92374D01*
X229097Y92675D01*
X229500Y92966D01*
X229911Y93248D01*
X230328Y93520D01*
X230752Y93781D01*
X231182Y94032D01*
X231618Y94272D01*
X232059Y94502D01*
X232507Y94721D01*
X232959Y94929D01*
X233416Y95126D01*
X233878Y95312D01*
X234344Y95487D01*
X234814Y95650D01*
X235289Y95802D01*
X235766Y95942D01*
X236247Y96070D01*
X236731Y96187D01*
X237218Y96292D01*
X237707Y96386D01*
X238198Y96467D01*
X238691Y96536D01*
X239186Y96594D01*
X239681Y96639D01*
X240178Y96672D01*
X240676Y96693D01*
X241173Y96703D01*
X241173Y96463D01*
X240682Y96454D01*
X240190Y96433D01*
X239699Y96400D01*
X239209Y96355D01*
X238721Y96298D01*
X238233Y96229D01*
X237748Y96149D01*
X237265Y96057D01*
X236784Y95953D01*
X236306Y95838D01*
X235830Y95711D01*
X235358Y95572D01*
X234890Y95422D01*
X234425Y95261D01*
X233964Y95088D01*
X233508Y94904D01*
X233056Y94710D01*
X232609Y94504D01*
X232167Y94288D01*
X231731Y94061D01*
X231300Y93823D01*
X230875Y93575D01*
X230457Y93317D01*
X230044Y93049D01*
X229639Y92770D01*
X229240Y92482D01*
X228848Y92185D01*
X228464Y91878D01*
X228087Y91561D01*
X227718Y91236D01*
X227357Y90902D01*
X227004Y90559D01*
X226659Y90208D01*
X226324Y89848D01*
X225997Y89480D01*
X225679Y89105D01*
X225370Y88722D01*
X225071Y88332D01*
X224781Y87934D01*
X224501Y87529D01*
X224231Y87118D01*
X223971Y86701D01*
X223721Y86277D01*
X223482Y85847D01*
X223694Y85734D01*
X223930Y86159D01*
X224177Y86577D01*
X224434Y86990D01*
X224701Y87396D01*
X224978Y87796D01*
X225264Y88189D01*
X225560Y88574D01*
X225865Y88953D01*
X226179Y89324D01*
X226502Y89687D01*
X226833Y90042D01*
X227174Y90389D01*
X227522Y90728D01*
X227879Y91058D01*
X228244Y91380D01*
X228616Y91692D01*
X228996Y91996D01*
X229383Y92290D01*
X229777Y92574D01*
X230178Y92849D01*
X230585Y93114D01*
X230999Y93369D01*
X231419Y93614D01*
X231844Y93849D01*
X232275Y94073D01*
X232712Y94287D01*
X233154Y94490D01*
X233600Y94683D01*
X234051Y94864D01*
X234506Y95035D01*
X234965Y95194D01*
X235428Y95342D01*
X235894Y95479D01*
X236364Y95605D01*
X236837Y95719D01*
X237312Y95822D01*
X237789Y95913D01*
X238269Y95992D01*
X238750Y96060D01*
X239233Y96116D01*
X239717Y96160D01*
X240202Y96193D01*
X240687Y96214D01*
X241173Y96223D01*
X241173Y95983D01*
X240693Y95974D01*
X240214Y95953D01*
X239735Y95921D01*
X239256Y95877D01*
X238779Y95822D01*
X238304Y95755D01*
X237830Y95676D01*
X237359Y95586D01*
X236889Y95485D01*
X236422Y95372D01*
X235959Y95248D01*
X235498Y95113D01*
X235041Y94966D01*
X234587Y94809D01*
X234137Y94640D01*
X233692Y94461D01*
X233251Y94271D01*
X232815Y94070D01*
X232383Y93859D01*
X231957Y93637D01*
X231537Y93406D01*
X231122Y93164D01*
X230714Y92911D01*
X230311Y92650D01*
X229915Y92378D01*
X229526Y92097D01*
X229143Y91806D01*
X228768Y91507D01*
X228400Y91198D01*
X228040Y90881D01*
X227688Y90554D01*
X227344Y90220D01*
X227007Y89877D01*
X226680Y89526D01*
X226361Y89167D01*
X226050Y88801D01*
X225749Y88427D01*
X225457Y88046D01*
X225174Y87658D01*
X224901Y87263D01*
X224637Y86862D01*
X224383Y86454D01*
X224139Y86041D01*
X223905Y85621D01*
X224117Y85508D01*
X224348Y85922D01*
X224589Y86331D01*
X224840Y86734D01*
X225100Y87130D01*
X225370Y87520D01*
X225650Y87903D01*
X225938Y88279D01*
X226236Y88649D01*
X226542Y89011D01*
X226858Y89365D01*
X227181Y89712D01*
X227513Y90050D01*
X227854Y90381D01*
X228202Y90703D01*
X228557Y91017D01*
X228921Y91321D01*
X229291Y91617D01*
X229669Y91904D01*
X230053Y92182D01*
X230445Y92450D01*
X230842Y92709D01*
X231246Y92958D01*
X231655Y93197D01*
X232071Y93426D01*
X232491Y93645D01*
X232917Y93853D01*
X233348Y94052D01*
X233784Y94239D01*
X234224Y94417D01*
X234668Y94583D01*
X235116Y94738D01*
X235568Y94883D01*
X236023Y95017D01*
X236481Y95139D01*
X236942Y95251D01*
X237405Y95351D01*
X237871Y95440D01*
X238339Y95517D01*
X238809Y95583D01*
X239280Y95638D01*
X239752Y95682D01*
X240225Y95713D01*
X240699Y95734D01*
X241173Y95743D01*
X241173Y95503D01*
X240705Y95494D01*
X240237Y95474D01*
X239770Y95442D01*
X239303Y95399D01*
X238838Y95345D01*
X238374Y95280D01*
X237912Y95203D01*
X237452Y95115D01*
X236994Y95016D01*
X236539Y94906D01*
X236087Y94785D01*
X235637Y94653D01*
X235191Y94511D01*
X234749Y94357D01*
X234310Y94193D01*
X233876Y94018D01*
X233446Y93832D01*
X233020Y93637D01*
X232599Y93430D01*
X232184Y93214D01*
X231774Y92988D01*
X231369Y92752D01*
X230971Y92506D01*
X230578Y92251D01*
X230192Y91986D01*
X229812Y91712D01*
X229439Y91428D01*
X229073Y91136D01*
X228714Y90835D01*
X228363Y90525D01*
X228019Y90207D01*
X227683Y89881D01*
X227355Y89546D01*
X227036Y89204D01*
X226724Y88854D01*
X226421Y88497D01*
X226128Y88132D01*
X225842Y87760D01*
X225567Y87382D01*
X225300Y86997D01*
X225043Y86605D01*
X224795Y86208D01*
X224557Y85804D01*
X224329Y85395D01*
X241426Y54738D02*
X241426Y57024D01*
X241427Y57023D02*
X241895Y57032D01*
X242363Y57053D01*
X242831Y57084D01*
X243298Y57127D01*
X243763Y57182D01*
X244227Y57248D01*
X244689Y57325D01*
X245149Y57413D01*
X245607Y57513D01*
X246063Y57624D01*
X246515Y57746D01*
X246964Y57879D01*
X247410Y58023D01*
X247853Y58177D01*
X248291Y58343D01*
X248725Y58519D01*
X249155Y58706D01*
X249580Y58903D01*
X250000Y59110D01*
X250415Y59328D01*
X250825Y59556D01*
X251229Y59793D01*
X251627Y60041D01*
X252018Y60298D01*
X252404Y60565D01*
X252783Y60841D01*
X253154Y61126D01*
X253519Y61420D01*
X253877Y61723D01*
X254227Y62035D01*
X254569Y62355D01*
X254903Y62683D01*
X255229Y63019D01*
X255547Y63364D01*
X255857Y63716D01*
X257601Y62239D01*
X257602Y62239D01*
X257255Y61844D01*
X256899Y61458D01*
X256534Y61081D01*
X256159Y60712D01*
X255776Y60353D01*
X255383Y60004D01*
X254983Y59664D01*
X254574Y59334D01*
X254157Y59014D01*
X253733Y58705D01*
X253301Y58406D01*
X252862Y58117D01*
X252416Y57840D01*
X251963Y57573D01*
X251504Y57318D01*
X251039Y57074D01*
X250568Y56841D01*
X250091Y56620D01*
X249609Y56411D01*
X249122Y56213D01*
X248631Y56028D01*
X248135Y55854D01*
X247635Y55693D01*
X247131Y55544D01*
X246624Y55408D01*
X246113Y55284D01*
X245600Y55172D01*
X245084Y55073D01*
X244566Y54987D01*
X244046Y54913D01*
X243524Y54853D01*
X243001Y54805D01*
X242477Y54769D01*
X241952Y54747D01*
X241427Y54737D01*
X241427Y54977D01*
X241946Y54987D01*
X242465Y55009D01*
X242983Y55044D01*
X243500Y55091D01*
X244016Y55152D01*
X244530Y55224D01*
X245043Y55310D01*
X245553Y55407D01*
X246060Y55518D01*
X246565Y55640D01*
X247067Y55775D01*
X247565Y55923D01*
X248059Y56082D01*
X248549Y56253D01*
X249035Y56437D01*
X249516Y56632D01*
X249993Y56839D01*
X250464Y57057D01*
X250930Y57287D01*
X251390Y57529D01*
X251843Y57781D01*
X252291Y58045D01*
X252732Y58319D01*
X253166Y58604D01*
X253593Y58900D01*
X254013Y59206D01*
X254425Y59522D01*
X254829Y59848D01*
X255225Y60184D01*
X255613Y60530D01*
X255992Y60885D01*
X256362Y61249D01*
X256724Y61622D01*
X257076Y62004D01*
X257419Y62394D01*
X257235Y62549D01*
X256897Y62163D01*
X256549Y61786D01*
X256191Y61417D01*
X255825Y61057D01*
X255450Y60706D01*
X255067Y60365D01*
X254675Y60033D01*
X254276Y59710D01*
X253869Y59398D01*
X253454Y59095D01*
X253032Y58803D01*
X252602Y58521D01*
X252166Y58250D01*
X251724Y57989D01*
X251275Y57740D01*
X250821Y57501D01*
X250360Y57274D01*
X249895Y57058D01*
X249424Y56853D01*
X248948Y56660D01*
X248467Y56479D01*
X247983Y56310D01*
X247494Y56152D01*
X247002Y56007D01*
X246506Y55873D01*
X246007Y55752D01*
X245505Y55643D01*
X245001Y55546D01*
X244495Y55462D01*
X243986Y55390D01*
X243476Y55330D01*
X242965Y55283D01*
X242453Y55249D01*
X241940Y55227D01*
X241427Y55217D01*
X241427Y55457D01*
X241934Y55467D01*
X242441Y55488D01*
X242947Y55523D01*
X243453Y55569D01*
X243957Y55628D01*
X244459Y55699D01*
X244960Y55782D01*
X245458Y55878D01*
X245954Y55986D01*
X246447Y56106D01*
X246937Y56238D01*
X247424Y56382D01*
X247907Y56537D01*
X248386Y56705D01*
X248861Y56884D01*
X249331Y57075D01*
X249796Y57277D01*
X250257Y57490D01*
X250712Y57715D01*
X251161Y57951D01*
X251605Y58198D01*
X252042Y58455D01*
X252473Y58723D01*
X252897Y59002D01*
X253314Y59290D01*
X253724Y59589D01*
X254127Y59898D01*
X254522Y60217D01*
X254909Y60545D01*
X255288Y60883D01*
X255658Y61230D01*
X256020Y61585D01*
X256373Y61950D01*
X256717Y62323D01*
X257052Y62704D01*
X256869Y62859D01*
X256538Y62482D01*
X256198Y62114D01*
X255849Y61754D01*
X255491Y61402D01*
X255125Y61059D01*
X254751Y60726D01*
X254368Y60401D01*
X253978Y60086D01*
X253580Y59781D01*
X253175Y59486D01*
X252762Y59200D01*
X252343Y58925D01*
X251917Y58660D01*
X251485Y58406D01*
X251047Y58162D01*
X250603Y57929D01*
X250153Y57707D01*
X249698Y57496D01*
X249238Y57296D01*
X248773Y57108D01*
X248304Y56930D01*
X247831Y56765D01*
X247353Y56611D01*
X246872Y56469D01*
X246388Y56338D01*
X245901Y56220D01*
X245411Y56113D01*
X244918Y56019D01*
X244424Y55936D01*
X243927Y55866D01*
X243429Y55808D01*
X242929Y55762D01*
X242429Y55728D01*
X241928Y55707D01*
X241427Y55697D01*
X241427Y55937D01*
X241922Y55947D01*
X242417Y55968D01*
X242912Y56001D01*
X243405Y56047D01*
X243897Y56104D01*
X244388Y56174D01*
X244877Y56255D01*
X245363Y56349D01*
X245848Y56454D01*
X246329Y56571D01*
X246808Y56700D01*
X247283Y56840D01*
X247755Y56993D01*
X248222Y57156D01*
X248686Y57331D01*
X249145Y57517D01*
X249600Y57715D01*
X250049Y57923D01*
X250494Y58143D01*
X250932Y58373D01*
X251366Y58614D01*
X251793Y58865D01*
X252213Y59127D01*
X252628Y59399D01*
X253035Y59681D01*
X253436Y59973D01*
X253829Y60275D01*
X254214Y60586D01*
X254592Y60906D01*
X254962Y61236D01*
X255324Y61574D01*
X255678Y61922D01*
X256023Y62278D01*
X256359Y62642D01*
X256686Y63014D01*
X256503Y63169D01*
X256179Y62801D01*
X255847Y62442D01*
X255507Y62090D01*
X255157Y61747D01*
X254800Y61412D01*
X254434Y61087D01*
X254061Y60770D01*
X253680Y60463D01*
X253291Y60165D01*
X252896Y59876D01*
X252493Y59598D01*
X252084Y59329D01*
X251668Y59070D01*
X251246Y58822D01*
X250818Y58584D01*
X250385Y58357D01*
X249946Y58140D01*
X249501Y57934D01*
X249052Y57739D01*
X248599Y57555D01*
X248141Y57382D01*
X247679Y57220D01*
X247213Y57070D01*
X246743Y56931D01*
X246270Y56804D01*
X245795Y56688D01*
X245316Y56584D01*
X244835Y56492D01*
X244352Y56411D01*
X243868Y56342D01*
X243381Y56285D01*
X242894Y56241D01*
X242405Y56208D01*
X241916Y56186D01*
X241427Y56177D01*
X241427Y56417D01*
X241910Y56426D01*
X242393Y56447D01*
X242876Y56480D01*
X243358Y56524D01*
X243838Y56580D01*
X244317Y56648D01*
X244794Y56728D01*
X245269Y56819D01*
X245741Y56922D01*
X246211Y57036D01*
X246678Y57162D01*
X247142Y57299D01*
X247602Y57448D01*
X248059Y57607D01*
X248511Y57778D01*
X248960Y57960D01*
X249403Y58153D01*
X249842Y58356D01*
X250276Y58570D01*
X250704Y58795D01*
X251127Y59030D01*
X251543Y59275D01*
X251954Y59531D01*
X252358Y59796D01*
X252756Y60072D01*
X253147Y60356D01*
X253531Y60651D01*
X253907Y60954D01*
X254276Y61267D01*
X254637Y61589D01*
X254990Y61919D01*
X255335Y62258D01*
X255672Y62605D01*
X256000Y62961D01*
X256319Y63324D01*
X256136Y63479D01*
X255821Y63120D01*
X255497Y62769D01*
X255164Y62426D01*
X254823Y62092D01*
X254475Y61765D01*
X254118Y61448D01*
X253753Y61139D01*
X253382Y60839D01*
X253003Y60548D01*
X252617Y60267D01*
X252224Y59995D01*
X251824Y59733D01*
X251419Y59481D01*
X251007Y59238D01*
X250590Y59006D01*
X250167Y58784D01*
X249738Y58573D01*
X249305Y58372D01*
X248867Y58181D01*
X248424Y58002D01*
X247977Y57833D01*
X247526Y57675D01*
X247072Y57529D01*
X246614Y57393D01*
X246152Y57269D01*
X245688Y57156D01*
X245221Y57054D01*
X244752Y56964D01*
X244281Y56886D01*
X243808Y56819D01*
X243334Y56763D01*
X242858Y56719D01*
X242381Y56687D01*
X241904Y56666D01*
X241427Y56657D01*
X241427Y56897D01*
X241898Y56906D01*
X242370Y56927D01*
X242840Y56959D01*
X243310Y57002D01*
X243779Y57057D01*
X244246Y57123D01*
X244711Y57201D01*
X245174Y57290D01*
X245635Y57390D01*
X246093Y57502D01*
X246549Y57624D01*
X247001Y57758D01*
X247450Y57903D01*
X247896Y58059D01*
X248337Y58225D01*
X248774Y58403D01*
X249207Y58591D01*
X249635Y58789D01*
X250058Y58998D01*
X250475Y59217D01*
X250888Y59446D01*
X251294Y59686D01*
X251695Y59935D01*
X252089Y60194D01*
X252477Y60462D01*
X252858Y60740D01*
X253233Y61027D01*
X253600Y61323D01*
X253960Y61628D01*
X254312Y61942D01*
X254657Y62264D01*
X254993Y62595D01*
X255321Y62933D01*
X255641Y63280D01*
X255953Y63634D01*
X222728Y65441D02*
X224713Y66576D01*
X224712Y66575D02*
X224950Y66177D01*
X225196Y65785D01*
X225453Y65400D01*
X225718Y65020D01*
X225992Y64647D01*
X226276Y64281D01*
X226568Y63922D01*
X226869Y63570D01*
X227178Y63225D01*
X227495Y62888D01*
X227821Y62558D01*
X228154Y62237D01*
X228495Y61923D01*
X228844Y61618D01*
X229199Y61322D01*
X229562Y61034D01*
X229932Y60755D01*
X230308Y60485D01*
X230691Y60224D01*
X231080Y59973D01*
X231474Y59731D01*
X231875Y59498D01*
X232281Y59276D01*
X232692Y59063D01*
X233109Y58860D01*
X233530Y58667D01*
X233955Y58485D01*
X234385Y58313D01*
X234819Y58151D01*
X235257Y58000D01*
X235698Y57859D01*
X236143Y57729D01*
X236590Y57610D01*
X237040Y57502D01*
X237493Y57404D01*
X237948Y57318D01*
X238405Y57243D01*
X238864Y57178D01*
X239324Y57125D01*
X239785Y57083D01*
X240247Y57052D01*
X240710Y57032D01*
X241173Y57023D01*
X241173Y54738D01*
X241173Y54737D01*
X240654Y54747D01*
X240135Y54769D01*
X239617Y54803D01*
X239100Y54850D01*
X238585Y54909D01*
X238071Y54981D01*
X237559Y55065D01*
X237049Y55162D01*
X236541Y55271D01*
X236037Y55392D01*
X235535Y55525D01*
X235037Y55671D01*
X234542Y55828D01*
X234052Y55998D01*
X233565Y56179D01*
X233083Y56372D01*
X232606Y56576D01*
X232135Y56792D01*
X231668Y57019D01*
X231207Y57258D01*
X230752Y57507D01*
X230303Y57768D01*
X229861Y58039D01*
X229425Y58321D01*
X228996Y58613D01*
X228574Y58916D01*
X228160Y59229D01*
X227754Y59551D01*
X227355Y59884D01*
X226964Y60226D01*
X226582Y60577D01*
X226209Y60937D01*
X225844Y61307D01*
X225489Y61685D01*
X225142Y62071D01*
X224805Y62466D01*
X224478Y62869D01*
X224161Y63279D01*
X223853Y63698D01*
X223556Y64123D01*
X223269Y64556D01*
X222993Y64995D01*
X222728Y65441D01*
X222936Y65560D01*
X223198Y65119D01*
X223472Y64685D01*
X223755Y64257D01*
X224049Y63836D01*
X224353Y63423D01*
X224667Y63017D01*
X224991Y62619D01*
X225324Y62228D01*
X225666Y61846D01*
X226018Y61473D01*
X226378Y61107D01*
X226747Y60751D01*
X227125Y60404D01*
X227511Y60066D01*
X227905Y59737D01*
X228307Y59418D01*
X228717Y59109D01*
X229134Y58810D01*
X229558Y58521D01*
X229989Y58242D01*
X230426Y57974D01*
X230870Y57716D01*
X231320Y57470D01*
X231775Y57234D01*
X232237Y57009D01*
X232703Y56796D01*
X233175Y56593D01*
X233651Y56403D01*
X234132Y56224D01*
X234617Y56056D01*
X235106Y55901D01*
X235599Y55757D01*
X236095Y55625D01*
X236594Y55505D01*
X237095Y55397D01*
X237600Y55302D01*
X238106Y55219D01*
X238614Y55148D01*
X239124Y55089D01*
X239635Y55042D01*
X240147Y55008D01*
X240660Y54987D01*
X241173Y54977D01*
X241173Y55217D01*
X240665Y55227D01*
X240159Y55248D01*
X239652Y55282D01*
X239147Y55328D01*
X238643Y55386D01*
X238141Y55456D01*
X237640Y55538D01*
X237142Y55633D01*
X236646Y55739D01*
X236153Y55858D01*
X235663Y55988D01*
X235176Y56130D01*
X234692Y56284D01*
X234213Y56450D01*
X233737Y56627D01*
X233267Y56815D01*
X232800Y57015D01*
X232339Y57226D01*
X231883Y57448D01*
X231432Y57681D01*
X230988Y57925D01*
X230549Y58180D01*
X230116Y58445D01*
X229691Y58721D01*
X229271Y59006D01*
X228859Y59302D01*
X228454Y59608D01*
X228057Y59923D01*
X227668Y60248D01*
X227286Y60582D01*
X226912Y60925D01*
X226547Y61278D01*
X226191Y61639D01*
X225843Y62008D01*
X225505Y62386D01*
X225176Y62772D01*
X224856Y63165D01*
X224545Y63567D01*
X224245Y63975D01*
X223954Y64391D01*
X223674Y64814D01*
X223404Y65243D01*
X223144Y65679D01*
X223353Y65798D01*
X223609Y65367D01*
X223876Y64943D01*
X224153Y64525D01*
X224441Y64114D01*
X224738Y63710D01*
X225044Y63314D01*
X225361Y62924D01*
X225686Y62543D01*
X226021Y62170D01*
X226364Y61805D01*
X226717Y61448D01*
X227077Y61100D01*
X227447Y60760D01*
X227824Y60430D01*
X228209Y60109D01*
X228602Y59797D01*
X229002Y59495D01*
X229409Y59203D01*
X229823Y58920D01*
X230244Y58648D01*
X230672Y58386D01*
X231106Y58134D01*
X231545Y57893D01*
X231991Y57663D01*
X232441Y57443D01*
X232897Y57235D01*
X233358Y57037D01*
X233824Y56851D01*
X234293Y56676D01*
X234767Y56512D01*
X235245Y56360D01*
X235726Y56220D01*
X236211Y56091D01*
X236699Y55974D01*
X237189Y55868D01*
X237681Y55775D01*
X238176Y55693D01*
X238673Y55624D01*
X239171Y55566D01*
X239670Y55521D01*
X240170Y55488D01*
X240671Y55467D01*
X241173Y55457D01*
X241173Y55697D01*
X240677Y55706D01*
X240182Y55727D01*
X239688Y55760D01*
X239194Y55805D01*
X238702Y55862D01*
X238211Y55931D01*
X237722Y56011D01*
X237235Y56104D01*
X236751Y56208D01*
X236269Y56324D01*
X235790Y56451D01*
X235315Y56590D01*
X234842Y56740D01*
X234374Y56902D01*
X233910Y57075D01*
X233450Y57259D01*
X232994Y57454D01*
X232544Y57660D01*
X232098Y57877D01*
X231658Y58105D01*
X231224Y58343D01*
X230795Y58592D01*
X230372Y58851D01*
X229956Y59120D01*
X229547Y59399D01*
X229144Y59688D01*
X228749Y59987D01*
X228361Y60295D01*
X227980Y60612D01*
X227607Y60939D01*
X227243Y61274D01*
X226886Y61618D01*
X226538Y61971D01*
X226198Y62331D01*
X225867Y62700D01*
X225546Y63077D01*
X225233Y63462D01*
X224930Y63854D01*
X224636Y64253D01*
X224353Y64659D01*
X224079Y65072D01*
X223815Y65491D01*
X223561Y65917D01*
X223769Y66036D01*
X224020Y65616D01*
X224281Y65201D01*
X224552Y64793D01*
X224832Y64392D01*
X225122Y63997D01*
X225422Y63610D01*
X225731Y63230D01*
X226049Y62858D01*
X226375Y62493D01*
X226711Y62137D01*
X227055Y61788D01*
X227408Y61448D01*
X227768Y61117D01*
X228136Y60794D01*
X228513Y60481D01*
X228896Y60176D01*
X229287Y59881D01*
X229685Y59596D01*
X230089Y59320D01*
X230500Y59054D01*
X230918Y58798D01*
X231341Y58552D01*
X231771Y58317D01*
X232206Y58092D01*
X232646Y57878D01*
X233091Y57674D01*
X233541Y57481D01*
X233996Y57299D01*
X234455Y57128D01*
X234917Y56968D01*
X235384Y56820D01*
X235854Y56682D01*
X236327Y56556D01*
X236803Y56442D01*
X237282Y56339D01*
X237763Y56248D01*
X238246Y56168D01*
X238731Y56100D01*
X239218Y56044D01*
X239705Y56000D01*
X240194Y55967D01*
X240683Y55946D01*
X241173Y55937D01*
X241173Y56177D01*
X240689Y56186D01*
X240206Y56207D01*
X239723Y56239D01*
X239241Y56283D01*
X238760Y56339D01*
X238281Y56406D01*
X237804Y56484D01*
X237329Y56575D01*
X236856Y56676D01*
X236385Y56789D01*
X235918Y56914D01*
X235453Y57049D01*
X234992Y57196D01*
X234535Y57354D01*
X234082Y57523D01*
X233633Y57703D01*
X233188Y57893D01*
X232748Y58095D01*
X232313Y58307D01*
X231884Y58529D01*
X231459Y58761D01*
X231041Y59004D01*
X230628Y59257D01*
X230222Y59520D01*
X229822Y59792D01*
X229429Y60074D01*
X229043Y60366D01*
X228664Y60667D01*
X228293Y60976D01*
X227929Y61295D01*
X227573Y61622D01*
X227224Y61958D01*
X226884Y62303D01*
X226553Y62655D01*
X226230Y63015D01*
X225916Y63383D01*
X225611Y63758D01*
X225315Y64141D01*
X225028Y64531D01*
X224751Y64927D01*
X224483Y65330D01*
X224226Y65740D01*
X223978Y66155D01*
X224186Y66274D01*
X224431Y65864D01*
X224686Y65459D01*
X224950Y65061D01*
X225224Y64670D01*
X225507Y64285D01*
X225799Y63907D01*
X226101Y63536D01*
X226411Y63172D01*
X226730Y62817D01*
X227058Y62469D01*
X227394Y62129D01*
X227738Y61797D01*
X228089Y61473D01*
X228449Y61159D01*
X228816Y60853D01*
X229191Y60555D01*
X229572Y60268D01*
X229960Y59989D01*
X230355Y59720D01*
X230756Y59460D01*
X231164Y59210D01*
X231577Y58971D01*
X231996Y58741D01*
X232421Y58521D01*
X232850Y58312D01*
X233285Y58113D01*
X233724Y57925D01*
X234168Y57747D01*
X234616Y57580D01*
X235067Y57424D01*
X235523Y57279D01*
X235982Y57145D01*
X236443Y57022D01*
X236908Y56910D01*
X237375Y56810D01*
X237845Y56721D01*
X238316Y56643D01*
X238790Y56577D01*
X239264Y56522D01*
X239740Y56478D01*
X240217Y56447D01*
X240695Y56426D01*
X241173Y56417D01*
X241173Y56657D01*
X240701Y56666D01*
X240229Y56686D01*
X239758Y56718D01*
X239288Y56761D01*
X238819Y56815D01*
X238351Y56881D01*
X237886Y56957D01*
X237422Y57045D01*
X236960Y57145D01*
X236502Y57255D01*
X236045Y57376D01*
X235592Y57509D01*
X235142Y57652D01*
X234696Y57806D01*
X234254Y57971D01*
X233816Y58146D01*
X233382Y58332D01*
X232953Y58529D01*
X232528Y58736D01*
X232109Y58953D01*
X231695Y59180D01*
X231287Y59416D01*
X230884Y59663D01*
X230488Y59920D01*
X230098Y60185D01*
X229714Y60461D01*
X229338Y60745D01*
X228968Y61038D01*
X228605Y61341D01*
X228250Y61652D01*
X227903Y61971D01*
X227563Y62299D01*
X227231Y62635D01*
X226908Y62978D01*
X226592Y63330D01*
X226286Y63689D01*
X225988Y64055D01*
X225699Y64428D01*
X225419Y64808D01*
X225149Y65195D01*
X224888Y65589D01*
X224636Y65988D01*
X224395Y66393D01*
X224603Y66513D01*
X224842Y66112D01*
X225090Y65718D01*
X225348Y65329D01*
X225615Y64947D01*
X225891Y64572D01*
X226177Y64203D01*
X226471Y63841D01*
X226774Y63487D01*
X227085Y63140D01*
X227404Y62801D01*
X227732Y62469D01*
X228068Y62145D01*
X228411Y61830D01*
X228762Y61523D01*
X229120Y61224D01*
X229485Y60935D01*
X229857Y60654D01*
X230236Y60382D01*
X230621Y60119D01*
X231012Y59866D01*
X231410Y59623D01*
X231813Y59389D01*
X232222Y59164D01*
X232636Y58950D01*
X233055Y58746D01*
X233479Y58552D01*
X233907Y58368D01*
X234340Y58195D01*
X234777Y58032D01*
X235217Y57880D01*
X235662Y57739D01*
X236109Y57608D01*
X236560Y57488D01*
X237013Y57379D01*
X237469Y57281D01*
X237927Y57194D01*
X238387Y57118D01*
X238848Y57053D01*
X239311Y57000D01*
X239776Y56957D01*
X240241Y56926D01*
X240706Y56906D01*
X241173Y56897D01*
D17*
X257048Y84074D02*
X257048Y89154D01*
X257048Y67818D02*
X257048Y63246D01*
D10*
X266319Y84725D02*
X271145Y84725D01*
X266319Y84725D02*
X266319Y86065D01*
X266321Y86135D01*
X266326Y86205D01*
X266336Y86275D01*
X266348Y86344D01*
X266365Y86412D01*
X266385Y86479D01*
X266408Y86546D01*
X266435Y86610D01*
X266465Y86674D01*
X266499Y86736D01*
X266535Y86795D01*
X266575Y86853D01*
X266618Y86909D01*
X266663Y86962D01*
X266712Y87013D01*
X266763Y87062D01*
X266816Y87107D01*
X266872Y87150D01*
X266930Y87190D01*
X266990Y87226D01*
X267051Y87260D01*
X267115Y87290D01*
X267179Y87317D01*
X267246Y87340D01*
X267313Y87360D01*
X267381Y87377D01*
X267450Y87389D01*
X267520Y87399D01*
X267590Y87404D01*
X267660Y87406D01*
X269804Y87406D01*
X269874Y87404D01*
X269944Y87399D01*
X270014Y87389D01*
X270083Y87377D01*
X270151Y87360D01*
X270218Y87340D01*
X270285Y87317D01*
X270349Y87290D01*
X270413Y87260D01*
X270475Y87226D01*
X270534Y87190D01*
X270592Y87150D01*
X270648Y87107D01*
X270701Y87062D01*
X270752Y87013D01*
X270801Y86962D01*
X270846Y86909D01*
X270889Y86853D01*
X270929Y86795D01*
X270965Y86735D01*
X270999Y86674D01*
X271029Y86610D01*
X271056Y86546D01*
X271079Y86479D01*
X271099Y86412D01*
X271116Y86344D01*
X271128Y86275D01*
X271138Y86205D01*
X271143Y86135D01*
X271145Y86065D01*
X271145Y84725D01*
X267391Y90394D02*
X266319Y91735D01*
X271145Y91735D01*
X271145Y93075D02*
X271145Y90394D01*
X278624Y81185D02*
X278624Y79844D01*
X278623Y81185D02*
X278625Y81256D01*
X278631Y81328D01*
X278640Y81398D01*
X278653Y81468D01*
X278670Y81538D01*
X278691Y81606D01*
X278715Y81673D01*
X278743Y81739D01*
X278774Y81803D01*
X278809Y81866D01*
X278847Y81926D01*
X278888Y81985D01*
X278932Y82041D01*
X278979Y82095D01*
X279028Y82146D01*
X279081Y82194D01*
X279136Y82240D01*
X279193Y82282D01*
X279253Y82322D01*
X279314Y82358D01*
X279378Y82391D01*
X279443Y82420D01*
X279509Y82446D01*
X279577Y82469D01*
X279646Y82488D01*
X279716Y82503D01*
X279786Y82514D01*
X279857Y82522D01*
X279928Y82526D01*
X280000Y82526D01*
X280071Y82522D01*
X280142Y82514D01*
X280212Y82503D01*
X280282Y82488D01*
X280351Y82469D01*
X280419Y82446D01*
X280485Y82420D01*
X280550Y82391D01*
X280614Y82358D01*
X280675Y82322D01*
X280735Y82282D01*
X280792Y82240D01*
X280847Y82194D01*
X280900Y82146D01*
X280949Y82095D01*
X280996Y82041D01*
X281040Y81985D01*
X281081Y81926D01*
X281119Y81866D01*
X281154Y81803D01*
X281185Y81739D01*
X281213Y81673D01*
X281237Y81606D01*
X281258Y81538D01*
X281275Y81468D01*
X281288Y81398D01*
X281297Y81328D01*
X281303Y81256D01*
X281305Y81185D01*
X281305Y79844D01*
X276479Y79844D01*
X276479Y81185D01*
X276481Y81250D01*
X276487Y81314D01*
X276497Y81378D01*
X276510Y81442D01*
X276528Y81504D01*
X276549Y81565D01*
X276573Y81625D01*
X276602Y81683D01*
X276634Y81740D01*
X276669Y81794D01*
X276707Y81846D01*
X276749Y81896D01*
X276793Y81943D01*
X276840Y81987D01*
X276890Y82029D01*
X276942Y82067D01*
X276996Y82102D01*
X277053Y82134D01*
X277111Y82163D01*
X277171Y82187D01*
X277232Y82208D01*
X277294Y82226D01*
X277358Y82239D01*
X277422Y82249D01*
X277486Y82255D01*
X277551Y82257D01*
X277616Y82255D01*
X277680Y82249D01*
X277744Y82239D01*
X277808Y82226D01*
X277870Y82208D01*
X277931Y82187D01*
X277991Y82163D01*
X278049Y82134D01*
X278106Y82102D01*
X278160Y82067D01*
X278212Y82029D01*
X278262Y81987D01*
X278309Y81943D01*
X278353Y81896D01*
X278395Y81846D01*
X278433Y81794D01*
X278468Y81740D01*
X278500Y81683D01*
X278529Y81625D01*
X278553Y81565D01*
X278574Y81504D01*
X278592Y81442D01*
X278605Y81378D01*
X278615Y81314D01*
X278621Y81250D01*
X278623Y81185D01*
X276479Y85204D02*
X281305Y85204D01*
X281305Y87349D01*
X279964Y89939D02*
X276479Y89939D01*
X279964Y89939D02*
X280035Y89941D01*
X280107Y89947D01*
X280177Y89956D01*
X280247Y89969D01*
X280317Y89986D01*
X280385Y90007D01*
X280452Y90031D01*
X280518Y90059D01*
X280582Y90090D01*
X280645Y90125D01*
X280705Y90163D01*
X280764Y90204D01*
X280820Y90248D01*
X280874Y90295D01*
X280925Y90344D01*
X280973Y90397D01*
X281019Y90452D01*
X281061Y90509D01*
X281101Y90569D01*
X281137Y90630D01*
X281170Y90694D01*
X281199Y90759D01*
X281225Y90825D01*
X281248Y90893D01*
X281267Y90962D01*
X281282Y91032D01*
X281293Y91102D01*
X281301Y91173D01*
X281305Y91244D01*
X281305Y91316D01*
X281301Y91387D01*
X281293Y91458D01*
X281282Y91528D01*
X281267Y91598D01*
X281248Y91667D01*
X281225Y91735D01*
X281199Y91801D01*
X281170Y91866D01*
X281137Y91930D01*
X281101Y91991D01*
X281061Y92051D01*
X281019Y92108D01*
X280973Y92163D01*
X280925Y92216D01*
X280874Y92265D01*
X280820Y92312D01*
X280764Y92356D01*
X280705Y92397D01*
X280645Y92435D01*
X280582Y92470D01*
X280518Y92501D01*
X280452Y92529D01*
X280385Y92553D01*
X280317Y92574D01*
X280247Y92591D01*
X280177Y92604D01*
X280107Y92613D01*
X280035Y92619D01*
X279964Y92621D01*
X279964Y92620D02*
X276479Y92620D01*
X281305Y95811D02*
X281305Y97956D01*
X281305Y95811D02*
X276479Y95811D01*
X276479Y97956D01*
X278624Y97419D02*
X278624Y95811D01*
D16*
X257706Y140838D02*
X255950Y139374D01*
X255950Y139375D02*
X255649Y139722D01*
X255340Y140062D01*
X255023Y140395D01*
X254698Y140720D01*
X254366Y141037D01*
X254026Y141346D01*
X253678Y141647D01*
X253324Y141940D01*
X252962Y142223D01*
X252594Y142498D01*
X252219Y142765D01*
X251838Y143022D01*
X251451Y143270D01*
X251059Y143508D01*
X250660Y143737D01*
X250256Y143957D01*
X249848Y144167D01*
X249434Y144367D01*
X249015Y144557D01*
X248592Y144736D01*
X248165Y144906D01*
X247734Y145065D01*
X247299Y145214D01*
X246861Y145353D01*
X246420Y145481D01*
X245975Y145598D01*
X245528Y145705D01*
X245079Y145801D01*
X244627Y145886D01*
X244174Y145960D01*
X243718Y146024D01*
X243262Y146076D01*
X242804Y146118D01*
X242346Y146148D01*
X241886Y146168D01*
X241427Y146177D01*
X241426Y148462D01*
X241427Y148463D01*
X241942Y148453D01*
X242457Y148432D01*
X242971Y148398D01*
X243484Y148352D01*
X243996Y148293D01*
X244506Y148222D01*
X245015Y148139D01*
X245521Y148044D01*
X246025Y147936D01*
X246526Y147817D01*
X247024Y147686D01*
X247519Y147542D01*
X248010Y147387D01*
X248498Y147220D01*
X248981Y147041D01*
X249460Y146851D01*
X249934Y146650D01*
X250403Y146437D01*
X250867Y146213D01*
X251326Y145978D01*
X251778Y145731D01*
X252225Y145475D01*
X252665Y145207D01*
X253099Y144929D01*
X253526Y144641D01*
X253946Y144342D01*
X254358Y144033D01*
X254764Y143715D01*
X255161Y143387D01*
X255550Y143050D01*
X255931Y142703D01*
X256304Y142347D01*
X256668Y141983D01*
X257023Y141610D01*
X257369Y141228D01*
X257706Y140838D01*
X257522Y140684D01*
X257189Y141070D01*
X256847Y141447D01*
X256495Y141816D01*
X256135Y142176D01*
X255767Y142528D01*
X255390Y142871D01*
X255005Y143204D01*
X254612Y143529D01*
X254212Y143843D01*
X253804Y144148D01*
X253389Y144444D01*
X252967Y144729D01*
X252538Y145004D01*
X252102Y145268D01*
X251661Y145522D01*
X251213Y145765D01*
X250760Y145998D01*
X250302Y146219D01*
X249838Y146430D01*
X249369Y146629D01*
X248895Y146817D01*
X248418Y146994D01*
X247936Y147159D01*
X247450Y147312D01*
X246961Y147454D01*
X246468Y147584D01*
X245973Y147702D01*
X245475Y147808D01*
X244974Y147903D01*
X244471Y147985D01*
X243967Y148055D01*
X243461Y148113D01*
X242953Y148158D01*
X242445Y148192D01*
X241936Y148213D01*
X241427Y148223D01*
X241427Y147983D01*
X241930Y147974D01*
X242433Y147952D01*
X242936Y147919D01*
X243437Y147874D01*
X243938Y147817D01*
X244436Y147747D01*
X244933Y147666D01*
X245428Y147573D01*
X245921Y147468D01*
X246410Y147351D01*
X246897Y147223D01*
X247381Y147083D01*
X247861Y146931D01*
X248337Y146768D01*
X248810Y146593D01*
X249278Y146407D01*
X249741Y146210D01*
X250200Y146002D01*
X250653Y145783D01*
X251101Y145553D01*
X251544Y145313D01*
X251980Y145062D01*
X252410Y144800D01*
X252834Y144528D01*
X253252Y144247D01*
X253662Y143955D01*
X254065Y143653D01*
X254461Y143342D01*
X254850Y143022D01*
X255230Y142692D01*
X255603Y142353D01*
X255967Y142006D01*
X256323Y141649D01*
X256670Y141285D01*
X257008Y140912D01*
X257338Y140531D01*
X257153Y140377D01*
X256828Y140754D01*
X256493Y141122D01*
X256150Y141483D01*
X255798Y141835D01*
X255438Y142178D01*
X255070Y142513D01*
X254694Y142839D01*
X254310Y143156D01*
X253919Y143463D01*
X253520Y143761D01*
X253114Y144050D01*
X252702Y144328D01*
X252283Y144597D01*
X251858Y144855D01*
X251426Y145103D01*
X250989Y145341D01*
X250546Y145568D01*
X250098Y145785D01*
X249645Y145990D01*
X249187Y146185D01*
X248724Y146369D01*
X248257Y146541D01*
X247786Y146703D01*
X247312Y146853D01*
X246834Y146991D01*
X246353Y147118D01*
X245869Y147234D01*
X245382Y147337D01*
X244893Y147430D01*
X244401Y147510D01*
X243909Y147578D01*
X243414Y147635D01*
X242918Y147680D01*
X242422Y147713D01*
X241924Y147734D01*
X241427Y147743D01*
X241427Y147503D01*
X241919Y147494D01*
X242410Y147473D01*
X242901Y147440D01*
X243391Y147396D01*
X243879Y147340D01*
X244367Y147272D01*
X244852Y147193D01*
X245335Y147102D01*
X245816Y146999D01*
X246295Y146885D01*
X246770Y146760D01*
X247243Y146623D01*
X247712Y146475D01*
X248177Y146315D01*
X248638Y146145D01*
X249096Y145963D01*
X249548Y145771D01*
X249996Y145567D01*
X250439Y145354D01*
X250877Y145129D01*
X251309Y144894D01*
X251735Y144649D01*
X252155Y144393D01*
X252570Y144128D01*
X252977Y143853D01*
X253378Y143568D01*
X253772Y143273D01*
X254159Y142969D01*
X254538Y142656D01*
X254910Y142334D01*
X255274Y142003D01*
X255630Y141664D01*
X255977Y141316D01*
X256317Y140960D01*
X256647Y140596D01*
X256969Y140223D01*
X256784Y140070D01*
X256467Y140437D01*
X256140Y140797D01*
X255805Y141149D01*
X255461Y141493D01*
X255110Y141829D01*
X254750Y142155D01*
X254383Y142474D01*
X254008Y142783D01*
X253625Y143083D01*
X253236Y143374D01*
X252840Y143656D01*
X252437Y143928D01*
X252028Y144190D01*
X251613Y144442D01*
X251191Y144685D01*
X250764Y144917D01*
X250332Y145139D01*
X249894Y145350D01*
X249452Y145551D01*
X249004Y145741D01*
X248553Y145921D01*
X248097Y146089D01*
X247637Y146247D01*
X247174Y146393D01*
X246707Y146528D01*
X246237Y146652D01*
X245764Y146765D01*
X245289Y146867D01*
X244811Y146956D01*
X244332Y147035D01*
X243850Y147102D01*
X243367Y147157D01*
X242883Y147201D01*
X242398Y147233D01*
X241913Y147254D01*
X241427Y147263D01*
X241427Y147023D01*
X241907Y147014D01*
X242387Y146993D01*
X242866Y146962D01*
X243344Y146918D01*
X243821Y146864D01*
X244297Y146797D01*
X244771Y146720D01*
X245242Y146631D01*
X245712Y146531D01*
X246179Y146419D01*
X246643Y146297D01*
X247105Y146163D01*
X247562Y146018D01*
X248017Y145863D01*
X248467Y145696D01*
X248913Y145519D01*
X249355Y145331D01*
X249793Y145133D01*
X250225Y144924D01*
X250652Y144705D01*
X251074Y144475D01*
X251490Y144236D01*
X251901Y143987D01*
X252305Y143728D01*
X252703Y143459D01*
X253094Y143181D01*
X253479Y142893D01*
X253857Y142597D01*
X254227Y142291D01*
X254590Y141977D01*
X254945Y141654D01*
X255293Y141322D01*
X255632Y140983D01*
X255963Y140635D01*
X256286Y140279D01*
X256600Y139916D01*
X256416Y139763D01*
X256105Y140121D01*
X255787Y140472D01*
X255459Y140816D01*
X255124Y141151D01*
X254781Y141479D01*
X254430Y141798D01*
X254071Y142108D01*
X253705Y142410D01*
X253332Y142703D01*
X252952Y142987D01*
X252566Y143262D01*
X252173Y143527D01*
X251773Y143783D01*
X251368Y144030D01*
X250957Y144266D01*
X250540Y144493D01*
X250118Y144709D01*
X249691Y144915D01*
X249259Y145111D01*
X248822Y145297D01*
X248381Y145472D01*
X247937Y145637D01*
X247488Y145790D01*
X247036Y145933D01*
X246580Y146065D01*
X246121Y146187D01*
X245660Y146297D01*
X245196Y146396D01*
X244730Y146483D01*
X244262Y146560D01*
X243792Y146625D01*
X243321Y146680D01*
X242848Y146722D01*
X242375Y146754D01*
X241901Y146774D01*
X241427Y146783D01*
X241427Y146543D01*
X241895Y146534D01*
X242363Y146514D01*
X242831Y146483D01*
X243297Y146441D01*
X243763Y146387D01*
X244227Y146323D01*
X244689Y146247D01*
X245150Y146160D01*
X245608Y146062D01*
X246064Y145954D01*
X246516Y145834D01*
X246966Y145703D01*
X247413Y145562D01*
X247856Y145410D01*
X248296Y145248D01*
X248731Y145075D01*
X249162Y144892D01*
X249589Y144698D01*
X250011Y144494D01*
X250428Y144280D01*
X250839Y144057D01*
X251245Y143823D01*
X251646Y143580D01*
X252040Y143327D01*
X252429Y143065D01*
X252810Y142794D01*
X253186Y142513D01*
X253554Y142224D01*
X253916Y141926D01*
X254270Y141619D01*
X254616Y141304D01*
X254956Y140981D01*
X255287Y140649D01*
X255610Y140310D01*
X255925Y139963D01*
X256231Y139609D01*
X256047Y139455D01*
X255744Y139805D01*
X255433Y140148D01*
X255114Y140483D01*
X254787Y140810D01*
X254452Y141129D01*
X254110Y141440D01*
X253760Y141743D01*
X253403Y142037D01*
X253039Y142323D01*
X252669Y142600D01*
X252291Y142868D01*
X251908Y143127D01*
X251518Y143377D01*
X251123Y143617D01*
X250722Y143847D01*
X250315Y144068D01*
X249904Y144279D01*
X249487Y144481D01*
X249066Y144672D01*
X248640Y144853D01*
X248210Y145024D01*
X247776Y145184D01*
X247338Y145334D01*
X246897Y145474D01*
X246453Y145602D01*
X246006Y145721D01*
X245556Y145828D01*
X245103Y145925D01*
X244649Y146010D01*
X244192Y146085D01*
X243734Y146149D01*
X243274Y146202D01*
X242813Y146244D01*
X242352Y146274D01*
X241889Y146294D01*
X241427Y146303D01*
X241174Y148462D02*
X241174Y146176D01*
X241173Y146177D02*
X240708Y146168D01*
X240243Y146148D01*
X239779Y146117D01*
X239316Y146074D01*
X238854Y146020D01*
X238393Y145955D01*
X237934Y145879D01*
X237477Y145792D01*
X237022Y145694D01*
X236570Y145584D01*
X236120Y145464D01*
X235674Y145333D01*
X235231Y145191D01*
X234791Y145038D01*
X234356Y144875D01*
X233924Y144701D01*
X233497Y144517D01*
X233074Y144323D01*
X232656Y144118D01*
X232243Y143903D01*
X231836Y143678D01*
X231434Y143444D01*
X231038Y143200D01*
X230648Y142946D01*
X230264Y142683D01*
X229887Y142410D01*
X229517Y142129D01*
X229153Y141839D01*
X228797Y141540D01*
X228448Y141232D01*
X228106Y140916D01*
X227772Y140592D01*
X227447Y140259D01*
X227129Y139919D01*
X226820Y139572D01*
X226519Y139217D01*
X226227Y138855D01*
X225944Y138485D01*
X225670Y138109D01*
X225405Y137727D01*
X225149Y137338D01*
X224903Y136943D01*
X224667Y136542D01*
X224440Y136136D01*
X222423Y137211D01*
X222423Y137212D01*
X222677Y137667D01*
X222941Y138117D01*
X223217Y138559D01*
X223503Y138995D01*
X223800Y139424D01*
X224106Y139846D01*
X224424Y140260D01*
X224751Y140666D01*
X225088Y141064D01*
X225434Y141453D01*
X225790Y141835D01*
X226155Y142207D01*
X226529Y142570D01*
X226911Y142925D01*
X227302Y143270D01*
X227702Y143605D01*
X228109Y143930D01*
X228524Y144246D01*
X228947Y144551D01*
X229377Y144846D01*
X229814Y145130D01*
X230258Y145404D01*
X230708Y145667D01*
X231165Y145919D01*
X231627Y146159D01*
X232096Y146389D01*
X232569Y146607D01*
X233048Y146813D01*
X233532Y147008D01*
X234020Y147190D01*
X234513Y147361D01*
X235010Y147520D01*
X235510Y147667D01*
X236014Y147802D01*
X236521Y147924D01*
X237030Y148034D01*
X237543Y148131D01*
X238057Y148216D01*
X238574Y148289D01*
X239091Y148349D01*
X239611Y148396D01*
X240131Y148431D01*
X240652Y148453D01*
X241173Y148463D01*
X241173Y148223D01*
X240658Y148213D01*
X240143Y148191D01*
X239628Y148157D01*
X239115Y148110D01*
X238603Y148051D01*
X238092Y147979D01*
X237584Y147895D01*
X237077Y147798D01*
X236573Y147690D01*
X236072Y147569D01*
X235574Y147436D01*
X235079Y147291D01*
X234588Y147133D01*
X234101Y146964D01*
X233619Y146784D01*
X233140Y146591D01*
X232667Y146387D01*
X232198Y146172D01*
X231735Y145945D01*
X231278Y145707D01*
X230827Y145458D01*
X230381Y145198D01*
X229943Y144928D01*
X229510Y144647D01*
X229085Y144355D01*
X228667Y144053D01*
X228257Y143741D01*
X227854Y143419D01*
X227459Y143088D01*
X227073Y142747D01*
X226694Y142397D01*
X226325Y142037D01*
X225964Y141669D01*
X225612Y141292D01*
X225269Y140907D01*
X224936Y140513D01*
X224613Y140112D01*
X224299Y139703D01*
X223996Y139286D01*
X223703Y138862D01*
X223420Y138431D01*
X223147Y137993D01*
X222886Y137549D01*
X222635Y137099D01*
X222846Y136986D01*
X223094Y137431D01*
X223353Y137870D01*
X223622Y138303D01*
X223902Y138729D01*
X224192Y139148D01*
X224492Y139560D01*
X224802Y139964D01*
X225122Y140361D01*
X225451Y140750D01*
X225790Y141131D01*
X226138Y141504D01*
X226494Y141868D01*
X226860Y142223D01*
X227234Y142569D01*
X227616Y142906D01*
X228006Y143234D01*
X228405Y143552D01*
X228810Y143860D01*
X229224Y144159D01*
X229644Y144447D01*
X230071Y144725D01*
X230505Y144993D01*
X230945Y145249D01*
X231391Y145496D01*
X231843Y145731D01*
X232301Y145955D01*
X232764Y146168D01*
X233232Y146370D01*
X233705Y146560D01*
X234182Y146739D01*
X234664Y146906D01*
X235149Y147061D01*
X235638Y147204D01*
X236131Y147336D01*
X236626Y147456D01*
X237124Y147563D01*
X237625Y147658D01*
X238128Y147742D01*
X238632Y147813D01*
X239139Y147871D01*
X239646Y147918D01*
X240155Y147952D01*
X240664Y147973D01*
X241173Y147983D01*
X241173Y147743D01*
X240670Y147733D01*
X240166Y147712D01*
X239664Y147678D01*
X239162Y147632D01*
X238662Y147574D01*
X238163Y147504D01*
X237666Y147422D01*
X237171Y147328D01*
X236679Y147221D01*
X236189Y147103D01*
X235702Y146973D01*
X235219Y146831D01*
X234739Y146678D01*
X234263Y146513D01*
X233791Y146336D01*
X233324Y146148D01*
X232862Y145949D01*
X232404Y145738D01*
X231951Y145516D01*
X231505Y145284D01*
X231063Y145041D01*
X230628Y144787D01*
X230200Y144522D01*
X229777Y144248D01*
X229362Y143963D01*
X228954Y143668D01*
X228552Y143363D01*
X228159Y143049D01*
X227773Y142725D01*
X227395Y142392D01*
X227025Y142049D01*
X226664Y141698D01*
X226312Y141338D01*
X225968Y140970D01*
X225633Y140594D01*
X225308Y140209D01*
X224992Y139817D01*
X224685Y139417D01*
X224389Y139010D01*
X224102Y138596D01*
X223825Y138175D01*
X223559Y137747D01*
X223303Y137313D01*
X223058Y136873D01*
X223270Y136760D01*
X223512Y137195D01*
X223765Y137624D01*
X224028Y138046D01*
X224302Y138463D01*
X224585Y138872D01*
X224878Y139274D01*
X225181Y139669D01*
X225493Y140057D01*
X225815Y140437D01*
X226146Y140809D01*
X226486Y141173D01*
X226834Y141529D01*
X227191Y141876D01*
X227556Y142214D01*
X227930Y142543D01*
X228311Y142863D01*
X228700Y143174D01*
X229097Y143475D01*
X229500Y143766D01*
X229911Y144048D01*
X230328Y144320D01*
X230752Y144581D01*
X231182Y144832D01*
X231618Y145072D01*
X232059Y145302D01*
X232507Y145521D01*
X232959Y145729D01*
X233416Y145926D01*
X233878Y146112D01*
X234344Y146287D01*
X234814Y146450D01*
X235289Y146602D01*
X235766Y146742D01*
X236247Y146870D01*
X236731Y146987D01*
X237218Y147092D01*
X237707Y147186D01*
X238198Y147267D01*
X238691Y147336D01*
X239186Y147394D01*
X239681Y147439D01*
X240178Y147472D01*
X240676Y147493D01*
X241173Y147503D01*
X241173Y147263D01*
X240682Y147254D01*
X240190Y147233D01*
X239699Y147200D01*
X239209Y147155D01*
X238721Y147098D01*
X238233Y147029D01*
X237748Y146949D01*
X237265Y146857D01*
X236784Y146753D01*
X236306Y146638D01*
X235830Y146511D01*
X235358Y146372D01*
X234890Y146222D01*
X234425Y146061D01*
X233964Y145888D01*
X233508Y145704D01*
X233056Y145510D01*
X232609Y145304D01*
X232167Y145088D01*
X231731Y144861D01*
X231300Y144623D01*
X230875Y144375D01*
X230457Y144117D01*
X230044Y143849D01*
X229639Y143570D01*
X229240Y143282D01*
X228848Y142985D01*
X228464Y142678D01*
X228087Y142361D01*
X227718Y142036D01*
X227357Y141702D01*
X227004Y141359D01*
X226659Y141008D01*
X226324Y140648D01*
X225997Y140280D01*
X225679Y139905D01*
X225370Y139522D01*
X225071Y139132D01*
X224781Y138734D01*
X224501Y138329D01*
X224231Y137918D01*
X223971Y137501D01*
X223721Y137077D01*
X223482Y136647D01*
X223694Y136534D01*
X223930Y136959D01*
X224177Y137377D01*
X224434Y137790D01*
X224701Y138196D01*
X224978Y138596D01*
X225264Y138989D01*
X225560Y139374D01*
X225865Y139753D01*
X226179Y140124D01*
X226502Y140487D01*
X226833Y140842D01*
X227174Y141189D01*
X227522Y141528D01*
X227879Y141858D01*
X228244Y142180D01*
X228616Y142492D01*
X228996Y142796D01*
X229383Y143090D01*
X229777Y143374D01*
X230178Y143649D01*
X230585Y143914D01*
X230999Y144169D01*
X231419Y144414D01*
X231844Y144649D01*
X232275Y144873D01*
X232712Y145087D01*
X233154Y145290D01*
X233600Y145483D01*
X234051Y145664D01*
X234506Y145835D01*
X234965Y145994D01*
X235428Y146142D01*
X235894Y146279D01*
X236364Y146405D01*
X236837Y146519D01*
X237312Y146622D01*
X237789Y146713D01*
X238269Y146792D01*
X238750Y146860D01*
X239233Y146916D01*
X239717Y146960D01*
X240202Y146993D01*
X240687Y147014D01*
X241173Y147023D01*
X241173Y146783D01*
X240693Y146774D01*
X240214Y146753D01*
X239735Y146721D01*
X239256Y146677D01*
X238779Y146622D01*
X238304Y146555D01*
X237830Y146476D01*
X237359Y146386D01*
X236889Y146285D01*
X236422Y146172D01*
X235959Y146048D01*
X235498Y145913D01*
X235041Y145766D01*
X234587Y145609D01*
X234137Y145440D01*
X233692Y145261D01*
X233251Y145071D01*
X232815Y144870D01*
X232383Y144659D01*
X231957Y144437D01*
X231537Y144206D01*
X231122Y143964D01*
X230714Y143711D01*
X230311Y143450D01*
X229915Y143178D01*
X229526Y142897D01*
X229143Y142606D01*
X228768Y142307D01*
X228400Y141998D01*
X228040Y141681D01*
X227688Y141354D01*
X227344Y141020D01*
X227007Y140677D01*
X226680Y140326D01*
X226361Y139967D01*
X226050Y139601D01*
X225749Y139227D01*
X225457Y138846D01*
X225174Y138458D01*
X224901Y138063D01*
X224637Y137662D01*
X224383Y137254D01*
X224139Y136841D01*
X223905Y136421D01*
X224117Y136308D01*
X224348Y136722D01*
X224589Y137131D01*
X224840Y137534D01*
X225100Y137930D01*
X225370Y138320D01*
X225650Y138703D01*
X225938Y139079D01*
X226236Y139449D01*
X226542Y139811D01*
X226858Y140165D01*
X227181Y140512D01*
X227513Y140850D01*
X227854Y141181D01*
X228202Y141503D01*
X228557Y141817D01*
X228921Y142121D01*
X229291Y142417D01*
X229669Y142704D01*
X230053Y142982D01*
X230445Y143250D01*
X230842Y143509D01*
X231246Y143758D01*
X231655Y143997D01*
X232071Y144226D01*
X232491Y144445D01*
X232917Y144653D01*
X233348Y144852D01*
X233784Y145039D01*
X234224Y145217D01*
X234668Y145383D01*
X235116Y145538D01*
X235568Y145683D01*
X236023Y145817D01*
X236481Y145939D01*
X236942Y146051D01*
X237405Y146151D01*
X237871Y146240D01*
X238339Y146317D01*
X238809Y146383D01*
X239280Y146438D01*
X239752Y146482D01*
X240225Y146513D01*
X240699Y146534D01*
X241173Y146543D01*
X241173Y146303D01*
X240705Y146294D01*
X240237Y146274D01*
X239770Y146242D01*
X239303Y146199D01*
X238838Y146145D01*
X238374Y146080D01*
X237912Y146003D01*
X237452Y145915D01*
X236994Y145816D01*
X236539Y145706D01*
X236087Y145585D01*
X235637Y145453D01*
X235191Y145311D01*
X234749Y145157D01*
X234310Y144993D01*
X233876Y144818D01*
X233446Y144632D01*
X233020Y144437D01*
X232599Y144230D01*
X232184Y144014D01*
X231774Y143788D01*
X231369Y143552D01*
X230971Y143306D01*
X230578Y143051D01*
X230192Y142786D01*
X229812Y142512D01*
X229439Y142228D01*
X229073Y141936D01*
X228714Y141635D01*
X228363Y141325D01*
X228019Y141007D01*
X227683Y140681D01*
X227355Y140346D01*
X227036Y140004D01*
X226724Y139654D01*
X226421Y139297D01*
X226128Y138932D01*
X225842Y138560D01*
X225567Y138182D01*
X225300Y137797D01*
X225043Y137405D01*
X224795Y137008D01*
X224557Y136604D01*
X224329Y136195D01*
X241426Y105538D02*
X241426Y107824D01*
X241427Y107823D02*
X241895Y107832D01*
X242363Y107853D01*
X242831Y107884D01*
X243298Y107927D01*
X243763Y107982D01*
X244227Y108048D01*
X244689Y108125D01*
X245149Y108213D01*
X245607Y108313D01*
X246063Y108424D01*
X246515Y108546D01*
X246964Y108679D01*
X247410Y108823D01*
X247853Y108977D01*
X248291Y109143D01*
X248725Y109319D01*
X249155Y109506D01*
X249580Y109703D01*
X250000Y109910D01*
X250415Y110128D01*
X250825Y110356D01*
X251229Y110593D01*
X251627Y110841D01*
X252018Y111098D01*
X252404Y111365D01*
X252783Y111641D01*
X253154Y111926D01*
X253519Y112220D01*
X253877Y112523D01*
X254227Y112835D01*
X254569Y113155D01*
X254903Y113483D01*
X255229Y113819D01*
X255547Y114164D01*
X255857Y114516D01*
X257601Y113039D01*
X257602Y113039D01*
X257255Y112644D01*
X256899Y112258D01*
X256534Y111881D01*
X256159Y111512D01*
X255776Y111153D01*
X255383Y110804D01*
X254983Y110464D01*
X254574Y110134D01*
X254157Y109814D01*
X253733Y109505D01*
X253301Y109206D01*
X252862Y108917D01*
X252416Y108640D01*
X251963Y108373D01*
X251504Y108118D01*
X251039Y107874D01*
X250568Y107641D01*
X250091Y107420D01*
X249609Y107211D01*
X249122Y107013D01*
X248631Y106828D01*
X248135Y106654D01*
X247635Y106493D01*
X247131Y106344D01*
X246624Y106208D01*
X246113Y106084D01*
X245600Y105972D01*
X245084Y105873D01*
X244566Y105787D01*
X244046Y105713D01*
X243524Y105653D01*
X243001Y105605D01*
X242477Y105569D01*
X241952Y105547D01*
X241427Y105537D01*
X241427Y105777D01*
X241946Y105787D01*
X242465Y105809D01*
X242983Y105844D01*
X243500Y105891D01*
X244016Y105952D01*
X244530Y106024D01*
X245043Y106110D01*
X245553Y106207D01*
X246060Y106318D01*
X246565Y106440D01*
X247067Y106575D01*
X247565Y106723D01*
X248059Y106882D01*
X248549Y107053D01*
X249035Y107237D01*
X249516Y107432D01*
X249993Y107639D01*
X250464Y107857D01*
X250930Y108087D01*
X251390Y108329D01*
X251843Y108581D01*
X252291Y108845D01*
X252732Y109119D01*
X253166Y109404D01*
X253593Y109700D01*
X254013Y110006D01*
X254425Y110322D01*
X254829Y110648D01*
X255225Y110984D01*
X255613Y111330D01*
X255992Y111685D01*
X256362Y112049D01*
X256724Y112422D01*
X257076Y112804D01*
X257419Y113194D01*
X257235Y113349D01*
X256897Y112963D01*
X256549Y112586D01*
X256191Y112217D01*
X255825Y111857D01*
X255450Y111506D01*
X255067Y111165D01*
X254675Y110833D01*
X254276Y110510D01*
X253869Y110198D01*
X253454Y109895D01*
X253032Y109603D01*
X252602Y109321D01*
X252166Y109050D01*
X251724Y108789D01*
X251275Y108540D01*
X250821Y108301D01*
X250360Y108074D01*
X249895Y107858D01*
X249424Y107653D01*
X248948Y107460D01*
X248467Y107279D01*
X247983Y107110D01*
X247494Y106952D01*
X247002Y106807D01*
X246506Y106673D01*
X246007Y106552D01*
X245505Y106443D01*
X245001Y106346D01*
X244495Y106262D01*
X243986Y106190D01*
X243476Y106130D01*
X242965Y106083D01*
X242453Y106049D01*
X241940Y106027D01*
X241427Y106017D01*
X241427Y106257D01*
X241934Y106267D01*
X242441Y106288D01*
X242947Y106323D01*
X243453Y106369D01*
X243957Y106428D01*
X244459Y106499D01*
X244960Y106582D01*
X245458Y106678D01*
X245954Y106786D01*
X246447Y106906D01*
X246937Y107038D01*
X247424Y107182D01*
X247907Y107337D01*
X248386Y107505D01*
X248861Y107684D01*
X249331Y107875D01*
X249796Y108077D01*
X250257Y108290D01*
X250712Y108515D01*
X251161Y108751D01*
X251605Y108998D01*
X252042Y109255D01*
X252473Y109523D01*
X252897Y109802D01*
X253314Y110090D01*
X253724Y110389D01*
X254127Y110698D01*
X254522Y111017D01*
X254909Y111345D01*
X255288Y111683D01*
X255658Y112030D01*
X256020Y112385D01*
X256373Y112750D01*
X256717Y113123D01*
X257052Y113504D01*
X256869Y113659D01*
X256538Y113282D01*
X256198Y112914D01*
X255849Y112554D01*
X255491Y112202D01*
X255125Y111859D01*
X254751Y111526D01*
X254368Y111201D01*
X253978Y110886D01*
X253580Y110581D01*
X253175Y110286D01*
X252762Y110000D01*
X252343Y109725D01*
X251917Y109460D01*
X251485Y109206D01*
X251047Y108962D01*
X250603Y108729D01*
X250153Y108507D01*
X249698Y108296D01*
X249238Y108096D01*
X248773Y107908D01*
X248304Y107730D01*
X247831Y107565D01*
X247353Y107411D01*
X246872Y107269D01*
X246388Y107138D01*
X245901Y107020D01*
X245411Y106913D01*
X244918Y106819D01*
X244424Y106736D01*
X243927Y106666D01*
X243429Y106608D01*
X242929Y106562D01*
X242429Y106528D01*
X241928Y106507D01*
X241427Y106497D01*
X241427Y106737D01*
X241922Y106747D01*
X242417Y106768D01*
X242912Y106801D01*
X243405Y106847D01*
X243897Y106904D01*
X244388Y106974D01*
X244877Y107055D01*
X245363Y107149D01*
X245848Y107254D01*
X246329Y107371D01*
X246808Y107500D01*
X247283Y107640D01*
X247755Y107793D01*
X248222Y107956D01*
X248686Y108131D01*
X249145Y108317D01*
X249600Y108515D01*
X250049Y108723D01*
X250494Y108943D01*
X250932Y109173D01*
X251366Y109414D01*
X251793Y109665D01*
X252213Y109927D01*
X252628Y110199D01*
X253035Y110481D01*
X253436Y110773D01*
X253829Y111075D01*
X254214Y111386D01*
X254592Y111706D01*
X254962Y112036D01*
X255324Y112374D01*
X255678Y112722D01*
X256023Y113078D01*
X256359Y113442D01*
X256686Y113814D01*
X256503Y113969D01*
X256179Y113601D01*
X255847Y113242D01*
X255507Y112890D01*
X255157Y112547D01*
X254800Y112212D01*
X254434Y111887D01*
X254061Y111570D01*
X253680Y111263D01*
X253291Y110965D01*
X252896Y110676D01*
X252493Y110398D01*
X252084Y110129D01*
X251668Y109870D01*
X251246Y109622D01*
X250818Y109384D01*
X250385Y109157D01*
X249946Y108940D01*
X249501Y108734D01*
X249052Y108539D01*
X248599Y108355D01*
X248141Y108182D01*
X247679Y108020D01*
X247213Y107870D01*
X246743Y107731D01*
X246270Y107604D01*
X245795Y107488D01*
X245316Y107384D01*
X244835Y107292D01*
X244352Y107211D01*
X243868Y107142D01*
X243381Y107085D01*
X242894Y107041D01*
X242405Y107008D01*
X241916Y106986D01*
X241427Y106977D01*
X241427Y107217D01*
X241910Y107226D01*
X242393Y107247D01*
X242876Y107280D01*
X243358Y107324D01*
X243838Y107380D01*
X244317Y107448D01*
X244794Y107528D01*
X245269Y107619D01*
X245741Y107722D01*
X246211Y107836D01*
X246678Y107962D01*
X247142Y108099D01*
X247602Y108248D01*
X248059Y108407D01*
X248511Y108578D01*
X248960Y108760D01*
X249403Y108953D01*
X249842Y109156D01*
X250276Y109370D01*
X250704Y109595D01*
X251127Y109830D01*
X251543Y110075D01*
X251954Y110331D01*
X252358Y110596D01*
X252756Y110872D01*
X253147Y111156D01*
X253531Y111451D01*
X253907Y111754D01*
X254276Y112067D01*
X254637Y112389D01*
X254990Y112719D01*
X255335Y113058D01*
X255672Y113405D01*
X256000Y113761D01*
X256319Y114124D01*
X256136Y114279D01*
X255821Y113920D01*
X255497Y113569D01*
X255164Y113226D01*
X254823Y112892D01*
X254475Y112565D01*
X254118Y112248D01*
X253753Y111939D01*
X253382Y111639D01*
X253003Y111348D01*
X252617Y111067D01*
X252224Y110795D01*
X251824Y110533D01*
X251419Y110281D01*
X251007Y110038D01*
X250590Y109806D01*
X250167Y109584D01*
X249738Y109373D01*
X249305Y109172D01*
X248867Y108981D01*
X248424Y108802D01*
X247977Y108633D01*
X247526Y108475D01*
X247072Y108329D01*
X246614Y108193D01*
X246152Y108069D01*
X245688Y107956D01*
X245221Y107854D01*
X244752Y107764D01*
X244281Y107686D01*
X243808Y107619D01*
X243334Y107563D01*
X242858Y107519D01*
X242381Y107487D01*
X241904Y107466D01*
X241427Y107457D01*
X241427Y107697D01*
X241898Y107706D01*
X242370Y107727D01*
X242840Y107759D01*
X243310Y107802D01*
X243779Y107857D01*
X244246Y107923D01*
X244711Y108001D01*
X245174Y108090D01*
X245635Y108190D01*
X246093Y108302D01*
X246549Y108424D01*
X247001Y108558D01*
X247450Y108703D01*
X247896Y108859D01*
X248337Y109025D01*
X248774Y109203D01*
X249207Y109391D01*
X249635Y109589D01*
X250058Y109798D01*
X250475Y110017D01*
X250888Y110246D01*
X251294Y110486D01*
X251695Y110735D01*
X252089Y110994D01*
X252477Y111262D01*
X252858Y111540D01*
X253233Y111827D01*
X253600Y112123D01*
X253960Y112428D01*
X254312Y112742D01*
X254657Y113064D01*
X254993Y113395D01*
X255321Y113733D01*
X255641Y114080D01*
X255953Y114434D01*
X222728Y116241D02*
X224713Y117376D01*
X224712Y117375D02*
X224950Y116977D01*
X225196Y116585D01*
X225453Y116200D01*
X225718Y115820D01*
X225992Y115447D01*
X226276Y115081D01*
X226568Y114722D01*
X226869Y114370D01*
X227178Y114025D01*
X227495Y113688D01*
X227821Y113358D01*
X228154Y113037D01*
X228495Y112723D01*
X228844Y112418D01*
X229199Y112122D01*
X229562Y111834D01*
X229932Y111555D01*
X230308Y111285D01*
X230691Y111024D01*
X231080Y110773D01*
X231474Y110531D01*
X231875Y110298D01*
X232281Y110076D01*
X232692Y109863D01*
X233109Y109660D01*
X233530Y109467D01*
X233955Y109285D01*
X234385Y109113D01*
X234819Y108951D01*
X235257Y108800D01*
X235698Y108659D01*
X236143Y108529D01*
X236590Y108410D01*
X237040Y108302D01*
X237493Y108204D01*
X237948Y108118D01*
X238405Y108043D01*
X238864Y107978D01*
X239324Y107925D01*
X239785Y107883D01*
X240247Y107852D01*
X240710Y107832D01*
X241173Y107823D01*
X241173Y105538D01*
X241173Y105537D01*
X240654Y105547D01*
X240135Y105569D01*
X239617Y105603D01*
X239100Y105650D01*
X238585Y105709D01*
X238071Y105781D01*
X237559Y105865D01*
X237049Y105962D01*
X236541Y106071D01*
X236037Y106192D01*
X235535Y106325D01*
X235037Y106471D01*
X234542Y106628D01*
X234052Y106798D01*
X233565Y106979D01*
X233083Y107172D01*
X232606Y107376D01*
X232135Y107592D01*
X231668Y107819D01*
X231207Y108058D01*
X230752Y108307D01*
X230303Y108568D01*
X229861Y108839D01*
X229425Y109121D01*
X228996Y109413D01*
X228574Y109716D01*
X228160Y110029D01*
X227754Y110351D01*
X227355Y110684D01*
X226964Y111026D01*
X226582Y111377D01*
X226209Y111737D01*
X225844Y112107D01*
X225489Y112485D01*
X225142Y112871D01*
X224805Y113266D01*
X224478Y113669D01*
X224161Y114079D01*
X223853Y114498D01*
X223556Y114923D01*
X223269Y115356D01*
X222993Y115795D01*
X222728Y116241D01*
X222936Y116360D01*
X223198Y115919D01*
X223472Y115485D01*
X223755Y115057D01*
X224049Y114636D01*
X224353Y114223D01*
X224667Y113817D01*
X224991Y113419D01*
X225324Y113028D01*
X225666Y112646D01*
X226018Y112273D01*
X226378Y111907D01*
X226747Y111551D01*
X227125Y111204D01*
X227511Y110866D01*
X227905Y110537D01*
X228307Y110218D01*
X228717Y109909D01*
X229134Y109610D01*
X229558Y109321D01*
X229989Y109042D01*
X230426Y108774D01*
X230870Y108516D01*
X231320Y108270D01*
X231775Y108034D01*
X232237Y107809D01*
X232703Y107596D01*
X233175Y107393D01*
X233651Y107203D01*
X234132Y107024D01*
X234617Y106856D01*
X235106Y106701D01*
X235599Y106557D01*
X236095Y106425D01*
X236594Y106305D01*
X237095Y106197D01*
X237600Y106102D01*
X238106Y106019D01*
X238614Y105948D01*
X239124Y105889D01*
X239635Y105842D01*
X240147Y105808D01*
X240660Y105787D01*
X241173Y105777D01*
X241173Y106017D01*
X240665Y106027D01*
X240159Y106048D01*
X239652Y106082D01*
X239147Y106128D01*
X238643Y106186D01*
X238141Y106256D01*
X237640Y106338D01*
X237142Y106433D01*
X236646Y106539D01*
X236153Y106658D01*
X235663Y106788D01*
X235176Y106930D01*
X234692Y107084D01*
X234213Y107250D01*
X233737Y107427D01*
X233267Y107615D01*
X232800Y107815D01*
X232339Y108026D01*
X231883Y108248D01*
X231432Y108481D01*
X230988Y108725D01*
X230549Y108980D01*
X230116Y109245D01*
X229691Y109521D01*
X229271Y109806D01*
X228859Y110102D01*
X228454Y110408D01*
X228057Y110723D01*
X227668Y111048D01*
X227286Y111382D01*
X226912Y111725D01*
X226547Y112078D01*
X226191Y112439D01*
X225843Y112808D01*
X225505Y113186D01*
X225176Y113572D01*
X224856Y113965D01*
X224545Y114367D01*
X224245Y114775D01*
X223954Y115191D01*
X223674Y115614D01*
X223404Y116043D01*
X223144Y116479D01*
X223353Y116598D01*
X223609Y116167D01*
X223876Y115743D01*
X224153Y115325D01*
X224441Y114914D01*
X224738Y114510D01*
X225044Y114114D01*
X225361Y113724D01*
X225686Y113343D01*
X226021Y112970D01*
X226364Y112605D01*
X226717Y112248D01*
X227077Y111900D01*
X227447Y111560D01*
X227824Y111230D01*
X228209Y110909D01*
X228602Y110597D01*
X229002Y110295D01*
X229409Y110003D01*
X229823Y109720D01*
X230244Y109448D01*
X230672Y109186D01*
X231106Y108934D01*
X231545Y108693D01*
X231991Y108463D01*
X232441Y108243D01*
X232897Y108035D01*
X233358Y107837D01*
X233824Y107651D01*
X234293Y107476D01*
X234767Y107312D01*
X235245Y107160D01*
X235726Y107020D01*
X236211Y106891D01*
X236699Y106774D01*
X237189Y106668D01*
X237681Y106575D01*
X238176Y106493D01*
X238673Y106424D01*
X239171Y106366D01*
X239670Y106321D01*
X240170Y106288D01*
X240671Y106267D01*
X241173Y106257D01*
X241173Y106497D01*
X240677Y106506D01*
X240182Y106527D01*
X239688Y106560D01*
X239194Y106605D01*
X238702Y106662D01*
X238211Y106731D01*
X237722Y106811D01*
X237235Y106904D01*
X236751Y107008D01*
X236269Y107124D01*
X235790Y107251D01*
X235315Y107390D01*
X234842Y107540D01*
X234374Y107702D01*
X233910Y107875D01*
X233450Y108059D01*
X232994Y108254D01*
X232544Y108460D01*
X232098Y108677D01*
X231658Y108905D01*
X231224Y109143D01*
X230795Y109392D01*
X230372Y109651D01*
X229956Y109920D01*
X229547Y110199D01*
X229144Y110488D01*
X228749Y110787D01*
X228361Y111095D01*
X227980Y111412D01*
X227607Y111739D01*
X227243Y112074D01*
X226886Y112418D01*
X226538Y112771D01*
X226198Y113131D01*
X225867Y113500D01*
X225546Y113877D01*
X225233Y114262D01*
X224930Y114654D01*
X224636Y115053D01*
X224353Y115459D01*
X224079Y115872D01*
X223815Y116291D01*
X223561Y116717D01*
X223769Y116836D01*
X224020Y116416D01*
X224281Y116001D01*
X224552Y115593D01*
X224832Y115192D01*
X225122Y114797D01*
X225422Y114410D01*
X225731Y114030D01*
X226049Y113658D01*
X226375Y113293D01*
X226711Y112937D01*
X227055Y112588D01*
X227408Y112248D01*
X227768Y111917D01*
X228136Y111594D01*
X228513Y111281D01*
X228896Y110976D01*
X229287Y110681D01*
X229685Y110396D01*
X230089Y110120D01*
X230500Y109854D01*
X230918Y109598D01*
X231341Y109352D01*
X231771Y109117D01*
X232206Y108892D01*
X232646Y108678D01*
X233091Y108474D01*
X233541Y108281D01*
X233996Y108099D01*
X234455Y107928D01*
X234917Y107768D01*
X235384Y107620D01*
X235854Y107482D01*
X236327Y107356D01*
X236803Y107242D01*
X237282Y107139D01*
X237763Y107048D01*
X238246Y106968D01*
X238731Y106900D01*
X239218Y106844D01*
X239705Y106800D01*
X240194Y106767D01*
X240683Y106746D01*
X241173Y106737D01*
X241173Y106977D01*
X240689Y106986D01*
X240206Y107007D01*
X239723Y107039D01*
X239241Y107083D01*
X238760Y107139D01*
X238281Y107206D01*
X237804Y107284D01*
X237329Y107375D01*
X236856Y107476D01*
X236385Y107589D01*
X235918Y107714D01*
X235453Y107849D01*
X234992Y107996D01*
X234535Y108154D01*
X234082Y108323D01*
X233633Y108503D01*
X233188Y108693D01*
X232748Y108895D01*
X232313Y109107D01*
X231884Y109329D01*
X231459Y109561D01*
X231041Y109804D01*
X230628Y110057D01*
X230222Y110320D01*
X229822Y110592D01*
X229429Y110874D01*
X229043Y111166D01*
X228664Y111467D01*
X228293Y111776D01*
X227929Y112095D01*
X227573Y112422D01*
X227224Y112758D01*
X226884Y113103D01*
X226553Y113455D01*
X226230Y113815D01*
X225916Y114183D01*
X225611Y114558D01*
X225315Y114941D01*
X225028Y115331D01*
X224751Y115727D01*
X224483Y116130D01*
X224226Y116540D01*
X223978Y116955D01*
X224186Y117074D01*
X224431Y116664D01*
X224686Y116259D01*
X224950Y115861D01*
X225224Y115470D01*
X225507Y115085D01*
X225799Y114707D01*
X226101Y114336D01*
X226411Y113972D01*
X226730Y113617D01*
X227058Y113269D01*
X227394Y112929D01*
X227738Y112597D01*
X228089Y112273D01*
X228449Y111959D01*
X228816Y111653D01*
X229191Y111355D01*
X229572Y111068D01*
X229960Y110789D01*
X230355Y110520D01*
X230756Y110260D01*
X231164Y110010D01*
X231577Y109771D01*
X231996Y109541D01*
X232421Y109321D01*
X232850Y109112D01*
X233285Y108913D01*
X233724Y108725D01*
X234168Y108547D01*
X234616Y108380D01*
X235067Y108224D01*
X235523Y108079D01*
X235982Y107945D01*
X236443Y107822D01*
X236908Y107710D01*
X237375Y107610D01*
X237845Y107521D01*
X238316Y107443D01*
X238790Y107377D01*
X239264Y107322D01*
X239740Y107278D01*
X240217Y107247D01*
X240695Y107226D01*
X241173Y107217D01*
X241173Y107457D01*
X240701Y107466D01*
X240229Y107486D01*
X239758Y107518D01*
X239288Y107561D01*
X238819Y107615D01*
X238351Y107681D01*
X237886Y107757D01*
X237422Y107845D01*
X236960Y107945D01*
X236502Y108055D01*
X236045Y108176D01*
X235592Y108309D01*
X235142Y108452D01*
X234696Y108606D01*
X234254Y108771D01*
X233816Y108946D01*
X233382Y109132D01*
X232953Y109329D01*
X232528Y109536D01*
X232109Y109753D01*
X231695Y109980D01*
X231287Y110216D01*
X230884Y110463D01*
X230488Y110720D01*
X230098Y110985D01*
X229714Y111261D01*
X229338Y111545D01*
X228968Y111838D01*
X228605Y112141D01*
X228250Y112452D01*
X227903Y112771D01*
X227563Y113099D01*
X227231Y113435D01*
X226908Y113778D01*
X226592Y114130D01*
X226286Y114489D01*
X225988Y114855D01*
X225699Y115228D01*
X225419Y115608D01*
X225149Y115995D01*
X224888Y116389D01*
X224636Y116788D01*
X224395Y117193D01*
X224603Y117313D01*
X224842Y116912D01*
X225090Y116518D01*
X225348Y116129D01*
X225615Y115747D01*
X225891Y115372D01*
X226177Y115003D01*
X226471Y114641D01*
X226774Y114287D01*
X227085Y113940D01*
X227404Y113601D01*
X227732Y113269D01*
X228068Y112945D01*
X228411Y112630D01*
X228762Y112323D01*
X229120Y112024D01*
X229485Y111735D01*
X229857Y111454D01*
X230236Y111182D01*
X230621Y110919D01*
X231012Y110666D01*
X231410Y110423D01*
X231813Y110189D01*
X232222Y109964D01*
X232636Y109750D01*
X233055Y109546D01*
X233479Y109352D01*
X233907Y109168D01*
X234340Y108995D01*
X234777Y108832D01*
X235217Y108680D01*
X235662Y108539D01*
X236109Y108408D01*
X236560Y108288D01*
X237013Y108179D01*
X237469Y108081D01*
X237927Y107994D01*
X238387Y107918D01*
X238848Y107853D01*
X239311Y107800D01*
X239776Y107757D01*
X240241Y107726D01*
X240706Y107706D01*
X241173Y107697D01*
D17*
X257048Y134874D02*
X257048Y139954D01*
X257048Y118618D02*
X257048Y114046D01*
D10*
X266319Y110125D02*
X271145Y110125D01*
X266319Y110125D02*
X266319Y111465D01*
X266321Y111535D01*
X266326Y111605D01*
X266336Y111675D01*
X266348Y111744D01*
X266365Y111812D01*
X266385Y111879D01*
X266408Y111946D01*
X266435Y112010D01*
X266465Y112074D01*
X266499Y112136D01*
X266535Y112195D01*
X266575Y112253D01*
X266618Y112309D01*
X266663Y112362D01*
X266712Y112413D01*
X266763Y112462D01*
X266816Y112507D01*
X266872Y112550D01*
X266930Y112590D01*
X266990Y112626D01*
X267051Y112660D01*
X267115Y112690D01*
X267179Y112717D01*
X267246Y112740D01*
X267313Y112760D01*
X267381Y112777D01*
X267450Y112789D01*
X267520Y112799D01*
X267590Y112804D01*
X267660Y112806D01*
X269804Y112806D01*
X269874Y112804D01*
X269944Y112799D01*
X270014Y112789D01*
X270083Y112777D01*
X270151Y112760D01*
X270218Y112740D01*
X270285Y112717D01*
X270349Y112690D01*
X270413Y112660D01*
X270475Y112626D01*
X270534Y112590D01*
X270592Y112550D01*
X270648Y112507D01*
X270701Y112462D01*
X270752Y112413D01*
X270801Y112362D01*
X270846Y112309D01*
X270889Y112253D01*
X270929Y112195D01*
X270965Y112135D01*
X270999Y112074D01*
X271029Y112010D01*
X271056Y111946D01*
X271079Y111879D01*
X271099Y111812D01*
X271116Y111744D01*
X271128Y111675D01*
X271138Y111605D01*
X271143Y111535D01*
X271145Y111465D01*
X271145Y110125D01*
X266319Y117269D02*
X266321Y117337D01*
X266327Y117404D01*
X266336Y117471D01*
X266349Y117538D01*
X266366Y117603D01*
X266387Y117668D01*
X266411Y117731D01*
X266439Y117793D01*
X266470Y117853D01*
X266504Y117911D01*
X266542Y117967D01*
X266582Y118022D01*
X266626Y118073D01*
X266673Y118122D01*
X266722Y118169D01*
X266773Y118213D01*
X266828Y118253D01*
X266884Y118291D01*
X266942Y118325D01*
X267002Y118356D01*
X267064Y118384D01*
X267127Y118408D01*
X267192Y118429D01*
X267257Y118446D01*
X267324Y118459D01*
X267391Y118468D01*
X267458Y118474D01*
X267526Y118476D01*
X266319Y117269D02*
X266321Y117191D01*
X266327Y117113D01*
X266337Y117036D01*
X266350Y116959D01*
X266368Y116883D01*
X266389Y116808D01*
X266414Y116734D01*
X266443Y116662D01*
X266475Y116591D01*
X266511Y116522D01*
X266550Y116454D01*
X266593Y116389D01*
X266639Y116326D01*
X266688Y116265D01*
X266740Y116207D01*
X266795Y116152D01*
X266852Y116099D01*
X266912Y116050D01*
X266975Y116003D01*
X267040Y115960D01*
X267106Y115920D01*
X267175Y115883D01*
X267246Y115850D01*
X267318Y115820D01*
X267392Y115794D01*
X268464Y118073D02*
X268415Y118122D01*
X268363Y118169D01*
X268308Y118212D01*
X268251Y118253D01*
X268192Y118291D01*
X268131Y118325D01*
X268068Y118356D01*
X268004Y118384D01*
X267938Y118408D01*
X267872Y118428D01*
X267804Y118445D01*
X267735Y118458D01*
X267666Y118467D01*
X267596Y118473D01*
X267526Y118475D01*
X268464Y118073D02*
X271145Y115794D01*
X271145Y118475D01*
X276479Y107779D02*
X281305Y107779D01*
X276479Y107779D02*
X276479Y109120D01*
X276481Y109191D01*
X276487Y109263D01*
X276496Y109333D01*
X276509Y109403D01*
X276526Y109473D01*
X276547Y109541D01*
X276571Y109608D01*
X276599Y109674D01*
X276630Y109738D01*
X276665Y109801D01*
X276703Y109861D01*
X276744Y109920D01*
X276788Y109976D01*
X276835Y110030D01*
X276884Y110081D01*
X276937Y110129D01*
X276992Y110175D01*
X277049Y110217D01*
X277109Y110257D01*
X277170Y110293D01*
X277234Y110326D01*
X277299Y110355D01*
X277365Y110381D01*
X277433Y110404D01*
X277502Y110423D01*
X277572Y110438D01*
X277642Y110449D01*
X277713Y110457D01*
X277784Y110461D01*
X277856Y110461D01*
X277927Y110457D01*
X277998Y110449D01*
X278068Y110438D01*
X278138Y110423D01*
X278207Y110404D01*
X278275Y110381D01*
X278341Y110355D01*
X278406Y110326D01*
X278470Y110293D01*
X278531Y110257D01*
X278591Y110217D01*
X278648Y110175D01*
X278703Y110129D01*
X278756Y110081D01*
X278805Y110030D01*
X278852Y109976D01*
X278896Y109920D01*
X278937Y109861D01*
X278975Y109801D01*
X279010Y109738D01*
X279041Y109674D01*
X279069Y109608D01*
X279093Y109541D01*
X279114Y109473D01*
X279131Y109403D01*
X279144Y109333D01*
X279153Y109263D01*
X279159Y109191D01*
X279161Y109120D01*
X279160Y109120D02*
X279160Y107779D01*
X279160Y109388D02*
X281305Y110460D01*
X281305Y113404D02*
X281305Y115549D01*
X281305Y113404D02*
X276479Y113404D01*
X276479Y115549D01*
X278624Y115013D02*
X278624Y113404D01*
X276479Y118140D02*
X281305Y118140D01*
X276479Y118140D02*
X276479Y119480D01*
X276481Y119550D01*
X276486Y119620D01*
X276496Y119690D01*
X276508Y119759D01*
X276525Y119827D01*
X276545Y119894D01*
X276568Y119961D01*
X276595Y120025D01*
X276625Y120089D01*
X276659Y120151D01*
X276695Y120210D01*
X276735Y120268D01*
X276778Y120324D01*
X276823Y120377D01*
X276872Y120428D01*
X276923Y120477D01*
X276976Y120522D01*
X277032Y120565D01*
X277090Y120605D01*
X277150Y120641D01*
X277211Y120675D01*
X277275Y120705D01*
X277339Y120732D01*
X277406Y120755D01*
X277473Y120775D01*
X277541Y120792D01*
X277610Y120804D01*
X277680Y120814D01*
X277750Y120819D01*
X277820Y120821D01*
X279964Y120821D01*
X280034Y120819D01*
X280104Y120814D01*
X280174Y120804D01*
X280243Y120792D01*
X280311Y120775D01*
X280378Y120755D01*
X280445Y120732D01*
X280509Y120705D01*
X280573Y120675D01*
X280635Y120641D01*
X280694Y120605D01*
X280752Y120565D01*
X280808Y120522D01*
X280861Y120477D01*
X280912Y120428D01*
X280961Y120377D01*
X281006Y120324D01*
X281049Y120268D01*
X281089Y120210D01*
X281125Y120150D01*
X281159Y120089D01*
X281189Y120025D01*
X281216Y119961D01*
X281239Y119894D01*
X281259Y119827D01*
X281276Y119759D01*
X281288Y119690D01*
X281298Y119620D01*
X281303Y119550D01*
X281305Y119480D01*
X281305Y118140D01*
D15*
X374650Y12700D02*
X387350Y12700D01*
X374650Y12700D02*
X368300Y19050D01*
X368300Y31750D02*
X374650Y38100D01*
X412750Y12700D02*
X419100Y19050D01*
X412750Y12700D02*
X400050Y12700D01*
X393700Y19050D01*
X393700Y31750D02*
X400050Y38100D01*
X412750Y38100D01*
X419100Y31750D01*
X393700Y19050D02*
X387350Y12700D01*
X393700Y31750D02*
X387350Y38100D01*
X374650Y38100D01*
X450850Y12700D02*
X463550Y12700D01*
X450850Y12700D02*
X444500Y19050D01*
X444500Y31750D02*
X450850Y38100D01*
X444500Y19050D02*
X438150Y12700D01*
X425450Y12700D01*
X419100Y19050D01*
X419100Y31750D02*
X425450Y38100D01*
X438150Y38100D01*
X444500Y31750D01*
X469900Y31750D02*
X469900Y19050D01*
X463550Y12700D01*
X469900Y31750D02*
X463550Y38100D01*
X450850Y38100D01*
X368300Y31750D02*
X368300Y19050D01*
D10*
X362783Y23390D02*
X359029Y23390D01*
X362783Y23389D02*
X362848Y23387D01*
X362912Y23381D01*
X362976Y23371D01*
X363040Y23358D01*
X363102Y23340D01*
X363163Y23319D01*
X363223Y23295D01*
X363281Y23266D01*
X363338Y23234D01*
X363392Y23199D01*
X363444Y23161D01*
X363494Y23119D01*
X363541Y23075D01*
X363585Y23028D01*
X363627Y22978D01*
X363665Y22926D01*
X363700Y22872D01*
X363732Y22815D01*
X363761Y22757D01*
X363785Y22697D01*
X363806Y22636D01*
X363824Y22574D01*
X363837Y22510D01*
X363847Y22446D01*
X363853Y22382D01*
X363855Y22317D01*
X363855Y21781D01*
X362783Y26338D02*
X359029Y27410D01*
X362783Y26338D02*
X362783Y29019D01*
X361710Y28215D02*
X363855Y28215D01*
D15*
X450850Y190500D02*
X463550Y190500D01*
X469900Y184150D01*
X469900Y171450D02*
X463550Y165100D01*
X425450Y190500D02*
X419100Y184150D01*
X425450Y190500D02*
X438150Y190500D01*
X444500Y184150D01*
X444500Y171450D02*
X438150Y165100D01*
X425450Y165100D01*
X419100Y171450D01*
X444500Y184150D02*
X450850Y190500D01*
X444500Y171450D02*
X450850Y165100D01*
X463550Y165100D01*
X387350Y190500D02*
X374650Y190500D01*
X387350Y190500D02*
X393700Y184150D01*
X393700Y171450D02*
X387350Y165100D01*
X393700Y184150D02*
X400050Y190500D01*
X412750Y190500D01*
X419100Y184150D01*
X419100Y171450D02*
X412750Y165100D01*
X400050Y165100D01*
X393700Y171450D01*
X368300Y171450D02*
X368300Y184150D01*
X374650Y190500D01*
X368300Y171450D02*
X374650Y165100D01*
X387350Y165100D01*
X469900Y171450D02*
X469900Y184150D01*
D10*
X362783Y175790D02*
X359029Y175790D01*
X362783Y175789D02*
X362848Y175787D01*
X362912Y175781D01*
X362976Y175771D01*
X363040Y175758D01*
X363102Y175740D01*
X363163Y175719D01*
X363223Y175695D01*
X363281Y175666D01*
X363338Y175634D01*
X363392Y175599D01*
X363444Y175561D01*
X363494Y175519D01*
X363541Y175475D01*
X363585Y175428D01*
X363627Y175378D01*
X363665Y175326D01*
X363700Y175272D01*
X363732Y175215D01*
X363761Y175157D01*
X363785Y175097D01*
X363806Y175036D01*
X363824Y174974D01*
X363837Y174910D01*
X363847Y174846D01*
X363853Y174782D01*
X363855Y174717D01*
X363855Y174181D01*
X363855Y178738D02*
X363855Y180346D01*
X363853Y180411D01*
X363847Y180475D01*
X363837Y180539D01*
X363824Y180603D01*
X363806Y180665D01*
X363785Y180726D01*
X363761Y180786D01*
X363732Y180844D01*
X363700Y180901D01*
X363665Y180955D01*
X363627Y181007D01*
X363585Y181057D01*
X363541Y181104D01*
X363494Y181148D01*
X363444Y181190D01*
X363392Y181228D01*
X363338Y181263D01*
X363281Y181295D01*
X363223Y181324D01*
X363163Y181348D01*
X363102Y181369D01*
X363040Y181387D01*
X362976Y181400D01*
X362912Y181410D01*
X362848Y181416D01*
X362783Y181418D01*
X362783Y181419D02*
X362246Y181419D01*
X362246Y181418D02*
X362181Y181416D01*
X362117Y181410D01*
X362053Y181400D01*
X361989Y181387D01*
X361927Y181369D01*
X361866Y181348D01*
X361806Y181324D01*
X361748Y181295D01*
X361691Y181263D01*
X361637Y181228D01*
X361585Y181190D01*
X361535Y181148D01*
X361488Y181104D01*
X361444Y181057D01*
X361402Y181007D01*
X361364Y180955D01*
X361329Y180901D01*
X361297Y180844D01*
X361268Y180786D01*
X361244Y180726D01*
X361223Y180665D01*
X361205Y180603D01*
X361192Y180539D01*
X361182Y180475D01*
X361176Y180411D01*
X361174Y180346D01*
X361174Y178738D01*
X359029Y178738D01*
X359029Y181419D01*
D11*
X441960Y142240D02*
X442060Y142242D01*
X442159Y142248D01*
X442259Y142258D01*
X442357Y142271D01*
X442456Y142289D01*
X442553Y142310D01*
X442649Y142335D01*
X442745Y142364D01*
X442839Y142397D01*
X442932Y142433D01*
X443023Y142473D01*
X443113Y142517D01*
X443201Y142564D01*
X443287Y142614D01*
X443371Y142668D01*
X443453Y142725D01*
X443532Y142785D01*
X443610Y142849D01*
X443684Y142915D01*
X443756Y142984D01*
X443825Y143056D01*
X443891Y143130D01*
X443955Y143208D01*
X444015Y143287D01*
X444072Y143369D01*
X444126Y143453D01*
X444176Y143539D01*
X444223Y143627D01*
X444267Y143717D01*
X444307Y143808D01*
X444343Y143901D01*
X444376Y143995D01*
X444405Y144091D01*
X444430Y144187D01*
X444451Y144284D01*
X444469Y144383D01*
X444482Y144481D01*
X444492Y144581D01*
X444498Y144680D01*
X444500Y144780D01*
X444500Y160020D02*
X444498Y160120D01*
X444492Y160219D01*
X444482Y160319D01*
X444469Y160417D01*
X444451Y160516D01*
X444430Y160613D01*
X444405Y160709D01*
X444376Y160805D01*
X444343Y160899D01*
X444307Y160992D01*
X444267Y161083D01*
X444223Y161173D01*
X444176Y161261D01*
X444126Y161347D01*
X444072Y161431D01*
X444015Y161513D01*
X443955Y161592D01*
X443891Y161670D01*
X443825Y161744D01*
X443756Y161816D01*
X443684Y161885D01*
X443610Y161951D01*
X443532Y162015D01*
X443453Y162075D01*
X443371Y162132D01*
X443287Y162186D01*
X443201Y162236D01*
X443113Y162283D01*
X443023Y162327D01*
X442932Y162367D01*
X442839Y162403D01*
X442745Y162436D01*
X442649Y162465D01*
X442553Y162490D01*
X442456Y162511D01*
X442357Y162529D01*
X442259Y162542D01*
X442159Y162552D01*
X442060Y162558D01*
X441960Y162560D01*
X396240Y162560D02*
X396140Y162558D01*
X396041Y162552D01*
X395941Y162542D01*
X395843Y162529D01*
X395744Y162511D01*
X395647Y162490D01*
X395551Y162465D01*
X395455Y162436D01*
X395361Y162403D01*
X395268Y162367D01*
X395177Y162327D01*
X395087Y162283D01*
X394999Y162236D01*
X394913Y162186D01*
X394829Y162132D01*
X394747Y162075D01*
X394668Y162015D01*
X394590Y161951D01*
X394516Y161885D01*
X394444Y161816D01*
X394375Y161744D01*
X394309Y161670D01*
X394245Y161592D01*
X394185Y161513D01*
X394128Y161431D01*
X394074Y161347D01*
X394024Y161261D01*
X393977Y161173D01*
X393933Y161083D01*
X393893Y160992D01*
X393857Y160899D01*
X393824Y160805D01*
X393795Y160709D01*
X393770Y160613D01*
X393749Y160516D01*
X393731Y160417D01*
X393718Y160319D01*
X393708Y160219D01*
X393702Y160120D01*
X393700Y160020D01*
X393700Y144780D02*
X393702Y144680D01*
X393708Y144581D01*
X393718Y144481D01*
X393731Y144383D01*
X393749Y144284D01*
X393770Y144187D01*
X393795Y144091D01*
X393824Y143995D01*
X393857Y143901D01*
X393893Y143808D01*
X393933Y143717D01*
X393977Y143627D01*
X394024Y143539D01*
X394074Y143453D01*
X394128Y143369D01*
X394185Y143287D01*
X394245Y143208D01*
X394309Y143130D01*
X394375Y143056D01*
X394444Y142984D01*
X394516Y142915D01*
X394590Y142849D01*
X394668Y142785D01*
X394747Y142725D01*
X394829Y142668D01*
X394913Y142614D01*
X394999Y142564D01*
X395087Y142517D01*
X395177Y142473D01*
X395268Y142433D01*
X395361Y142397D01*
X395455Y142364D01*
X395551Y142335D01*
X395647Y142310D01*
X395744Y142289D01*
X395843Y142271D01*
X395941Y142258D01*
X396041Y142248D01*
X396140Y142242D01*
X396240Y142240D01*
X444500Y144780D02*
X444500Y160020D01*
X441960Y142240D02*
X438150Y142240D01*
X436880Y143510D01*
X438150Y162560D02*
X441960Y162560D01*
X438150Y162560D02*
X436880Y161290D01*
X401320Y143510D02*
X400050Y142240D01*
X401320Y143510D02*
X436880Y143510D01*
X401320Y161290D02*
X400050Y162560D01*
X401320Y161290D02*
X436880Y161290D01*
X400050Y142240D02*
X396240Y142240D01*
X396240Y162560D02*
X400050Y162560D01*
X393700Y160020D02*
X393700Y144780D01*
D12*
X391795Y152400D03*
X446405Y152400D03*
D10*
X471805Y148348D02*
X476631Y148348D01*
X471805Y148348D02*
X471805Y149689D01*
X471807Y149760D01*
X471813Y149832D01*
X471822Y149902D01*
X471835Y149972D01*
X471852Y150042D01*
X471873Y150110D01*
X471897Y150177D01*
X471925Y150243D01*
X471956Y150307D01*
X471991Y150370D01*
X472029Y150430D01*
X472070Y150489D01*
X472114Y150545D01*
X472161Y150599D01*
X472210Y150650D01*
X472263Y150698D01*
X472318Y150744D01*
X472375Y150786D01*
X472435Y150826D01*
X472496Y150862D01*
X472560Y150895D01*
X472625Y150924D01*
X472691Y150950D01*
X472759Y150973D01*
X472828Y150992D01*
X472898Y151007D01*
X472968Y151018D01*
X473039Y151026D01*
X473110Y151030D01*
X473182Y151030D01*
X473253Y151026D01*
X473324Y151018D01*
X473394Y151007D01*
X473464Y150992D01*
X473533Y150973D01*
X473601Y150950D01*
X473667Y150924D01*
X473732Y150895D01*
X473796Y150862D01*
X473857Y150826D01*
X473917Y150786D01*
X473974Y150744D01*
X474029Y150698D01*
X474082Y150650D01*
X474131Y150599D01*
X474178Y150545D01*
X474222Y150489D01*
X474263Y150430D01*
X474301Y150370D01*
X474336Y150307D01*
X474367Y150243D01*
X474395Y150177D01*
X474419Y150110D01*
X474440Y150042D01*
X474457Y149972D01*
X474470Y149902D01*
X474479Y149832D01*
X474485Y149760D01*
X474487Y149689D01*
X474486Y149689D02*
X474486Y148348D01*
X474486Y149957D02*
X476631Y151029D01*
X476631Y153771D02*
X476631Y155379D01*
X476629Y155444D01*
X476623Y155508D01*
X476613Y155572D01*
X476600Y155636D01*
X476582Y155698D01*
X476561Y155759D01*
X476537Y155819D01*
X476508Y155877D01*
X476476Y155934D01*
X476441Y155988D01*
X476403Y156040D01*
X476361Y156090D01*
X476317Y156137D01*
X476270Y156181D01*
X476220Y156223D01*
X476168Y156261D01*
X476114Y156296D01*
X476057Y156328D01*
X475999Y156357D01*
X475939Y156381D01*
X475878Y156402D01*
X475816Y156420D01*
X475752Y156433D01*
X475688Y156443D01*
X475624Y156449D01*
X475559Y156451D01*
X475559Y156452D02*
X475022Y156452D01*
X475022Y156451D02*
X474957Y156449D01*
X474893Y156443D01*
X474829Y156433D01*
X474765Y156420D01*
X474703Y156402D01*
X474642Y156381D01*
X474582Y156357D01*
X474524Y156328D01*
X474467Y156296D01*
X474413Y156261D01*
X474361Y156223D01*
X474311Y156181D01*
X474264Y156137D01*
X474220Y156090D01*
X474178Y156040D01*
X474140Y155988D01*
X474105Y155934D01*
X474073Y155877D01*
X474044Y155819D01*
X474020Y155759D01*
X473999Y155698D01*
X473981Y155636D01*
X473968Y155572D01*
X473958Y155508D01*
X473952Y155444D01*
X473950Y155379D01*
X473950Y153771D01*
X471805Y153771D01*
X471805Y156452D01*
X481965Y144699D02*
X485719Y143627D01*
X485719Y146308D01*
X484646Y145504D02*
X486791Y145504D01*
X486791Y148674D02*
X486523Y148674D01*
X486523Y148942D01*
X486791Y148942D01*
X486791Y148674D01*
X482501Y151308D02*
X481965Y151308D01*
X481965Y153989D01*
X486791Y152648D01*
X486791Y156996D02*
X481965Y156996D01*
X483574Y159141D02*
X485182Y156996D01*
X484512Y157935D02*
X486791Y159141D01*
D11*
X396240Y60960D02*
X396140Y60958D01*
X396041Y60952D01*
X395941Y60942D01*
X395843Y60929D01*
X395744Y60911D01*
X395647Y60890D01*
X395551Y60865D01*
X395455Y60836D01*
X395361Y60803D01*
X395268Y60767D01*
X395177Y60727D01*
X395087Y60683D01*
X394999Y60636D01*
X394913Y60586D01*
X394829Y60532D01*
X394747Y60475D01*
X394668Y60415D01*
X394590Y60351D01*
X394516Y60285D01*
X394444Y60216D01*
X394375Y60144D01*
X394309Y60070D01*
X394245Y59992D01*
X394185Y59913D01*
X394128Y59831D01*
X394074Y59747D01*
X394024Y59661D01*
X393977Y59573D01*
X393933Y59483D01*
X393893Y59392D01*
X393857Y59299D01*
X393824Y59205D01*
X393795Y59109D01*
X393770Y59013D01*
X393749Y58916D01*
X393731Y58817D01*
X393718Y58719D01*
X393708Y58619D01*
X393702Y58520D01*
X393700Y58420D01*
X393700Y43180D02*
X393702Y43080D01*
X393708Y42981D01*
X393718Y42881D01*
X393731Y42783D01*
X393749Y42684D01*
X393770Y42587D01*
X393795Y42491D01*
X393824Y42395D01*
X393857Y42301D01*
X393893Y42208D01*
X393933Y42117D01*
X393977Y42027D01*
X394024Y41939D01*
X394074Y41853D01*
X394128Y41769D01*
X394185Y41687D01*
X394245Y41608D01*
X394309Y41530D01*
X394375Y41456D01*
X394444Y41384D01*
X394516Y41315D01*
X394590Y41249D01*
X394668Y41185D01*
X394747Y41125D01*
X394829Y41068D01*
X394913Y41014D01*
X394999Y40964D01*
X395087Y40917D01*
X395177Y40873D01*
X395268Y40833D01*
X395361Y40797D01*
X395455Y40764D01*
X395551Y40735D01*
X395647Y40710D01*
X395744Y40689D01*
X395843Y40671D01*
X395941Y40658D01*
X396041Y40648D01*
X396140Y40642D01*
X396240Y40640D01*
X441960Y40640D02*
X442060Y40642D01*
X442159Y40648D01*
X442259Y40658D01*
X442357Y40671D01*
X442456Y40689D01*
X442553Y40710D01*
X442649Y40735D01*
X442745Y40764D01*
X442839Y40797D01*
X442932Y40833D01*
X443023Y40873D01*
X443113Y40917D01*
X443201Y40964D01*
X443287Y41014D01*
X443371Y41068D01*
X443453Y41125D01*
X443532Y41185D01*
X443610Y41249D01*
X443684Y41315D01*
X443756Y41384D01*
X443825Y41456D01*
X443891Y41530D01*
X443955Y41608D01*
X444015Y41687D01*
X444072Y41769D01*
X444126Y41853D01*
X444176Y41939D01*
X444223Y42027D01*
X444267Y42117D01*
X444307Y42208D01*
X444343Y42301D01*
X444376Y42395D01*
X444405Y42491D01*
X444430Y42587D01*
X444451Y42684D01*
X444469Y42783D01*
X444482Y42881D01*
X444492Y42981D01*
X444498Y43080D01*
X444500Y43180D01*
X444500Y58420D02*
X444498Y58520D01*
X444492Y58619D01*
X444482Y58719D01*
X444469Y58817D01*
X444451Y58916D01*
X444430Y59013D01*
X444405Y59109D01*
X444376Y59205D01*
X444343Y59299D01*
X444307Y59392D01*
X444267Y59483D01*
X444223Y59573D01*
X444176Y59661D01*
X444126Y59747D01*
X444072Y59831D01*
X444015Y59913D01*
X443955Y59992D01*
X443891Y60070D01*
X443825Y60144D01*
X443756Y60216D01*
X443684Y60285D01*
X443610Y60351D01*
X443532Y60415D01*
X443453Y60475D01*
X443371Y60532D01*
X443287Y60586D01*
X443201Y60636D01*
X443113Y60683D01*
X443023Y60727D01*
X442932Y60767D01*
X442839Y60803D01*
X442745Y60836D01*
X442649Y60865D01*
X442553Y60890D01*
X442456Y60911D01*
X442357Y60929D01*
X442259Y60942D01*
X442159Y60952D01*
X442060Y60958D01*
X441960Y60960D01*
X393700Y58420D02*
X393700Y43180D01*
X396240Y60960D02*
X400050Y60960D01*
X401320Y59690D01*
X400050Y40640D02*
X396240Y40640D01*
X400050Y40640D02*
X401320Y41910D01*
X436880Y59690D02*
X438150Y60960D01*
X436880Y59690D02*
X401320Y59690D01*
X436880Y41910D02*
X438150Y40640D01*
X436880Y41910D02*
X401320Y41910D01*
X438150Y60960D02*
X441960Y60960D01*
X441960Y40640D02*
X438150Y40640D01*
X444500Y43180D02*
X444500Y58420D01*
D12*
X446405Y50800D03*
X391795Y50800D03*
D10*
X471805Y46748D02*
X476631Y46748D01*
X471805Y46748D02*
X471805Y48089D01*
X471807Y48160D01*
X471813Y48232D01*
X471822Y48302D01*
X471835Y48372D01*
X471852Y48442D01*
X471873Y48510D01*
X471897Y48577D01*
X471925Y48643D01*
X471956Y48707D01*
X471991Y48770D01*
X472029Y48830D01*
X472070Y48889D01*
X472114Y48945D01*
X472161Y48999D01*
X472210Y49050D01*
X472263Y49098D01*
X472318Y49144D01*
X472375Y49186D01*
X472435Y49226D01*
X472496Y49262D01*
X472560Y49295D01*
X472625Y49324D01*
X472691Y49350D01*
X472759Y49373D01*
X472828Y49392D01*
X472898Y49407D01*
X472968Y49418D01*
X473039Y49426D01*
X473110Y49430D01*
X473182Y49430D01*
X473253Y49426D01*
X473324Y49418D01*
X473394Y49407D01*
X473464Y49392D01*
X473533Y49373D01*
X473601Y49350D01*
X473667Y49324D01*
X473732Y49295D01*
X473796Y49262D01*
X473857Y49226D01*
X473917Y49186D01*
X473974Y49144D01*
X474029Y49098D01*
X474082Y49050D01*
X474131Y48999D01*
X474178Y48945D01*
X474222Y48889D01*
X474263Y48830D01*
X474301Y48770D01*
X474336Y48707D01*
X474367Y48643D01*
X474395Y48577D01*
X474419Y48510D01*
X474440Y48442D01*
X474457Y48372D01*
X474470Y48302D01*
X474479Y48232D01*
X474485Y48160D01*
X474487Y48089D01*
X474486Y48089D02*
X474486Y46748D01*
X474486Y48357D02*
X476631Y49429D01*
X473950Y52171D02*
X473950Y53779D01*
X473952Y53844D01*
X473958Y53908D01*
X473968Y53972D01*
X473981Y54036D01*
X473999Y54098D01*
X474020Y54159D01*
X474044Y54219D01*
X474073Y54277D01*
X474105Y54334D01*
X474140Y54388D01*
X474178Y54440D01*
X474220Y54490D01*
X474264Y54537D01*
X474311Y54581D01*
X474361Y54623D01*
X474413Y54661D01*
X474467Y54696D01*
X474524Y54728D01*
X474582Y54757D01*
X474642Y54781D01*
X474703Y54802D01*
X474765Y54820D01*
X474829Y54833D01*
X474893Y54843D01*
X474957Y54849D01*
X475022Y54851D01*
X475022Y54852D02*
X475290Y54852D01*
X475361Y54850D01*
X475433Y54844D01*
X475503Y54835D01*
X475573Y54822D01*
X475643Y54805D01*
X475711Y54784D01*
X475778Y54760D01*
X475844Y54732D01*
X475908Y54701D01*
X475971Y54666D01*
X476031Y54628D01*
X476090Y54587D01*
X476146Y54543D01*
X476200Y54496D01*
X476251Y54447D01*
X476299Y54394D01*
X476345Y54339D01*
X476387Y54282D01*
X476427Y54222D01*
X476463Y54161D01*
X476496Y54097D01*
X476525Y54032D01*
X476551Y53966D01*
X476574Y53898D01*
X476593Y53829D01*
X476608Y53759D01*
X476619Y53689D01*
X476627Y53618D01*
X476631Y53547D01*
X476631Y53475D01*
X476627Y53404D01*
X476619Y53333D01*
X476608Y53263D01*
X476593Y53193D01*
X476574Y53124D01*
X476551Y53056D01*
X476525Y52990D01*
X476496Y52925D01*
X476463Y52861D01*
X476427Y52800D01*
X476387Y52740D01*
X476345Y52683D01*
X476299Y52628D01*
X476251Y52575D01*
X476200Y52526D01*
X476146Y52479D01*
X476090Y52435D01*
X476031Y52394D01*
X475971Y52356D01*
X475908Y52321D01*
X475844Y52290D01*
X475778Y52262D01*
X475711Y52238D01*
X475643Y52217D01*
X475573Y52200D01*
X475503Y52187D01*
X475433Y52178D01*
X475361Y52172D01*
X475290Y52170D01*
X475290Y52171D02*
X473950Y52171D01*
X473859Y52173D01*
X473768Y52179D01*
X473678Y52188D01*
X473587Y52202D01*
X473498Y52219D01*
X473410Y52240D01*
X473322Y52265D01*
X473235Y52294D01*
X473150Y52326D01*
X473066Y52361D01*
X472984Y52401D01*
X472904Y52443D01*
X472825Y52489D01*
X472749Y52539D01*
X472675Y52591D01*
X472602Y52647D01*
X472533Y52706D01*
X472466Y52767D01*
X472401Y52832D01*
X472340Y52899D01*
X472281Y52968D01*
X472225Y53040D01*
X472173Y53115D01*
X472123Y53191D01*
X472077Y53270D01*
X472035Y53350D01*
X471995Y53432D01*
X471960Y53516D01*
X471928Y53601D01*
X471899Y53688D01*
X471874Y53775D01*
X471853Y53864D01*
X471836Y53953D01*
X471822Y54043D01*
X471813Y54134D01*
X471807Y54225D01*
X471805Y54316D01*
X481965Y43099D02*
X485719Y42027D01*
X485719Y44708D01*
X484646Y43904D02*
X486791Y43904D01*
X486791Y47074D02*
X486523Y47074D01*
X486523Y47342D01*
X486791Y47342D01*
X486791Y47074D01*
X482501Y49708D02*
X481965Y49708D01*
X481965Y52389D01*
X486791Y51048D01*
X486791Y55396D02*
X481965Y55396D01*
X483574Y57541D02*
X485182Y55396D01*
X484512Y56335D02*
X486791Y57541D01*
M02*
