G04 EAGLE Gerber RS-274X export*
G75*
%MOMM*%
%FSLAX34Y34*%
%LPD*%
%INSoldermask Bottom*%
%IPPOS*%
%AMOC8*
5,1,8,0,0,1.08239X$1,22.5*%
G01*
%ADD10R,1.981200X1.981200*%
%ADD11C,1.981200*%
%ADD12P,1.924489X8X22.500000*%
%ADD13C,1.625600*%
%ADD14P,1.924489X8X202.500000*%
%ADD15C,1.901600*%


D10*
X368300Y76200D03*
D11*
X368300Y101600D03*
X368300Y127000D03*
D12*
X228600Y50800D03*
X304800Y50800D03*
X228600Y152400D03*
X304800Y152400D03*
D13*
X185420Y50800D02*
X170180Y50800D01*
X58420Y50800D02*
X43180Y50800D01*
X93980Y76200D02*
X109220Y76200D01*
X170180Y124460D02*
X185420Y124460D01*
X58420Y124460D02*
X43180Y124460D01*
X93980Y149860D02*
X109220Y149860D01*
D11*
X50800Y25400D03*
X76200Y25400D03*
X101600Y25400D03*
X127000Y25400D03*
X152400Y25400D03*
X177800Y25400D03*
X203200Y25400D03*
X228600Y25400D03*
X254000Y25400D03*
X279400Y25400D03*
X304800Y25400D03*
X330200Y25400D03*
X50800Y177800D03*
X76200Y177800D03*
X101600Y177800D03*
X127000Y177800D03*
X152400Y177800D03*
X177800Y177800D03*
X203200Y177800D03*
X228600Y177800D03*
X254000Y177800D03*
X279400Y177800D03*
X304800Y177800D03*
X330200Y177800D03*
X228600Y76200D03*
X254000Y76200D03*
X228600Y127000D03*
X254000Y127000D03*
X457200Y25400D03*
X431800Y25400D03*
X406400Y25400D03*
X381000Y25400D03*
X381000Y177800D03*
X406400Y177800D03*
X431800Y177800D03*
X457200Y177800D03*
D14*
X457200Y152400D03*
X381000Y152400D03*
D12*
X381000Y50800D03*
X457200Y50800D03*
D15*
X101600Y50800D03*
X127000Y50800D03*
X101600Y124460D03*
X127000Y124460D03*
M02*
