M48
;GenerationSoftware,Autodesk,EAGLE,9.3.0*%
;CreationDate,2019-02-16T22:24:47Z*%
FMAT,2
ICI,OFF
METRIC,TZ,000.000
T3C0.350
T2C0.813
T1C1.016
%
G90
M71
T1
X17780Y12446
X10160Y17780
X36830Y7620
X36830Y10160
X36830Y12700
X27940Y2540
X5080Y17780
X30480Y2540
X33020Y2540
X17780Y5080
X5080Y5080
X10160Y7620
X7620Y17780
X5080Y12446
X10160Y14986
X5080Y2540
X7620Y2540
X10160Y2540
X12700Y2540
X15240Y2540
X17780Y2540
X20320Y2540
X22860Y2540
X25400Y2540
X12700Y17780
X15240Y17780
X17780Y17780
X20320Y17780
X22860Y17780
X25400Y17780
X27940Y17780
X30480Y17780
X33020Y17780
X40640Y17780
X45720Y2540
X43180Y2540
X40640Y2540
X38100Y2540
X38100Y17780
X43180Y17780
X45720Y17780
T2
X30480Y15240
X30480Y5080
X22860Y5080
X22860Y7620
X25400Y7620
X25400Y12700
X22860Y12700
X22860Y15240
X45720Y15240
X38100Y15240
X38100Y5080
X45720Y5080
T3
X30480Y6604
X28956Y5080
M30