%
M48
M72
T01C0.01378
T02C0.03200
T03C0.04000
%
T01
X125300Y31300
X131300Y37300
T02
X191300Y31300
X161300Y31300
X131300Y31300
X111300Y41300
X101300Y41300
X101300Y31300
X101300Y61300
X111300Y61300
X101300Y71300
X131300Y71300
X161300Y71300
X191300Y71300
T03
X191300Y21300
X181300Y21300
X171300Y21300
X161300Y21300
X141300Y21300
X131300Y21300
X121300Y21300
X111300Y21300
X101300Y21300
X91300Y21300
X81300Y21300
X71300Y21300
X61300Y21300
X51300Y21300
X41300Y21300
X31300Y21300
X31300Y31300
X51300Y41300
X81300Y31300
X81300Y60300
X51300Y70300
X31300Y60300
X31300Y81300
X41300Y81300
X51300Y81300
X61300Y81300
X71300Y81300
X81300Y81300
X91300Y81300
X101300Y81300
X111300Y81300
X121300Y81300
X131300Y81300
X141300Y81300
X161300Y81300
X171300Y81300
X181300Y81300
X191300Y81300
X156300Y61300
X156300Y51300
X156300Y41300
M30
