G75*
%MOIN*%
%OFA0B0*%
%FSLAX25Y25*%
%IPPOS*%
%LPD*%
%AMOC8*
5,1,8,0,0,1.08239X$1,22.5*
%
%ADD10C,0.00000*%
%ADD11C,0.00500*%
%ADD12C,0.00100*%
%ADD13C,0.01000*%
D10*
X0021300Y0011300D02*
X0201300Y0011300D01*
X0201542Y0011303D01*
X0201783Y0011312D01*
X0202024Y0011326D01*
X0202265Y0011347D01*
X0202505Y0011373D01*
X0202745Y0011405D01*
X0202984Y0011443D01*
X0203221Y0011486D01*
X0203458Y0011536D01*
X0203693Y0011591D01*
X0203927Y0011651D01*
X0204159Y0011718D01*
X0204390Y0011789D01*
X0204619Y0011867D01*
X0204846Y0011950D01*
X0205071Y0012038D01*
X0205294Y0012132D01*
X0205514Y0012231D01*
X0205732Y0012336D01*
X0205947Y0012445D01*
X0206160Y0012560D01*
X0206370Y0012680D01*
X0206576Y0012805D01*
X0206780Y0012935D01*
X0206981Y0013070D01*
X0207178Y0013210D01*
X0207372Y0013354D01*
X0207562Y0013503D01*
X0207748Y0013657D01*
X0207931Y0013815D01*
X0208110Y0013977D01*
X0208285Y0014144D01*
X0208456Y0014315D01*
X0208623Y0014490D01*
X0208785Y0014669D01*
X0208943Y0014852D01*
X0209097Y0015038D01*
X0209246Y0015228D01*
X0209390Y0015422D01*
X0209530Y0015619D01*
X0209665Y0015820D01*
X0209795Y0016024D01*
X0209920Y0016230D01*
X0210040Y0016440D01*
X0210155Y0016653D01*
X0210264Y0016868D01*
X0210369Y0017086D01*
X0210468Y0017306D01*
X0210562Y0017529D01*
X0210650Y0017754D01*
X0210733Y0017981D01*
X0210811Y0018210D01*
X0210882Y0018441D01*
X0210949Y0018673D01*
X0211009Y0018907D01*
X0211064Y0019142D01*
X0211114Y0019379D01*
X0211157Y0019616D01*
X0211195Y0019855D01*
X0211227Y0020095D01*
X0211253Y0020335D01*
X0211274Y0020576D01*
X0211288Y0020817D01*
X0211297Y0021058D01*
X0211300Y0021300D01*
X0211300Y0081300D01*
X0211297Y0081542D01*
X0211288Y0081783D01*
X0211274Y0082024D01*
X0211253Y0082265D01*
X0211227Y0082505D01*
X0211195Y0082745D01*
X0211157Y0082984D01*
X0211114Y0083221D01*
X0211064Y0083458D01*
X0211009Y0083693D01*
X0210949Y0083927D01*
X0210882Y0084159D01*
X0210811Y0084390D01*
X0210733Y0084619D01*
X0210650Y0084846D01*
X0210562Y0085071D01*
X0210468Y0085294D01*
X0210369Y0085514D01*
X0210264Y0085732D01*
X0210155Y0085947D01*
X0210040Y0086160D01*
X0209920Y0086370D01*
X0209795Y0086576D01*
X0209665Y0086780D01*
X0209530Y0086981D01*
X0209390Y0087178D01*
X0209246Y0087372D01*
X0209097Y0087562D01*
X0208943Y0087748D01*
X0208785Y0087931D01*
X0208623Y0088110D01*
X0208456Y0088285D01*
X0208285Y0088456D01*
X0208110Y0088623D01*
X0207931Y0088785D01*
X0207748Y0088943D01*
X0207562Y0089097D01*
X0207372Y0089246D01*
X0207178Y0089390D01*
X0206981Y0089530D01*
X0206780Y0089665D01*
X0206576Y0089795D01*
X0206370Y0089920D01*
X0206160Y0090040D01*
X0205947Y0090155D01*
X0205732Y0090264D01*
X0205514Y0090369D01*
X0205294Y0090468D01*
X0205071Y0090562D01*
X0204846Y0090650D01*
X0204619Y0090733D01*
X0204390Y0090811D01*
X0204159Y0090882D01*
X0203927Y0090949D01*
X0203693Y0091009D01*
X0203458Y0091064D01*
X0203221Y0091114D01*
X0202984Y0091157D01*
X0202745Y0091195D01*
X0202505Y0091227D01*
X0202265Y0091253D01*
X0202024Y0091274D01*
X0201783Y0091288D01*
X0201542Y0091297D01*
X0201300Y0091300D01*
X0021300Y0091300D01*
X0021058Y0091297D01*
X0020817Y0091288D01*
X0020576Y0091274D01*
X0020335Y0091253D01*
X0020095Y0091227D01*
X0019855Y0091195D01*
X0019616Y0091157D01*
X0019379Y0091114D01*
X0019142Y0091064D01*
X0018907Y0091009D01*
X0018673Y0090949D01*
X0018441Y0090882D01*
X0018210Y0090811D01*
X0017981Y0090733D01*
X0017754Y0090650D01*
X0017529Y0090562D01*
X0017306Y0090468D01*
X0017086Y0090369D01*
X0016868Y0090264D01*
X0016653Y0090155D01*
X0016440Y0090040D01*
X0016230Y0089920D01*
X0016024Y0089795D01*
X0015820Y0089665D01*
X0015619Y0089530D01*
X0015422Y0089390D01*
X0015228Y0089246D01*
X0015038Y0089097D01*
X0014852Y0088943D01*
X0014669Y0088785D01*
X0014490Y0088623D01*
X0014315Y0088456D01*
X0014144Y0088285D01*
X0013977Y0088110D01*
X0013815Y0087931D01*
X0013657Y0087748D01*
X0013503Y0087562D01*
X0013354Y0087372D01*
X0013210Y0087178D01*
X0013070Y0086981D01*
X0012935Y0086780D01*
X0012805Y0086576D01*
X0012680Y0086370D01*
X0012560Y0086160D01*
X0012445Y0085947D01*
X0012336Y0085732D01*
X0012231Y0085514D01*
X0012132Y0085294D01*
X0012038Y0085071D01*
X0011950Y0084846D01*
X0011867Y0084619D01*
X0011789Y0084390D01*
X0011718Y0084159D01*
X0011651Y0083927D01*
X0011591Y0083693D01*
X0011536Y0083458D01*
X0011486Y0083221D01*
X0011443Y0082984D01*
X0011405Y0082745D01*
X0011373Y0082505D01*
X0011347Y0082265D01*
X0011326Y0082024D01*
X0011312Y0081783D01*
X0011303Y0081542D01*
X0011300Y0081300D01*
X0011300Y0021300D01*
X0011303Y0021058D01*
X0011312Y0020817D01*
X0011326Y0020576D01*
X0011347Y0020335D01*
X0011373Y0020095D01*
X0011405Y0019855D01*
X0011443Y0019616D01*
X0011486Y0019379D01*
X0011536Y0019142D01*
X0011591Y0018907D01*
X0011651Y0018673D01*
X0011718Y0018441D01*
X0011789Y0018210D01*
X0011867Y0017981D01*
X0011950Y0017754D01*
X0012038Y0017529D01*
X0012132Y0017306D01*
X0012231Y0017086D01*
X0012336Y0016868D01*
X0012445Y0016653D01*
X0012560Y0016440D01*
X0012680Y0016230D01*
X0012805Y0016024D01*
X0012935Y0015820D01*
X0013070Y0015619D01*
X0013210Y0015422D01*
X0013354Y0015228D01*
X0013503Y0015038D01*
X0013657Y0014852D01*
X0013815Y0014669D01*
X0013977Y0014490D01*
X0014144Y0014315D01*
X0014315Y0014144D01*
X0014490Y0013977D01*
X0014669Y0013815D01*
X0014852Y0013657D01*
X0015038Y0013503D01*
X0015228Y0013354D01*
X0015422Y0013210D01*
X0015619Y0013070D01*
X0015820Y0012935D01*
X0016024Y0012805D01*
X0016230Y0012680D01*
X0016440Y0012560D01*
X0016653Y0012445D01*
X0016868Y0012336D01*
X0017086Y0012231D01*
X0017306Y0012132D01*
X0017529Y0012038D01*
X0017754Y0011950D01*
X0017981Y0011867D01*
X0018210Y0011789D01*
X0018441Y0011718D01*
X0018673Y0011651D01*
X0018907Y0011591D01*
X0019142Y0011536D01*
X0019379Y0011486D01*
X0019616Y0011443D01*
X0019855Y0011405D01*
X0020095Y0011373D01*
X0020335Y0011347D01*
X0020576Y0011326D01*
X0020817Y0011312D01*
X0021058Y0011303D01*
X0021300Y0011300D01*
D11*
X0046310Y0028361D02*
X0046310Y0029417D01*
X0046310Y0028889D02*
X0044410Y0028889D01*
X0044410Y0030507D02*
X0046310Y0030507D01*
X0046310Y0031035D01*
X0046308Y0031080D01*
X0046302Y0031124D01*
X0046293Y0031168D01*
X0046280Y0031211D01*
X0046263Y0031252D01*
X0046243Y0031293D01*
X0046219Y0031331D01*
X0046193Y0031367D01*
X0046163Y0031400D01*
X0046131Y0031431D01*
X0046096Y0031460D01*
X0046059Y0031485D01*
X0046020Y0031506D01*
X0045979Y0031525D01*
X0045937Y0031540D01*
X0045893Y0031551D01*
X0045849Y0031559D01*
X0045804Y0031563D01*
X0045760Y0031563D01*
X0045715Y0031559D01*
X0045671Y0031551D01*
X0045627Y0031540D01*
X0045585Y0031525D01*
X0045544Y0031506D01*
X0045505Y0031485D01*
X0045468Y0031460D01*
X0045433Y0031431D01*
X0045401Y0031400D01*
X0045371Y0031367D01*
X0045345Y0031331D01*
X0045321Y0031293D01*
X0045301Y0031252D01*
X0045284Y0031211D01*
X0045271Y0031168D01*
X0045262Y0031124D01*
X0045256Y0031080D01*
X0045254Y0031035D01*
X0045254Y0030507D01*
X0045888Y0032537D02*
X0046310Y0033065D01*
X0044410Y0033065D01*
X0044410Y0032537D02*
X0044410Y0033593D01*
X0066410Y0033593D02*
X0066410Y0032537D01*
X0067465Y0033435D01*
X0068310Y0033118D02*
X0068308Y0033070D01*
X0068302Y0033023D01*
X0068293Y0032975D01*
X0068280Y0032929D01*
X0068263Y0032884D01*
X0068243Y0032841D01*
X0068220Y0032799D01*
X0068193Y0032759D01*
X0068164Y0032722D01*
X0068131Y0032686D01*
X0068096Y0032654D01*
X0068058Y0032624D01*
X0068018Y0032598D01*
X0067976Y0032574D01*
X0067933Y0032554D01*
X0067888Y0032538D01*
X0067466Y0033435D02*
X0067495Y0033463D01*
X0067527Y0033490D01*
X0067561Y0033513D01*
X0067597Y0033534D01*
X0067634Y0033552D01*
X0067673Y0033566D01*
X0067712Y0033578D01*
X0067753Y0033586D01*
X0067794Y0033591D01*
X0067835Y0033593D01*
X0067876Y0033591D01*
X0067917Y0033586D01*
X0067958Y0033577D01*
X0067997Y0033564D01*
X0068036Y0033548D01*
X0068072Y0033529D01*
X0068107Y0033507D01*
X0068140Y0033482D01*
X0068171Y0033454D01*
X0068199Y0033423D01*
X0068224Y0033390D01*
X0068246Y0033356D01*
X0068265Y0033319D01*
X0068281Y0033280D01*
X0068294Y0033241D01*
X0068303Y0033200D01*
X0068308Y0033159D01*
X0068310Y0033118D01*
X0068310Y0031035D02*
X0068310Y0030507D01*
X0066410Y0030507D01*
X0067254Y0030507D02*
X0067254Y0031035D01*
X0067256Y0031080D01*
X0067262Y0031124D01*
X0067271Y0031168D01*
X0067284Y0031211D01*
X0067301Y0031252D01*
X0067321Y0031293D01*
X0067345Y0031331D01*
X0067371Y0031367D01*
X0067401Y0031400D01*
X0067433Y0031431D01*
X0067468Y0031460D01*
X0067505Y0031485D01*
X0067544Y0031506D01*
X0067585Y0031525D01*
X0067627Y0031540D01*
X0067671Y0031551D01*
X0067715Y0031559D01*
X0067760Y0031563D01*
X0067804Y0031563D01*
X0067849Y0031559D01*
X0067893Y0031551D01*
X0067937Y0031540D01*
X0067979Y0031525D01*
X0068020Y0031506D01*
X0068059Y0031485D01*
X0068096Y0031460D01*
X0068131Y0031431D01*
X0068163Y0031400D01*
X0068193Y0031367D01*
X0068219Y0031331D01*
X0068243Y0031293D01*
X0068263Y0031252D01*
X0068280Y0031211D01*
X0068293Y0031168D01*
X0068302Y0031124D01*
X0068308Y0031080D01*
X0068310Y0031035D01*
X0068310Y0029417D02*
X0068310Y0028361D01*
X0068310Y0028889D02*
X0066410Y0028889D01*
X0068310Y0057361D02*
X0068310Y0058417D01*
X0068310Y0057889D02*
X0066410Y0057889D01*
X0066410Y0059507D02*
X0068310Y0059507D01*
X0068310Y0060035D01*
X0068308Y0060080D01*
X0068302Y0060124D01*
X0068293Y0060168D01*
X0068280Y0060211D01*
X0068263Y0060252D01*
X0068243Y0060293D01*
X0068219Y0060331D01*
X0068193Y0060367D01*
X0068163Y0060400D01*
X0068131Y0060431D01*
X0068096Y0060460D01*
X0068059Y0060485D01*
X0068020Y0060506D01*
X0067979Y0060525D01*
X0067937Y0060540D01*
X0067893Y0060551D01*
X0067849Y0060559D01*
X0067804Y0060563D01*
X0067760Y0060563D01*
X0067715Y0060559D01*
X0067671Y0060551D01*
X0067627Y0060540D01*
X0067585Y0060525D01*
X0067544Y0060506D01*
X0067505Y0060485D01*
X0067468Y0060460D01*
X0067433Y0060431D01*
X0067401Y0060400D01*
X0067371Y0060367D01*
X0067345Y0060331D01*
X0067321Y0060293D01*
X0067301Y0060252D01*
X0067284Y0060211D01*
X0067271Y0060168D01*
X0067262Y0060124D01*
X0067256Y0060080D01*
X0067254Y0060035D01*
X0067254Y0059507D01*
X0066832Y0061537D02*
X0066832Y0062593D01*
X0067254Y0062276D02*
X0066410Y0062276D01*
X0066832Y0061537D02*
X0068310Y0061960D01*
X0046310Y0062171D02*
X0046310Y0061537D01*
X0046310Y0062171D02*
X0046308Y0062211D01*
X0046302Y0062251D01*
X0046293Y0062290D01*
X0046280Y0062328D01*
X0046263Y0062364D01*
X0046243Y0062399D01*
X0046220Y0062432D01*
X0046193Y0062462D01*
X0046164Y0062490D01*
X0046133Y0062515D01*
X0046099Y0062536D01*
X0046063Y0062555D01*
X0046026Y0062570D01*
X0045987Y0062581D01*
X0045948Y0062589D01*
X0045908Y0062593D01*
X0045868Y0062593D01*
X0045828Y0062589D01*
X0045789Y0062581D01*
X0045750Y0062570D01*
X0045713Y0062555D01*
X0045677Y0062536D01*
X0045643Y0062515D01*
X0045612Y0062490D01*
X0045583Y0062462D01*
X0045556Y0062432D01*
X0045533Y0062399D01*
X0045513Y0062364D01*
X0045496Y0062328D01*
X0045483Y0062290D01*
X0045474Y0062251D01*
X0045468Y0062211D01*
X0045466Y0062171D01*
X0045465Y0062171D02*
X0045465Y0061748D01*
X0045466Y0062065D02*
X0045464Y0062110D01*
X0045458Y0062154D01*
X0045449Y0062198D01*
X0045436Y0062241D01*
X0045419Y0062282D01*
X0045399Y0062323D01*
X0045375Y0062361D01*
X0045349Y0062397D01*
X0045319Y0062430D01*
X0045287Y0062461D01*
X0045252Y0062490D01*
X0045215Y0062515D01*
X0045176Y0062536D01*
X0045135Y0062555D01*
X0045093Y0062570D01*
X0045049Y0062581D01*
X0045005Y0062589D01*
X0044960Y0062593D01*
X0044916Y0062593D01*
X0044871Y0062589D01*
X0044827Y0062581D01*
X0044783Y0062570D01*
X0044741Y0062555D01*
X0044700Y0062536D01*
X0044661Y0062515D01*
X0044624Y0062490D01*
X0044589Y0062461D01*
X0044557Y0062430D01*
X0044527Y0062397D01*
X0044501Y0062361D01*
X0044477Y0062323D01*
X0044457Y0062282D01*
X0044440Y0062241D01*
X0044427Y0062198D01*
X0044418Y0062154D01*
X0044412Y0062110D01*
X0044410Y0062065D01*
X0044410Y0061537D01*
X0045254Y0060035D02*
X0045254Y0059507D01*
X0045254Y0060035D02*
X0045256Y0060080D01*
X0045262Y0060124D01*
X0045271Y0060168D01*
X0045284Y0060211D01*
X0045301Y0060252D01*
X0045321Y0060293D01*
X0045345Y0060331D01*
X0045371Y0060367D01*
X0045401Y0060400D01*
X0045433Y0060431D01*
X0045468Y0060460D01*
X0045505Y0060485D01*
X0045544Y0060506D01*
X0045585Y0060525D01*
X0045627Y0060540D01*
X0045671Y0060551D01*
X0045715Y0060559D01*
X0045760Y0060563D01*
X0045804Y0060563D01*
X0045849Y0060559D01*
X0045893Y0060551D01*
X0045937Y0060540D01*
X0045979Y0060525D01*
X0046020Y0060506D01*
X0046059Y0060485D01*
X0046096Y0060460D01*
X0046131Y0060431D01*
X0046163Y0060400D01*
X0046193Y0060367D01*
X0046219Y0060331D01*
X0046243Y0060293D01*
X0046263Y0060252D01*
X0046280Y0060211D01*
X0046293Y0060168D01*
X0046302Y0060124D01*
X0046308Y0060080D01*
X0046310Y0060035D01*
X0046310Y0059507D01*
X0044410Y0059507D01*
X0044410Y0057889D02*
X0046310Y0057889D01*
X0046310Y0057361D02*
X0046310Y0058417D01*
X0167350Y0069809D02*
X0167350Y0070442D01*
X0168406Y0070442D01*
X0168406Y0070125D01*
X0168828Y0069387D02*
X0168867Y0069389D01*
X0168906Y0069394D01*
X0168943Y0069403D01*
X0168980Y0069415D01*
X0169016Y0069431D01*
X0169050Y0069450D01*
X0169082Y0069472D01*
X0169112Y0069497D01*
X0169140Y0069525D01*
X0169165Y0069555D01*
X0169187Y0069587D01*
X0169206Y0069621D01*
X0169221Y0069657D01*
X0169234Y0069694D01*
X0169243Y0069731D01*
X0169248Y0069770D01*
X0169250Y0069809D01*
X0169250Y0070442D01*
X0168828Y0069386D02*
X0167772Y0069386D01*
X0167772Y0069387D02*
X0167733Y0069389D01*
X0167694Y0069394D01*
X0167657Y0069403D01*
X0167620Y0069415D01*
X0167584Y0069431D01*
X0167550Y0069450D01*
X0167518Y0069472D01*
X0167488Y0069497D01*
X0167460Y0069525D01*
X0167435Y0069555D01*
X0167413Y0069587D01*
X0167394Y0069621D01*
X0167378Y0069657D01*
X0167366Y0069694D01*
X0167357Y0069731D01*
X0167352Y0069770D01*
X0167350Y0069809D01*
X0167350Y0071690D02*
X0169250Y0071690D01*
X0167350Y0072746D01*
X0169250Y0072746D01*
X0169250Y0073994D02*
X0167350Y0073994D01*
X0167350Y0074522D01*
X0167352Y0074566D01*
X0167357Y0074609D01*
X0167366Y0074652D01*
X0167379Y0074693D01*
X0167394Y0074734D01*
X0167414Y0074773D01*
X0167436Y0074811D01*
X0167461Y0074846D01*
X0167490Y0074880D01*
X0167520Y0074910D01*
X0167554Y0074939D01*
X0167589Y0074964D01*
X0167627Y0074986D01*
X0167666Y0075006D01*
X0167707Y0075021D01*
X0167748Y0075034D01*
X0167791Y0075043D01*
X0167834Y0075048D01*
X0167878Y0075050D01*
X0168722Y0075050D01*
X0168766Y0075048D01*
X0168809Y0075043D01*
X0168852Y0075034D01*
X0168893Y0075021D01*
X0168934Y0075006D01*
X0168973Y0074986D01*
X0169011Y0074964D01*
X0169046Y0074939D01*
X0169080Y0074910D01*
X0169110Y0074880D01*
X0169139Y0074846D01*
X0169164Y0074811D01*
X0169186Y0074773D01*
X0169206Y0074734D01*
X0169221Y0074693D01*
X0169234Y0074652D01*
X0169243Y0074609D01*
X0169248Y0074566D01*
X0169250Y0074522D01*
X0169250Y0073994D01*
X0172350Y0074417D02*
X0174250Y0075050D01*
X0174250Y0073783D02*
X0172350Y0074417D01*
X0172772Y0072784D02*
X0172983Y0072784D01*
X0173022Y0072782D01*
X0173061Y0072777D01*
X0173098Y0072768D01*
X0173135Y0072756D01*
X0173171Y0072740D01*
X0173205Y0072721D01*
X0173237Y0072699D01*
X0173267Y0072674D01*
X0173295Y0072646D01*
X0173320Y0072616D01*
X0173342Y0072584D01*
X0173361Y0072550D01*
X0173377Y0072514D01*
X0173389Y0072477D01*
X0173398Y0072440D01*
X0173403Y0072401D01*
X0173405Y0072362D01*
X0173406Y0072362D02*
X0173406Y0071729D01*
X0174250Y0071729D01*
X0174250Y0072784D01*
X0172772Y0072784D02*
X0172733Y0072782D01*
X0172694Y0072777D01*
X0172657Y0072768D01*
X0172620Y0072756D01*
X0172584Y0072740D01*
X0172550Y0072721D01*
X0172518Y0072699D01*
X0172488Y0072674D01*
X0172460Y0072646D01*
X0172435Y0072616D01*
X0172413Y0072584D01*
X0172394Y0072550D01*
X0172378Y0072514D01*
X0172366Y0072477D01*
X0172357Y0072440D01*
X0172352Y0072401D01*
X0172350Y0072362D01*
X0172350Y0071729D01*
X0173089Y0070586D02*
X0173089Y0069319D01*
X0172456Y0069953D02*
X0173722Y0069953D01*
X0178350Y0071657D02*
X0178350Y0072185D01*
X0178352Y0072229D01*
X0178357Y0072272D01*
X0178366Y0072315D01*
X0178379Y0072356D01*
X0178394Y0072397D01*
X0178414Y0072436D01*
X0178436Y0072474D01*
X0178461Y0072509D01*
X0178490Y0072543D01*
X0178520Y0072573D01*
X0178554Y0072602D01*
X0178589Y0072627D01*
X0178627Y0072649D01*
X0178666Y0072669D01*
X0178707Y0072684D01*
X0178748Y0072697D01*
X0178791Y0072706D01*
X0178834Y0072711D01*
X0178878Y0072713D01*
X0178878Y0072712D02*
X0179722Y0072712D01*
X0179722Y0072713D02*
X0179766Y0072711D01*
X0179809Y0072706D01*
X0179852Y0072697D01*
X0179893Y0072684D01*
X0179934Y0072669D01*
X0179973Y0072649D01*
X0180011Y0072627D01*
X0180046Y0072602D01*
X0180080Y0072573D01*
X0180110Y0072543D01*
X0180139Y0072509D01*
X0180164Y0072474D01*
X0180186Y0072436D01*
X0180206Y0072397D01*
X0180221Y0072356D01*
X0180234Y0072315D01*
X0180243Y0072272D01*
X0180248Y0072229D01*
X0180250Y0072185D01*
X0180250Y0071657D01*
X0178350Y0071657D01*
X0179142Y0070341D02*
X0179458Y0069761D01*
X0180250Y0069972D02*
X0180248Y0070023D01*
X0180243Y0070074D01*
X0180235Y0070124D01*
X0180224Y0070174D01*
X0180209Y0070222D01*
X0180192Y0070270D01*
X0180171Y0070317D01*
X0180147Y0070362D01*
X0180121Y0070405D01*
X0180092Y0070447D01*
X0179458Y0069760D02*
X0179481Y0069726D01*
X0179506Y0069695D01*
X0179534Y0069666D01*
X0179565Y0069639D01*
X0179598Y0069616D01*
X0179633Y0069596D01*
X0179670Y0069579D01*
X0179708Y0069566D01*
X0179747Y0069557D01*
X0179788Y0069551D01*
X0179828Y0069549D01*
X0179828Y0069550D02*
X0179867Y0069552D01*
X0179906Y0069557D01*
X0179943Y0069566D01*
X0179980Y0069578D01*
X0180016Y0069594D01*
X0180050Y0069613D01*
X0180082Y0069635D01*
X0180112Y0069660D01*
X0180140Y0069688D01*
X0180165Y0069718D01*
X0180187Y0069750D01*
X0180206Y0069784D01*
X0180222Y0069820D01*
X0180234Y0069857D01*
X0180243Y0069894D01*
X0180248Y0069933D01*
X0180250Y0069972D01*
X0178614Y0069497D02*
X0178574Y0069539D01*
X0178536Y0069585D01*
X0178502Y0069632D01*
X0178471Y0069682D01*
X0178443Y0069734D01*
X0178419Y0069787D01*
X0178398Y0069842D01*
X0178381Y0069898D01*
X0178367Y0069955D01*
X0178358Y0070013D01*
X0178352Y0070071D01*
X0178350Y0070130D01*
X0178352Y0070169D01*
X0178357Y0070208D01*
X0178366Y0070245D01*
X0178378Y0070282D01*
X0178394Y0070318D01*
X0178413Y0070352D01*
X0178435Y0070384D01*
X0178460Y0070414D01*
X0178488Y0070442D01*
X0178518Y0070467D01*
X0178550Y0070489D01*
X0178584Y0070508D01*
X0178620Y0070524D01*
X0178657Y0070536D01*
X0178694Y0070545D01*
X0178733Y0070550D01*
X0178772Y0070552D01*
X0178772Y0070553D02*
X0178812Y0070551D01*
X0178853Y0070545D01*
X0178892Y0070536D01*
X0178930Y0070523D01*
X0178967Y0070506D01*
X0179002Y0070486D01*
X0179035Y0070463D01*
X0179066Y0070436D01*
X0179094Y0070407D01*
X0179119Y0070376D01*
X0179142Y0070342D01*
X0183772Y0071294D02*
X0183812Y0071292D01*
X0183853Y0071286D01*
X0183892Y0071277D01*
X0183930Y0071264D01*
X0183967Y0071247D01*
X0184002Y0071227D01*
X0184035Y0071204D01*
X0184066Y0071177D01*
X0184094Y0071148D01*
X0184119Y0071117D01*
X0184142Y0071083D01*
X0184142Y0071082D02*
X0184458Y0070502D01*
X0185250Y0070713D02*
X0185248Y0070764D01*
X0185243Y0070815D01*
X0185235Y0070865D01*
X0185224Y0070915D01*
X0185209Y0070963D01*
X0185192Y0071011D01*
X0185171Y0071058D01*
X0185147Y0071103D01*
X0185121Y0071146D01*
X0185092Y0071188D01*
X0184458Y0070501D02*
X0184481Y0070467D01*
X0184506Y0070436D01*
X0184534Y0070407D01*
X0184565Y0070380D01*
X0184598Y0070357D01*
X0184633Y0070337D01*
X0184670Y0070320D01*
X0184708Y0070307D01*
X0184747Y0070298D01*
X0184788Y0070292D01*
X0184828Y0070290D01*
X0184828Y0070291D02*
X0184867Y0070293D01*
X0184906Y0070298D01*
X0184943Y0070307D01*
X0184980Y0070319D01*
X0185016Y0070335D01*
X0185050Y0070354D01*
X0185082Y0070376D01*
X0185112Y0070401D01*
X0185140Y0070429D01*
X0185165Y0070459D01*
X0185187Y0070491D01*
X0185206Y0070525D01*
X0185222Y0070561D01*
X0185234Y0070598D01*
X0185243Y0070635D01*
X0185248Y0070674D01*
X0185250Y0070713D01*
X0183614Y0070238D02*
X0183574Y0070280D01*
X0183536Y0070326D01*
X0183502Y0070373D01*
X0183471Y0070423D01*
X0183443Y0070475D01*
X0183419Y0070528D01*
X0183398Y0070583D01*
X0183381Y0070639D01*
X0183367Y0070696D01*
X0183358Y0070754D01*
X0183352Y0070812D01*
X0183350Y0070871D01*
X0183352Y0070910D01*
X0183357Y0070949D01*
X0183366Y0070986D01*
X0183378Y0071023D01*
X0183394Y0071059D01*
X0183413Y0071093D01*
X0183435Y0071125D01*
X0183460Y0071155D01*
X0183488Y0071183D01*
X0183518Y0071208D01*
X0183550Y0071230D01*
X0183584Y0071249D01*
X0183620Y0071265D01*
X0183657Y0071277D01*
X0183694Y0071286D01*
X0183733Y0071291D01*
X0183772Y0071293D01*
X0183772Y0072315D02*
X0184828Y0072315D01*
X0184867Y0072317D01*
X0184906Y0072322D01*
X0184943Y0072331D01*
X0184980Y0072343D01*
X0185016Y0072359D01*
X0185050Y0072378D01*
X0185082Y0072400D01*
X0185112Y0072425D01*
X0185140Y0072453D01*
X0185165Y0072483D01*
X0185187Y0072515D01*
X0185206Y0072549D01*
X0185221Y0072585D01*
X0185234Y0072622D01*
X0185243Y0072659D01*
X0185248Y0072698D01*
X0185250Y0072737D01*
X0185250Y0073159D01*
X0185250Y0074206D02*
X0183350Y0074206D01*
X0183350Y0075050D01*
X0183350Y0073159D02*
X0183350Y0072737D01*
X0183352Y0072698D01*
X0183357Y0072659D01*
X0183366Y0072622D01*
X0183378Y0072585D01*
X0183394Y0072549D01*
X0183413Y0072515D01*
X0183435Y0072483D01*
X0183460Y0072453D01*
X0183488Y0072425D01*
X0183518Y0072400D01*
X0183550Y0072378D01*
X0183584Y0072359D01*
X0183620Y0072343D01*
X0183657Y0072331D01*
X0183694Y0072322D01*
X0183733Y0072317D01*
X0183772Y0072315D01*
X0180250Y0074417D02*
X0178350Y0075050D01*
X0178825Y0074892D02*
X0178825Y0073942D01*
X0178350Y0073783D02*
X0180250Y0074417D01*
X0180250Y0034281D02*
X0178350Y0033647D01*
X0180250Y0033014D01*
X0180250Y0032015D02*
X0180250Y0030960D01*
X0179406Y0030960D01*
X0179406Y0031593D01*
X0179405Y0031593D02*
X0179403Y0031632D01*
X0179398Y0031671D01*
X0179389Y0031708D01*
X0179377Y0031745D01*
X0179361Y0031781D01*
X0179342Y0031815D01*
X0179320Y0031847D01*
X0179295Y0031877D01*
X0179267Y0031905D01*
X0179237Y0031930D01*
X0179205Y0031952D01*
X0179171Y0031971D01*
X0179135Y0031987D01*
X0179098Y0031999D01*
X0179061Y0032008D01*
X0179022Y0032013D01*
X0178983Y0032015D01*
X0178772Y0032015D01*
X0178733Y0032013D01*
X0178694Y0032008D01*
X0178657Y0031999D01*
X0178620Y0031987D01*
X0178584Y0031971D01*
X0178550Y0031952D01*
X0178518Y0031930D01*
X0178488Y0031905D01*
X0178460Y0031877D01*
X0178435Y0031847D01*
X0178413Y0031815D01*
X0178394Y0031781D01*
X0178378Y0031745D01*
X0178366Y0031708D01*
X0178357Y0031671D01*
X0178352Y0031632D01*
X0178350Y0031593D01*
X0178350Y0030960D01*
X0179089Y0029817D02*
X0179089Y0028550D01*
X0178456Y0029183D02*
X0179722Y0029183D01*
X0183350Y0028972D02*
X0183350Y0029606D01*
X0184406Y0029606D01*
X0184406Y0029289D01*
X0184828Y0028550D02*
X0184867Y0028552D01*
X0184906Y0028557D01*
X0184943Y0028566D01*
X0184980Y0028578D01*
X0185016Y0028594D01*
X0185050Y0028613D01*
X0185082Y0028635D01*
X0185112Y0028660D01*
X0185140Y0028688D01*
X0185165Y0028718D01*
X0185187Y0028750D01*
X0185206Y0028784D01*
X0185221Y0028820D01*
X0185234Y0028857D01*
X0185243Y0028894D01*
X0185248Y0028933D01*
X0185250Y0028972D01*
X0185250Y0029606D01*
X0184828Y0028550D02*
X0183772Y0028550D01*
X0183733Y0028552D01*
X0183694Y0028557D01*
X0183657Y0028566D01*
X0183620Y0028578D01*
X0183584Y0028594D01*
X0183550Y0028613D01*
X0183518Y0028635D01*
X0183488Y0028660D01*
X0183460Y0028688D01*
X0183435Y0028718D01*
X0183413Y0028750D01*
X0183394Y0028784D01*
X0183378Y0028820D01*
X0183366Y0028857D01*
X0183357Y0028894D01*
X0183352Y0028933D01*
X0183350Y0028972D01*
X0183350Y0030854D02*
X0185250Y0030854D01*
X0183350Y0031910D01*
X0185250Y0031910D01*
X0185250Y0033158D02*
X0183350Y0033158D01*
X0183350Y0033686D01*
X0183352Y0033730D01*
X0183357Y0033773D01*
X0183366Y0033816D01*
X0183379Y0033857D01*
X0183394Y0033898D01*
X0183414Y0033937D01*
X0183436Y0033975D01*
X0183461Y0034010D01*
X0183490Y0034044D01*
X0183520Y0034074D01*
X0183554Y0034103D01*
X0183589Y0034128D01*
X0183627Y0034150D01*
X0183666Y0034170D01*
X0183707Y0034185D01*
X0183748Y0034198D01*
X0183791Y0034207D01*
X0183834Y0034212D01*
X0183878Y0034214D01*
X0184722Y0034214D01*
X0184766Y0034212D01*
X0184809Y0034207D01*
X0184852Y0034198D01*
X0184893Y0034185D01*
X0184934Y0034170D01*
X0184973Y0034150D01*
X0185011Y0034128D01*
X0185046Y0034103D01*
X0185080Y0034074D01*
X0185110Y0034044D01*
X0185139Y0034010D01*
X0185164Y0033975D01*
X0185186Y0033937D01*
X0185206Y0033898D01*
X0185221Y0033857D01*
X0185234Y0033816D01*
X0185243Y0033773D01*
X0185248Y0033730D01*
X0185250Y0033686D01*
X0185250Y0033158D01*
X0174250Y0033470D02*
X0172350Y0034103D01*
X0172825Y0033945D02*
X0172825Y0032995D01*
X0172350Y0032836D02*
X0174250Y0033470D01*
X0173722Y0031766D02*
X0172878Y0031766D01*
X0172834Y0031764D01*
X0172791Y0031759D01*
X0172748Y0031750D01*
X0172707Y0031737D01*
X0172666Y0031722D01*
X0172627Y0031702D01*
X0172589Y0031680D01*
X0172554Y0031655D01*
X0172520Y0031626D01*
X0172490Y0031596D01*
X0172461Y0031562D01*
X0172436Y0031527D01*
X0172414Y0031489D01*
X0172394Y0031450D01*
X0172379Y0031409D01*
X0172366Y0031368D01*
X0172357Y0031325D01*
X0172352Y0031282D01*
X0172350Y0031238D01*
X0172350Y0030710D01*
X0174250Y0030710D01*
X0174250Y0031238D01*
X0174248Y0031282D01*
X0174243Y0031325D01*
X0174234Y0031368D01*
X0174221Y0031409D01*
X0174206Y0031450D01*
X0174186Y0031489D01*
X0174164Y0031527D01*
X0174139Y0031562D01*
X0174110Y0031596D01*
X0174080Y0031626D01*
X0174046Y0031655D01*
X0174011Y0031680D01*
X0173973Y0031702D01*
X0173934Y0031722D01*
X0173893Y0031737D01*
X0173852Y0031750D01*
X0173809Y0031759D01*
X0173766Y0031764D01*
X0173722Y0031766D01*
X0173142Y0029394D02*
X0173458Y0028814D01*
X0174250Y0029025D02*
X0174248Y0029076D01*
X0174243Y0029127D01*
X0174235Y0029177D01*
X0174224Y0029227D01*
X0174209Y0029275D01*
X0174192Y0029323D01*
X0174171Y0029370D01*
X0174147Y0029415D01*
X0174121Y0029458D01*
X0174092Y0029500D01*
X0173458Y0028814D02*
X0173481Y0028780D01*
X0173506Y0028749D01*
X0173534Y0028720D01*
X0173565Y0028693D01*
X0173598Y0028670D01*
X0173633Y0028650D01*
X0173670Y0028633D01*
X0173708Y0028620D01*
X0173747Y0028611D01*
X0173788Y0028605D01*
X0173828Y0028603D01*
X0173867Y0028605D01*
X0173906Y0028610D01*
X0173943Y0028619D01*
X0173980Y0028631D01*
X0174016Y0028647D01*
X0174050Y0028666D01*
X0174082Y0028688D01*
X0174112Y0028713D01*
X0174140Y0028741D01*
X0174165Y0028771D01*
X0174187Y0028803D01*
X0174206Y0028837D01*
X0174222Y0028873D01*
X0174234Y0028910D01*
X0174243Y0028947D01*
X0174248Y0028986D01*
X0174250Y0029025D01*
X0172614Y0028550D02*
X0172574Y0028592D01*
X0172536Y0028638D01*
X0172502Y0028685D01*
X0172471Y0028735D01*
X0172443Y0028787D01*
X0172419Y0028840D01*
X0172398Y0028895D01*
X0172381Y0028951D01*
X0172367Y0029008D01*
X0172358Y0029066D01*
X0172352Y0029124D01*
X0172350Y0029183D01*
X0172352Y0029222D01*
X0172357Y0029261D01*
X0172366Y0029298D01*
X0172378Y0029335D01*
X0172394Y0029371D01*
X0172413Y0029405D01*
X0172435Y0029437D01*
X0172460Y0029467D01*
X0172488Y0029495D01*
X0172518Y0029520D01*
X0172550Y0029542D01*
X0172584Y0029561D01*
X0172620Y0029577D01*
X0172657Y0029589D01*
X0172694Y0029598D01*
X0172733Y0029603D01*
X0172772Y0029605D01*
X0172772Y0029606D02*
X0172812Y0029604D01*
X0172853Y0029598D01*
X0172892Y0029589D01*
X0172930Y0029576D01*
X0172967Y0029559D01*
X0173002Y0029539D01*
X0173035Y0029516D01*
X0173066Y0029489D01*
X0173094Y0029460D01*
X0173119Y0029429D01*
X0173142Y0029395D01*
X0169250Y0031049D02*
X0169250Y0031471D01*
X0169250Y0031049D02*
X0169248Y0031010D01*
X0169243Y0030971D01*
X0169234Y0030934D01*
X0169221Y0030897D01*
X0169206Y0030861D01*
X0169187Y0030827D01*
X0169165Y0030795D01*
X0169140Y0030765D01*
X0169112Y0030737D01*
X0169082Y0030712D01*
X0169050Y0030690D01*
X0169016Y0030671D01*
X0168980Y0030655D01*
X0168943Y0030643D01*
X0168906Y0030634D01*
X0168867Y0030629D01*
X0168828Y0030627D01*
X0167772Y0030627D01*
X0167733Y0030629D01*
X0167694Y0030634D01*
X0167657Y0030643D01*
X0167620Y0030655D01*
X0167584Y0030671D01*
X0167550Y0030690D01*
X0167518Y0030712D01*
X0167488Y0030737D01*
X0167460Y0030765D01*
X0167435Y0030795D01*
X0167413Y0030827D01*
X0167394Y0030861D01*
X0167378Y0030897D01*
X0167366Y0030934D01*
X0167357Y0030971D01*
X0167352Y0031010D01*
X0167350Y0031049D01*
X0167350Y0031471D01*
X0167350Y0032518D02*
X0167350Y0033362D01*
X0167350Y0032518D02*
X0169250Y0032518D01*
X0168142Y0029394D02*
X0168458Y0028814D01*
X0169250Y0029025D02*
X0169248Y0029076D01*
X0169243Y0029127D01*
X0169235Y0029177D01*
X0169224Y0029227D01*
X0169209Y0029275D01*
X0169192Y0029323D01*
X0169171Y0029370D01*
X0169147Y0029415D01*
X0169121Y0029458D01*
X0169092Y0029500D01*
X0168458Y0028814D02*
X0168481Y0028780D01*
X0168506Y0028749D01*
X0168534Y0028720D01*
X0168565Y0028693D01*
X0168598Y0028670D01*
X0168633Y0028650D01*
X0168670Y0028633D01*
X0168708Y0028620D01*
X0168747Y0028611D01*
X0168788Y0028605D01*
X0168828Y0028603D01*
X0168867Y0028605D01*
X0168906Y0028610D01*
X0168943Y0028619D01*
X0168980Y0028631D01*
X0169016Y0028647D01*
X0169050Y0028666D01*
X0169082Y0028688D01*
X0169112Y0028713D01*
X0169140Y0028741D01*
X0169165Y0028771D01*
X0169187Y0028803D01*
X0169206Y0028837D01*
X0169222Y0028873D01*
X0169234Y0028910D01*
X0169243Y0028947D01*
X0169248Y0028986D01*
X0169250Y0029025D01*
X0167614Y0028550D02*
X0167574Y0028592D01*
X0167536Y0028638D01*
X0167502Y0028685D01*
X0167471Y0028735D01*
X0167443Y0028787D01*
X0167419Y0028840D01*
X0167398Y0028895D01*
X0167381Y0028951D01*
X0167367Y0029008D01*
X0167358Y0029066D01*
X0167352Y0029124D01*
X0167350Y0029183D01*
X0167352Y0029222D01*
X0167357Y0029261D01*
X0167366Y0029298D01*
X0167378Y0029335D01*
X0167394Y0029371D01*
X0167413Y0029405D01*
X0167435Y0029437D01*
X0167460Y0029467D01*
X0167488Y0029495D01*
X0167518Y0029520D01*
X0167550Y0029542D01*
X0167584Y0029561D01*
X0167620Y0029577D01*
X0167657Y0029589D01*
X0167694Y0029598D01*
X0167733Y0029603D01*
X0167772Y0029605D01*
X0167772Y0029606D02*
X0167812Y0029604D01*
X0167853Y0029598D01*
X0167892Y0029589D01*
X0167930Y0029576D01*
X0167967Y0029559D01*
X0168002Y0029539D01*
X0168035Y0029516D01*
X0168066Y0029489D01*
X0168094Y0029460D01*
X0168119Y0029429D01*
X0168142Y0029395D01*
D12*
X0106250Y0049749D02*
X0106250Y0048849D01*
X0106250Y0048850D02*
X0106067Y0048846D01*
X0105884Y0048839D01*
X0105701Y0048826D01*
X0105518Y0048809D01*
X0105336Y0048788D01*
X0105155Y0048763D01*
X0104974Y0048733D01*
X0104794Y0048698D01*
X0104615Y0048660D01*
X0104437Y0048617D01*
X0104260Y0048569D01*
X0104085Y0048518D01*
X0103910Y0048462D01*
X0103737Y0048402D01*
X0103566Y0048337D01*
X0103396Y0048269D01*
X0103227Y0048197D01*
X0103061Y0048120D01*
X0102897Y0048039D01*
X0102734Y0047955D01*
X0102574Y0047866D01*
X0102415Y0047774D01*
X0102259Y0047678D01*
X0102106Y0047578D01*
X0101955Y0047474D01*
X0101806Y0047367D01*
X0101660Y0047256D01*
X0101517Y0047142D01*
X0101377Y0047024D01*
X0101240Y0046903D01*
X0101105Y0046779D01*
X0100974Y0046651D01*
X0100845Y0046520D01*
X0100720Y0046386D01*
X0100599Y0046250D01*
X0100480Y0046110D01*
X0100365Y0045967D01*
X0100254Y0045822D01*
X0100146Y0045674D01*
X0100042Y0045523D01*
X0099941Y0045370D01*
X0099844Y0045215D01*
X0099751Y0045057D01*
X0099662Y0044897D01*
X0098868Y0045320D01*
X0098968Y0045500D01*
X0099072Y0045677D01*
X0099180Y0045851D01*
X0099293Y0046023D01*
X0099410Y0046191D01*
X0099531Y0046357D01*
X0099655Y0046520D01*
X0099784Y0046680D01*
X0099917Y0046837D01*
X0100053Y0046990D01*
X0100193Y0047140D01*
X0100337Y0047287D01*
X0100484Y0047430D01*
X0100635Y0047570D01*
X0100789Y0047705D01*
X0100946Y0047837D01*
X0101106Y0047965D01*
X0101270Y0048090D01*
X0101436Y0048210D01*
X0101606Y0048326D01*
X0101778Y0048438D01*
X0101952Y0048546D01*
X0102130Y0048649D01*
X0102309Y0048748D01*
X0102492Y0048843D01*
X0102676Y0048933D01*
X0102862Y0049019D01*
X0103051Y0049100D01*
X0103241Y0049177D01*
X0103434Y0049249D01*
X0103628Y0049316D01*
X0103823Y0049379D01*
X0104020Y0049437D01*
X0104218Y0049490D01*
X0104418Y0049538D01*
X0104619Y0049581D01*
X0104820Y0049619D01*
X0105023Y0049653D01*
X0105226Y0049681D01*
X0105430Y0049705D01*
X0105635Y0049724D01*
X0105839Y0049737D01*
X0106044Y0049746D01*
X0106250Y0049750D01*
X0106250Y0049656D01*
X0106047Y0049652D01*
X0105844Y0049644D01*
X0105641Y0049630D01*
X0105439Y0049612D01*
X0105238Y0049588D01*
X0105037Y0049560D01*
X0104836Y0049527D01*
X0104637Y0049489D01*
X0104439Y0049446D01*
X0104241Y0049398D01*
X0104045Y0049346D01*
X0103850Y0049289D01*
X0103657Y0049227D01*
X0103465Y0049160D01*
X0103275Y0049089D01*
X0103087Y0049014D01*
X0102901Y0048933D01*
X0102716Y0048848D01*
X0102534Y0048759D01*
X0102354Y0048665D01*
X0102176Y0048567D01*
X0102001Y0048465D01*
X0101828Y0048359D01*
X0101658Y0048248D01*
X0101490Y0048133D01*
X0101326Y0048014D01*
X0101164Y0047891D01*
X0101006Y0047765D01*
X0100850Y0047634D01*
X0100698Y0047500D01*
X0100549Y0047362D01*
X0100403Y0047221D01*
X0100261Y0047076D01*
X0100123Y0046927D01*
X0099988Y0046776D01*
X0099857Y0046621D01*
X0099730Y0046463D01*
X0099606Y0046301D01*
X0099487Y0046137D01*
X0099371Y0045970D01*
X0099260Y0045801D01*
X0099152Y0045628D01*
X0099049Y0045453D01*
X0098951Y0045276D01*
X0099034Y0045232D01*
X0099131Y0045407D01*
X0099233Y0045580D01*
X0099339Y0045750D01*
X0099449Y0045918D01*
X0099563Y0046083D01*
X0099682Y0046245D01*
X0099804Y0046405D01*
X0099930Y0046561D01*
X0100059Y0046714D01*
X0100193Y0046864D01*
X0100329Y0047011D01*
X0100470Y0047154D01*
X0100614Y0047294D01*
X0100761Y0047430D01*
X0100912Y0047563D01*
X0101065Y0047692D01*
X0101222Y0047817D01*
X0101382Y0047939D01*
X0101545Y0048056D01*
X0101710Y0048170D01*
X0101878Y0048279D01*
X0102049Y0048385D01*
X0102222Y0048486D01*
X0102398Y0048583D01*
X0102576Y0048675D01*
X0102756Y0048763D01*
X0102939Y0048847D01*
X0103123Y0048927D01*
X0103309Y0049002D01*
X0103497Y0049072D01*
X0103687Y0049138D01*
X0103878Y0049199D01*
X0104070Y0049255D01*
X0104264Y0049307D01*
X0104459Y0049354D01*
X0104655Y0049397D01*
X0104853Y0049434D01*
X0105051Y0049467D01*
X0105249Y0049495D01*
X0105449Y0049518D01*
X0105648Y0049536D01*
X0105849Y0049550D01*
X0106049Y0049558D01*
X0106250Y0049562D01*
X0106250Y0049468D01*
X0106051Y0049464D01*
X0105853Y0049456D01*
X0105655Y0049443D01*
X0105458Y0049424D01*
X0105261Y0049402D01*
X0105064Y0049374D01*
X0104869Y0049342D01*
X0104674Y0049304D01*
X0104480Y0049263D01*
X0104287Y0049216D01*
X0104095Y0049165D01*
X0103905Y0049109D01*
X0103716Y0049049D01*
X0103529Y0048984D01*
X0103343Y0048914D01*
X0103159Y0048840D01*
X0102977Y0048761D01*
X0102797Y0048678D01*
X0102618Y0048591D01*
X0102442Y0048500D01*
X0102269Y0048404D01*
X0102097Y0048304D01*
X0101929Y0048200D01*
X0101762Y0048092D01*
X0101599Y0047979D01*
X0101438Y0047863D01*
X0101280Y0047743D01*
X0101125Y0047619D01*
X0100973Y0047492D01*
X0100824Y0047361D01*
X0100679Y0047226D01*
X0100536Y0047088D01*
X0100398Y0046946D01*
X0100262Y0046801D01*
X0100130Y0046653D01*
X0100002Y0046501D01*
X0099878Y0046347D01*
X0099757Y0046190D01*
X0099640Y0046029D01*
X0099527Y0045866D01*
X0099419Y0045700D01*
X0099314Y0045532D01*
X0099213Y0045361D01*
X0099117Y0045188D01*
X0099199Y0045143D01*
X0099295Y0045315D01*
X0099394Y0045484D01*
X0099498Y0045650D01*
X0099606Y0045814D01*
X0099717Y0045975D01*
X0099833Y0046134D01*
X0099952Y0046289D01*
X0100075Y0046442D01*
X0100202Y0046591D01*
X0100332Y0046738D01*
X0100466Y0046881D01*
X0100603Y0047021D01*
X0100744Y0047158D01*
X0100887Y0047291D01*
X0101034Y0047421D01*
X0101185Y0047547D01*
X0101338Y0047669D01*
X0101494Y0047788D01*
X0101653Y0047903D01*
X0101815Y0048013D01*
X0101979Y0048120D01*
X0102146Y0048223D01*
X0102315Y0048322D01*
X0102487Y0048417D01*
X0102661Y0048507D01*
X0102837Y0048594D01*
X0103015Y0048675D01*
X0103195Y0048753D01*
X0103377Y0048826D01*
X0103560Y0048895D01*
X0103746Y0048959D01*
X0103932Y0049019D01*
X0104120Y0049074D01*
X0104310Y0049125D01*
X0104500Y0049171D01*
X0104692Y0049212D01*
X0104885Y0049249D01*
X0105078Y0049281D01*
X0105272Y0049308D01*
X0105467Y0049331D01*
X0105662Y0049349D01*
X0105858Y0049362D01*
X0106054Y0049370D01*
X0106250Y0049374D01*
X0106250Y0049280D01*
X0106056Y0049276D01*
X0105862Y0049268D01*
X0105669Y0049255D01*
X0105476Y0049237D01*
X0105284Y0049215D01*
X0105092Y0049188D01*
X0104901Y0049156D01*
X0104710Y0049120D01*
X0104521Y0049079D01*
X0104333Y0049034D01*
X0104146Y0048984D01*
X0103960Y0048929D01*
X0103775Y0048870D01*
X0103592Y0048807D01*
X0103411Y0048739D01*
X0103231Y0048666D01*
X0103053Y0048590D01*
X0102877Y0048509D01*
X0102703Y0048423D01*
X0102531Y0048334D01*
X0102361Y0048240D01*
X0102194Y0048143D01*
X0102029Y0048041D01*
X0101867Y0047935D01*
X0101707Y0047826D01*
X0101550Y0047712D01*
X0101396Y0047595D01*
X0101244Y0047474D01*
X0101096Y0047350D01*
X0100951Y0047222D01*
X0100808Y0047090D01*
X0100669Y0046955D01*
X0100534Y0046817D01*
X0100402Y0046675D01*
X0100273Y0046530D01*
X0100148Y0046382D01*
X0100026Y0046231D01*
X0099908Y0046078D01*
X0099794Y0045921D01*
X0099684Y0045762D01*
X0099578Y0045600D01*
X0099475Y0045435D01*
X0099377Y0045268D01*
X0099282Y0045099D01*
X0099365Y0045055D01*
X0099459Y0045222D01*
X0099556Y0045387D01*
X0099657Y0045550D01*
X0099762Y0045710D01*
X0099871Y0045867D01*
X0099984Y0046022D01*
X0100100Y0046174D01*
X0100220Y0046323D01*
X0100344Y0046469D01*
X0100471Y0046612D01*
X0100602Y0046752D01*
X0100736Y0046888D01*
X0100873Y0047022D01*
X0101014Y0047152D01*
X0101157Y0047279D01*
X0101304Y0047402D01*
X0101454Y0047521D01*
X0101606Y0047637D01*
X0101761Y0047749D01*
X0101919Y0047857D01*
X0102080Y0047962D01*
X0102243Y0048062D01*
X0102408Y0048159D01*
X0102575Y0048251D01*
X0102745Y0048339D01*
X0102917Y0048424D01*
X0103091Y0048504D01*
X0103267Y0048579D01*
X0103445Y0048651D01*
X0103624Y0048718D01*
X0103805Y0048781D01*
X0103987Y0048839D01*
X0104171Y0048893D01*
X0104356Y0048943D01*
X0104542Y0048987D01*
X0104729Y0049028D01*
X0104917Y0049064D01*
X0105106Y0049095D01*
X0105295Y0049122D01*
X0105485Y0049144D01*
X0105676Y0049161D01*
X0105867Y0049174D01*
X0106058Y0049182D01*
X0106250Y0049186D01*
X0106250Y0049092D01*
X0106061Y0049088D01*
X0105872Y0049080D01*
X0105683Y0049068D01*
X0105495Y0049050D01*
X0105307Y0049028D01*
X0105120Y0049002D01*
X0104933Y0048971D01*
X0104747Y0048936D01*
X0104562Y0048896D01*
X0104378Y0048851D01*
X0104196Y0048802D01*
X0104014Y0048749D01*
X0103834Y0048692D01*
X0103656Y0048630D01*
X0103478Y0048563D01*
X0103303Y0048493D01*
X0103129Y0048418D01*
X0102957Y0048339D01*
X0102788Y0048255D01*
X0102620Y0048168D01*
X0102454Y0048077D01*
X0102291Y0047981D01*
X0102130Y0047882D01*
X0101971Y0047779D01*
X0101815Y0047672D01*
X0101662Y0047561D01*
X0101511Y0047447D01*
X0101364Y0047329D01*
X0101219Y0047207D01*
X0101077Y0047082D01*
X0100938Y0046954D01*
X0100803Y0046822D01*
X0100670Y0046687D01*
X0100541Y0046549D01*
X0100415Y0046407D01*
X0100293Y0046263D01*
X0100174Y0046116D01*
X0100059Y0045966D01*
X0099948Y0045813D01*
X0099840Y0045657D01*
X0099736Y0045499D01*
X0099636Y0045339D01*
X0099540Y0045176D01*
X0099448Y0045011D01*
X0099531Y0044966D01*
X0099622Y0045130D01*
X0099717Y0045291D01*
X0099816Y0045449D01*
X0099918Y0045605D01*
X0100025Y0045759D01*
X0100135Y0045910D01*
X0100249Y0046058D01*
X0100366Y0046204D01*
X0100487Y0046346D01*
X0100611Y0046486D01*
X0100738Y0046622D01*
X0100869Y0046756D01*
X0101003Y0046886D01*
X0101140Y0047013D01*
X0101280Y0047136D01*
X0101423Y0047256D01*
X0101569Y0047373D01*
X0101718Y0047486D01*
X0101870Y0047595D01*
X0102024Y0047701D01*
X0102180Y0047803D01*
X0102339Y0047901D01*
X0102501Y0047995D01*
X0102664Y0048085D01*
X0102830Y0048172D01*
X0102998Y0048254D01*
X0103167Y0048332D01*
X0103339Y0048406D01*
X0103512Y0048475D01*
X0103687Y0048541D01*
X0103864Y0048602D01*
X0104042Y0048659D01*
X0104221Y0048712D01*
X0104401Y0048760D01*
X0104583Y0048804D01*
X0104766Y0048844D01*
X0104949Y0048879D01*
X0105133Y0048909D01*
X0105318Y0048935D01*
X0105504Y0048957D01*
X0105690Y0048974D01*
X0105876Y0048986D01*
X0106063Y0048994D01*
X0106250Y0048998D01*
X0106250Y0048904D01*
X0106065Y0048900D01*
X0105881Y0048892D01*
X0105697Y0048880D01*
X0105513Y0048863D01*
X0105330Y0048842D01*
X0105147Y0048816D01*
X0104965Y0048786D01*
X0104784Y0048751D01*
X0104604Y0048712D01*
X0104424Y0048669D01*
X0104246Y0048621D01*
X0104069Y0048569D01*
X0103893Y0048513D01*
X0103719Y0048453D01*
X0103546Y0048388D01*
X0103375Y0048319D01*
X0103206Y0048246D01*
X0103038Y0048169D01*
X0102872Y0048088D01*
X0102709Y0048002D01*
X0102547Y0047913D01*
X0102388Y0047820D01*
X0102231Y0047723D01*
X0102076Y0047623D01*
X0101924Y0047518D01*
X0101774Y0047410D01*
X0101627Y0047299D01*
X0101483Y0047184D01*
X0101342Y0047065D01*
X0101203Y0046943D01*
X0101068Y0046818D01*
X0100936Y0046689D01*
X0100806Y0046557D01*
X0100680Y0046423D01*
X0100558Y0046285D01*
X0100439Y0046144D01*
X0100323Y0046000D01*
X0100210Y0045854D01*
X0100102Y0045705D01*
X0099997Y0045553D01*
X0099895Y0045399D01*
X0099798Y0045242D01*
X0099704Y0045083D01*
X0099614Y0044922D01*
X0098989Y0037065D02*
X0099770Y0037511D01*
X0099863Y0037354D01*
X0099960Y0037200D01*
X0100061Y0037048D01*
X0100166Y0036899D01*
X0100274Y0036752D01*
X0100385Y0036607D01*
X0100500Y0036466D01*
X0100619Y0036327D01*
X0100741Y0036192D01*
X0100866Y0036059D01*
X0100994Y0035929D01*
X0101125Y0035803D01*
X0101259Y0035679D01*
X0101396Y0035559D01*
X0101536Y0035442D01*
X0101679Y0035329D01*
X0101825Y0035219D01*
X0101973Y0035113D01*
X0102124Y0035010D01*
X0102277Y0034911D01*
X0102432Y0034816D01*
X0102590Y0034725D01*
X0102750Y0034637D01*
X0102912Y0034553D01*
X0103075Y0034473D01*
X0103241Y0034397D01*
X0103409Y0034326D01*
X0103578Y0034258D01*
X0103749Y0034194D01*
X0103921Y0034135D01*
X0104095Y0034079D01*
X0104270Y0034028D01*
X0104446Y0033981D01*
X0104623Y0033939D01*
X0104802Y0033900D01*
X0104981Y0033866D01*
X0105161Y0033836D01*
X0105341Y0033811D01*
X0105522Y0033790D01*
X0105704Y0033774D01*
X0105886Y0033761D01*
X0106068Y0033754D01*
X0106250Y0033750D01*
X0106251Y0032851D01*
X0106250Y0032850D01*
X0106046Y0032854D01*
X0105842Y0032862D01*
X0105638Y0032876D01*
X0105434Y0032894D01*
X0105231Y0032918D01*
X0105029Y0032946D01*
X0104827Y0032979D01*
X0104627Y0033017D01*
X0104427Y0033060D01*
X0104228Y0033108D01*
X0104031Y0033160D01*
X0103835Y0033218D01*
X0103640Y0033280D01*
X0103447Y0033346D01*
X0103255Y0033418D01*
X0103066Y0033494D01*
X0102878Y0033574D01*
X0102692Y0033659D01*
X0102508Y0033749D01*
X0102327Y0033842D01*
X0102148Y0033941D01*
X0101971Y0034043D01*
X0101797Y0034150D01*
X0101625Y0034261D01*
X0101456Y0034376D01*
X0101290Y0034495D01*
X0101127Y0034618D01*
X0100967Y0034745D01*
X0100810Y0034876D01*
X0100656Y0035011D01*
X0100506Y0035149D01*
X0100359Y0035291D01*
X0100215Y0035436D01*
X0100075Y0035585D01*
X0099939Y0035737D01*
X0099806Y0035893D01*
X0099678Y0036051D01*
X0099553Y0036213D01*
X0099432Y0036378D01*
X0099315Y0036545D01*
X0099202Y0036716D01*
X0099093Y0036889D01*
X0098988Y0037064D01*
X0099070Y0037111D01*
X0099173Y0036937D01*
X0099281Y0036766D01*
X0099393Y0036598D01*
X0099508Y0036432D01*
X0099628Y0036269D01*
X0099752Y0036110D01*
X0099879Y0035953D01*
X0100010Y0035799D01*
X0100145Y0035649D01*
X0100283Y0035501D01*
X0100425Y0035358D01*
X0100571Y0035217D01*
X0100719Y0035081D01*
X0100871Y0034948D01*
X0101027Y0034818D01*
X0101185Y0034693D01*
X0101346Y0034571D01*
X0101510Y0034453D01*
X0101677Y0034339D01*
X0101847Y0034230D01*
X0102019Y0034124D01*
X0102194Y0034023D01*
X0102371Y0033925D01*
X0102550Y0033833D01*
X0102732Y0033744D01*
X0102916Y0033660D01*
X0103101Y0033580D01*
X0103289Y0033505D01*
X0103478Y0033435D01*
X0103669Y0033369D01*
X0103862Y0033308D01*
X0104056Y0033251D01*
X0104251Y0033199D01*
X0104447Y0033152D01*
X0104645Y0033110D01*
X0104843Y0033072D01*
X0105043Y0033039D01*
X0105243Y0033011D01*
X0105444Y0032988D01*
X0105645Y0032970D01*
X0105846Y0032956D01*
X0106048Y0032948D01*
X0106250Y0032944D01*
X0106250Y0033038D01*
X0106051Y0033042D01*
X0105851Y0033050D01*
X0105652Y0033063D01*
X0105453Y0033082D01*
X0105254Y0033104D01*
X0105057Y0033132D01*
X0104859Y0033165D01*
X0104663Y0033202D01*
X0104468Y0033244D01*
X0104274Y0033290D01*
X0104081Y0033342D01*
X0103889Y0033398D01*
X0103699Y0033458D01*
X0103510Y0033523D01*
X0103323Y0033593D01*
X0103137Y0033667D01*
X0102954Y0033746D01*
X0102772Y0033829D01*
X0102592Y0033917D01*
X0102415Y0034008D01*
X0102240Y0034104D01*
X0102067Y0034205D01*
X0101897Y0034309D01*
X0101729Y0034418D01*
X0101564Y0034530D01*
X0101402Y0034646D01*
X0101243Y0034767D01*
X0101086Y0034891D01*
X0100933Y0035019D01*
X0100782Y0035150D01*
X0100635Y0035286D01*
X0100492Y0035424D01*
X0100351Y0035566D01*
X0100214Y0035712D01*
X0100081Y0035861D01*
X0099951Y0036013D01*
X0099825Y0036168D01*
X0099703Y0036326D01*
X0099585Y0036487D01*
X0099471Y0036650D01*
X0099360Y0036817D01*
X0099254Y0036986D01*
X0099152Y0037157D01*
X0099233Y0037204D01*
X0099334Y0037034D01*
X0099439Y0036867D01*
X0099549Y0036703D01*
X0099662Y0036541D01*
X0099779Y0036382D01*
X0099899Y0036226D01*
X0100024Y0036072D01*
X0100152Y0035922D01*
X0100284Y0035775D01*
X0100419Y0035631D01*
X0100558Y0035491D01*
X0100700Y0035354D01*
X0100845Y0035220D01*
X0100994Y0035090D01*
X0101146Y0034964D01*
X0101300Y0034841D01*
X0101458Y0034722D01*
X0101618Y0034607D01*
X0101781Y0034496D01*
X0101947Y0034389D01*
X0102115Y0034285D01*
X0102286Y0034186D01*
X0102459Y0034091D01*
X0102635Y0034001D01*
X0102812Y0033914D01*
X0102992Y0033832D01*
X0103173Y0033754D01*
X0103356Y0033681D01*
X0103541Y0033612D01*
X0103728Y0033548D01*
X0103916Y0033488D01*
X0104106Y0033432D01*
X0104296Y0033382D01*
X0104488Y0033335D01*
X0104681Y0033294D01*
X0104875Y0033257D01*
X0105070Y0033225D01*
X0105266Y0033198D01*
X0105462Y0033175D01*
X0105659Y0033157D01*
X0105856Y0033144D01*
X0106053Y0033136D01*
X0106250Y0033132D01*
X0106250Y0033226D01*
X0106055Y0033230D01*
X0105860Y0033238D01*
X0105665Y0033251D01*
X0105471Y0033269D01*
X0105277Y0033291D01*
X0105084Y0033318D01*
X0104891Y0033350D01*
X0104700Y0033386D01*
X0104509Y0033427D01*
X0104319Y0033473D01*
X0104131Y0033523D01*
X0103943Y0033578D01*
X0103757Y0033637D01*
X0103573Y0033700D01*
X0103390Y0033769D01*
X0103209Y0033841D01*
X0103030Y0033918D01*
X0102852Y0033999D01*
X0102677Y0034085D01*
X0102503Y0034174D01*
X0102332Y0034268D01*
X0102164Y0034366D01*
X0101997Y0034468D01*
X0101833Y0034574D01*
X0101672Y0034684D01*
X0101514Y0034798D01*
X0101358Y0034915D01*
X0101205Y0035037D01*
X0101055Y0035162D01*
X0100908Y0035290D01*
X0100765Y0035422D01*
X0100624Y0035558D01*
X0100487Y0035697D01*
X0100353Y0035839D01*
X0100223Y0035984D01*
X0100096Y0036132D01*
X0099973Y0036284D01*
X0099854Y0036438D01*
X0099738Y0036595D01*
X0099627Y0036755D01*
X0099519Y0036918D01*
X0099415Y0037083D01*
X0099315Y0037251D01*
X0099396Y0037297D01*
X0099495Y0037132D01*
X0099598Y0036968D01*
X0099705Y0036808D01*
X0099815Y0036650D01*
X0099929Y0036494D01*
X0100047Y0036342D01*
X0100169Y0036192D01*
X0100294Y0036046D01*
X0100423Y0035902D01*
X0100555Y0035762D01*
X0100690Y0035624D01*
X0100829Y0035490D01*
X0100971Y0035360D01*
X0101116Y0035233D01*
X0101264Y0035109D01*
X0101415Y0034990D01*
X0101569Y0034873D01*
X0101726Y0034761D01*
X0101885Y0034652D01*
X0102047Y0034548D01*
X0102212Y0034447D01*
X0102378Y0034350D01*
X0102548Y0034257D01*
X0102719Y0034169D01*
X0102892Y0034084D01*
X0103068Y0034004D01*
X0103245Y0033928D01*
X0103424Y0033856D01*
X0103605Y0033789D01*
X0103787Y0033726D01*
X0103971Y0033668D01*
X0104156Y0033614D01*
X0104342Y0033564D01*
X0104530Y0033519D01*
X0104718Y0033478D01*
X0104907Y0033442D01*
X0105098Y0033411D01*
X0105289Y0033384D01*
X0105480Y0033362D01*
X0105672Y0033345D01*
X0105865Y0033332D01*
X0106057Y0033324D01*
X0106250Y0033320D01*
X0106250Y0033414D01*
X0106060Y0033418D01*
X0105869Y0033426D01*
X0105679Y0033438D01*
X0105489Y0033456D01*
X0105300Y0033478D01*
X0105112Y0033504D01*
X0104924Y0033535D01*
X0104736Y0033571D01*
X0104550Y0033611D01*
X0104365Y0033655D01*
X0104181Y0033704D01*
X0103998Y0033758D01*
X0103816Y0033815D01*
X0103636Y0033878D01*
X0103458Y0033944D01*
X0103281Y0034015D01*
X0103106Y0034090D01*
X0102932Y0034169D01*
X0102761Y0034253D01*
X0102592Y0034340D01*
X0102425Y0034432D01*
X0102260Y0034528D01*
X0102097Y0034627D01*
X0101937Y0034731D01*
X0101780Y0034838D01*
X0101625Y0034949D01*
X0101473Y0035064D01*
X0101324Y0035182D01*
X0101178Y0035304D01*
X0101034Y0035430D01*
X0100894Y0035559D01*
X0100757Y0035691D01*
X0100623Y0035827D01*
X0100492Y0035965D01*
X0100365Y0036107D01*
X0100241Y0036252D01*
X0100121Y0036400D01*
X0100005Y0036551D01*
X0099892Y0036704D01*
X0099783Y0036860D01*
X0099677Y0037019D01*
X0099576Y0037180D01*
X0099478Y0037344D01*
X0099560Y0037391D01*
X0099656Y0037229D01*
X0099756Y0037070D01*
X0099860Y0036913D01*
X0099968Y0036758D01*
X0100080Y0036607D01*
X0100195Y0036458D01*
X0100314Y0036312D01*
X0100436Y0036169D01*
X0100562Y0036029D01*
X0100691Y0035892D01*
X0100823Y0035758D01*
X0100959Y0035627D01*
X0101097Y0035500D01*
X0101239Y0035376D01*
X0101383Y0035255D01*
X0101531Y0035138D01*
X0101681Y0035025D01*
X0101834Y0034915D01*
X0101990Y0034809D01*
X0102148Y0034707D01*
X0102308Y0034608D01*
X0102471Y0034514D01*
X0102636Y0034423D01*
X0102803Y0034337D01*
X0102972Y0034254D01*
X0103143Y0034176D01*
X0103316Y0034102D01*
X0103491Y0034032D01*
X0103668Y0033966D01*
X0103846Y0033905D01*
X0104025Y0033848D01*
X0104206Y0033795D01*
X0104388Y0033746D01*
X0104571Y0033702D01*
X0104755Y0033663D01*
X0104940Y0033628D01*
X0105125Y0033597D01*
X0105312Y0033571D01*
X0105499Y0033549D01*
X0105686Y0033532D01*
X0105874Y0033520D01*
X0106062Y0033512D01*
X0106250Y0033508D01*
X0106250Y0033602D01*
X0106064Y0033606D01*
X0105879Y0033614D01*
X0105693Y0033626D01*
X0105508Y0033643D01*
X0105323Y0033664D01*
X0105139Y0033690D01*
X0104956Y0033720D01*
X0104773Y0033755D01*
X0104591Y0033794D01*
X0104410Y0033838D01*
X0104231Y0033885D01*
X0104052Y0033938D01*
X0103875Y0033994D01*
X0103699Y0034055D01*
X0103525Y0034120D01*
X0103352Y0034189D01*
X0103181Y0034262D01*
X0103012Y0034339D01*
X0102845Y0034421D01*
X0102680Y0034506D01*
X0102517Y0034596D01*
X0102356Y0034689D01*
X0102198Y0034786D01*
X0102042Y0034887D01*
X0101888Y0034992D01*
X0101737Y0035100D01*
X0101588Y0035212D01*
X0101443Y0035328D01*
X0101300Y0035447D01*
X0101160Y0035569D01*
X0101023Y0035695D01*
X0100889Y0035824D01*
X0100759Y0035957D01*
X0100631Y0036092D01*
X0100507Y0036230D01*
X0100386Y0036372D01*
X0100269Y0036516D01*
X0100155Y0036663D01*
X0100045Y0036813D01*
X0099938Y0036965D01*
X0099836Y0037120D01*
X0099737Y0037278D01*
X0099641Y0037437D01*
X0099723Y0037484D01*
X0099817Y0037326D01*
X0099915Y0037171D01*
X0100016Y0037018D01*
X0100122Y0036867D01*
X0100231Y0036719D01*
X0100343Y0036574D01*
X0100459Y0036432D01*
X0100578Y0036292D01*
X0100701Y0036155D01*
X0100827Y0036022D01*
X0100956Y0035891D01*
X0101088Y0035763D01*
X0101223Y0035639D01*
X0101361Y0035518D01*
X0101502Y0035401D01*
X0101646Y0035287D01*
X0101793Y0035176D01*
X0101942Y0035069D01*
X0102094Y0034965D01*
X0102248Y0034866D01*
X0102404Y0034770D01*
X0102563Y0034678D01*
X0102724Y0034589D01*
X0102887Y0034505D01*
X0103052Y0034424D01*
X0103219Y0034348D01*
X0103388Y0034276D01*
X0103559Y0034207D01*
X0103731Y0034143D01*
X0103904Y0034083D01*
X0104079Y0034027D01*
X0104256Y0033976D01*
X0104433Y0033929D01*
X0104612Y0033886D01*
X0104791Y0033847D01*
X0104972Y0033813D01*
X0105153Y0033783D01*
X0105335Y0033758D01*
X0105517Y0033736D01*
X0105700Y0033720D01*
X0105883Y0033707D01*
X0106067Y0033700D01*
X0106250Y0033696D01*
X0106349Y0032851D02*
X0106349Y0033751D01*
X0106350Y0033750D02*
X0106534Y0033754D01*
X0106719Y0033762D01*
X0106903Y0033774D01*
X0107086Y0033791D01*
X0107270Y0033813D01*
X0107452Y0033838D01*
X0107634Y0033869D01*
X0107815Y0033904D01*
X0107996Y0033943D01*
X0108175Y0033987D01*
X0108353Y0034035D01*
X0108530Y0034087D01*
X0108706Y0034144D01*
X0108880Y0034204D01*
X0109052Y0034270D01*
X0109223Y0034339D01*
X0109393Y0034412D01*
X0109560Y0034490D01*
X0109725Y0034572D01*
X0109889Y0034657D01*
X0110050Y0034747D01*
X0110209Y0034841D01*
X0110366Y0034938D01*
X0110520Y0035039D01*
X0110672Y0035144D01*
X0110821Y0035253D01*
X0110967Y0035365D01*
X0111111Y0035481D01*
X0111251Y0035600D01*
X0111389Y0035723D01*
X0111524Y0035849D01*
X0111656Y0035978D01*
X0111784Y0036111D01*
X0111909Y0036246D01*
X0112031Y0036385D01*
X0112718Y0035804D01*
X0112582Y0035648D01*
X0112441Y0035496D01*
X0112297Y0035347D01*
X0112150Y0035202D01*
X0111999Y0035061D01*
X0111845Y0034924D01*
X0111687Y0034790D01*
X0111526Y0034660D01*
X0111362Y0034534D01*
X0111195Y0034412D01*
X0111025Y0034294D01*
X0110852Y0034181D01*
X0110676Y0034072D01*
X0110498Y0033967D01*
X0110317Y0033866D01*
X0110134Y0033770D01*
X0109949Y0033678D01*
X0109761Y0033591D01*
X0109571Y0033509D01*
X0109380Y0033431D01*
X0109186Y0033358D01*
X0108991Y0033290D01*
X0108794Y0033226D01*
X0108596Y0033168D01*
X0108396Y0033114D01*
X0108195Y0033065D01*
X0107993Y0033021D01*
X0107790Y0032982D01*
X0107586Y0032948D01*
X0107381Y0032919D01*
X0107176Y0032895D01*
X0106970Y0032877D01*
X0106763Y0032863D01*
X0106557Y0032854D01*
X0106350Y0032850D01*
X0106350Y0032944D01*
X0106554Y0032948D01*
X0106759Y0032957D01*
X0106963Y0032970D01*
X0107166Y0032989D01*
X0107369Y0033013D01*
X0107572Y0033041D01*
X0107774Y0033075D01*
X0107974Y0033113D01*
X0108174Y0033157D01*
X0108373Y0033205D01*
X0108570Y0033258D01*
X0108767Y0033316D01*
X0108961Y0033379D01*
X0109154Y0033447D01*
X0109346Y0033519D01*
X0109535Y0033596D01*
X0109723Y0033677D01*
X0109908Y0033763D01*
X0110091Y0033854D01*
X0110273Y0033949D01*
X0110451Y0034048D01*
X0110627Y0034152D01*
X0110801Y0034260D01*
X0110972Y0034372D01*
X0111140Y0034489D01*
X0111305Y0034609D01*
X0111468Y0034734D01*
X0111627Y0034862D01*
X0111783Y0034994D01*
X0111935Y0035130D01*
X0112085Y0035270D01*
X0112230Y0035413D01*
X0112373Y0035560D01*
X0112511Y0035711D01*
X0112646Y0035864D01*
X0112575Y0035925D01*
X0112441Y0035773D01*
X0112304Y0035624D01*
X0112163Y0035479D01*
X0112019Y0035338D01*
X0111872Y0035199D01*
X0111721Y0035065D01*
X0111567Y0034934D01*
X0111409Y0034807D01*
X0111249Y0034684D01*
X0111085Y0034565D01*
X0110919Y0034450D01*
X0110750Y0034339D01*
X0110579Y0034232D01*
X0110404Y0034130D01*
X0110228Y0034031D01*
X0110049Y0033937D01*
X0109867Y0033848D01*
X0109684Y0033763D01*
X0109499Y0033682D01*
X0109311Y0033606D01*
X0109122Y0033535D01*
X0108931Y0033468D01*
X0108739Y0033406D01*
X0108545Y0033349D01*
X0108350Y0033296D01*
X0108153Y0033249D01*
X0107956Y0033206D01*
X0107757Y0033168D01*
X0107558Y0033134D01*
X0107358Y0033106D01*
X0107157Y0033083D01*
X0106956Y0033064D01*
X0106754Y0033050D01*
X0106552Y0033042D01*
X0106350Y0033038D01*
X0106350Y0033132D01*
X0106550Y0033136D01*
X0106749Y0033144D01*
X0106949Y0033158D01*
X0107148Y0033176D01*
X0107346Y0033199D01*
X0107544Y0033227D01*
X0107741Y0033260D01*
X0107937Y0033298D01*
X0108133Y0033340D01*
X0108327Y0033387D01*
X0108520Y0033439D01*
X0108711Y0033496D01*
X0108902Y0033557D01*
X0109090Y0033623D01*
X0109277Y0033694D01*
X0109462Y0033769D01*
X0109646Y0033849D01*
X0109827Y0033933D01*
X0110006Y0034021D01*
X0110183Y0034114D01*
X0110358Y0034211D01*
X0110530Y0034313D01*
X0110699Y0034418D01*
X0110867Y0034528D01*
X0111031Y0034642D01*
X0111192Y0034759D01*
X0111351Y0034881D01*
X0111506Y0035006D01*
X0111659Y0035136D01*
X0111808Y0035269D01*
X0111954Y0035405D01*
X0112096Y0035545D01*
X0112235Y0035689D01*
X0112371Y0035836D01*
X0112503Y0035986D01*
X0112431Y0036046D01*
X0112301Y0035898D01*
X0112167Y0035753D01*
X0112029Y0035611D01*
X0111888Y0035473D01*
X0111744Y0035338D01*
X0111597Y0035206D01*
X0111446Y0035079D01*
X0111292Y0034955D01*
X0111136Y0034834D01*
X0110976Y0034718D01*
X0110814Y0034606D01*
X0110649Y0034497D01*
X0110481Y0034393D01*
X0110311Y0034293D01*
X0110138Y0034197D01*
X0109963Y0034105D01*
X0109786Y0034017D01*
X0109607Y0033934D01*
X0109426Y0033856D01*
X0109243Y0033781D01*
X0109058Y0033712D01*
X0108872Y0033647D01*
X0108684Y0033586D01*
X0108494Y0033530D01*
X0108304Y0033479D01*
X0108112Y0033432D01*
X0107919Y0033390D01*
X0107725Y0033353D01*
X0107530Y0033320D01*
X0107334Y0033293D01*
X0107138Y0033270D01*
X0106942Y0033252D01*
X0106745Y0033238D01*
X0106547Y0033230D01*
X0106350Y0033226D01*
X0106350Y0033320D01*
X0106545Y0033324D01*
X0106740Y0033332D01*
X0106935Y0033345D01*
X0107129Y0033363D01*
X0107323Y0033386D01*
X0107516Y0033413D01*
X0107709Y0033445D01*
X0107900Y0033482D01*
X0108091Y0033524D01*
X0108281Y0033570D01*
X0108469Y0033620D01*
X0108656Y0033676D01*
X0108842Y0033736D01*
X0109026Y0033800D01*
X0109209Y0033869D01*
X0109390Y0033942D01*
X0109569Y0034020D01*
X0109746Y0034102D01*
X0109921Y0034189D01*
X0110093Y0034279D01*
X0110264Y0034374D01*
X0110432Y0034473D01*
X0110598Y0034576D01*
X0110761Y0034683D01*
X0110922Y0034794D01*
X0111079Y0034909D01*
X0111234Y0035028D01*
X0111386Y0035151D01*
X0111535Y0035277D01*
X0111681Y0035407D01*
X0111823Y0035540D01*
X0111962Y0035677D01*
X0112098Y0035817D01*
X0112230Y0035961D01*
X0112359Y0036107D01*
X0112287Y0036168D01*
X0112160Y0036023D01*
X0112029Y0035881D01*
X0111895Y0035743D01*
X0111758Y0035608D01*
X0111617Y0035476D01*
X0111473Y0035348D01*
X0111326Y0035223D01*
X0111176Y0035102D01*
X0111023Y0034985D01*
X0110867Y0034871D01*
X0110708Y0034761D01*
X0110547Y0034655D01*
X0110383Y0034554D01*
X0110217Y0034456D01*
X0110049Y0034362D01*
X0109878Y0034272D01*
X0109705Y0034187D01*
X0109530Y0034106D01*
X0109353Y0034029D01*
X0109175Y0033957D01*
X0108994Y0033888D01*
X0108812Y0033825D01*
X0108629Y0033766D01*
X0108444Y0033711D01*
X0108258Y0033661D01*
X0108070Y0033615D01*
X0107882Y0033574D01*
X0107692Y0033538D01*
X0107502Y0033506D01*
X0107311Y0033479D01*
X0107120Y0033457D01*
X0106928Y0033439D01*
X0106735Y0033426D01*
X0106543Y0033418D01*
X0106350Y0033414D01*
X0106350Y0033508D01*
X0106540Y0033512D01*
X0106731Y0033520D01*
X0106921Y0033533D01*
X0107110Y0033550D01*
X0107300Y0033572D01*
X0107488Y0033599D01*
X0107676Y0033630D01*
X0107863Y0033666D01*
X0108049Y0033707D01*
X0108234Y0033752D01*
X0108418Y0033801D01*
X0108601Y0033856D01*
X0108782Y0033914D01*
X0108962Y0033977D01*
X0109140Y0034044D01*
X0109317Y0034116D01*
X0109492Y0034192D01*
X0109664Y0034272D01*
X0109835Y0034356D01*
X0110004Y0034445D01*
X0110170Y0034537D01*
X0110335Y0034634D01*
X0110496Y0034734D01*
X0110656Y0034839D01*
X0110812Y0034947D01*
X0110966Y0035060D01*
X0111117Y0035176D01*
X0111266Y0035295D01*
X0111411Y0035418D01*
X0111553Y0035545D01*
X0111692Y0035675D01*
X0111828Y0035809D01*
X0111961Y0035945D01*
X0112090Y0036085D01*
X0112216Y0036229D01*
X0112144Y0036289D01*
X0112020Y0036148D01*
X0111892Y0036010D01*
X0111761Y0035875D01*
X0111627Y0035743D01*
X0111490Y0035614D01*
X0111349Y0035489D01*
X0111205Y0035367D01*
X0111059Y0035249D01*
X0110910Y0035135D01*
X0110758Y0035024D01*
X0110603Y0034917D01*
X0110446Y0034814D01*
X0110286Y0034714D01*
X0110124Y0034619D01*
X0109959Y0034527D01*
X0109793Y0034440D01*
X0109624Y0034357D01*
X0109453Y0034277D01*
X0109281Y0034202D01*
X0109106Y0034132D01*
X0108930Y0034065D01*
X0108753Y0034003D01*
X0108573Y0033945D01*
X0108393Y0033892D01*
X0108211Y0033843D01*
X0108029Y0033799D01*
X0107845Y0033759D01*
X0107660Y0033723D01*
X0107474Y0033692D01*
X0107288Y0033666D01*
X0107101Y0033644D01*
X0106914Y0033627D01*
X0106726Y0033614D01*
X0106538Y0033606D01*
X0106350Y0033602D01*
X0106350Y0033696D01*
X0106536Y0033700D01*
X0106721Y0033708D01*
X0106907Y0033720D01*
X0107092Y0033737D01*
X0107276Y0033759D01*
X0107460Y0033785D01*
X0107644Y0033816D01*
X0107826Y0033851D01*
X0108008Y0033890D01*
X0108188Y0033934D01*
X0108368Y0033983D01*
X0108546Y0034035D01*
X0108723Y0034092D01*
X0108898Y0034154D01*
X0109072Y0034219D01*
X0109244Y0034289D01*
X0109415Y0034363D01*
X0109583Y0034441D01*
X0109750Y0034524D01*
X0109914Y0034610D01*
X0110077Y0034700D01*
X0110237Y0034795D01*
X0110395Y0034893D01*
X0110550Y0034995D01*
X0110703Y0035100D01*
X0110853Y0035210D01*
X0111001Y0035323D01*
X0111145Y0035440D01*
X0111287Y0035560D01*
X0111426Y0035683D01*
X0111562Y0035810D01*
X0111694Y0035940D01*
X0111823Y0036074D01*
X0111950Y0036210D01*
X0112072Y0036350D01*
X0112759Y0046748D02*
X0112067Y0046171D01*
X0112068Y0046172D02*
X0111949Y0046309D01*
X0111828Y0046443D01*
X0111703Y0046574D01*
X0111575Y0046702D01*
X0111444Y0046826D01*
X0111310Y0046948D01*
X0111173Y0047067D01*
X0111034Y0047182D01*
X0110891Y0047293D01*
X0110746Y0047402D01*
X0110599Y0047507D01*
X0110449Y0047608D01*
X0110297Y0047705D01*
X0110142Y0047799D01*
X0109985Y0047890D01*
X0109826Y0047976D01*
X0109665Y0048059D01*
X0109502Y0048137D01*
X0109337Y0048212D01*
X0109171Y0048283D01*
X0109003Y0048350D01*
X0108833Y0048412D01*
X0108662Y0048471D01*
X0108489Y0048526D01*
X0108316Y0048576D01*
X0108141Y0048622D01*
X0107965Y0048664D01*
X0107788Y0048702D01*
X0107610Y0048735D01*
X0107431Y0048765D01*
X0107252Y0048790D01*
X0107072Y0048810D01*
X0106892Y0048827D01*
X0106712Y0048839D01*
X0106531Y0048846D01*
X0106350Y0048850D01*
X0106349Y0049749D01*
X0106350Y0049750D01*
X0106553Y0049746D01*
X0106755Y0049738D01*
X0106958Y0049724D01*
X0107160Y0049706D01*
X0107361Y0049683D01*
X0107562Y0049655D01*
X0107762Y0049622D01*
X0107962Y0049585D01*
X0108160Y0049543D01*
X0108358Y0049496D01*
X0108554Y0049444D01*
X0108748Y0049387D01*
X0108942Y0049326D01*
X0109134Y0049261D01*
X0109324Y0049190D01*
X0109513Y0049115D01*
X0109699Y0049036D01*
X0109884Y0048952D01*
X0110067Y0048864D01*
X0110247Y0048771D01*
X0110425Y0048675D01*
X0110601Y0048573D01*
X0110774Y0048468D01*
X0110945Y0048359D01*
X0111113Y0048245D01*
X0111279Y0048128D01*
X0111441Y0048006D01*
X0111601Y0047881D01*
X0111757Y0047752D01*
X0111910Y0047619D01*
X0112060Y0047482D01*
X0112207Y0047342D01*
X0112350Y0047199D01*
X0112490Y0047052D01*
X0112627Y0046902D01*
X0112759Y0046748D01*
X0112687Y0046688D01*
X0112556Y0046840D01*
X0112421Y0046988D01*
X0112283Y0047133D01*
X0112141Y0047275D01*
X0111996Y0047414D01*
X0111848Y0047549D01*
X0111696Y0047680D01*
X0111541Y0047808D01*
X0111384Y0047932D01*
X0111223Y0048052D01*
X0111060Y0048168D01*
X0110893Y0048280D01*
X0110725Y0048388D01*
X0110553Y0048493D01*
X0110379Y0048593D01*
X0110203Y0048688D01*
X0110025Y0048780D01*
X0109844Y0048867D01*
X0109661Y0048950D01*
X0109477Y0049029D01*
X0109291Y0049103D01*
X0109102Y0049172D01*
X0108913Y0049237D01*
X0108721Y0049297D01*
X0108529Y0049353D01*
X0108335Y0049404D01*
X0108140Y0049451D01*
X0107944Y0049493D01*
X0107747Y0049530D01*
X0107549Y0049562D01*
X0107350Y0049590D01*
X0107151Y0049613D01*
X0106951Y0049631D01*
X0106751Y0049644D01*
X0106550Y0049652D01*
X0106350Y0049656D01*
X0106350Y0049562D01*
X0106548Y0049558D01*
X0106746Y0049550D01*
X0106944Y0049537D01*
X0107142Y0049519D01*
X0107339Y0049496D01*
X0107535Y0049469D01*
X0107731Y0049437D01*
X0107925Y0049401D01*
X0108119Y0049359D01*
X0108312Y0049313D01*
X0108504Y0049263D01*
X0108694Y0049207D01*
X0108883Y0049148D01*
X0109071Y0049083D01*
X0109257Y0049015D01*
X0109441Y0048942D01*
X0109624Y0048864D01*
X0109804Y0048782D01*
X0109983Y0048696D01*
X0110159Y0048605D01*
X0110333Y0048511D01*
X0110505Y0048412D01*
X0110675Y0048309D01*
X0110842Y0048202D01*
X0111006Y0048091D01*
X0111167Y0047976D01*
X0111326Y0047857D01*
X0111482Y0047735D01*
X0111635Y0047609D01*
X0111785Y0047479D01*
X0111932Y0047345D01*
X0112075Y0047208D01*
X0112215Y0047068D01*
X0112352Y0046925D01*
X0112485Y0046778D01*
X0112615Y0046628D01*
X0112543Y0046568D01*
X0112414Y0046716D01*
X0112283Y0046861D01*
X0112148Y0047003D01*
X0112009Y0047141D01*
X0111867Y0047277D01*
X0111722Y0047409D01*
X0111574Y0047537D01*
X0111423Y0047662D01*
X0111269Y0047783D01*
X0111112Y0047900D01*
X0110952Y0048014D01*
X0110790Y0048123D01*
X0110625Y0048229D01*
X0110457Y0048331D01*
X0110287Y0048429D01*
X0110115Y0048522D01*
X0109941Y0048612D01*
X0109764Y0048697D01*
X0109586Y0048778D01*
X0109406Y0048855D01*
X0109223Y0048927D01*
X0109040Y0048995D01*
X0108854Y0049058D01*
X0108667Y0049117D01*
X0108479Y0049172D01*
X0108290Y0049222D01*
X0108099Y0049267D01*
X0107907Y0049308D01*
X0107715Y0049345D01*
X0107521Y0049376D01*
X0107327Y0049403D01*
X0107132Y0049425D01*
X0106937Y0049443D01*
X0106742Y0049456D01*
X0106546Y0049464D01*
X0106350Y0049468D01*
X0106350Y0049374D01*
X0106544Y0049370D01*
X0106737Y0049362D01*
X0106930Y0049349D01*
X0107123Y0049332D01*
X0107316Y0049310D01*
X0107508Y0049283D01*
X0107699Y0049252D01*
X0107889Y0049216D01*
X0108079Y0049176D01*
X0108267Y0049131D01*
X0108454Y0049081D01*
X0108640Y0049027D01*
X0108825Y0048969D01*
X0109008Y0048906D01*
X0109190Y0048839D01*
X0109370Y0048768D01*
X0109548Y0048692D01*
X0109725Y0048612D01*
X0109899Y0048528D01*
X0110071Y0048439D01*
X0110241Y0048347D01*
X0110409Y0048250D01*
X0110575Y0048149D01*
X0110738Y0048045D01*
X0110898Y0047937D01*
X0111056Y0047824D01*
X0111211Y0047708D01*
X0111364Y0047589D01*
X0111513Y0047465D01*
X0111660Y0047339D01*
X0111803Y0047208D01*
X0111943Y0047075D01*
X0112080Y0046938D01*
X0112213Y0046797D01*
X0112344Y0046654D01*
X0112470Y0046507D01*
X0112398Y0046447D01*
X0112273Y0046592D01*
X0112144Y0046734D01*
X0112012Y0046872D01*
X0111877Y0047008D01*
X0111738Y0047140D01*
X0111597Y0047269D01*
X0111452Y0047394D01*
X0111305Y0047516D01*
X0111154Y0047634D01*
X0111001Y0047749D01*
X0110845Y0047859D01*
X0110686Y0047967D01*
X0110525Y0048070D01*
X0110361Y0048169D01*
X0110195Y0048265D01*
X0110027Y0048356D01*
X0109857Y0048443D01*
X0109685Y0048527D01*
X0109510Y0048606D01*
X0109334Y0048681D01*
X0109156Y0048751D01*
X0108977Y0048818D01*
X0108796Y0048880D01*
X0108613Y0048937D01*
X0108429Y0048991D01*
X0108244Y0049040D01*
X0108058Y0049084D01*
X0107871Y0049124D01*
X0107683Y0049159D01*
X0107494Y0049190D01*
X0107304Y0049217D01*
X0107114Y0049238D01*
X0106924Y0049256D01*
X0106733Y0049268D01*
X0106541Y0049276D01*
X0106350Y0049280D01*
X0106350Y0049186D01*
X0106539Y0049182D01*
X0106728Y0049174D01*
X0106917Y0049162D01*
X0107105Y0049145D01*
X0107293Y0049123D01*
X0107480Y0049097D01*
X0107667Y0049067D01*
X0107853Y0049032D01*
X0108038Y0048992D01*
X0108222Y0048948D01*
X0108404Y0048900D01*
X0108586Y0048847D01*
X0108766Y0048790D01*
X0108945Y0048729D01*
X0109123Y0048663D01*
X0109299Y0048594D01*
X0109473Y0048520D01*
X0109645Y0048442D01*
X0109815Y0048359D01*
X0109983Y0048273D01*
X0110149Y0048183D01*
X0110313Y0048088D01*
X0110475Y0047990D01*
X0110634Y0047888D01*
X0110791Y0047782D01*
X0110945Y0047673D01*
X0111097Y0047559D01*
X0111245Y0047443D01*
X0111391Y0047322D01*
X0111534Y0047199D01*
X0111674Y0047071D01*
X0111811Y0046941D01*
X0111945Y0046807D01*
X0112075Y0046670D01*
X0112202Y0046530D01*
X0112326Y0046387D01*
X0112254Y0046327D01*
X0112131Y0046468D01*
X0112006Y0046606D01*
X0111877Y0046742D01*
X0111745Y0046874D01*
X0111610Y0047003D01*
X0111471Y0047128D01*
X0111330Y0047251D01*
X0111186Y0047370D01*
X0111039Y0047485D01*
X0110890Y0047597D01*
X0110737Y0047705D01*
X0110582Y0047810D01*
X0110425Y0047910D01*
X0110265Y0048007D01*
X0110104Y0048101D01*
X0109939Y0048190D01*
X0109773Y0048275D01*
X0109605Y0048356D01*
X0109435Y0048434D01*
X0109263Y0048507D01*
X0109089Y0048576D01*
X0108914Y0048640D01*
X0108737Y0048701D01*
X0108559Y0048757D01*
X0108380Y0048809D01*
X0108199Y0048857D01*
X0108017Y0048900D01*
X0107835Y0048939D01*
X0107651Y0048974D01*
X0107467Y0049004D01*
X0107282Y0049030D01*
X0107096Y0049051D01*
X0106910Y0049068D01*
X0106723Y0049080D01*
X0106537Y0049088D01*
X0106350Y0049092D01*
X0106350Y0048998D01*
X0106534Y0048994D01*
X0106719Y0048987D01*
X0106903Y0048974D01*
X0107087Y0048958D01*
X0107270Y0048937D01*
X0107453Y0048911D01*
X0107635Y0048881D01*
X0107816Y0048847D01*
X0107997Y0048809D01*
X0108176Y0048766D01*
X0108355Y0048719D01*
X0108532Y0048667D01*
X0108708Y0048612D01*
X0108883Y0048552D01*
X0109056Y0048488D01*
X0109227Y0048420D01*
X0109397Y0048348D01*
X0109565Y0048271D01*
X0109731Y0048191D01*
X0109895Y0048107D01*
X0110058Y0048019D01*
X0110218Y0047927D01*
X0110375Y0047831D01*
X0110531Y0047731D01*
X0110684Y0047628D01*
X0110834Y0047521D01*
X0110982Y0047411D01*
X0111127Y0047297D01*
X0111269Y0047179D01*
X0111409Y0047058D01*
X0111545Y0046934D01*
X0111679Y0046807D01*
X0111809Y0046676D01*
X0111937Y0046543D01*
X0112061Y0046406D01*
X0112181Y0046267D01*
X0112109Y0046206D01*
X0111990Y0046344D01*
X0111867Y0046479D01*
X0111742Y0046611D01*
X0111613Y0046740D01*
X0111481Y0046866D01*
X0111346Y0046988D01*
X0111208Y0047108D01*
X0111068Y0047224D01*
X0110924Y0047336D01*
X0110778Y0047445D01*
X0110630Y0047551D01*
X0110479Y0047653D01*
X0110325Y0047751D01*
X0110170Y0047846D01*
X0110012Y0047937D01*
X0109851Y0048024D01*
X0109689Y0048107D01*
X0109525Y0048186D01*
X0109359Y0048261D01*
X0109191Y0048333D01*
X0109022Y0048400D01*
X0108851Y0048463D01*
X0108679Y0048522D01*
X0108505Y0048577D01*
X0108330Y0048628D01*
X0108154Y0048675D01*
X0107976Y0048717D01*
X0107798Y0048755D01*
X0107619Y0048789D01*
X0107439Y0048818D01*
X0107259Y0048843D01*
X0107078Y0048864D01*
X0106896Y0048881D01*
X0106714Y0048893D01*
X0106532Y0048900D01*
X0106350Y0048904D01*
X0106250Y0069749D02*
X0106250Y0068849D01*
X0106250Y0068850D02*
X0106067Y0068846D01*
X0105884Y0068839D01*
X0105701Y0068826D01*
X0105518Y0068809D01*
X0105336Y0068788D01*
X0105155Y0068763D01*
X0104974Y0068733D01*
X0104794Y0068698D01*
X0104615Y0068660D01*
X0104437Y0068617D01*
X0104260Y0068569D01*
X0104085Y0068518D01*
X0103910Y0068462D01*
X0103737Y0068402D01*
X0103566Y0068337D01*
X0103396Y0068269D01*
X0103227Y0068197D01*
X0103061Y0068120D01*
X0102897Y0068039D01*
X0102734Y0067955D01*
X0102574Y0067866D01*
X0102415Y0067774D01*
X0102259Y0067678D01*
X0102106Y0067578D01*
X0101955Y0067474D01*
X0101806Y0067367D01*
X0101660Y0067256D01*
X0101517Y0067142D01*
X0101377Y0067024D01*
X0101240Y0066903D01*
X0101105Y0066779D01*
X0100974Y0066651D01*
X0100845Y0066520D01*
X0100720Y0066386D01*
X0100599Y0066250D01*
X0100480Y0066110D01*
X0100365Y0065967D01*
X0100254Y0065822D01*
X0100146Y0065674D01*
X0100042Y0065523D01*
X0099941Y0065370D01*
X0099844Y0065215D01*
X0099751Y0065057D01*
X0099662Y0064897D01*
X0098868Y0065320D01*
X0098968Y0065500D01*
X0099072Y0065677D01*
X0099180Y0065851D01*
X0099293Y0066023D01*
X0099410Y0066191D01*
X0099531Y0066357D01*
X0099655Y0066520D01*
X0099784Y0066680D01*
X0099917Y0066837D01*
X0100053Y0066990D01*
X0100193Y0067140D01*
X0100337Y0067287D01*
X0100484Y0067430D01*
X0100635Y0067570D01*
X0100789Y0067705D01*
X0100946Y0067837D01*
X0101106Y0067965D01*
X0101270Y0068090D01*
X0101436Y0068210D01*
X0101606Y0068326D01*
X0101778Y0068438D01*
X0101952Y0068546D01*
X0102130Y0068649D01*
X0102309Y0068748D01*
X0102492Y0068843D01*
X0102676Y0068933D01*
X0102862Y0069019D01*
X0103051Y0069100D01*
X0103241Y0069177D01*
X0103434Y0069249D01*
X0103628Y0069316D01*
X0103823Y0069379D01*
X0104020Y0069437D01*
X0104218Y0069490D01*
X0104418Y0069538D01*
X0104619Y0069581D01*
X0104820Y0069619D01*
X0105023Y0069653D01*
X0105226Y0069681D01*
X0105430Y0069705D01*
X0105635Y0069724D01*
X0105839Y0069737D01*
X0106044Y0069746D01*
X0106250Y0069750D01*
X0106250Y0069656D01*
X0106047Y0069652D01*
X0105844Y0069644D01*
X0105641Y0069630D01*
X0105439Y0069612D01*
X0105238Y0069588D01*
X0105037Y0069560D01*
X0104836Y0069527D01*
X0104637Y0069489D01*
X0104439Y0069446D01*
X0104241Y0069398D01*
X0104045Y0069346D01*
X0103850Y0069289D01*
X0103657Y0069227D01*
X0103465Y0069160D01*
X0103275Y0069089D01*
X0103087Y0069014D01*
X0102901Y0068933D01*
X0102716Y0068848D01*
X0102534Y0068759D01*
X0102354Y0068665D01*
X0102176Y0068567D01*
X0102001Y0068465D01*
X0101828Y0068359D01*
X0101658Y0068248D01*
X0101490Y0068133D01*
X0101326Y0068014D01*
X0101164Y0067891D01*
X0101006Y0067765D01*
X0100850Y0067634D01*
X0100698Y0067500D01*
X0100549Y0067362D01*
X0100403Y0067221D01*
X0100261Y0067076D01*
X0100123Y0066927D01*
X0099988Y0066776D01*
X0099857Y0066621D01*
X0099730Y0066463D01*
X0099606Y0066301D01*
X0099487Y0066137D01*
X0099371Y0065970D01*
X0099260Y0065801D01*
X0099152Y0065628D01*
X0099049Y0065453D01*
X0098951Y0065276D01*
X0099034Y0065232D01*
X0099131Y0065407D01*
X0099233Y0065580D01*
X0099339Y0065750D01*
X0099449Y0065918D01*
X0099563Y0066083D01*
X0099682Y0066245D01*
X0099804Y0066405D01*
X0099930Y0066561D01*
X0100059Y0066714D01*
X0100193Y0066864D01*
X0100329Y0067011D01*
X0100470Y0067154D01*
X0100614Y0067294D01*
X0100761Y0067430D01*
X0100912Y0067563D01*
X0101065Y0067692D01*
X0101222Y0067817D01*
X0101382Y0067939D01*
X0101545Y0068056D01*
X0101710Y0068170D01*
X0101878Y0068279D01*
X0102049Y0068385D01*
X0102222Y0068486D01*
X0102398Y0068583D01*
X0102576Y0068675D01*
X0102756Y0068763D01*
X0102939Y0068847D01*
X0103123Y0068927D01*
X0103309Y0069002D01*
X0103497Y0069072D01*
X0103687Y0069138D01*
X0103878Y0069199D01*
X0104070Y0069255D01*
X0104264Y0069307D01*
X0104459Y0069354D01*
X0104655Y0069397D01*
X0104853Y0069434D01*
X0105051Y0069467D01*
X0105249Y0069495D01*
X0105449Y0069518D01*
X0105648Y0069536D01*
X0105849Y0069550D01*
X0106049Y0069558D01*
X0106250Y0069562D01*
X0106250Y0069468D01*
X0106051Y0069464D01*
X0105853Y0069456D01*
X0105655Y0069443D01*
X0105458Y0069424D01*
X0105261Y0069402D01*
X0105064Y0069374D01*
X0104869Y0069342D01*
X0104674Y0069304D01*
X0104480Y0069263D01*
X0104287Y0069216D01*
X0104095Y0069165D01*
X0103905Y0069109D01*
X0103716Y0069049D01*
X0103529Y0068984D01*
X0103343Y0068914D01*
X0103159Y0068840D01*
X0102977Y0068761D01*
X0102797Y0068678D01*
X0102618Y0068591D01*
X0102442Y0068500D01*
X0102269Y0068404D01*
X0102097Y0068304D01*
X0101929Y0068200D01*
X0101762Y0068092D01*
X0101599Y0067979D01*
X0101438Y0067863D01*
X0101280Y0067743D01*
X0101125Y0067619D01*
X0100973Y0067492D01*
X0100824Y0067361D01*
X0100679Y0067226D01*
X0100536Y0067088D01*
X0100398Y0066946D01*
X0100262Y0066801D01*
X0100130Y0066653D01*
X0100002Y0066501D01*
X0099878Y0066347D01*
X0099757Y0066190D01*
X0099640Y0066029D01*
X0099527Y0065866D01*
X0099419Y0065700D01*
X0099314Y0065532D01*
X0099213Y0065361D01*
X0099117Y0065188D01*
X0099199Y0065143D01*
X0099295Y0065315D01*
X0099394Y0065484D01*
X0099498Y0065650D01*
X0099606Y0065814D01*
X0099717Y0065975D01*
X0099833Y0066134D01*
X0099952Y0066289D01*
X0100075Y0066442D01*
X0100202Y0066591D01*
X0100332Y0066738D01*
X0100466Y0066881D01*
X0100603Y0067021D01*
X0100744Y0067158D01*
X0100887Y0067291D01*
X0101034Y0067421D01*
X0101185Y0067547D01*
X0101338Y0067669D01*
X0101494Y0067788D01*
X0101653Y0067903D01*
X0101815Y0068013D01*
X0101979Y0068120D01*
X0102146Y0068223D01*
X0102315Y0068322D01*
X0102487Y0068417D01*
X0102661Y0068507D01*
X0102837Y0068594D01*
X0103015Y0068675D01*
X0103195Y0068753D01*
X0103377Y0068826D01*
X0103560Y0068895D01*
X0103746Y0068959D01*
X0103932Y0069019D01*
X0104120Y0069074D01*
X0104310Y0069125D01*
X0104500Y0069171D01*
X0104692Y0069212D01*
X0104885Y0069249D01*
X0105078Y0069281D01*
X0105272Y0069308D01*
X0105467Y0069331D01*
X0105662Y0069349D01*
X0105858Y0069362D01*
X0106054Y0069370D01*
X0106250Y0069374D01*
X0106250Y0069280D01*
X0106056Y0069276D01*
X0105862Y0069268D01*
X0105669Y0069255D01*
X0105476Y0069237D01*
X0105284Y0069215D01*
X0105092Y0069188D01*
X0104901Y0069156D01*
X0104710Y0069120D01*
X0104521Y0069079D01*
X0104333Y0069034D01*
X0104146Y0068984D01*
X0103960Y0068929D01*
X0103775Y0068870D01*
X0103592Y0068807D01*
X0103411Y0068739D01*
X0103231Y0068666D01*
X0103053Y0068590D01*
X0102877Y0068509D01*
X0102703Y0068423D01*
X0102531Y0068334D01*
X0102361Y0068240D01*
X0102194Y0068143D01*
X0102029Y0068041D01*
X0101867Y0067935D01*
X0101707Y0067826D01*
X0101550Y0067712D01*
X0101396Y0067595D01*
X0101244Y0067474D01*
X0101096Y0067350D01*
X0100951Y0067222D01*
X0100808Y0067090D01*
X0100669Y0066955D01*
X0100534Y0066817D01*
X0100402Y0066675D01*
X0100273Y0066530D01*
X0100148Y0066382D01*
X0100026Y0066231D01*
X0099908Y0066078D01*
X0099794Y0065921D01*
X0099684Y0065762D01*
X0099578Y0065600D01*
X0099475Y0065435D01*
X0099377Y0065268D01*
X0099282Y0065099D01*
X0099365Y0065055D01*
X0099459Y0065222D01*
X0099556Y0065387D01*
X0099657Y0065550D01*
X0099762Y0065710D01*
X0099871Y0065867D01*
X0099984Y0066022D01*
X0100100Y0066174D01*
X0100220Y0066323D01*
X0100344Y0066469D01*
X0100471Y0066612D01*
X0100602Y0066752D01*
X0100736Y0066888D01*
X0100873Y0067022D01*
X0101014Y0067152D01*
X0101157Y0067279D01*
X0101304Y0067402D01*
X0101454Y0067521D01*
X0101606Y0067637D01*
X0101761Y0067749D01*
X0101919Y0067857D01*
X0102080Y0067962D01*
X0102243Y0068062D01*
X0102408Y0068159D01*
X0102575Y0068251D01*
X0102745Y0068339D01*
X0102917Y0068424D01*
X0103091Y0068504D01*
X0103267Y0068579D01*
X0103445Y0068651D01*
X0103624Y0068718D01*
X0103805Y0068781D01*
X0103987Y0068839D01*
X0104171Y0068893D01*
X0104356Y0068943D01*
X0104542Y0068987D01*
X0104729Y0069028D01*
X0104917Y0069064D01*
X0105106Y0069095D01*
X0105295Y0069122D01*
X0105485Y0069144D01*
X0105676Y0069161D01*
X0105867Y0069174D01*
X0106058Y0069182D01*
X0106250Y0069186D01*
X0106250Y0069092D01*
X0106061Y0069088D01*
X0105872Y0069080D01*
X0105683Y0069068D01*
X0105495Y0069050D01*
X0105307Y0069028D01*
X0105120Y0069002D01*
X0104933Y0068971D01*
X0104747Y0068936D01*
X0104562Y0068896D01*
X0104378Y0068851D01*
X0104196Y0068802D01*
X0104014Y0068749D01*
X0103834Y0068692D01*
X0103656Y0068630D01*
X0103478Y0068563D01*
X0103303Y0068493D01*
X0103129Y0068418D01*
X0102957Y0068339D01*
X0102788Y0068255D01*
X0102620Y0068168D01*
X0102454Y0068077D01*
X0102291Y0067981D01*
X0102130Y0067882D01*
X0101971Y0067779D01*
X0101815Y0067672D01*
X0101662Y0067561D01*
X0101511Y0067447D01*
X0101364Y0067329D01*
X0101219Y0067207D01*
X0101077Y0067082D01*
X0100938Y0066954D01*
X0100803Y0066822D01*
X0100670Y0066687D01*
X0100541Y0066549D01*
X0100415Y0066407D01*
X0100293Y0066263D01*
X0100174Y0066116D01*
X0100059Y0065966D01*
X0099948Y0065813D01*
X0099840Y0065657D01*
X0099736Y0065499D01*
X0099636Y0065339D01*
X0099540Y0065176D01*
X0099448Y0065011D01*
X0099531Y0064966D01*
X0099622Y0065130D01*
X0099717Y0065291D01*
X0099816Y0065449D01*
X0099918Y0065605D01*
X0100025Y0065759D01*
X0100135Y0065910D01*
X0100249Y0066058D01*
X0100366Y0066204D01*
X0100487Y0066346D01*
X0100611Y0066486D01*
X0100738Y0066622D01*
X0100869Y0066756D01*
X0101003Y0066886D01*
X0101140Y0067013D01*
X0101280Y0067136D01*
X0101423Y0067256D01*
X0101569Y0067373D01*
X0101718Y0067486D01*
X0101870Y0067595D01*
X0102024Y0067701D01*
X0102180Y0067803D01*
X0102339Y0067901D01*
X0102501Y0067995D01*
X0102664Y0068085D01*
X0102830Y0068172D01*
X0102998Y0068254D01*
X0103167Y0068332D01*
X0103339Y0068406D01*
X0103512Y0068475D01*
X0103687Y0068541D01*
X0103864Y0068602D01*
X0104042Y0068659D01*
X0104221Y0068712D01*
X0104401Y0068760D01*
X0104583Y0068804D01*
X0104766Y0068844D01*
X0104949Y0068879D01*
X0105133Y0068909D01*
X0105318Y0068935D01*
X0105504Y0068957D01*
X0105690Y0068974D01*
X0105876Y0068986D01*
X0106063Y0068994D01*
X0106250Y0068998D01*
X0106250Y0068904D01*
X0106065Y0068900D01*
X0105881Y0068892D01*
X0105697Y0068880D01*
X0105513Y0068863D01*
X0105330Y0068842D01*
X0105147Y0068816D01*
X0104965Y0068786D01*
X0104784Y0068751D01*
X0104604Y0068712D01*
X0104424Y0068669D01*
X0104246Y0068621D01*
X0104069Y0068569D01*
X0103893Y0068513D01*
X0103719Y0068453D01*
X0103546Y0068388D01*
X0103375Y0068319D01*
X0103206Y0068246D01*
X0103038Y0068169D01*
X0102872Y0068088D01*
X0102709Y0068002D01*
X0102547Y0067913D01*
X0102388Y0067820D01*
X0102231Y0067723D01*
X0102076Y0067623D01*
X0101924Y0067518D01*
X0101774Y0067410D01*
X0101627Y0067299D01*
X0101483Y0067184D01*
X0101342Y0067065D01*
X0101203Y0066943D01*
X0101068Y0066818D01*
X0100936Y0066689D01*
X0100806Y0066557D01*
X0100680Y0066423D01*
X0100558Y0066285D01*
X0100439Y0066144D01*
X0100323Y0066000D01*
X0100210Y0065854D01*
X0100102Y0065705D01*
X0099997Y0065553D01*
X0099895Y0065399D01*
X0099798Y0065242D01*
X0099704Y0065083D01*
X0099614Y0064922D01*
X0098989Y0057065D02*
X0099770Y0057511D01*
X0099863Y0057354D01*
X0099960Y0057200D01*
X0100061Y0057048D01*
X0100166Y0056899D01*
X0100274Y0056752D01*
X0100385Y0056607D01*
X0100500Y0056466D01*
X0100619Y0056327D01*
X0100741Y0056192D01*
X0100866Y0056059D01*
X0100994Y0055929D01*
X0101125Y0055803D01*
X0101259Y0055679D01*
X0101396Y0055559D01*
X0101536Y0055442D01*
X0101679Y0055329D01*
X0101825Y0055219D01*
X0101973Y0055113D01*
X0102124Y0055010D01*
X0102277Y0054911D01*
X0102432Y0054816D01*
X0102590Y0054725D01*
X0102750Y0054637D01*
X0102912Y0054553D01*
X0103075Y0054473D01*
X0103241Y0054397D01*
X0103409Y0054326D01*
X0103578Y0054258D01*
X0103749Y0054194D01*
X0103921Y0054135D01*
X0104095Y0054079D01*
X0104270Y0054028D01*
X0104446Y0053981D01*
X0104623Y0053939D01*
X0104802Y0053900D01*
X0104981Y0053866D01*
X0105161Y0053836D01*
X0105341Y0053811D01*
X0105522Y0053790D01*
X0105704Y0053774D01*
X0105886Y0053761D01*
X0106068Y0053754D01*
X0106250Y0053750D01*
X0106251Y0052851D01*
X0106250Y0052850D01*
X0106046Y0052854D01*
X0105842Y0052862D01*
X0105638Y0052876D01*
X0105434Y0052894D01*
X0105231Y0052918D01*
X0105029Y0052946D01*
X0104827Y0052979D01*
X0104627Y0053017D01*
X0104427Y0053060D01*
X0104228Y0053108D01*
X0104031Y0053160D01*
X0103835Y0053218D01*
X0103640Y0053280D01*
X0103447Y0053346D01*
X0103255Y0053418D01*
X0103066Y0053494D01*
X0102878Y0053574D01*
X0102692Y0053659D01*
X0102508Y0053749D01*
X0102327Y0053842D01*
X0102148Y0053941D01*
X0101971Y0054043D01*
X0101797Y0054150D01*
X0101625Y0054261D01*
X0101456Y0054376D01*
X0101290Y0054495D01*
X0101127Y0054618D01*
X0100967Y0054745D01*
X0100810Y0054876D01*
X0100656Y0055011D01*
X0100506Y0055149D01*
X0100359Y0055291D01*
X0100215Y0055436D01*
X0100075Y0055585D01*
X0099939Y0055737D01*
X0099806Y0055893D01*
X0099678Y0056051D01*
X0099553Y0056213D01*
X0099432Y0056378D01*
X0099315Y0056545D01*
X0099202Y0056716D01*
X0099093Y0056889D01*
X0098988Y0057064D01*
X0099070Y0057111D01*
X0099173Y0056937D01*
X0099281Y0056766D01*
X0099393Y0056598D01*
X0099508Y0056432D01*
X0099628Y0056269D01*
X0099752Y0056110D01*
X0099879Y0055953D01*
X0100010Y0055799D01*
X0100145Y0055649D01*
X0100283Y0055501D01*
X0100425Y0055358D01*
X0100571Y0055217D01*
X0100719Y0055081D01*
X0100871Y0054948D01*
X0101027Y0054818D01*
X0101185Y0054693D01*
X0101346Y0054571D01*
X0101510Y0054453D01*
X0101677Y0054339D01*
X0101847Y0054230D01*
X0102019Y0054124D01*
X0102194Y0054023D01*
X0102371Y0053925D01*
X0102550Y0053833D01*
X0102732Y0053744D01*
X0102916Y0053660D01*
X0103101Y0053580D01*
X0103289Y0053505D01*
X0103478Y0053435D01*
X0103669Y0053369D01*
X0103862Y0053308D01*
X0104056Y0053251D01*
X0104251Y0053199D01*
X0104447Y0053152D01*
X0104645Y0053110D01*
X0104843Y0053072D01*
X0105043Y0053039D01*
X0105243Y0053011D01*
X0105444Y0052988D01*
X0105645Y0052970D01*
X0105846Y0052956D01*
X0106048Y0052948D01*
X0106250Y0052944D01*
X0106250Y0053038D01*
X0106051Y0053042D01*
X0105851Y0053050D01*
X0105652Y0053063D01*
X0105453Y0053082D01*
X0105254Y0053104D01*
X0105057Y0053132D01*
X0104859Y0053165D01*
X0104663Y0053202D01*
X0104468Y0053244D01*
X0104274Y0053290D01*
X0104081Y0053342D01*
X0103889Y0053398D01*
X0103699Y0053458D01*
X0103510Y0053523D01*
X0103323Y0053593D01*
X0103137Y0053667D01*
X0102954Y0053746D01*
X0102772Y0053829D01*
X0102592Y0053917D01*
X0102415Y0054008D01*
X0102240Y0054104D01*
X0102067Y0054205D01*
X0101897Y0054309D01*
X0101729Y0054418D01*
X0101564Y0054530D01*
X0101402Y0054646D01*
X0101243Y0054767D01*
X0101086Y0054891D01*
X0100933Y0055019D01*
X0100782Y0055150D01*
X0100635Y0055286D01*
X0100492Y0055424D01*
X0100351Y0055566D01*
X0100214Y0055712D01*
X0100081Y0055861D01*
X0099951Y0056013D01*
X0099825Y0056168D01*
X0099703Y0056326D01*
X0099585Y0056487D01*
X0099471Y0056650D01*
X0099360Y0056817D01*
X0099254Y0056986D01*
X0099152Y0057157D01*
X0099233Y0057204D01*
X0099334Y0057034D01*
X0099439Y0056867D01*
X0099549Y0056703D01*
X0099662Y0056541D01*
X0099779Y0056382D01*
X0099899Y0056226D01*
X0100024Y0056072D01*
X0100152Y0055922D01*
X0100284Y0055775D01*
X0100419Y0055631D01*
X0100558Y0055491D01*
X0100700Y0055354D01*
X0100845Y0055220D01*
X0100994Y0055090D01*
X0101146Y0054964D01*
X0101300Y0054841D01*
X0101458Y0054722D01*
X0101618Y0054607D01*
X0101781Y0054496D01*
X0101947Y0054389D01*
X0102115Y0054285D01*
X0102286Y0054186D01*
X0102459Y0054091D01*
X0102635Y0054001D01*
X0102812Y0053914D01*
X0102992Y0053832D01*
X0103173Y0053754D01*
X0103356Y0053681D01*
X0103541Y0053612D01*
X0103728Y0053548D01*
X0103916Y0053488D01*
X0104106Y0053432D01*
X0104296Y0053382D01*
X0104488Y0053335D01*
X0104681Y0053294D01*
X0104875Y0053257D01*
X0105070Y0053225D01*
X0105266Y0053198D01*
X0105462Y0053175D01*
X0105659Y0053157D01*
X0105856Y0053144D01*
X0106053Y0053136D01*
X0106250Y0053132D01*
X0106250Y0053226D01*
X0106055Y0053230D01*
X0105860Y0053238D01*
X0105665Y0053251D01*
X0105471Y0053269D01*
X0105277Y0053291D01*
X0105084Y0053318D01*
X0104891Y0053350D01*
X0104700Y0053386D01*
X0104509Y0053427D01*
X0104319Y0053473D01*
X0104131Y0053523D01*
X0103943Y0053578D01*
X0103757Y0053637D01*
X0103573Y0053700D01*
X0103390Y0053769D01*
X0103209Y0053841D01*
X0103030Y0053918D01*
X0102852Y0053999D01*
X0102677Y0054085D01*
X0102503Y0054174D01*
X0102332Y0054268D01*
X0102164Y0054366D01*
X0101997Y0054468D01*
X0101833Y0054574D01*
X0101672Y0054684D01*
X0101514Y0054798D01*
X0101358Y0054915D01*
X0101205Y0055037D01*
X0101055Y0055162D01*
X0100908Y0055290D01*
X0100765Y0055422D01*
X0100624Y0055558D01*
X0100487Y0055697D01*
X0100353Y0055839D01*
X0100223Y0055984D01*
X0100096Y0056132D01*
X0099973Y0056284D01*
X0099854Y0056438D01*
X0099738Y0056595D01*
X0099627Y0056755D01*
X0099519Y0056918D01*
X0099415Y0057083D01*
X0099315Y0057251D01*
X0099396Y0057297D01*
X0099495Y0057132D01*
X0099598Y0056968D01*
X0099705Y0056808D01*
X0099815Y0056650D01*
X0099929Y0056494D01*
X0100047Y0056342D01*
X0100169Y0056192D01*
X0100294Y0056046D01*
X0100423Y0055902D01*
X0100555Y0055762D01*
X0100690Y0055624D01*
X0100829Y0055490D01*
X0100971Y0055360D01*
X0101116Y0055233D01*
X0101264Y0055109D01*
X0101415Y0054990D01*
X0101569Y0054873D01*
X0101726Y0054761D01*
X0101885Y0054652D01*
X0102047Y0054548D01*
X0102212Y0054447D01*
X0102378Y0054350D01*
X0102548Y0054257D01*
X0102719Y0054169D01*
X0102892Y0054084D01*
X0103068Y0054004D01*
X0103245Y0053928D01*
X0103424Y0053856D01*
X0103605Y0053789D01*
X0103787Y0053726D01*
X0103971Y0053668D01*
X0104156Y0053614D01*
X0104342Y0053564D01*
X0104530Y0053519D01*
X0104718Y0053478D01*
X0104907Y0053442D01*
X0105098Y0053411D01*
X0105289Y0053384D01*
X0105480Y0053362D01*
X0105672Y0053345D01*
X0105865Y0053332D01*
X0106057Y0053324D01*
X0106250Y0053320D01*
X0106250Y0053414D01*
X0106060Y0053418D01*
X0105869Y0053426D01*
X0105679Y0053438D01*
X0105489Y0053456D01*
X0105300Y0053478D01*
X0105112Y0053504D01*
X0104924Y0053535D01*
X0104736Y0053571D01*
X0104550Y0053611D01*
X0104365Y0053655D01*
X0104181Y0053704D01*
X0103998Y0053758D01*
X0103816Y0053815D01*
X0103636Y0053878D01*
X0103458Y0053944D01*
X0103281Y0054015D01*
X0103106Y0054090D01*
X0102932Y0054169D01*
X0102761Y0054253D01*
X0102592Y0054340D01*
X0102425Y0054432D01*
X0102260Y0054528D01*
X0102097Y0054627D01*
X0101937Y0054731D01*
X0101780Y0054838D01*
X0101625Y0054949D01*
X0101473Y0055064D01*
X0101324Y0055182D01*
X0101178Y0055304D01*
X0101034Y0055430D01*
X0100894Y0055559D01*
X0100757Y0055691D01*
X0100623Y0055827D01*
X0100492Y0055965D01*
X0100365Y0056107D01*
X0100241Y0056252D01*
X0100121Y0056400D01*
X0100005Y0056551D01*
X0099892Y0056704D01*
X0099783Y0056860D01*
X0099677Y0057019D01*
X0099576Y0057180D01*
X0099478Y0057344D01*
X0099560Y0057391D01*
X0099656Y0057229D01*
X0099756Y0057070D01*
X0099860Y0056913D01*
X0099968Y0056758D01*
X0100080Y0056607D01*
X0100195Y0056458D01*
X0100314Y0056312D01*
X0100436Y0056169D01*
X0100562Y0056029D01*
X0100691Y0055892D01*
X0100823Y0055758D01*
X0100959Y0055627D01*
X0101097Y0055500D01*
X0101239Y0055376D01*
X0101383Y0055255D01*
X0101531Y0055138D01*
X0101681Y0055025D01*
X0101834Y0054915D01*
X0101990Y0054809D01*
X0102148Y0054707D01*
X0102308Y0054608D01*
X0102471Y0054514D01*
X0102636Y0054423D01*
X0102803Y0054337D01*
X0102972Y0054254D01*
X0103143Y0054176D01*
X0103316Y0054102D01*
X0103491Y0054032D01*
X0103668Y0053966D01*
X0103846Y0053905D01*
X0104025Y0053848D01*
X0104206Y0053795D01*
X0104388Y0053746D01*
X0104571Y0053702D01*
X0104755Y0053663D01*
X0104940Y0053628D01*
X0105125Y0053597D01*
X0105312Y0053571D01*
X0105499Y0053549D01*
X0105686Y0053532D01*
X0105874Y0053520D01*
X0106062Y0053512D01*
X0106250Y0053508D01*
X0106250Y0053602D01*
X0106064Y0053606D01*
X0105879Y0053614D01*
X0105693Y0053626D01*
X0105508Y0053643D01*
X0105323Y0053664D01*
X0105139Y0053690D01*
X0104956Y0053720D01*
X0104773Y0053755D01*
X0104591Y0053794D01*
X0104410Y0053838D01*
X0104231Y0053885D01*
X0104052Y0053938D01*
X0103875Y0053994D01*
X0103699Y0054055D01*
X0103525Y0054120D01*
X0103352Y0054189D01*
X0103181Y0054262D01*
X0103012Y0054339D01*
X0102845Y0054421D01*
X0102680Y0054506D01*
X0102517Y0054596D01*
X0102356Y0054689D01*
X0102198Y0054786D01*
X0102042Y0054887D01*
X0101888Y0054992D01*
X0101737Y0055100D01*
X0101588Y0055212D01*
X0101443Y0055328D01*
X0101300Y0055447D01*
X0101160Y0055569D01*
X0101023Y0055695D01*
X0100889Y0055824D01*
X0100759Y0055957D01*
X0100631Y0056092D01*
X0100507Y0056230D01*
X0100386Y0056372D01*
X0100269Y0056516D01*
X0100155Y0056663D01*
X0100045Y0056813D01*
X0099938Y0056965D01*
X0099836Y0057120D01*
X0099737Y0057278D01*
X0099641Y0057437D01*
X0099723Y0057484D01*
X0099817Y0057326D01*
X0099915Y0057171D01*
X0100016Y0057018D01*
X0100122Y0056867D01*
X0100231Y0056719D01*
X0100343Y0056574D01*
X0100459Y0056432D01*
X0100578Y0056292D01*
X0100701Y0056155D01*
X0100827Y0056022D01*
X0100956Y0055891D01*
X0101088Y0055763D01*
X0101223Y0055639D01*
X0101361Y0055518D01*
X0101502Y0055401D01*
X0101646Y0055287D01*
X0101793Y0055176D01*
X0101942Y0055069D01*
X0102094Y0054965D01*
X0102248Y0054866D01*
X0102404Y0054770D01*
X0102563Y0054678D01*
X0102724Y0054589D01*
X0102887Y0054505D01*
X0103052Y0054424D01*
X0103219Y0054348D01*
X0103388Y0054276D01*
X0103559Y0054207D01*
X0103731Y0054143D01*
X0103904Y0054083D01*
X0104079Y0054027D01*
X0104256Y0053976D01*
X0104433Y0053929D01*
X0104612Y0053886D01*
X0104791Y0053847D01*
X0104972Y0053813D01*
X0105153Y0053783D01*
X0105335Y0053758D01*
X0105517Y0053736D01*
X0105700Y0053720D01*
X0105883Y0053707D01*
X0106067Y0053700D01*
X0106250Y0053696D01*
X0106349Y0052851D02*
X0106349Y0053751D01*
X0106350Y0053750D02*
X0106534Y0053754D01*
X0106719Y0053762D01*
X0106903Y0053774D01*
X0107086Y0053791D01*
X0107270Y0053813D01*
X0107452Y0053838D01*
X0107634Y0053869D01*
X0107815Y0053904D01*
X0107996Y0053943D01*
X0108175Y0053987D01*
X0108353Y0054035D01*
X0108530Y0054087D01*
X0108706Y0054144D01*
X0108880Y0054204D01*
X0109052Y0054270D01*
X0109223Y0054339D01*
X0109393Y0054412D01*
X0109560Y0054490D01*
X0109725Y0054572D01*
X0109889Y0054657D01*
X0110050Y0054747D01*
X0110209Y0054841D01*
X0110366Y0054938D01*
X0110520Y0055039D01*
X0110672Y0055144D01*
X0110821Y0055253D01*
X0110967Y0055365D01*
X0111111Y0055481D01*
X0111251Y0055600D01*
X0111389Y0055723D01*
X0111524Y0055849D01*
X0111656Y0055978D01*
X0111784Y0056111D01*
X0111909Y0056246D01*
X0112031Y0056385D01*
X0112718Y0055804D01*
X0112582Y0055648D01*
X0112441Y0055496D01*
X0112297Y0055347D01*
X0112150Y0055202D01*
X0111999Y0055061D01*
X0111845Y0054924D01*
X0111687Y0054790D01*
X0111526Y0054660D01*
X0111362Y0054534D01*
X0111195Y0054412D01*
X0111025Y0054294D01*
X0110852Y0054181D01*
X0110676Y0054072D01*
X0110498Y0053967D01*
X0110317Y0053866D01*
X0110134Y0053770D01*
X0109949Y0053678D01*
X0109761Y0053591D01*
X0109571Y0053509D01*
X0109380Y0053431D01*
X0109186Y0053358D01*
X0108991Y0053290D01*
X0108794Y0053226D01*
X0108596Y0053168D01*
X0108396Y0053114D01*
X0108195Y0053065D01*
X0107993Y0053021D01*
X0107790Y0052982D01*
X0107586Y0052948D01*
X0107381Y0052919D01*
X0107176Y0052895D01*
X0106970Y0052877D01*
X0106763Y0052863D01*
X0106557Y0052854D01*
X0106350Y0052850D01*
X0106350Y0052944D01*
X0106554Y0052948D01*
X0106759Y0052957D01*
X0106963Y0052970D01*
X0107166Y0052989D01*
X0107369Y0053013D01*
X0107572Y0053041D01*
X0107774Y0053075D01*
X0107974Y0053113D01*
X0108174Y0053157D01*
X0108373Y0053205D01*
X0108570Y0053258D01*
X0108767Y0053316D01*
X0108961Y0053379D01*
X0109154Y0053447D01*
X0109346Y0053519D01*
X0109535Y0053596D01*
X0109723Y0053677D01*
X0109908Y0053763D01*
X0110091Y0053854D01*
X0110273Y0053949D01*
X0110451Y0054048D01*
X0110627Y0054152D01*
X0110801Y0054260D01*
X0110972Y0054372D01*
X0111140Y0054489D01*
X0111305Y0054609D01*
X0111468Y0054734D01*
X0111627Y0054862D01*
X0111783Y0054994D01*
X0111935Y0055130D01*
X0112085Y0055270D01*
X0112230Y0055413D01*
X0112373Y0055560D01*
X0112511Y0055711D01*
X0112646Y0055864D01*
X0112575Y0055925D01*
X0112441Y0055773D01*
X0112304Y0055624D01*
X0112163Y0055479D01*
X0112019Y0055338D01*
X0111872Y0055199D01*
X0111721Y0055065D01*
X0111567Y0054934D01*
X0111409Y0054807D01*
X0111249Y0054684D01*
X0111085Y0054565D01*
X0110919Y0054450D01*
X0110750Y0054339D01*
X0110579Y0054232D01*
X0110404Y0054130D01*
X0110228Y0054031D01*
X0110049Y0053937D01*
X0109867Y0053848D01*
X0109684Y0053763D01*
X0109499Y0053682D01*
X0109311Y0053606D01*
X0109122Y0053535D01*
X0108931Y0053468D01*
X0108739Y0053406D01*
X0108545Y0053349D01*
X0108350Y0053296D01*
X0108153Y0053249D01*
X0107956Y0053206D01*
X0107757Y0053168D01*
X0107558Y0053134D01*
X0107358Y0053106D01*
X0107157Y0053083D01*
X0106956Y0053064D01*
X0106754Y0053050D01*
X0106552Y0053042D01*
X0106350Y0053038D01*
X0106350Y0053132D01*
X0106550Y0053136D01*
X0106749Y0053144D01*
X0106949Y0053158D01*
X0107148Y0053176D01*
X0107346Y0053199D01*
X0107544Y0053227D01*
X0107741Y0053260D01*
X0107937Y0053298D01*
X0108133Y0053340D01*
X0108327Y0053387D01*
X0108520Y0053439D01*
X0108711Y0053496D01*
X0108902Y0053557D01*
X0109090Y0053623D01*
X0109277Y0053694D01*
X0109462Y0053769D01*
X0109646Y0053849D01*
X0109827Y0053933D01*
X0110006Y0054021D01*
X0110183Y0054114D01*
X0110358Y0054211D01*
X0110530Y0054313D01*
X0110699Y0054418D01*
X0110867Y0054528D01*
X0111031Y0054642D01*
X0111192Y0054759D01*
X0111351Y0054881D01*
X0111506Y0055006D01*
X0111659Y0055136D01*
X0111808Y0055269D01*
X0111954Y0055405D01*
X0112096Y0055545D01*
X0112235Y0055689D01*
X0112371Y0055836D01*
X0112503Y0055986D01*
X0112431Y0056046D01*
X0112301Y0055898D01*
X0112167Y0055753D01*
X0112029Y0055611D01*
X0111888Y0055473D01*
X0111744Y0055338D01*
X0111597Y0055206D01*
X0111446Y0055079D01*
X0111292Y0054955D01*
X0111136Y0054834D01*
X0110976Y0054718D01*
X0110814Y0054606D01*
X0110649Y0054497D01*
X0110481Y0054393D01*
X0110311Y0054293D01*
X0110138Y0054197D01*
X0109963Y0054105D01*
X0109786Y0054017D01*
X0109607Y0053934D01*
X0109426Y0053856D01*
X0109243Y0053781D01*
X0109058Y0053712D01*
X0108872Y0053647D01*
X0108684Y0053586D01*
X0108494Y0053530D01*
X0108304Y0053479D01*
X0108112Y0053432D01*
X0107919Y0053390D01*
X0107725Y0053353D01*
X0107530Y0053320D01*
X0107334Y0053293D01*
X0107138Y0053270D01*
X0106942Y0053252D01*
X0106745Y0053238D01*
X0106547Y0053230D01*
X0106350Y0053226D01*
X0106350Y0053320D01*
X0106545Y0053324D01*
X0106740Y0053332D01*
X0106935Y0053345D01*
X0107129Y0053363D01*
X0107323Y0053386D01*
X0107516Y0053413D01*
X0107709Y0053445D01*
X0107900Y0053482D01*
X0108091Y0053524D01*
X0108281Y0053570D01*
X0108469Y0053620D01*
X0108656Y0053676D01*
X0108842Y0053736D01*
X0109026Y0053800D01*
X0109209Y0053869D01*
X0109390Y0053942D01*
X0109569Y0054020D01*
X0109746Y0054102D01*
X0109921Y0054189D01*
X0110093Y0054279D01*
X0110264Y0054374D01*
X0110432Y0054473D01*
X0110598Y0054576D01*
X0110761Y0054683D01*
X0110922Y0054794D01*
X0111079Y0054909D01*
X0111234Y0055028D01*
X0111386Y0055151D01*
X0111535Y0055277D01*
X0111681Y0055407D01*
X0111823Y0055540D01*
X0111962Y0055677D01*
X0112098Y0055817D01*
X0112230Y0055961D01*
X0112359Y0056107D01*
X0112287Y0056168D01*
X0112160Y0056023D01*
X0112029Y0055881D01*
X0111895Y0055743D01*
X0111758Y0055608D01*
X0111617Y0055476D01*
X0111473Y0055348D01*
X0111326Y0055223D01*
X0111176Y0055102D01*
X0111023Y0054985D01*
X0110867Y0054871D01*
X0110708Y0054761D01*
X0110547Y0054655D01*
X0110383Y0054554D01*
X0110217Y0054456D01*
X0110049Y0054362D01*
X0109878Y0054272D01*
X0109705Y0054187D01*
X0109530Y0054106D01*
X0109353Y0054029D01*
X0109175Y0053957D01*
X0108994Y0053888D01*
X0108812Y0053825D01*
X0108629Y0053766D01*
X0108444Y0053711D01*
X0108258Y0053661D01*
X0108070Y0053615D01*
X0107882Y0053574D01*
X0107692Y0053538D01*
X0107502Y0053506D01*
X0107311Y0053479D01*
X0107120Y0053457D01*
X0106928Y0053439D01*
X0106735Y0053426D01*
X0106543Y0053418D01*
X0106350Y0053414D01*
X0106350Y0053508D01*
X0106540Y0053512D01*
X0106731Y0053520D01*
X0106921Y0053533D01*
X0107110Y0053550D01*
X0107300Y0053572D01*
X0107488Y0053599D01*
X0107676Y0053630D01*
X0107863Y0053666D01*
X0108049Y0053707D01*
X0108234Y0053752D01*
X0108418Y0053801D01*
X0108601Y0053856D01*
X0108782Y0053914D01*
X0108962Y0053977D01*
X0109140Y0054044D01*
X0109317Y0054116D01*
X0109492Y0054192D01*
X0109664Y0054272D01*
X0109835Y0054356D01*
X0110004Y0054445D01*
X0110170Y0054537D01*
X0110335Y0054634D01*
X0110496Y0054734D01*
X0110656Y0054839D01*
X0110812Y0054947D01*
X0110966Y0055060D01*
X0111117Y0055176D01*
X0111266Y0055295D01*
X0111411Y0055418D01*
X0111553Y0055545D01*
X0111692Y0055675D01*
X0111828Y0055809D01*
X0111961Y0055945D01*
X0112090Y0056085D01*
X0112216Y0056229D01*
X0112144Y0056289D01*
X0112020Y0056148D01*
X0111892Y0056010D01*
X0111761Y0055875D01*
X0111627Y0055743D01*
X0111490Y0055614D01*
X0111349Y0055489D01*
X0111205Y0055367D01*
X0111059Y0055249D01*
X0110910Y0055135D01*
X0110758Y0055024D01*
X0110603Y0054917D01*
X0110446Y0054814D01*
X0110286Y0054714D01*
X0110124Y0054619D01*
X0109959Y0054527D01*
X0109793Y0054440D01*
X0109624Y0054357D01*
X0109453Y0054277D01*
X0109281Y0054202D01*
X0109106Y0054132D01*
X0108930Y0054065D01*
X0108753Y0054003D01*
X0108573Y0053945D01*
X0108393Y0053892D01*
X0108211Y0053843D01*
X0108029Y0053799D01*
X0107845Y0053759D01*
X0107660Y0053723D01*
X0107474Y0053692D01*
X0107288Y0053666D01*
X0107101Y0053644D01*
X0106914Y0053627D01*
X0106726Y0053614D01*
X0106538Y0053606D01*
X0106350Y0053602D01*
X0106350Y0053696D01*
X0106536Y0053700D01*
X0106721Y0053708D01*
X0106907Y0053720D01*
X0107092Y0053737D01*
X0107276Y0053759D01*
X0107460Y0053785D01*
X0107644Y0053816D01*
X0107826Y0053851D01*
X0108008Y0053890D01*
X0108188Y0053934D01*
X0108368Y0053983D01*
X0108546Y0054035D01*
X0108723Y0054092D01*
X0108898Y0054154D01*
X0109072Y0054219D01*
X0109244Y0054289D01*
X0109415Y0054363D01*
X0109583Y0054441D01*
X0109750Y0054524D01*
X0109914Y0054610D01*
X0110077Y0054700D01*
X0110237Y0054795D01*
X0110395Y0054893D01*
X0110550Y0054995D01*
X0110703Y0055100D01*
X0110853Y0055210D01*
X0111001Y0055323D01*
X0111145Y0055440D01*
X0111287Y0055560D01*
X0111426Y0055683D01*
X0111562Y0055810D01*
X0111694Y0055940D01*
X0111823Y0056074D01*
X0111950Y0056210D01*
X0112072Y0056350D01*
X0112759Y0066748D02*
X0112067Y0066171D01*
X0112068Y0066172D02*
X0111949Y0066309D01*
X0111828Y0066443D01*
X0111703Y0066574D01*
X0111575Y0066702D01*
X0111444Y0066826D01*
X0111310Y0066948D01*
X0111173Y0067067D01*
X0111034Y0067182D01*
X0110891Y0067293D01*
X0110746Y0067402D01*
X0110599Y0067507D01*
X0110449Y0067608D01*
X0110297Y0067705D01*
X0110142Y0067799D01*
X0109985Y0067890D01*
X0109826Y0067976D01*
X0109665Y0068059D01*
X0109502Y0068137D01*
X0109337Y0068212D01*
X0109171Y0068283D01*
X0109003Y0068350D01*
X0108833Y0068412D01*
X0108662Y0068471D01*
X0108489Y0068526D01*
X0108316Y0068576D01*
X0108141Y0068622D01*
X0107965Y0068664D01*
X0107788Y0068702D01*
X0107610Y0068735D01*
X0107431Y0068765D01*
X0107252Y0068790D01*
X0107072Y0068810D01*
X0106892Y0068827D01*
X0106712Y0068839D01*
X0106531Y0068846D01*
X0106350Y0068850D01*
X0106349Y0069749D01*
X0106350Y0069750D01*
X0106553Y0069746D01*
X0106755Y0069738D01*
X0106958Y0069724D01*
X0107160Y0069706D01*
X0107361Y0069683D01*
X0107562Y0069655D01*
X0107762Y0069622D01*
X0107962Y0069585D01*
X0108160Y0069543D01*
X0108358Y0069496D01*
X0108554Y0069444D01*
X0108748Y0069387D01*
X0108942Y0069326D01*
X0109134Y0069261D01*
X0109324Y0069190D01*
X0109513Y0069115D01*
X0109699Y0069036D01*
X0109884Y0068952D01*
X0110067Y0068864D01*
X0110247Y0068771D01*
X0110425Y0068675D01*
X0110601Y0068573D01*
X0110774Y0068468D01*
X0110945Y0068359D01*
X0111113Y0068245D01*
X0111279Y0068128D01*
X0111441Y0068006D01*
X0111601Y0067881D01*
X0111757Y0067752D01*
X0111910Y0067619D01*
X0112060Y0067482D01*
X0112207Y0067342D01*
X0112350Y0067199D01*
X0112490Y0067052D01*
X0112627Y0066902D01*
X0112759Y0066748D01*
X0112687Y0066688D01*
X0112556Y0066840D01*
X0112421Y0066988D01*
X0112283Y0067133D01*
X0112141Y0067275D01*
X0111996Y0067414D01*
X0111848Y0067549D01*
X0111696Y0067680D01*
X0111541Y0067808D01*
X0111384Y0067932D01*
X0111223Y0068052D01*
X0111060Y0068168D01*
X0110893Y0068280D01*
X0110725Y0068388D01*
X0110553Y0068493D01*
X0110379Y0068593D01*
X0110203Y0068688D01*
X0110025Y0068780D01*
X0109844Y0068867D01*
X0109661Y0068950D01*
X0109477Y0069029D01*
X0109291Y0069103D01*
X0109102Y0069172D01*
X0108913Y0069237D01*
X0108721Y0069297D01*
X0108529Y0069353D01*
X0108335Y0069404D01*
X0108140Y0069451D01*
X0107944Y0069493D01*
X0107747Y0069530D01*
X0107549Y0069562D01*
X0107350Y0069590D01*
X0107151Y0069613D01*
X0106951Y0069631D01*
X0106751Y0069644D01*
X0106550Y0069652D01*
X0106350Y0069656D01*
X0106350Y0069562D01*
X0106548Y0069558D01*
X0106746Y0069550D01*
X0106944Y0069537D01*
X0107142Y0069519D01*
X0107339Y0069496D01*
X0107535Y0069469D01*
X0107731Y0069437D01*
X0107925Y0069401D01*
X0108119Y0069359D01*
X0108312Y0069313D01*
X0108504Y0069263D01*
X0108694Y0069207D01*
X0108883Y0069148D01*
X0109071Y0069083D01*
X0109257Y0069015D01*
X0109441Y0068942D01*
X0109624Y0068864D01*
X0109804Y0068782D01*
X0109983Y0068696D01*
X0110159Y0068605D01*
X0110333Y0068511D01*
X0110505Y0068412D01*
X0110675Y0068309D01*
X0110842Y0068202D01*
X0111006Y0068091D01*
X0111167Y0067976D01*
X0111326Y0067857D01*
X0111482Y0067735D01*
X0111635Y0067609D01*
X0111785Y0067479D01*
X0111932Y0067345D01*
X0112075Y0067208D01*
X0112215Y0067068D01*
X0112352Y0066925D01*
X0112485Y0066778D01*
X0112615Y0066628D01*
X0112543Y0066568D01*
X0112414Y0066716D01*
X0112283Y0066861D01*
X0112148Y0067003D01*
X0112009Y0067141D01*
X0111867Y0067277D01*
X0111722Y0067409D01*
X0111574Y0067537D01*
X0111423Y0067662D01*
X0111269Y0067783D01*
X0111112Y0067900D01*
X0110952Y0068014D01*
X0110790Y0068123D01*
X0110625Y0068229D01*
X0110457Y0068331D01*
X0110287Y0068429D01*
X0110115Y0068522D01*
X0109941Y0068612D01*
X0109764Y0068697D01*
X0109586Y0068778D01*
X0109406Y0068855D01*
X0109223Y0068927D01*
X0109040Y0068995D01*
X0108854Y0069058D01*
X0108667Y0069117D01*
X0108479Y0069172D01*
X0108290Y0069222D01*
X0108099Y0069267D01*
X0107907Y0069308D01*
X0107715Y0069345D01*
X0107521Y0069376D01*
X0107327Y0069403D01*
X0107132Y0069425D01*
X0106937Y0069443D01*
X0106742Y0069456D01*
X0106546Y0069464D01*
X0106350Y0069468D01*
X0106350Y0069374D01*
X0106544Y0069370D01*
X0106737Y0069362D01*
X0106930Y0069349D01*
X0107123Y0069332D01*
X0107316Y0069310D01*
X0107508Y0069283D01*
X0107699Y0069252D01*
X0107889Y0069216D01*
X0108079Y0069176D01*
X0108267Y0069131D01*
X0108454Y0069081D01*
X0108640Y0069027D01*
X0108825Y0068969D01*
X0109008Y0068906D01*
X0109190Y0068839D01*
X0109370Y0068768D01*
X0109548Y0068692D01*
X0109725Y0068612D01*
X0109899Y0068528D01*
X0110071Y0068439D01*
X0110241Y0068347D01*
X0110409Y0068250D01*
X0110575Y0068149D01*
X0110738Y0068045D01*
X0110898Y0067937D01*
X0111056Y0067824D01*
X0111211Y0067708D01*
X0111364Y0067589D01*
X0111513Y0067465D01*
X0111660Y0067339D01*
X0111803Y0067208D01*
X0111943Y0067075D01*
X0112080Y0066938D01*
X0112213Y0066797D01*
X0112344Y0066654D01*
X0112470Y0066507D01*
X0112398Y0066447D01*
X0112273Y0066592D01*
X0112144Y0066734D01*
X0112012Y0066872D01*
X0111877Y0067008D01*
X0111738Y0067140D01*
X0111597Y0067269D01*
X0111452Y0067394D01*
X0111305Y0067516D01*
X0111154Y0067634D01*
X0111001Y0067749D01*
X0110845Y0067859D01*
X0110686Y0067967D01*
X0110525Y0068070D01*
X0110361Y0068169D01*
X0110195Y0068265D01*
X0110027Y0068356D01*
X0109857Y0068443D01*
X0109685Y0068527D01*
X0109510Y0068606D01*
X0109334Y0068681D01*
X0109156Y0068751D01*
X0108977Y0068818D01*
X0108796Y0068880D01*
X0108613Y0068937D01*
X0108429Y0068991D01*
X0108244Y0069040D01*
X0108058Y0069084D01*
X0107871Y0069124D01*
X0107683Y0069159D01*
X0107494Y0069190D01*
X0107304Y0069217D01*
X0107114Y0069238D01*
X0106924Y0069256D01*
X0106733Y0069268D01*
X0106541Y0069276D01*
X0106350Y0069280D01*
X0106350Y0069186D01*
X0106539Y0069182D01*
X0106728Y0069174D01*
X0106917Y0069162D01*
X0107105Y0069145D01*
X0107293Y0069123D01*
X0107480Y0069097D01*
X0107667Y0069067D01*
X0107853Y0069032D01*
X0108038Y0068992D01*
X0108222Y0068948D01*
X0108404Y0068900D01*
X0108586Y0068847D01*
X0108766Y0068790D01*
X0108945Y0068729D01*
X0109123Y0068663D01*
X0109299Y0068594D01*
X0109473Y0068520D01*
X0109645Y0068442D01*
X0109815Y0068359D01*
X0109983Y0068273D01*
X0110149Y0068183D01*
X0110313Y0068088D01*
X0110475Y0067990D01*
X0110634Y0067888D01*
X0110791Y0067782D01*
X0110945Y0067673D01*
X0111097Y0067559D01*
X0111245Y0067443D01*
X0111391Y0067322D01*
X0111534Y0067199D01*
X0111674Y0067071D01*
X0111811Y0066941D01*
X0111945Y0066807D01*
X0112075Y0066670D01*
X0112202Y0066530D01*
X0112326Y0066387D01*
X0112254Y0066327D01*
X0112131Y0066468D01*
X0112006Y0066606D01*
X0111877Y0066742D01*
X0111745Y0066874D01*
X0111610Y0067003D01*
X0111471Y0067128D01*
X0111330Y0067251D01*
X0111186Y0067370D01*
X0111039Y0067485D01*
X0110890Y0067597D01*
X0110737Y0067705D01*
X0110582Y0067810D01*
X0110425Y0067910D01*
X0110265Y0068007D01*
X0110104Y0068101D01*
X0109939Y0068190D01*
X0109773Y0068275D01*
X0109605Y0068356D01*
X0109435Y0068434D01*
X0109263Y0068507D01*
X0109089Y0068576D01*
X0108914Y0068640D01*
X0108737Y0068701D01*
X0108559Y0068757D01*
X0108380Y0068809D01*
X0108199Y0068857D01*
X0108017Y0068900D01*
X0107835Y0068939D01*
X0107651Y0068974D01*
X0107467Y0069004D01*
X0107282Y0069030D01*
X0107096Y0069051D01*
X0106910Y0069068D01*
X0106723Y0069080D01*
X0106537Y0069088D01*
X0106350Y0069092D01*
X0106350Y0068998D01*
X0106534Y0068994D01*
X0106719Y0068987D01*
X0106903Y0068974D01*
X0107087Y0068958D01*
X0107270Y0068937D01*
X0107453Y0068911D01*
X0107635Y0068881D01*
X0107816Y0068847D01*
X0107997Y0068809D01*
X0108176Y0068766D01*
X0108355Y0068719D01*
X0108532Y0068667D01*
X0108708Y0068612D01*
X0108883Y0068552D01*
X0109056Y0068488D01*
X0109227Y0068420D01*
X0109397Y0068348D01*
X0109565Y0068271D01*
X0109731Y0068191D01*
X0109895Y0068107D01*
X0110058Y0068019D01*
X0110218Y0067927D01*
X0110375Y0067831D01*
X0110531Y0067731D01*
X0110684Y0067628D01*
X0110834Y0067521D01*
X0110982Y0067411D01*
X0111127Y0067297D01*
X0111269Y0067179D01*
X0111409Y0067058D01*
X0111545Y0066934D01*
X0111679Y0066807D01*
X0111809Y0066676D01*
X0111937Y0066543D01*
X0112061Y0066406D01*
X0112181Y0066267D01*
X0112109Y0066206D01*
X0111990Y0066344D01*
X0111867Y0066479D01*
X0111742Y0066611D01*
X0111613Y0066740D01*
X0111481Y0066866D01*
X0111346Y0066988D01*
X0111208Y0067108D01*
X0111068Y0067224D01*
X0110924Y0067336D01*
X0110778Y0067445D01*
X0110630Y0067551D01*
X0110479Y0067653D01*
X0110325Y0067751D01*
X0110170Y0067846D01*
X0110012Y0067937D01*
X0109851Y0068024D01*
X0109689Y0068107D01*
X0109525Y0068186D01*
X0109359Y0068261D01*
X0109191Y0068333D01*
X0109022Y0068400D01*
X0108851Y0068463D01*
X0108679Y0068522D01*
X0108505Y0068577D01*
X0108330Y0068628D01*
X0108154Y0068675D01*
X0107976Y0068717D01*
X0107798Y0068755D01*
X0107619Y0068789D01*
X0107439Y0068818D01*
X0107259Y0068843D01*
X0107078Y0068864D01*
X0106896Y0068881D01*
X0106714Y0068893D01*
X0106532Y0068900D01*
X0106350Y0068904D01*
D13*
X0112500Y0066400D02*
X0112500Y0064400D01*
X0112500Y0058000D02*
X0112500Y0056200D01*
X0112500Y0046400D02*
X0112500Y0044400D01*
X0112500Y0038000D02*
X0112500Y0036200D01*
M02*
