G75*
%MOIN*%
%OFA0B0*%
%FSLAX25Y25*%
%IPPOS*%
%LPD*%
%AMOC8*
5,1,8,0,0,1.08239X$1,22.5*
%
%ADD10C,0.00000*%
%ADD11R,0.07800X0.07800*%
%ADD12C,0.07800*%
%ADD13OC8,0.07000*%
%ADD14C,0.06400*%
D10*
X0021300Y0011300D02*
X0201300Y0011300D01*
X0201542Y0011303D01*
X0201783Y0011312D01*
X0202024Y0011326D01*
X0202265Y0011347D01*
X0202505Y0011373D01*
X0202745Y0011405D01*
X0202984Y0011443D01*
X0203221Y0011486D01*
X0203458Y0011536D01*
X0203693Y0011591D01*
X0203927Y0011651D01*
X0204159Y0011718D01*
X0204390Y0011789D01*
X0204619Y0011867D01*
X0204846Y0011950D01*
X0205071Y0012038D01*
X0205294Y0012132D01*
X0205514Y0012231D01*
X0205732Y0012336D01*
X0205947Y0012445D01*
X0206160Y0012560D01*
X0206370Y0012680D01*
X0206576Y0012805D01*
X0206780Y0012935D01*
X0206981Y0013070D01*
X0207178Y0013210D01*
X0207372Y0013354D01*
X0207562Y0013503D01*
X0207748Y0013657D01*
X0207931Y0013815D01*
X0208110Y0013977D01*
X0208285Y0014144D01*
X0208456Y0014315D01*
X0208623Y0014490D01*
X0208785Y0014669D01*
X0208943Y0014852D01*
X0209097Y0015038D01*
X0209246Y0015228D01*
X0209390Y0015422D01*
X0209530Y0015619D01*
X0209665Y0015820D01*
X0209795Y0016024D01*
X0209920Y0016230D01*
X0210040Y0016440D01*
X0210155Y0016653D01*
X0210264Y0016868D01*
X0210369Y0017086D01*
X0210468Y0017306D01*
X0210562Y0017529D01*
X0210650Y0017754D01*
X0210733Y0017981D01*
X0210811Y0018210D01*
X0210882Y0018441D01*
X0210949Y0018673D01*
X0211009Y0018907D01*
X0211064Y0019142D01*
X0211114Y0019379D01*
X0211157Y0019616D01*
X0211195Y0019855D01*
X0211227Y0020095D01*
X0211253Y0020335D01*
X0211274Y0020576D01*
X0211288Y0020817D01*
X0211297Y0021058D01*
X0211300Y0021300D01*
X0211300Y0081300D01*
X0211297Y0081542D01*
X0211288Y0081783D01*
X0211274Y0082024D01*
X0211253Y0082265D01*
X0211227Y0082505D01*
X0211195Y0082745D01*
X0211157Y0082984D01*
X0211114Y0083221D01*
X0211064Y0083458D01*
X0211009Y0083693D01*
X0210949Y0083927D01*
X0210882Y0084159D01*
X0210811Y0084390D01*
X0210733Y0084619D01*
X0210650Y0084846D01*
X0210562Y0085071D01*
X0210468Y0085294D01*
X0210369Y0085514D01*
X0210264Y0085732D01*
X0210155Y0085947D01*
X0210040Y0086160D01*
X0209920Y0086370D01*
X0209795Y0086576D01*
X0209665Y0086780D01*
X0209530Y0086981D01*
X0209390Y0087178D01*
X0209246Y0087372D01*
X0209097Y0087562D01*
X0208943Y0087748D01*
X0208785Y0087931D01*
X0208623Y0088110D01*
X0208456Y0088285D01*
X0208285Y0088456D01*
X0208110Y0088623D01*
X0207931Y0088785D01*
X0207748Y0088943D01*
X0207562Y0089097D01*
X0207372Y0089246D01*
X0207178Y0089390D01*
X0206981Y0089530D01*
X0206780Y0089665D01*
X0206576Y0089795D01*
X0206370Y0089920D01*
X0206160Y0090040D01*
X0205947Y0090155D01*
X0205732Y0090264D01*
X0205514Y0090369D01*
X0205294Y0090468D01*
X0205071Y0090562D01*
X0204846Y0090650D01*
X0204619Y0090733D01*
X0204390Y0090811D01*
X0204159Y0090882D01*
X0203927Y0090949D01*
X0203693Y0091009D01*
X0203458Y0091064D01*
X0203221Y0091114D01*
X0202984Y0091157D01*
X0202745Y0091195D01*
X0202505Y0091227D01*
X0202265Y0091253D01*
X0202024Y0091274D01*
X0201783Y0091288D01*
X0201542Y0091297D01*
X0201300Y0091300D01*
X0021300Y0091300D01*
X0021058Y0091297D01*
X0020817Y0091288D01*
X0020576Y0091274D01*
X0020335Y0091253D01*
X0020095Y0091227D01*
X0019855Y0091195D01*
X0019616Y0091157D01*
X0019379Y0091114D01*
X0019142Y0091064D01*
X0018907Y0091009D01*
X0018673Y0090949D01*
X0018441Y0090882D01*
X0018210Y0090811D01*
X0017981Y0090733D01*
X0017754Y0090650D01*
X0017529Y0090562D01*
X0017306Y0090468D01*
X0017086Y0090369D01*
X0016868Y0090264D01*
X0016653Y0090155D01*
X0016440Y0090040D01*
X0016230Y0089920D01*
X0016024Y0089795D01*
X0015820Y0089665D01*
X0015619Y0089530D01*
X0015422Y0089390D01*
X0015228Y0089246D01*
X0015038Y0089097D01*
X0014852Y0088943D01*
X0014669Y0088785D01*
X0014490Y0088623D01*
X0014315Y0088456D01*
X0014144Y0088285D01*
X0013977Y0088110D01*
X0013815Y0087931D01*
X0013657Y0087748D01*
X0013503Y0087562D01*
X0013354Y0087372D01*
X0013210Y0087178D01*
X0013070Y0086981D01*
X0012935Y0086780D01*
X0012805Y0086576D01*
X0012680Y0086370D01*
X0012560Y0086160D01*
X0012445Y0085947D01*
X0012336Y0085732D01*
X0012231Y0085514D01*
X0012132Y0085294D01*
X0012038Y0085071D01*
X0011950Y0084846D01*
X0011867Y0084619D01*
X0011789Y0084390D01*
X0011718Y0084159D01*
X0011651Y0083927D01*
X0011591Y0083693D01*
X0011536Y0083458D01*
X0011486Y0083221D01*
X0011443Y0082984D01*
X0011405Y0082745D01*
X0011373Y0082505D01*
X0011347Y0082265D01*
X0011326Y0082024D01*
X0011312Y0081783D01*
X0011303Y0081542D01*
X0011300Y0081300D01*
X0011300Y0021300D01*
X0011303Y0021058D01*
X0011312Y0020817D01*
X0011326Y0020576D01*
X0011347Y0020335D01*
X0011373Y0020095D01*
X0011405Y0019855D01*
X0011443Y0019616D01*
X0011486Y0019379D01*
X0011536Y0019142D01*
X0011591Y0018907D01*
X0011651Y0018673D01*
X0011718Y0018441D01*
X0011789Y0018210D01*
X0011867Y0017981D01*
X0011950Y0017754D01*
X0012038Y0017529D01*
X0012132Y0017306D01*
X0012231Y0017086D01*
X0012336Y0016868D01*
X0012445Y0016653D01*
X0012560Y0016440D01*
X0012680Y0016230D01*
X0012805Y0016024D01*
X0012935Y0015820D01*
X0013070Y0015619D01*
X0013210Y0015422D01*
X0013354Y0015228D01*
X0013503Y0015038D01*
X0013657Y0014852D01*
X0013815Y0014669D01*
X0013977Y0014490D01*
X0014144Y0014315D01*
X0014315Y0014144D01*
X0014490Y0013977D01*
X0014669Y0013815D01*
X0014852Y0013657D01*
X0015038Y0013503D01*
X0015228Y0013354D01*
X0015422Y0013210D01*
X0015619Y0013070D01*
X0015820Y0012935D01*
X0016024Y0012805D01*
X0016230Y0012680D01*
X0016440Y0012560D01*
X0016653Y0012445D01*
X0016868Y0012336D01*
X0017086Y0012231D01*
X0017306Y0012132D01*
X0017529Y0012038D01*
X0017754Y0011950D01*
X0017981Y0011867D01*
X0018210Y0011789D01*
X0018441Y0011718D01*
X0018673Y0011651D01*
X0018907Y0011591D01*
X0019142Y0011536D01*
X0019379Y0011486D01*
X0019616Y0011443D01*
X0019855Y0011405D01*
X0020095Y0011373D01*
X0020335Y0011347D01*
X0020576Y0011326D01*
X0020817Y0011312D01*
X0021058Y0011303D01*
X0021300Y0011300D01*
D11*
X0156300Y0041300D03*
D12*
X0156300Y0051300D03*
X0156300Y0061300D03*
X0161300Y0081300D03*
X0171300Y0081300D03*
X0181300Y0081300D03*
X0191300Y0081300D03*
X0141300Y0081300D03*
X0131300Y0081300D03*
X0121300Y0081300D03*
X0111300Y0081300D03*
X0101300Y0081300D03*
X0091300Y0081300D03*
X0081300Y0081300D03*
X0071300Y0081300D03*
X0061300Y0081300D03*
X0051300Y0081300D03*
X0041300Y0081300D03*
X0031300Y0081300D03*
X0101300Y0061300D03*
X0111300Y0061300D03*
X0111300Y0041300D03*
X0101300Y0041300D03*
X0101300Y0021300D03*
X0091300Y0021300D03*
X0081300Y0021300D03*
X0071300Y0021300D03*
X0061300Y0021300D03*
X0051300Y0021300D03*
X0041300Y0021300D03*
X0031300Y0021300D03*
X0111300Y0021300D03*
X0121300Y0021300D03*
X0131300Y0021300D03*
X0141300Y0021300D03*
X0161300Y0021300D03*
X0171300Y0021300D03*
X0181300Y0021300D03*
X0191300Y0021300D03*
D13*
X0191300Y0031300D03*
X0161300Y0031300D03*
X0131300Y0031300D03*
X0101300Y0031300D03*
X0101300Y0071300D03*
X0131300Y0071300D03*
X0161300Y0071300D03*
X0191300Y0071300D03*
D14*
X0084300Y0060300D02*
X0078300Y0060300D01*
X0054300Y0070300D02*
X0048300Y0070300D01*
X0034300Y0060300D02*
X0028300Y0060300D01*
X0048300Y0041300D02*
X0054300Y0041300D01*
X0034300Y0031300D02*
X0028300Y0031300D01*
X0078300Y0031300D02*
X0084300Y0031300D01*
M02*
