G75*
%MOIN*%
%OFA0B0*%
%FSLAX25Y25*%
%IPPOS*%
%LPD*%
%AMOC8*
5,1,8,0,0,1.08239X$1,22.5*
%
%ADD10C,0.00000*%
%ADD11R,0.07400X0.07400*%
%ADD12C,0.07400*%
%ADD13OC8,0.06600*%
%ADD14C,0.06000*%
%ADD15C,0.07087*%
%ADD16C,0.01600*%
%ADD17C,0.02578*%
%ADD18C,0.00600*%
D10*
X0021300Y0011300D02*
X0201300Y0011300D01*
X0201542Y0011303D01*
X0201783Y0011312D01*
X0202024Y0011326D01*
X0202265Y0011347D01*
X0202505Y0011373D01*
X0202745Y0011405D01*
X0202984Y0011443D01*
X0203221Y0011486D01*
X0203458Y0011536D01*
X0203693Y0011591D01*
X0203927Y0011651D01*
X0204159Y0011718D01*
X0204390Y0011789D01*
X0204619Y0011867D01*
X0204846Y0011950D01*
X0205071Y0012038D01*
X0205294Y0012132D01*
X0205514Y0012231D01*
X0205732Y0012336D01*
X0205947Y0012445D01*
X0206160Y0012560D01*
X0206370Y0012680D01*
X0206576Y0012805D01*
X0206780Y0012935D01*
X0206981Y0013070D01*
X0207178Y0013210D01*
X0207372Y0013354D01*
X0207562Y0013503D01*
X0207748Y0013657D01*
X0207931Y0013815D01*
X0208110Y0013977D01*
X0208285Y0014144D01*
X0208456Y0014315D01*
X0208623Y0014490D01*
X0208785Y0014669D01*
X0208943Y0014852D01*
X0209097Y0015038D01*
X0209246Y0015228D01*
X0209390Y0015422D01*
X0209530Y0015619D01*
X0209665Y0015820D01*
X0209795Y0016024D01*
X0209920Y0016230D01*
X0210040Y0016440D01*
X0210155Y0016653D01*
X0210264Y0016868D01*
X0210369Y0017086D01*
X0210468Y0017306D01*
X0210562Y0017529D01*
X0210650Y0017754D01*
X0210733Y0017981D01*
X0210811Y0018210D01*
X0210882Y0018441D01*
X0210949Y0018673D01*
X0211009Y0018907D01*
X0211064Y0019142D01*
X0211114Y0019379D01*
X0211157Y0019616D01*
X0211195Y0019855D01*
X0211227Y0020095D01*
X0211253Y0020335D01*
X0211274Y0020576D01*
X0211288Y0020817D01*
X0211297Y0021058D01*
X0211300Y0021300D01*
X0211300Y0081300D01*
X0211297Y0081542D01*
X0211288Y0081783D01*
X0211274Y0082024D01*
X0211253Y0082265D01*
X0211227Y0082505D01*
X0211195Y0082745D01*
X0211157Y0082984D01*
X0211114Y0083221D01*
X0211064Y0083458D01*
X0211009Y0083693D01*
X0210949Y0083927D01*
X0210882Y0084159D01*
X0210811Y0084390D01*
X0210733Y0084619D01*
X0210650Y0084846D01*
X0210562Y0085071D01*
X0210468Y0085294D01*
X0210369Y0085514D01*
X0210264Y0085732D01*
X0210155Y0085947D01*
X0210040Y0086160D01*
X0209920Y0086370D01*
X0209795Y0086576D01*
X0209665Y0086780D01*
X0209530Y0086981D01*
X0209390Y0087178D01*
X0209246Y0087372D01*
X0209097Y0087562D01*
X0208943Y0087748D01*
X0208785Y0087931D01*
X0208623Y0088110D01*
X0208456Y0088285D01*
X0208285Y0088456D01*
X0208110Y0088623D01*
X0207931Y0088785D01*
X0207748Y0088943D01*
X0207562Y0089097D01*
X0207372Y0089246D01*
X0207178Y0089390D01*
X0206981Y0089530D01*
X0206780Y0089665D01*
X0206576Y0089795D01*
X0206370Y0089920D01*
X0206160Y0090040D01*
X0205947Y0090155D01*
X0205732Y0090264D01*
X0205514Y0090369D01*
X0205294Y0090468D01*
X0205071Y0090562D01*
X0204846Y0090650D01*
X0204619Y0090733D01*
X0204390Y0090811D01*
X0204159Y0090882D01*
X0203927Y0090949D01*
X0203693Y0091009D01*
X0203458Y0091064D01*
X0203221Y0091114D01*
X0202984Y0091157D01*
X0202745Y0091195D01*
X0202505Y0091227D01*
X0202265Y0091253D01*
X0202024Y0091274D01*
X0201783Y0091288D01*
X0201542Y0091297D01*
X0201300Y0091300D01*
X0021300Y0091300D01*
X0021058Y0091297D01*
X0020817Y0091288D01*
X0020576Y0091274D01*
X0020335Y0091253D01*
X0020095Y0091227D01*
X0019855Y0091195D01*
X0019616Y0091157D01*
X0019379Y0091114D01*
X0019142Y0091064D01*
X0018907Y0091009D01*
X0018673Y0090949D01*
X0018441Y0090882D01*
X0018210Y0090811D01*
X0017981Y0090733D01*
X0017754Y0090650D01*
X0017529Y0090562D01*
X0017306Y0090468D01*
X0017086Y0090369D01*
X0016868Y0090264D01*
X0016653Y0090155D01*
X0016440Y0090040D01*
X0016230Y0089920D01*
X0016024Y0089795D01*
X0015820Y0089665D01*
X0015619Y0089530D01*
X0015422Y0089390D01*
X0015228Y0089246D01*
X0015038Y0089097D01*
X0014852Y0088943D01*
X0014669Y0088785D01*
X0014490Y0088623D01*
X0014315Y0088456D01*
X0014144Y0088285D01*
X0013977Y0088110D01*
X0013815Y0087931D01*
X0013657Y0087748D01*
X0013503Y0087562D01*
X0013354Y0087372D01*
X0013210Y0087178D01*
X0013070Y0086981D01*
X0012935Y0086780D01*
X0012805Y0086576D01*
X0012680Y0086370D01*
X0012560Y0086160D01*
X0012445Y0085947D01*
X0012336Y0085732D01*
X0012231Y0085514D01*
X0012132Y0085294D01*
X0012038Y0085071D01*
X0011950Y0084846D01*
X0011867Y0084619D01*
X0011789Y0084390D01*
X0011718Y0084159D01*
X0011651Y0083927D01*
X0011591Y0083693D01*
X0011536Y0083458D01*
X0011486Y0083221D01*
X0011443Y0082984D01*
X0011405Y0082745D01*
X0011373Y0082505D01*
X0011347Y0082265D01*
X0011326Y0082024D01*
X0011312Y0081783D01*
X0011303Y0081542D01*
X0011300Y0081300D01*
X0011300Y0021300D01*
X0011303Y0021058D01*
X0011312Y0020817D01*
X0011326Y0020576D01*
X0011347Y0020335D01*
X0011373Y0020095D01*
X0011405Y0019855D01*
X0011443Y0019616D01*
X0011486Y0019379D01*
X0011536Y0019142D01*
X0011591Y0018907D01*
X0011651Y0018673D01*
X0011718Y0018441D01*
X0011789Y0018210D01*
X0011867Y0017981D01*
X0011950Y0017754D01*
X0012038Y0017529D01*
X0012132Y0017306D01*
X0012231Y0017086D01*
X0012336Y0016868D01*
X0012445Y0016653D01*
X0012560Y0016440D01*
X0012680Y0016230D01*
X0012805Y0016024D01*
X0012935Y0015820D01*
X0013070Y0015619D01*
X0013210Y0015422D01*
X0013354Y0015228D01*
X0013503Y0015038D01*
X0013657Y0014852D01*
X0013815Y0014669D01*
X0013977Y0014490D01*
X0014144Y0014315D01*
X0014315Y0014144D01*
X0014490Y0013977D01*
X0014669Y0013815D01*
X0014852Y0013657D01*
X0015038Y0013503D01*
X0015228Y0013354D01*
X0015422Y0013210D01*
X0015619Y0013070D01*
X0015820Y0012935D01*
X0016024Y0012805D01*
X0016230Y0012680D01*
X0016440Y0012560D01*
X0016653Y0012445D01*
X0016868Y0012336D01*
X0017086Y0012231D01*
X0017306Y0012132D01*
X0017529Y0012038D01*
X0017754Y0011950D01*
X0017981Y0011867D01*
X0018210Y0011789D01*
X0018441Y0011718D01*
X0018673Y0011651D01*
X0018907Y0011591D01*
X0019142Y0011536D01*
X0019379Y0011486D01*
X0019616Y0011443D01*
X0019855Y0011405D01*
X0020095Y0011373D01*
X0020335Y0011347D01*
X0020576Y0011326D01*
X0020817Y0011312D01*
X0021058Y0011303D01*
X0021300Y0011300D01*
D11*
X0156300Y0041300D03*
D12*
X0156300Y0051300D03*
X0156300Y0061300D03*
X0161300Y0081300D03*
X0171300Y0081300D03*
X0181300Y0081300D03*
X0191300Y0081300D03*
X0141300Y0081300D03*
X0131300Y0081300D03*
X0121300Y0081300D03*
X0111300Y0081300D03*
X0101300Y0081300D03*
X0091300Y0081300D03*
X0081300Y0081300D03*
X0071300Y0081300D03*
X0061300Y0081300D03*
X0051300Y0081300D03*
X0041300Y0081300D03*
X0031300Y0081300D03*
X0101300Y0061300D03*
X0111300Y0061300D03*
X0111300Y0041300D03*
X0101300Y0041300D03*
X0101300Y0021300D03*
X0091300Y0021300D03*
X0081300Y0021300D03*
X0071300Y0021300D03*
X0061300Y0021300D03*
X0051300Y0021300D03*
X0041300Y0021300D03*
X0031300Y0021300D03*
X0111300Y0021300D03*
X0121300Y0021300D03*
X0131300Y0021300D03*
X0141300Y0021300D03*
X0161300Y0021300D03*
X0171300Y0021300D03*
X0181300Y0021300D03*
X0191300Y0021300D03*
D13*
X0191300Y0031300D03*
X0161300Y0031300D03*
X0131300Y0031300D03*
X0101300Y0031300D03*
X0101300Y0071300D03*
X0131300Y0071300D03*
X0161300Y0071300D03*
X0191300Y0071300D03*
D14*
X0084300Y0060300D02*
X0078300Y0060300D01*
X0054300Y0070300D02*
X0048300Y0070300D01*
X0034300Y0060300D02*
X0028300Y0060300D01*
X0048300Y0041300D02*
X0054300Y0041300D01*
X0034300Y0031300D02*
X0028300Y0031300D01*
X0078300Y0031300D02*
X0084300Y0031300D01*
D15*
X0061300Y0031300D03*
X0051300Y0031300D03*
X0051300Y0060300D03*
X0061300Y0060300D03*
D16*
X0081300Y0060300D01*
X0095300Y0060300D01*
X0096200Y0059400D01*
X0096200Y0059187D01*
X0099187Y0056200D01*
X0103612Y0056200D01*
X0116400Y0043412D01*
X0116400Y0040200D01*
X0125300Y0031300D01*
X0131300Y0037300D02*
X0131300Y0071300D01*
X0101300Y0071300D02*
X0101300Y0061300D01*
X0101300Y0041300D02*
X0101300Y0031300D01*
X0099187Y0026400D02*
X0148413Y0026400D01*
X0153513Y0021300D01*
X0161300Y0021300D01*
X0191300Y0051300D01*
X0191300Y0071300D01*
X0191300Y0081300D01*
X0081300Y0031300D02*
X0061300Y0031300D01*
X0051300Y0031300D02*
X0051300Y0041300D01*
X0051300Y0060300D02*
X0051300Y0070300D01*
X0099187Y0026400D02*
X0094087Y0021300D01*
X0091300Y0021300D01*
X0101300Y0021300D02*
X0104087Y0021300D01*
X0109187Y0016200D01*
X0163413Y0016200D01*
X0168513Y0021300D01*
X0171300Y0021300D01*
D17*
X0131300Y0037300D03*
X0125300Y0031300D03*
D18*
X0126950Y0029854D02*
X0127100Y0029854D01*
X0127100Y0030004D02*
X0127100Y0029560D01*
X0128560Y0028100D01*
X0104040Y0028100D01*
X0105500Y0029560D01*
X0105500Y0033040D01*
X0103040Y0035500D01*
X0103000Y0035500D01*
X0103000Y0037025D01*
X0103906Y0037400D01*
X0105200Y0038694D01*
X0105900Y0040385D01*
X0105900Y0042215D01*
X0105200Y0043906D01*
X0103906Y0045200D01*
X0102215Y0045900D01*
X0100385Y0045900D01*
X0098694Y0045200D01*
X0097400Y0043906D01*
X0096700Y0042215D01*
X0096700Y0040385D01*
X0097400Y0038694D01*
X0098694Y0037400D01*
X0099600Y0037025D01*
X0099600Y0035500D01*
X0099560Y0035500D01*
X0097100Y0033040D01*
X0097100Y0029560D01*
X0098560Y0028100D01*
X0098483Y0028100D01*
X0097487Y0027104D01*
X0094744Y0024361D01*
X0093906Y0025200D01*
X0092215Y0025900D01*
X0090385Y0025900D01*
X0088694Y0025200D01*
X0087400Y0023906D01*
X0086700Y0022215D01*
X0086700Y0020385D01*
X0087400Y0018694D01*
X0088694Y0017400D01*
X0090385Y0016700D01*
X0092215Y0016700D01*
X0093906Y0017400D01*
X0095200Y0018694D01*
X0095900Y0020385D01*
X0095900Y0020708D01*
X0096700Y0021508D01*
X0096700Y0020385D01*
X0097400Y0018694D01*
X0098694Y0017400D01*
X0100385Y0016700D01*
X0102215Y0016700D01*
X0103906Y0017400D01*
X0104744Y0018239D01*
X0107487Y0015496D01*
X0108483Y0014500D01*
X0164117Y0014500D01*
X0165112Y0015496D01*
X0167856Y0018239D01*
X0168694Y0017400D01*
X0170385Y0016700D01*
X0172215Y0016700D01*
X0173906Y0017400D01*
X0175200Y0018694D01*
X0175900Y0020385D01*
X0175900Y0022215D01*
X0175200Y0023906D01*
X0173906Y0025200D01*
X0172215Y0025900D01*
X0170385Y0025900D01*
X0168694Y0025200D01*
X0167400Y0023906D01*
X0166700Y0022215D01*
X0166700Y0021892D01*
X0165900Y0021092D01*
X0165900Y0022215D01*
X0165525Y0023121D01*
X0193000Y0050596D01*
X0193000Y0067100D01*
X0193040Y0067100D01*
X0195500Y0069560D01*
X0195500Y0073040D01*
X0193040Y0075500D01*
X0193000Y0075500D01*
X0193000Y0077025D01*
X0193906Y0077400D01*
X0195200Y0078694D01*
X0195900Y0080385D01*
X0195900Y0082215D01*
X0195200Y0083906D01*
X0193906Y0085200D01*
X0192215Y0085900D01*
X0190385Y0085900D01*
X0188694Y0085200D01*
X0187400Y0083906D01*
X0186700Y0082215D01*
X0186700Y0080385D01*
X0187400Y0078694D01*
X0188694Y0077400D01*
X0189600Y0077025D01*
X0189600Y0075500D01*
X0189560Y0075500D01*
X0187100Y0073040D01*
X0187100Y0069560D01*
X0189560Y0067100D01*
X0189600Y0067100D01*
X0189600Y0052004D01*
X0163121Y0025525D01*
X0162215Y0025900D01*
X0160385Y0025900D01*
X0158694Y0025200D01*
X0157400Y0023906D01*
X0157025Y0023000D01*
X0154217Y0023000D01*
X0149117Y0028100D01*
X0134040Y0028100D01*
X0135500Y0029560D01*
X0135500Y0033040D01*
X0133040Y0035500D01*
X0132596Y0035500D01*
X0133489Y0036393D01*
X0133489Y0038207D01*
X0133000Y0038696D01*
X0133000Y0067100D01*
X0133040Y0067100D01*
X0135500Y0069560D01*
X0135500Y0073040D01*
X0133040Y0075500D01*
X0129560Y0075500D01*
X0127100Y0073040D01*
X0127100Y0069560D01*
X0129560Y0067100D01*
X0129600Y0067100D01*
X0129600Y0038696D01*
X0129111Y0038207D01*
X0129111Y0036393D01*
X0130004Y0035500D01*
X0129560Y0035500D01*
X0127100Y0033040D01*
X0127100Y0032596D01*
X0126207Y0033489D01*
X0125515Y0033489D01*
X0118100Y0040904D01*
X0118100Y0044117D01*
X0105312Y0056904D01*
X0104361Y0057856D01*
X0105200Y0058694D01*
X0105900Y0060385D01*
X0105900Y0062215D01*
X0105200Y0063906D01*
X0103906Y0065200D01*
X0103000Y0065575D01*
X0103000Y0067100D01*
X0103040Y0067100D01*
X0105500Y0069560D01*
X0105500Y0073040D01*
X0103040Y0075500D01*
X0099560Y0075500D01*
X0097100Y0073040D01*
X0097100Y0069560D01*
X0099560Y0067100D01*
X0099600Y0067100D01*
X0099600Y0065575D01*
X0098694Y0065200D01*
X0097400Y0063906D01*
X0096700Y0062215D01*
X0096700Y0061304D01*
X0096004Y0062000D01*
X0087817Y0062000D01*
X0087606Y0062509D01*
X0086509Y0063606D01*
X0085076Y0064200D01*
X0077524Y0064200D01*
X0076091Y0063606D01*
X0074994Y0062509D01*
X0074783Y0062000D01*
X0065405Y0062000D01*
X0065067Y0062817D01*
X0063817Y0064067D01*
X0062184Y0064743D01*
X0060416Y0064743D01*
X0058783Y0064067D01*
X0057533Y0062817D01*
X0056857Y0061184D01*
X0056857Y0059416D01*
X0057533Y0057783D01*
X0058783Y0056533D01*
X0060416Y0055857D01*
X0062184Y0055857D01*
X0063817Y0056533D01*
X0065067Y0057783D01*
X0065405Y0058600D01*
X0074783Y0058600D01*
X0074994Y0058091D01*
X0076091Y0056994D01*
X0077524Y0056400D01*
X0085076Y0056400D01*
X0086509Y0056994D01*
X0087606Y0058091D01*
X0087817Y0058600D01*
X0094500Y0058600D01*
X0094500Y0058483D01*
X0095496Y0057487D01*
X0097487Y0055496D01*
X0098483Y0054500D01*
X0102908Y0054500D01*
X0111508Y0045900D01*
X0110385Y0045900D01*
X0108694Y0045200D01*
X0107400Y0043906D01*
X0106700Y0042215D01*
X0106700Y0040385D01*
X0107400Y0038694D01*
X0108694Y0037400D01*
X0110385Y0036700D01*
X0112215Y0036700D01*
X0113906Y0037400D01*
X0115200Y0038694D01*
X0115288Y0038908D01*
X0115696Y0038500D01*
X0123111Y0031085D01*
X0123111Y0030393D01*
X0124393Y0029111D01*
X0126207Y0029111D01*
X0127100Y0030004D01*
X0127405Y0029255D02*
X0126351Y0029255D01*
X0128003Y0028657D02*
X0104597Y0028657D01*
X0105195Y0029255D02*
X0124249Y0029255D01*
X0123650Y0029854D02*
X0105500Y0029854D01*
X0105500Y0030452D02*
X0123111Y0030452D01*
X0123111Y0031051D02*
X0105500Y0031051D01*
X0105500Y0031649D02*
X0122546Y0031649D01*
X0121948Y0032248D02*
X0105500Y0032248D01*
X0105500Y0032846D02*
X0121349Y0032846D01*
X0120751Y0033445D02*
X0105095Y0033445D01*
X0104496Y0034043D02*
X0120152Y0034043D01*
X0119554Y0034642D02*
X0103898Y0034642D01*
X0103299Y0035240D02*
X0118955Y0035240D01*
X0118357Y0035839D02*
X0103000Y0035839D01*
X0103000Y0036437D02*
X0117758Y0036437D01*
X0117160Y0037036D02*
X0113026Y0037036D01*
X0114140Y0037634D02*
X0116561Y0037634D01*
X0115963Y0038233D02*
X0114738Y0038233D01*
X0115257Y0038832D02*
X0115364Y0038832D01*
X0119574Y0039430D02*
X0129600Y0039430D01*
X0129600Y0038832D02*
X0120173Y0038832D01*
X0120771Y0038233D02*
X0129137Y0038233D01*
X0129111Y0037634D02*
X0121370Y0037634D01*
X0121968Y0037036D02*
X0129111Y0037036D01*
X0129111Y0036437D02*
X0122567Y0036437D01*
X0123165Y0035839D02*
X0129665Y0035839D01*
X0129301Y0035240D02*
X0123764Y0035240D01*
X0124362Y0034642D02*
X0128702Y0034642D01*
X0128104Y0034043D02*
X0124961Y0034043D01*
X0126251Y0033445D02*
X0127505Y0033445D01*
X0127100Y0032846D02*
X0126849Y0032846D01*
X0132935Y0035839D02*
X0173435Y0035839D01*
X0174033Y0036437D02*
X0133489Y0036437D01*
X0133489Y0037036D02*
X0151891Y0037036D01*
X0151700Y0037227D02*
X0152227Y0036700D01*
X0160373Y0036700D01*
X0160900Y0037227D01*
X0160900Y0045373D01*
X0160373Y0045900D01*
X0152227Y0045900D01*
X0151700Y0045373D01*
X0151700Y0037227D01*
X0151700Y0037634D02*
X0133489Y0037634D01*
X0133463Y0038233D02*
X0151700Y0038233D01*
X0151700Y0038832D02*
X0133000Y0038832D01*
X0133000Y0039430D02*
X0151700Y0039430D01*
X0151700Y0040029D02*
X0133000Y0040029D01*
X0133000Y0040627D02*
X0151700Y0040627D01*
X0151700Y0041226D02*
X0133000Y0041226D01*
X0133000Y0041824D02*
X0151700Y0041824D01*
X0151700Y0042423D02*
X0133000Y0042423D01*
X0133000Y0043021D02*
X0151700Y0043021D01*
X0151700Y0043620D02*
X0133000Y0043620D01*
X0133000Y0044218D02*
X0151700Y0044218D01*
X0151700Y0044817D02*
X0133000Y0044817D01*
X0133000Y0045415D02*
X0151742Y0045415D01*
X0153694Y0047400D02*
X0155385Y0046700D01*
X0157215Y0046700D01*
X0158906Y0047400D01*
X0160200Y0048694D01*
X0160900Y0050385D01*
X0160900Y0052215D01*
X0160200Y0053906D01*
X0158906Y0055200D01*
X0157215Y0055900D01*
X0155385Y0055900D01*
X0153694Y0055200D01*
X0152400Y0053906D01*
X0151700Y0052215D01*
X0151700Y0050385D01*
X0152400Y0048694D01*
X0153694Y0047400D01*
X0154152Y0047211D02*
X0133000Y0047211D01*
X0133000Y0047809D02*
X0153285Y0047809D01*
X0152687Y0048408D02*
X0133000Y0048408D01*
X0133000Y0049006D02*
X0152271Y0049006D01*
X0152023Y0049605D02*
X0133000Y0049605D01*
X0133000Y0050203D02*
X0151775Y0050203D01*
X0151700Y0050802D02*
X0133000Y0050802D01*
X0133000Y0051400D02*
X0151700Y0051400D01*
X0151700Y0051999D02*
X0133000Y0051999D01*
X0133000Y0052597D02*
X0151858Y0052597D01*
X0152106Y0053196D02*
X0133000Y0053196D01*
X0133000Y0053794D02*
X0152354Y0053794D01*
X0152887Y0054393D02*
X0133000Y0054393D01*
X0133000Y0054991D02*
X0153486Y0054991D01*
X0154636Y0055590D02*
X0133000Y0055590D01*
X0133000Y0056188D02*
X0189600Y0056188D01*
X0189600Y0055590D02*
X0157964Y0055590D01*
X0159114Y0054991D02*
X0189600Y0054991D01*
X0189600Y0054393D02*
X0159713Y0054393D01*
X0160246Y0053794D02*
X0189600Y0053794D01*
X0189600Y0053196D02*
X0160494Y0053196D01*
X0160742Y0052597D02*
X0189600Y0052597D01*
X0189595Y0051999D02*
X0160900Y0051999D01*
X0160900Y0051400D02*
X0188996Y0051400D01*
X0188398Y0050802D02*
X0160900Y0050802D01*
X0160825Y0050203D02*
X0187799Y0050203D01*
X0187201Y0049605D02*
X0160577Y0049605D01*
X0160329Y0049006D02*
X0186602Y0049006D01*
X0186004Y0048408D02*
X0159913Y0048408D01*
X0159315Y0047809D02*
X0185405Y0047809D01*
X0184807Y0047211D02*
X0158448Y0047211D01*
X0160858Y0045415D02*
X0183011Y0045415D01*
X0182412Y0044817D02*
X0160900Y0044817D01*
X0160900Y0044218D02*
X0181814Y0044218D01*
X0181215Y0043620D02*
X0160900Y0043620D01*
X0160900Y0043021D02*
X0180617Y0043021D01*
X0180018Y0042423D02*
X0160900Y0042423D01*
X0160900Y0041824D02*
X0179420Y0041824D01*
X0178821Y0041226D02*
X0160900Y0041226D01*
X0160900Y0040627D02*
X0178223Y0040627D01*
X0177624Y0040029D02*
X0160900Y0040029D01*
X0160900Y0039430D02*
X0177026Y0039430D01*
X0176427Y0038832D02*
X0160900Y0038832D01*
X0160900Y0038233D02*
X0175829Y0038233D01*
X0175230Y0037634D02*
X0160900Y0037634D01*
X0160709Y0037036D02*
X0174632Y0037036D01*
X0172836Y0035240D02*
X0163299Y0035240D01*
X0163040Y0035500D02*
X0159560Y0035500D01*
X0157100Y0033040D01*
X0157100Y0029560D01*
X0159560Y0027100D01*
X0163040Y0027100D01*
X0165500Y0029560D01*
X0165500Y0033040D01*
X0163040Y0035500D01*
X0163898Y0034642D02*
X0172238Y0034642D01*
X0171639Y0034043D02*
X0164496Y0034043D01*
X0165095Y0033445D02*
X0171041Y0033445D01*
X0170442Y0032846D02*
X0165500Y0032846D01*
X0165500Y0032248D02*
X0169844Y0032248D01*
X0169245Y0031649D02*
X0165500Y0031649D01*
X0165500Y0031051D02*
X0168647Y0031051D01*
X0168048Y0030452D02*
X0165500Y0030452D01*
X0165500Y0029854D02*
X0167450Y0029854D01*
X0166851Y0029255D02*
X0165195Y0029255D01*
X0164597Y0028657D02*
X0166253Y0028657D01*
X0165654Y0028058D02*
X0163998Y0028058D01*
X0163399Y0027460D02*
X0165056Y0027460D01*
X0164457Y0026861D02*
X0150355Y0026861D01*
X0149757Y0027460D02*
X0159200Y0027460D01*
X0158602Y0028058D02*
X0149158Y0028058D01*
X0150954Y0026263D02*
X0163859Y0026263D01*
X0163260Y0025664D02*
X0162784Y0025664D01*
X0159816Y0025664D02*
X0151552Y0025664D01*
X0152151Y0025066D02*
X0158560Y0025066D01*
X0157962Y0024467D02*
X0152749Y0024467D01*
X0153348Y0023869D02*
X0157385Y0023869D01*
X0157137Y0023270D02*
X0153946Y0023270D01*
X0158003Y0028657D02*
X0134597Y0028657D01*
X0135195Y0029255D02*
X0157405Y0029255D01*
X0157100Y0029854D02*
X0135500Y0029854D01*
X0135500Y0030452D02*
X0157100Y0030452D01*
X0157100Y0031051D02*
X0135500Y0031051D01*
X0135500Y0031649D02*
X0157100Y0031649D01*
X0157100Y0032248D02*
X0135500Y0032248D01*
X0135500Y0032846D02*
X0157100Y0032846D01*
X0157505Y0033445D02*
X0135095Y0033445D01*
X0134496Y0034043D02*
X0158104Y0034043D01*
X0158702Y0034642D02*
X0133898Y0034642D01*
X0133299Y0035240D02*
X0159301Y0035240D01*
X0171659Y0029255D02*
X0186839Y0029255D01*
X0186700Y0029395D02*
X0189395Y0026700D01*
X0191000Y0026700D01*
X0191000Y0031000D01*
X0191600Y0031000D01*
X0191600Y0031600D01*
X0195900Y0031600D01*
X0195900Y0033205D01*
X0193205Y0035900D01*
X0191600Y0035900D01*
X0191600Y0031600D01*
X0191000Y0031600D01*
X0191000Y0035900D01*
X0189395Y0035900D01*
X0186700Y0033205D01*
X0186700Y0031600D01*
X0191000Y0031600D01*
X0191000Y0031000D01*
X0186700Y0031000D01*
X0186700Y0029395D01*
X0186700Y0029854D02*
X0172258Y0029854D01*
X0172857Y0030452D02*
X0186700Y0030452D01*
X0186700Y0031649D02*
X0174054Y0031649D01*
X0174652Y0032248D02*
X0186700Y0032248D01*
X0186700Y0032846D02*
X0175251Y0032846D01*
X0175849Y0033445D02*
X0186940Y0033445D01*
X0187538Y0034043D02*
X0176448Y0034043D01*
X0177046Y0034642D02*
X0188137Y0034642D01*
X0188735Y0035240D02*
X0177645Y0035240D01*
X0178243Y0035839D02*
X0189334Y0035839D01*
X0191000Y0035839D02*
X0191600Y0035839D01*
X0191600Y0035240D02*
X0191000Y0035240D01*
X0191000Y0034642D02*
X0191600Y0034642D01*
X0191600Y0034043D02*
X0191000Y0034043D01*
X0191000Y0033445D02*
X0191600Y0033445D01*
X0191600Y0032846D02*
X0191000Y0032846D01*
X0191000Y0032248D02*
X0191600Y0032248D01*
X0191600Y0031649D02*
X0191000Y0031649D01*
X0191000Y0031051D02*
X0173455Y0031051D01*
X0171061Y0028657D02*
X0187438Y0028657D01*
X0188036Y0028058D02*
X0170462Y0028058D01*
X0169864Y0027460D02*
X0188635Y0027460D01*
X0189233Y0026861D02*
X0169265Y0026861D01*
X0168667Y0026263D02*
X0180672Y0026263D01*
X0180906Y0026300D02*
X0180129Y0026177D01*
X0179381Y0025934D01*
X0178679Y0025576D01*
X0178043Y0025114D01*
X0177486Y0024557D01*
X0177024Y0023921D01*
X0176666Y0023219D01*
X0176423Y0022471D01*
X0176300Y0021694D01*
X0176300Y0021600D01*
X0181000Y0021600D01*
X0181000Y0026300D01*
X0180906Y0026300D01*
X0181000Y0026263D02*
X0181600Y0026263D01*
X0181600Y0026300D02*
X0181600Y0021600D01*
X0181000Y0021600D01*
X0181000Y0021000D01*
X0176300Y0021000D01*
X0176300Y0020906D01*
X0176423Y0020129D01*
X0176666Y0019381D01*
X0177024Y0018679D01*
X0177486Y0018043D01*
X0178043Y0017486D01*
X0178679Y0017024D01*
X0179381Y0016666D01*
X0180129Y0016423D01*
X0180906Y0016300D01*
X0181000Y0016300D01*
X0181000Y0021000D01*
X0181600Y0021000D01*
X0181600Y0021600D01*
X0186300Y0021600D01*
X0186300Y0021694D01*
X0186177Y0022471D01*
X0185934Y0023219D01*
X0185576Y0023921D01*
X0185114Y0024557D01*
X0184557Y0025114D01*
X0183921Y0025576D01*
X0183219Y0025934D01*
X0182471Y0026177D01*
X0181694Y0026300D01*
X0181600Y0026300D01*
X0181928Y0026263D02*
X0210000Y0026263D01*
X0210000Y0026861D02*
X0193367Y0026861D01*
X0193205Y0026700D02*
X0195900Y0029395D01*
X0195900Y0031000D01*
X0191600Y0031000D01*
X0191600Y0026700D01*
X0193205Y0026700D01*
X0193965Y0027460D02*
X0210000Y0027460D01*
X0210000Y0028058D02*
X0194564Y0028058D01*
X0195162Y0028657D02*
X0210000Y0028657D01*
X0210000Y0029255D02*
X0195761Y0029255D01*
X0195900Y0029854D02*
X0210000Y0029854D01*
X0210000Y0030452D02*
X0195900Y0030452D01*
X0195900Y0031649D02*
X0210000Y0031649D01*
X0210000Y0031051D02*
X0191600Y0031051D01*
X0191600Y0030452D02*
X0191000Y0030452D01*
X0191000Y0029854D02*
X0191600Y0029854D01*
X0191600Y0029255D02*
X0191000Y0029255D01*
X0191000Y0028657D02*
X0191600Y0028657D01*
X0191600Y0028058D02*
X0191000Y0028058D01*
X0191000Y0027460D02*
X0191600Y0027460D01*
X0191600Y0026861D02*
X0191000Y0026861D01*
X0190385Y0025900D02*
X0188694Y0025200D01*
X0187400Y0023906D01*
X0186700Y0022215D01*
X0186700Y0020385D01*
X0187400Y0018694D01*
X0188694Y0017400D01*
X0190385Y0016700D01*
X0192215Y0016700D01*
X0193906Y0017400D01*
X0195200Y0018694D01*
X0195900Y0020385D01*
X0195900Y0022215D01*
X0195200Y0023906D01*
X0193906Y0025200D01*
X0192215Y0025900D01*
X0190385Y0025900D01*
X0189816Y0025664D02*
X0183748Y0025664D01*
X0184605Y0025066D02*
X0188560Y0025066D01*
X0187962Y0024467D02*
X0185179Y0024467D01*
X0185603Y0023869D02*
X0187385Y0023869D01*
X0187137Y0023270D02*
X0185908Y0023270D01*
X0186112Y0022672D02*
X0186889Y0022672D01*
X0186700Y0022073D02*
X0186240Y0022073D01*
X0186700Y0021475D02*
X0181600Y0021475D01*
X0181600Y0021000D02*
X0186300Y0021000D01*
X0186300Y0020906D01*
X0186177Y0020129D01*
X0185934Y0019381D01*
X0185576Y0018679D01*
X0185114Y0018043D01*
X0184557Y0017486D01*
X0183921Y0017024D01*
X0183219Y0016666D01*
X0182471Y0016423D01*
X0181694Y0016300D01*
X0181600Y0016300D01*
X0181600Y0021000D01*
X0181600Y0020876D02*
X0181000Y0020876D01*
X0181000Y0020278D02*
X0181600Y0020278D01*
X0181600Y0019679D02*
X0181000Y0019679D01*
X0181000Y0019081D02*
X0181600Y0019081D01*
X0181600Y0018482D02*
X0181000Y0018482D01*
X0181000Y0017884D02*
X0181600Y0017884D01*
X0181600Y0017285D02*
X0181000Y0017285D01*
X0181000Y0016687D02*
X0181600Y0016687D01*
X0183259Y0016687D02*
X0208570Y0016687D01*
X0209004Y0017285D02*
X0193628Y0017285D01*
X0194389Y0017884D02*
X0209225Y0017884D01*
X0209052Y0017350D02*
X0207452Y0015148D01*
X0205250Y0013548D01*
X0202661Y0012707D01*
X0201300Y0012600D01*
X0200762Y0012600D01*
X0021300Y0012600D01*
X0019939Y0012707D01*
X0017350Y0013548D01*
X0015148Y0015148D01*
X0013548Y0017350D01*
X0012707Y0019939D01*
X0012600Y0021300D01*
X0012600Y0081300D01*
X0012707Y0082661D01*
X0013548Y0085250D01*
X0015148Y0087452D01*
X0017350Y0089052D01*
X0019939Y0089893D01*
X0021300Y0090000D01*
X0201300Y0090000D01*
X0202661Y0089893D01*
X0205250Y0089052D01*
X0207452Y0087452D01*
X0209052Y0085250D01*
X0209893Y0082661D01*
X0210000Y0081300D01*
X0210000Y0021300D01*
X0209893Y0019939D01*
X0209052Y0017350D01*
X0208135Y0016088D02*
X0165705Y0016088D01*
X0166303Y0016687D02*
X0179341Y0016687D01*
X0178319Y0017285D02*
X0173628Y0017285D01*
X0174389Y0017884D02*
X0177645Y0017884D01*
X0177167Y0018482D02*
X0174988Y0018482D01*
X0175360Y0019081D02*
X0176819Y0019081D01*
X0176569Y0019679D02*
X0175608Y0019679D01*
X0175856Y0020278D02*
X0176400Y0020278D01*
X0176305Y0020876D02*
X0175900Y0020876D01*
X0175900Y0021475D02*
X0181000Y0021475D01*
X0181000Y0022073D02*
X0181600Y0022073D01*
X0181600Y0022672D02*
X0181000Y0022672D01*
X0181000Y0023270D02*
X0181600Y0023270D01*
X0181600Y0023869D02*
X0181000Y0023869D01*
X0181000Y0024467D02*
X0181600Y0024467D01*
X0181600Y0025066D02*
X0181000Y0025066D01*
X0181000Y0025664D02*
X0181600Y0025664D01*
X0178852Y0025664D02*
X0172784Y0025664D01*
X0174040Y0025066D02*
X0177995Y0025066D01*
X0177421Y0024467D02*
X0174638Y0024467D01*
X0175215Y0023869D02*
X0176997Y0023869D01*
X0176692Y0023270D02*
X0175463Y0023270D01*
X0175711Y0022672D02*
X0176488Y0022672D01*
X0176360Y0022073D02*
X0175900Y0022073D01*
X0168560Y0025066D02*
X0167470Y0025066D01*
X0167962Y0024467D02*
X0166871Y0024467D01*
X0167385Y0023869D02*
X0166273Y0023869D01*
X0165674Y0023270D02*
X0167137Y0023270D01*
X0166889Y0022672D02*
X0165711Y0022672D01*
X0165900Y0022073D02*
X0166700Y0022073D01*
X0166283Y0021475D02*
X0165900Y0021475D01*
X0167500Y0017884D02*
X0168211Y0017884D01*
X0168972Y0017285D02*
X0166902Y0017285D01*
X0165106Y0015490D02*
X0207700Y0015490D01*
X0207098Y0014891D02*
X0164508Y0014891D01*
X0184280Y0017285D02*
X0188972Y0017285D01*
X0188211Y0017884D02*
X0184955Y0017884D01*
X0185433Y0018482D02*
X0187612Y0018482D01*
X0187240Y0019081D02*
X0185781Y0019081D01*
X0186031Y0019679D02*
X0186992Y0019679D01*
X0186744Y0020278D02*
X0186200Y0020278D01*
X0186295Y0020876D02*
X0186700Y0020876D01*
X0194040Y0025066D02*
X0210000Y0025066D01*
X0210000Y0025664D02*
X0192784Y0025664D01*
X0194638Y0024467D02*
X0210000Y0024467D01*
X0210000Y0023869D02*
X0195215Y0023869D01*
X0195463Y0023270D02*
X0210000Y0023270D01*
X0210000Y0022672D02*
X0195711Y0022672D01*
X0195900Y0022073D02*
X0210000Y0022073D01*
X0210000Y0021475D02*
X0195900Y0021475D01*
X0195900Y0020876D02*
X0209967Y0020876D01*
X0209920Y0020278D02*
X0195856Y0020278D01*
X0195608Y0019679D02*
X0209808Y0019679D01*
X0209614Y0019081D02*
X0195360Y0019081D01*
X0194988Y0018482D02*
X0209420Y0018482D01*
X0206274Y0014293D02*
X0016326Y0014293D01*
X0015502Y0014891D02*
X0108092Y0014891D01*
X0107494Y0015490D02*
X0014900Y0015490D01*
X0014465Y0016088D02*
X0106895Y0016088D01*
X0106297Y0016687D02*
X0014030Y0016687D01*
X0013596Y0017285D02*
X0028972Y0017285D01*
X0028694Y0017400D02*
X0030385Y0016700D01*
X0032215Y0016700D01*
X0033906Y0017400D01*
X0035200Y0018694D01*
X0035900Y0020385D01*
X0035900Y0022215D01*
X0035200Y0023906D01*
X0033906Y0025200D01*
X0032215Y0025900D01*
X0030385Y0025900D01*
X0028694Y0025200D01*
X0027400Y0023906D01*
X0026700Y0022215D01*
X0026700Y0020385D01*
X0027400Y0018694D01*
X0028694Y0017400D01*
X0028211Y0017884D02*
X0013375Y0017884D01*
X0013180Y0018482D02*
X0027612Y0018482D01*
X0027240Y0019081D02*
X0012986Y0019081D01*
X0012792Y0019679D02*
X0026992Y0019679D01*
X0026744Y0020278D02*
X0012680Y0020278D01*
X0012633Y0020876D02*
X0026700Y0020876D01*
X0026700Y0021475D02*
X0012600Y0021475D01*
X0012600Y0022073D02*
X0026700Y0022073D01*
X0026889Y0022672D02*
X0012600Y0022672D01*
X0012600Y0023270D02*
X0027137Y0023270D01*
X0027385Y0023869D02*
X0012600Y0023869D01*
X0012600Y0024467D02*
X0027962Y0024467D01*
X0028560Y0025066D02*
X0012600Y0025066D01*
X0012600Y0025664D02*
X0029816Y0025664D01*
X0027524Y0027400D02*
X0035076Y0027400D01*
X0036509Y0027994D01*
X0037606Y0029091D01*
X0038200Y0030524D01*
X0038200Y0032076D01*
X0037606Y0033509D01*
X0036509Y0034606D01*
X0035076Y0035200D01*
X0027524Y0035200D01*
X0026091Y0034606D01*
X0024994Y0033509D01*
X0024400Y0032076D01*
X0024400Y0030524D01*
X0024994Y0029091D01*
X0026091Y0027994D01*
X0027524Y0027400D01*
X0027380Y0027460D02*
X0012600Y0027460D01*
X0012600Y0028058D02*
X0026026Y0028058D01*
X0025428Y0028657D02*
X0012600Y0028657D01*
X0012600Y0029255D02*
X0024926Y0029255D01*
X0024678Y0029854D02*
X0012600Y0029854D01*
X0012600Y0030452D02*
X0024430Y0030452D01*
X0024400Y0031051D02*
X0012600Y0031051D01*
X0012600Y0031649D02*
X0024400Y0031649D01*
X0024471Y0032248D02*
X0012600Y0032248D01*
X0012600Y0032846D02*
X0024719Y0032846D01*
X0024967Y0033445D02*
X0012600Y0033445D01*
X0012600Y0034043D02*
X0025528Y0034043D01*
X0026177Y0034642D02*
X0012600Y0034642D01*
X0012600Y0035240D02*
X0049202Y0035240D01*
X0049600Y0035405D02*
X0048783Y0035067D01*
X0047533Y0033817D01*
X0046857Y0032184D01*
X0046857Y0030416D01*
X0047533Y0028783D01*
X0048783Y0027533D01*
X0050416Y0026857D01*
X0052184Y0026857D01*
X0053817Y0027533D01*
X0055067Y0028783D01*
X0055743Y0030416D01*
X0055743Y0032184D01*
X0055067Y0033817D01*
X0053817Y0035067D01*
X0053000Y0035405D01*
X0053000Y0037400D01*
X0055076Y0037400D01*
X0056509Y0037994D01*
X0057606Y0039091D01*
X0058200Y0040524D01*
X0058200Y0042076D01*
X0057606Y0043509D01*
X0056509Y0044606D01*
X0055076Y0045200D01*
X0047524Y0045200D01*
X0046091Y0044606D01*
X0044994Y0043509D01*
X0044400Y0042076D01*
X0044400Y0040524D01*
X0044994Y0039091D01*
X0046091Y0037994D01*
X0047524Y0037400D01*
X0049600Y0037400D01*
X0049600Y0035405D01*
X0049600Y0035839D02*
X0012600Y0035839D01*
X0012600Y0036437D02*
X0049600Y0036437D01*
X0049600Y0037036D02*
X0012600Y0037036D01*
X0012600Y0037634D02*
X0046958Y0037634D01*
X0045852Y0038233D02*
X0012600Y0038233D01*
X0012600Y0038832D02*
X0045253Y0038832D01*
X0044853Y0039430D02*
X0012600Y0039430D01*
X0012600Y0040029D02*
X0044605Y0040029D01*
X0044400Y0040627D02*
X0012600Y0040627D01*
X0012600Y0041226D02*
X0044400Y0041226D01*
X0044400Y0041824D02*
X0012600Y0041824D01*
X0012600Y0042423D02*
X0044544Y0042423D01*
X0044792Y0043021D02*
X0012600Y0043021D01*
X0012600Y0043620D02*
X0045104Y0043620D01*
X0045703Y0044218D02*
X0012600Y0044218D01*
X0012600Y0044817D02*
X0046599Y0044817D01*
X0056001Y0044817D02*
X0098311Y0044817D01*
X0097713Y0044218D02*
X0056897Y0044218D01*
X0057496Y0043620D02*
X0097282Y0043620D01*
X0097034Y0043021D02*
X0057808Y0043021D01*
X0058056Y0042423D02*
X0096786Y0042423D01*
X0096700Y0041824D02*
X0058200Y0041824D01*
X0058200Y0041226D02*
X0096700Y0041226D01*
X0096700Y0040627D02*
X0058200Y0040627D01*
X0057995Y0040029D02*
X0096848Y0040029D01*
X0097096Y0039430D02*
X0057747Y0039430D01*
X0057347Y0038832D02*
X0097343Y0038832D01*
X0097862Y0038233D02*
X0056748Y0038233D01*
X0055642Y0037634D02*
X0098460Y0037634D01*
X0099574Y0037036D02*
X0053000Y0037036D01*
X0053000Y0036437D02*
X0099600Y0036437D01*
X0099600Y0035839D02*
X0053000Y0035839D01*
X0053398Y0035240D02*
X0059202Y0035240D01*
X0058783Y0035067D02*
X0057533Y0033817D01*
X0056857Y0032184D01*
X0056857Y0030416D01*
X0057533Y0028783D01*
X0058783Y0027533D01*
X0060416Y0026857D01*
X0062184Y0026857D01*
X0063817Y0027533D01*
X0065067Y0028783D01*
X0065405Y0029600D01*
X0074783Y0029600D01*
X0074994Y0029091D01*
X0076091Y0027994D01*
X0077524Y0027400D01*
X0085076Y0027400D01*
X0086509Y0027994D01*
X0087606Y0029091D01*
X0088200Y0030524D01*
X0088200Y0032076D01*
X0087606Y0033509D01*
X0086509Y0034606D01*
X0085076Y0035200D01*
X0077524Y0035200D01*
X0076091Y0034606D01*
X0074994Y0033509D01*
X0074783Y0033000D01*
X0065405Y0033000D01*
X0065067Y0033817D01*
X0063817Y0035067D01*
X0062184Y0035743D01*
X0060416Y0035743D01*
X0058783Y0035067D01*
X0058358Y0034642D02*
X0054242Y0034642D01*
X0054840Y0034043D02*
X0057760Y0034043D01*
X0057379Y0033445D02*
X0055221Y0033445D01*
X0055469Y0032846D02*
X0057131Y0032846D01*
X0056883Y0032248D02*
X0055717Y0032248D01*
X0055743Y0031649D02*
X0056857Y0031649D01*
X0056857Y0031051D02*
X0055743Y0031051D01*
X0055743Y0030452D02*
X0056857Y0030452D01*
X0057090Y0029854D02*
X0055510Y0029854D01*
X0055262Y0029255D02*
X0057338Y0029255D01*
X0057659Y0028657D02*
X0054941Y0028657D01*
X0054342Y0028058D02*
X0058258Y0028058D01*
X0058960Y0027460D02*
X0053640Y0027460D01*
X0052195Y0026861D02*
X0060405Y0026861D01*
X0060385Y0025900D02*
X0058694Y0025200D01*
X0057400Y0023906D01*
X0056700Y0022215D01*
X0056700Y0020385D01*
X0057400Y0018694D01*
X0058694Y0017400D01*
X0060385Y0016700D01*
X0062215Y0016700D01*
X0063906Y0017400D01*
X0065200Y0018694D01*
X0065900Y0020385D01*
X0065900Y0022215D01*
X0065200Y0023906D01*
X0063906Y0025200D01*
X0062215Y0025900D01*
X0060385Y0025900D01*
X0059816Y0025664D02*
X0052784Y0025664D01*
X0052215Y0025900D02*
X0053906Y0025200D01*
X0055200Y0023906D01*
X0055900Y0022215D01*
X0055900Y0020385D01*
X0055200Y0018694D01*
X0053906Y0017400D01*
X0052215Y0016700D01*
X0050385Y0016700D01*
X0048694Y0017400D01*
X0047400Y0018694D01*
X0046700Y0020385D01*
X0046700Y0022215D01*
X0047400Y0023906D01*
X0048694Y0025200D01*
X0050385Y0025900D01*
X0052215Y0025900D01*
X0054040Y0025066D02*
X0058560Y0025066D01*
X0057962Y0024467D02*
X0054638Y0024467D01*
X0055215Y0023869D02*
X0057385Y0023869D01*
X0057137Y0023270D02*
X0055463Y0023270D01*
X0055711Y0022672D02*
X0056889Y0022672D01*
X0056700Y0022073D02*
X0055900Y0022073D01*
X0055900Y0021475D02*
X0056700Y0021475D01*
X0056700Y0020876D02*
X0055900Y0020876D01*
X0055856Y0020278D02*
X0056744Y0020278D01*
X0056992Y0019679D02*
X0055608Y0019679D01*
X0055360Y0019081D02*
X0057240Y0019081D01*
X0057612Y0018482D02*
X0054988Y0018482D01*
X0054389Y0017884D02*
X0058211Y0017884D01*
X0058972Y0017285D02*
X0053628Y0017285D01*
X0048972Y0017285D02*
X0043628Y0017285D01*
X0043906Y0017400D02*
X0045200Y0018694D01*
X0045900Y0020385D01*
X0045900Y0022215D01*
X0045200Y0023906D01*
X0043906Y0025200D01*
X0042215Y0025900D01*
X0040385Y0025900D01*
X0038694Y0025200D01*
X0037400Y0023906D01*
X0036700Y0022215D01*
X0036700Y0020385D01*
X0037400Y0018694D01*
X0038694Y0017400D01*
X0040385Y0016700D01*
X0042215Y0016700D01*
X0043906Y0017400D01*
X0044389Y0017884D02*
X0048211Y0017884D01*
X0047612Y0018482D02*
X0044988Y0018482D01*
X0045360Y0019081D02*
X0047240Y0019081D01*
X0046992Y0019679D02*
X0045608Y0019679D01*
X0045856Y0020278D02*
X0046744Y0020278D01*
X0046700Y0020876D02*
X0045900Y0020876D01*
X0045900Y0021475D02*
X0046700Y0021475D01*
X0046700Y0022073D02*
X0045900Y0022073D01*
X0045711Y0022672D02*
X0046889Y0022672D01*
X0047137Y0023270D02*
X0045463Y0023270D01*
X0045215Y0023869D02*
X0047385Y0023869D01*
X0047962Y0024467D02*
X0044638Y0024467D01*
X0044040Y0025066D02*
X0048560Y0025066D01*
X0049816Y0025664D02*
X0042784Y0025664D01*
X0039816Y0025664D02*
X0032784Y0025664D01*
X0034040Y0025066D02*
X0038560Y0025066D01*
X0037962Y0024467D02*
X0034638Y0024467D01*
X0035215Y0023869D02*
X0037385Y0023869D01*
X0037137Y0023270D02*
X0035463Y0023270D01*
X0035711Y0022672D02*
X0036889Y0022672D01*
X0036700Y0022073D02*
X0035900Y0022073D01*
X0035900Y0021475D02*
X0036700Y0021475D01*
X0036700Y0020876D02*
X0035900Y0020876D01*
X0035856Y0020278D02*
X0036744Y0020278D01*
X0036992Y0019679D02*
X0035608Y0019679D01*
X0035360Y0019081D02*
X0037240Y0019081D01*
X0037612Y0018482D02*
X0034988Y0018482D01*
X0034389Y0017884D02*
X0038211Y0017884D01*
X0038972Y0017285D02*
X0033628Y0017285D01*
X0018744Y0013096D02*
X0203856Y0013096D01*
X0205450Y0013694D02*
X0017150Y0013694D01*
X0012600Y0026263D02*
X0096646Y0026263D01*
X0097245Y0026861D02*
X0062195Y0026861D01*
X0062784Y0025664D02*
X0069816Y0025664D01*
X0070385Y0025900D02*
X0068694Y0025200D01*
X0067400Y0023906D01*
X0066700Y0022215D01*
X0066700Y0020385D01*
X0067400Y0018694D01*
X0068694Y0017400D01*
X0070385Y0016700D01*
X0072215Y0016700D01*
X0073906Y0017400D01*
X0075200Y0018694D01*
X0075900Y0020385D01*
X0075900Y0022215D01*
X0075200Y0023906D01*
X0073906Y0025200D01*
X0072215Y0025900D01*
X0070385Y0025900D01*
X0068560Y0025066D02*
X0064040Y0025066D01*
X0064638Y0024467D02*
X0067962Y0024467D01*
X0067385Y0023869D02*
X0065215Y0023869D01*
X0065463Y0023270D02*
X0067137Y0023270D01*
X0066889Y0022672D02*
X0065711Y0022672D01*
X0065900Y0022073D02*
X0066700Y0022073D01*
X0066700Y0021475D02*
X0065900Y0021475D01*
X0065900Y0020876D02*
X0066700Y0020876D01*
X0066744Y0020278D02*
X0065856Y0020278D01*
X0065608Y0019679D02*
X0066992Y0019679D01*
X0067240Y0019081D02*
X0065360Y0019081D01*
X0064988Y0018482D02*
X0067612Y0018482D01*
X0068211Y0017884D02*
X0064389Y0017884D01*
X0063628Y0017285D02*
X0068972Y0017285D01*
X0073628Y0017285D02*
X0078972Y0017285D01*
X0078694Y0017400D02*
X0080385Y0016700D01*
X0082215Y0016700D01*
X0083906Y0017400D01*
X0085200Y0018694D01*
X0085900Y0020385D01*
X0085900Y0022215D01*
X0085200Y0023906D01*
X0083906Y0025200D01*
X0082215Y0025900D01*
X0080385Y0025900D01*
X0078694Y0025200D01*
X0077400Y0023906D01*
X0076700Y0022215D01*
X0076700Y0020385D01*
X0077400Y0018694D01*
X0078694Y0017400D01*
X0078211Y0017884D02*
X0074389Y0017884D01*
X0074988Y0018482D02*
X0077612Y0018482D01*
X0077240Y0019081D02*
X0075360Y0019081D01*
X0075608Y0019679D02*
X0076992Y0019679D01*
X0076744Y0020278D02*
X0075856Y0020278D01*
X0075900Y0020876D02*
X0076700Y0020876D01*
X0076700Y0021475D02*
X0075900Y0021475D01*
X0075900Y0022073D02*
X0076700Y0022073D01*
X0076889Y0022672D02*
X0075711Y0022672D01*
X0075463Y0023270D02*
X0077137Y0023270D01*
X0077385Y0023869D02*
X0075215Y0023869D01*
X0074638Y0024467D02*
X0077962Y0024467D01*
X0078560Y0025066D02*
X0074040Y0025066D01*
X0072784Y0025664D02*
X0079816Y0025664D01*
X0077380Y0027460D02*
X0063640Y0027460D01*
X0064342Y0028058D02*
X0076026Y0028058D01*
X0075428Y0028657D02*
X0064941Y0028657D01*
X0065262Y0029255D02*
X0074926Y0029255D01*
X0074967Y0033445D02*
X0065221Y0033445D01*
X0064840Y0034043D02*
X0075528Y0034043D01*
X0076177Y0034642D02*
X0064242Y0034642D01*
X0063398Y0035240D02*
X0099301Y0035240D01*
X0098702Y0034642D02*
X0086423Y0034642D01*
X0087072Y0034043D02*
X0098104Y0034043D01*
X0097505Y0033445D02*
X0087633Y0033445D01*
X0087881Y0032846D02*
X0097100Y0032846D01*
X0097100Y0032248D02*
X0088129Y0032248D01*
X0088200Y0031649D02*
X0097100Y0031649D01*
X0097100Y0031051D02*
X0088200Y0031051D01*
X0088170Y0030452D02*
X0097100Y0030452D01*
X0097100Y0029854D02*
X0087922Y0029854D01*
X0087674Y0029255D02*
X0097405Y0029255D01*
X0098003Y0028657D02*
X0087172Y0028657D01*
X0086574Y0028058D02*
X0098442Y0028058D01*
X0097843Y0027460D02*
X0085220Y0027460D01*
X0082784Y0025664D02*
X0089816Y0025664D01*
X0088560Y0025066D02*
X0084040Y0025066D01*
X0084638Y0024467D02*
X0087962Y0024467D01*
X0087385Y0023869D02*
X0085215Y0023869D01*
X0085463Y0023270D02*
X0087137Y0023270D01*
X0086889Y0022672D02*
X0085711Y0022672D01*
X0085900Y0022073D02*
X0086700Y0022073D01*
X0086700Y0021475D02*
X0085900Y0021475D01*
X0085900Y0020876D02*
X0086700Y0020876D01*
X0086744Y0020278D02*
X0085856Y0020278D01*
X0085608Y0019679D02*
X0086992Y0019679D01*
X0087240Y0019081D02*
X0085360Y0019081D01*
X0084988Y0018482D02*
X0087612Y0018482D01*
X0088211Y0017884D02*
X0084389Y0017884D01*
X0083628Y0017285D02*
X0088972Y0017285D01*
X0093628Y0017285D02*
X0098972Y0017285D01*
X0098211Y0017884D02*
X0094389Y0017884D01*
X0094988Y0018482D02*
X0097612Y0018482D01*
X0097240Y0019081D02*
X0095360Y0019081D01*
X0095608Y0019679D02*
X0096992Y0019679D01*
X0096744Y0020278D02*
X0095856Y0020278D01*
X0096068Y0020876D02*
X0096700Y0020876D01*
X0096666Y0021475D02*
X0096700Y0021475D01*
X0094851Y0024467D02*
X0094638Y0024467D01*
X0094040Y0025066D02*
X0095449Y0025066D01*
X0096048Y0025664D02*
X0092784Y0025664D01*
X0104389Y0017884D02*
X0105100Y0017884D01*
X0105698Y0017285D02*
X0103628Y0017285D01*
X0103026Y0037036D02*
X0109574Y0037036D01*
X0108460Y0037634D02*
X0104140Y0037634D01*
X0104738Y0038233D02*
X0107862Y0038233D01*
X0107343Y0038832D02*
X0105257Y0038832D01*
X0105504Y0039430D02*
X0107096Y0039430D01*
X0106848Y0040029D02*
X0105752Y0040029D01*
X0105900Y0040627D02*
X0106700Y0040627D01*
X0106700Y0041226D02*
X0105900Y0041226D01*
X0105900Y0041824D02*
X0106700Y0041824D01*
X0106786Y0042423D02*
X0105814Y0042423D01*
X0105566Y0043021D02*
X0107034Y0043021D01*
X0107282Y0043620D02*
X0105318Y0043620D01*
X0104887Y0044218D02*
X0107713Y0044218D01*
X0108311Y0044817D02*
X0104289Y0044817D01*
X0103386Y0045415D02*
X0109214Y0045415D01*
X0110796Y0046612D02*
X0012600Y0046612D01*
X0012600Y0046014D02*
X0111395Y0046014D01*
X0110198Y0047211D02*
X0012600Y0047211D01*
X0012600Y0047809D02*
X0109599Y0047809D01*
X0109001Y0048408D02*
X0012600Y0048408D01*
X0012600Y0049006D02*
X0108402Y0049006D01*
X0107804Y0049605D02*
X0012600Y0049605D01*
X0012600Y0050203D02*
X0107205Y0050203D01*
X0106607Y0050802D02*
X0012600Y0050802D01*
X0012600Y0051400D02*
X0106008Y0051400D01*
X0105410Y0051999D02*
X0012600Y0051999D01*
X0012600Y0052597D02*
X0104811Y0052597D01*
X0104213Y0053196D02*
X0012600Y0053196D01*
X0012600Y0053794D02*
X0103614Y0053794D01*
X0103016Y0054393D02*
X0012600Y0054393D01*
X0012600Y0054991D02*
X0097992Y0054991D01*
X0097393Y0055590D02*
X0012600Y0055590D01*
X0012600Y0056188D02*
X0049615Y0056188D01*
X0050416Y0055857D02*
X0048783Y0056533D01*
X0047533Y0057783D01*
X0046857Y0059416D01*
X0046857Y0061184D01*
X0047533Y0062817D01*
X0048783Y0064067D01*
X0049600Y0064405D01*
X0049600Y0066400D01*
X0047524Y0066400D01*
X0046091Y0066994D01*
X0044994Y0068091D01*
X0044400Y0069524D01*
X0044400Y0071076D01*
X0044994Y0072509D01*
X0046091Y0073606D01*
X0047524Y0074200D01*
X0055076Y0074200D01*
X0056509Y0073606D01*
X0057606Y0072509D01*
X0058200Y0071076D01*
X0058200Y0069524D01*
X0057606Y0068091D01*
X0056509Y0066994D01*
X0055076Y0066400D01*
X0053000Y0066400D01*
X0053000Y0064405D01*
X0053817Y0064067D01*
X0055067Y0062817D01*
X0055743Y0061184D01*
X0055743Y0059416D01*
X0055067Y0057783D01*
X0053817Y0056533D01*
X0052184Y0055857D01*
X0050416Y0055857D01*
X0048529Y0056787D02*
X0036010Y0056787D01*
X0036509Y0056994D02*
X0037606Y0058091D01*
X0038200Y0059524D01*
X0038200Y0061076D01*
X0037606Y0062509D01*
X0036509Y0063606D01*
X0035076Y0064200D01*
X0027524Y0064200D01*
X0026091Y0063606D01*
X0024994Y0062509D01*
X0024400Y0061076D01*
X0024400Y0059524D01*
X0024994Y0058091D01*
X0026091Y0056994D01*
X0027524Y0056400D01*
X0035076Y0056400D01*
X0036509Y0056994D01*
X0036901Y0057385D02*
X0047931Y0057385D01*
X0047450Y0057984D02*
X0037499Y0057984D01*
X0037810Y0058582D02*
X0047202Y0058582D01*
X0046954Y0059181D02*
X0038058Y0059181D01*
X0038200Y0059779D02*
X0046857Y0059779D01*
X0046857Y0060378D02*
X0038200Y0060378D01*
X0038200Y0060976D02*
X0046857Y0060976D01*
X0047019Y0061575D02*
X0037993Y0061575D01*
X0037745Y0062173D02*
X0047267Y0062173D01*
X0047515Y0062772D02*
X0037343Y0062772D01*
X0036745Y0063370D02*
X0048087Y0063370D01*
X0048685Y0063969D02*
X0035633Y0063969D01*
X0026967Y0063969D02*
X0012600Y0063969D01*
X0012600Y0064568D02*
X0049600Y0064568D01*
X0049600Y0065166D02*
X0012600Y0065166D01*
X0012600Y0065765D02*
X0049600Y0065765D01*
X0049600Y0066363D02*
X0012600Y0066363D01*
X0012600Y0066962D02*
X0046169Y0066962D01*
X0045524Y0067560D02*
X0012600Y0067560D01*
X0012600Y0068159D02*
X0044966Y0068159D01*
X0044718Y0068757D02*
X0012600Y0068757D01*
X0012600Y0069356D02*
X0044470Y0069356D01*
X0044400Y0069954D02*
X0012600Y0069954D01*
X0012600Y0070553D02*
X0044400Y0070553D01*
X0044431Y0071151D02*
X0012600Y0071151D01*
X0012600Y0071750D02*
X0044679Y0071750D01*
X0044927Y0072348D02*
X0012600Y0072348D01*
X0012600Y0072947D02*
X0045431Y0072947D01*
X0046030Y0073545D02*
X0012600Y0073545D01*
X0012600Y0074144D02*
X0047388Y0074144D01*
X0048694Y0077400D02*
X0050385Y0076700D01*
X0052215Y0076700D01*
X0053906Y0077400D01*
X0055200Y0078694D01*
X0055900Y0080385D01*
X0055900Y0082215D01*
X0055200Y0083906D01*
X0053906Y0085200D01*
X0052215Y0085900D01*
X0050385Y0085900D01*
X0048694Y0085200D01*
X0047400Y0083906D01*
X0046700Y0082215D01*
X0046700Y0080385D01*
X0047400Y0078694D01*
X0048694Y0077400D01*
X0048360Y0077735D02*
X0044240Y0077735D01*
X0043906Y0077400D02*
X0045200Y0078694D01*
X0045900Y0080385D01*
X0045900Y0082215D01*
X0045200Y0083906D01*
X0043906Y0085200D01*
X0042215Y0085900D01*
X0040385Y0085900D01*
X0038694Y0085200D01*
X0037400Y0083906D01*
X0036700Y0082215D01*
X0036700Y0080385D01*
X0037400Y0078694D01*
X0038694Y0077400D01*
X0040385Y0076700D01*
X0042215Y0076700D01*
X0043906Y0077400D01*
X0043268Y0077136D02*
X0049332Y0077136D01*
X0047761Y0078333D02*
X0044839Y0078333D01*
X0045298Y0078932D02*
X0047302Y0078932D01*
X0047054Y0079530D02*
X0045546Y0079530D01*
X0045794Y0080129D02*
X0046806Y0080129D01*
X0046700Y0080727D02*
X0045900Y0080727D01*
X0045900Y0081326D02*
X0046700Y0081326D01*
X0046700Y0081924D02*
X0045900Y0081924D01*
X0045772Y0082523D02*
X0046828Y0082523D01*
X0047075Y0083121D02*
X0045525Y0083121D01*
X0045277Y0083720D02*
X0047323Y0083720D01*
X0047813Y0084318D02*
X0044787Y0084318D01*
X0044188Y0084917D02*
X0048412Y0084917D01*
X0049457Y0085515D02*
X0043143Y0085515D01*
X0039457Y0085515D02*
X0034005Y0085515D01*
X0033921Y0085576D02*
X0033219Y0085934D01*
X0032471Y0086177D01*
X0031694Y0086300D01*
X0031600Y0086300D01*
X0031600Y0081600D01*
X0031000Y0081600D01*
X0031000Y0086300D01*
X0030906Y0086300D01*
X0030129Y0086177D01*
X0029381Y0085934D01*
X0028679Y0085576D01*
X0028043Y0085114D01*
X0027486Y0084557D01*
X0027024Y0083921D01*
X0026666Y0083219D01*
X0026423Y0082471D01*
X0026300Y0081694D01*
X0026300Y0081600D01*
X0031000Y0081600D01*
X0031000Y0081000D01*
X0026300Y0081000D01*
X0026300Y0080906D01*
X0026423Y0080129D01*
X0026666Y0079381D01*
X0027024Y0078679D01*
X0027486Y0078043D01*
X0028043Y0077486D01*
X0028679Y0077024D01*
X0029381Y0076666D01*
X0030129Y0076423D01*
X0030906Y0076300D01*
X0031000Y0076300D01*
X0031000Y0081000D01*
X0031600Y0081000D01*
X0031600Y0081600D01*
X0036300Y0081600D01*
X0036300Y0081694D01*
X0036177Y0082471D01*
X0035934Y0083219D01*
X0035576Y0083921D01*
X0035114Y0084557D01*
X0034557Y0085114D01*
X0033921Y0085576D01*
X0034754Y0084917D02*
X0038412Y0084917D01*
X0037813Y0084318D02*
X0035287Y0084318D01*
X0035679Y0083720D02*
X0037323Y0083720D01*
X0037075Y0083121D02*
X0035966Y0083121D01*
X0036160Y0082523D02*
X0036828Y0082523D01*
X0036700Y0081924D02*
X0036263Y0081924D01*
X0036700Y0081326D02*
X0031600Y0081326D01*
X0031600Y0081000D02*
X0036300Y0081000D01*
X0036300Y0080906D01*
X0036177Y0080129D01*
X0035934Y0079381D01*
X0035576Y0078679D01*
X0035114Y0078043D01*
X0034557Y0077486D01*
X0033921Y0077024D01*
X0033219Y0076666D01*
X0032471Y0076423D01*
X0031694Y0076300D01*
X0031600Y0076300D01*
X0031600Y0081000D01*
X0031600Y0080727D02*
X0031000Y0080727D01*
X0031000Y0080129D02*
X0031600Y0080129D01*
X0031600Y0079530D02*
X0031000Y0079530D01*
X0031000Y0078932D02*
X0031600Y0078932D01*
X0031600Y0078333D02*
X0031000Y0078333D01*
X0031000Y0077735D02*
X0031600Y0077735D01*
X0031600Y0077136D02*
X0031000Y0077136D01*
X0031000Y0076538D02*
X0031600Y0076538D01*
X0032824Y0076538D02*
X0169776Y0076538D01*
X0170129Y0076423D02*
X0170906Y0076300D01*
X0171000Y0076300D01*
X0171000Y0081000D01*
X0166300Y0081000D01*
X0166300Y0080906D01*
X0166423Y0080129D01*
X0166666Y0079381D01*
X0167024Y0078679D01*
X0167486Y0078043D01*
X0168043Y0077486D01*
X0168679Y0077024D01*
X0169381Y0076666D01*
X0170129Y0076423D01*
X0171000Y0076538D02*
X0171600Y0076538D01*
X0171600Y0076300D02*
X0171694Y0076300D01*
X0172471Y0076423D01*
X0173219Y0076666D01*
X0173921Y0077024D01*
X0174557Y0077486D01*
X0175114Y0078043D01*
X0175576Y0078679D01*
X0175934Y0079381D01*
X0176177Y0080129D01*
X0176300Y0080906D01*
X0176300Y0081000D01*
X0171600Y0081000D01*
X0171600Y0081600D01*
X0171000Y0081600D01*
X0171000Y0086300D01*
X0170906Y0086300D01*
X0170129Y0086177D01*
X0169381Y0085934D01*
X0168679Y0085576D01*
X0168043Y0085114D01*
X0167486Y0084557D01*
X0167024Y0083921D01*
X0166666Y0083219D01*
X0166423Y0082471D01*
X0166300Y0081694D01*
X0166300Y0081600D01*
X0171000Y0081600D01*
X0171000Y0081000D01*
X0171600Y0081000D01*
X0171600Y0076300D01*
X0171600Y0077136D02*
X0171000Y0077136D01*
X0171000Y0077735D02*
X0171600Y0077735D01*
X0171600Y0078333D02*
X0171000Y0078333D01*
X0171000Y0078932D02*
X0171600Y0078932D01*
X0171600Y0079530D02*
X0171000Y0079530D01*
X0171000Y0080129D02*
X0171600Y0080129D01*
X0171600Y0080727D02*
X0171000Y0080727D01*
X0171000Y0081326D02*
X0165900Y0081326D01*
X0165900Y0081924D02*
X0166337Y0081924D01*
X0165900Y0082215D02*
X0165900Y0080385D01*
X0165200Y0078694D01*
X0163906Y0077400D01*
X0162215Y0076700D01*
X0160385Y0076700D01*
X0158694Y0077400D01*
X0157400Y0078694D01*
X0156700Y0080385D01*
X0156700Y0082215D01*
X0157400Y0083906D01*
X0158694Y0085200D01*
X0160385Y0085900D01*
X0162215Y0085900D01*
X0163906Y0085200D01*
X0165200Y0083906D01*
X0165900Y0082215D01*
X0165772Y0082523D02*
X0166440Y0082523D01*
X0166634Y0083121D02*
X0165525Y0083121D01*
X0165277Y0083720D02*
X0166921Y0083720D01*
X0167313Y0084318D02*
X0164787Y0084318D01*
X0164188Y0084917D02*
X0167846Y0084917D01*
X0168595Y0085515D02*
X0163143Y0085515D01*
X0159457Y0085515D02*
X0143143Y0085515D01*
X0143906Y0085200D02*
X0142215Y0085900D01*
X0140385Y0085900D01*
X0138694Y0085200D01*
X0137400Y0083906D01*
X0136700Y0082215D01*
X0136700Y0080385D01*
X0137400Y0078694D01*
X0138694Y0077400D01*
X0140385Y0076700D01*
X0142215Y0076700D01*
X0143906Y0077400D01*
X0145200Y0078694D01*
X0145900Y0080385D01*
X0145900Y0082215D01*
X0145200Y0083906D01*
X0143906Y0085200D01*
X0144188Y0084917D02*
X0158412Y0084917D01*
X0157813Y0084318D02*
X0144787Y0084318D01*
X0145277Y0083720D02*
X0157323Y0083720D01*
X0157075Y0083121D02*
X0145525Y0083121D01*
X0145772Y0082523D02*
X0156828Y0082523D01*
X0156700Y0081924D02*
X0145900Y0081924D01*
X0145900Y0081326D02*
X0156700Y0081326D01*
X0156700Y0080727D02*
X0145900Y0080727D01*
X0145794Y0080129D02*
X0156806Y0080129D01*
X0157054Y0079530D02*
X0145546Y0079530D01*
X0145298Y0078932D02*
X0157302Y0078932D01*
X0157761Y0078333D02*
X0144839Y0078333D01*
X0144240Y0077735D02*
X0158360Y0077735D01*
X0159332Y0077136D02*
X0143268Y0077136D01*
X0139332Y0077136D02*
X0133268Y0077136D01*
X0133906Y0077400D02*
X0135200Y0078694D01*
X0135900Y0080385D01*
X0135900Y0082215D01*
X0135200Y0083906D01*
X0133906Y0085200D01*
X0132215Y0085900D01*
X0130385Y0085900D01*
X0128694Y0085200D01*
X0127400Y0083906D01*
X0126700Y0082215D01*
X0126700Y0080385D01*
X0127400Y0078694D01*
X0128694Y0077400D01*
X0130385Y0076700D01*
X0132215Y0076700D01*
X0133906Y0077400D01*
X0134240Y0077735D02*
X0138360Y0077735D01*
X0137761Y0078333D02*
X0134839Y0078333D01*
X0135298Y0078932D02*
X0137302Y0078932D01*
X0137054Y0079530D02*
X0135546Y0079530D01*
X0135794Y0080129D02*
X0136806Y0080129D01*
X0136700Y0080727D02*
X0135900Y0080727D01*
X0135900Y0081326D02*
X0136700Y0081326D01*
X0136700Y0081924D02*
X0135900Y0081924D01*
X0135772Y0082523D02*
X0136828Y0082523D01*
X0137075Y0083121D02*
X0135525Y0083121D01*
X0135277Y0083720D02*
X0137323Y0083720D01*
X0137813Y0084318D02*
X0134787Y0084318D01*
X0134188Y0084917D02*
X0138412Y0084917D01*
X0139457Y0085515D02*
X0133143Y0085515D01*
X0129457Y0085515D02*
X0123143Y0085515D01*
X0123906Y0085200D02*
X0122215Y0085900D01*
X0120385Y0085900D01*
X0118694Y0085200D01*
X0117400Y0083906D01*
X0116700Y0082215D01*
X0116700Y0080385D01*
X0117400Y0078694D01*
X0118694Y0077400D01*
X0120385Y0076700D01*
X0122215Y0076700D01*
X0123906Y0077400D01*
X0125200Y0078694D01*
X0125900Y0080385D01*
X0125900Y0082215D01*
X0125200Y0083906D01*
X0123906Y0085200D01*
X0124188Y0084917D02*
X0128412Y0084917D01*
X0127813Y0084318D02*
X0124787Y0084318D01*
X0125277Y0083720D02*
X0127323Y0083720D01*
X0127075Y0083121D02*
X0125525Y0083121D01*
X0125772Y0082523D02*
X0126828Y0082523D01*
X0126700Y0081924D02*
X0125900Y0081924D01*
X0125900Y0081326D02*
X0126700Y0081326D01*
X0126700Y0080727D02*
X0125900Y0080727D01*
X0125794Y0080129D02*
X0126806Y0080129D01*
X0127054Y0079530D02*
X0125546Y0079530D01*
X0125298Y0078932D02*
X0127302Y0078932D01*
X0127761Y0078333D02*
X0124839Y0078333D01*
X0124240Y0077735D02*
X0128360Y0077735D01*
X0129332Y0077136D02*
X0123268Y0077136D01*
X0119332Y0077136D02*
X0113268Y0077136D01*
X0113906Y0077400D02*
X0115200Y0078694D01*
X0115900Y0080385D01*
X0115900Y0082215D01*
X0115200Y0083906D01*
X0113906Y0085200D01*
X0112215Y0085900D01*
X0110385Y0085900D01*
X0108694Y0085200D01*
X0107400Y0083906D01*
X0106700Y0082215D01*
X0106700Y0080385D01*
X0107400Y0078694D01*
X0108694Y0077400D01*
X0110385Y0076700D01*
X0112215Y0076700D01*
X0113906Y0077400D01*
X0114240Y0077735D02*
X0118360Y0077735D01*
X0117761Y0078333D02*
X0114839Y0078333D01*
X0115298Y0078932D02*
X0117302Y0078932D01*
X0117054Y0079530D02*
X0115546Y0079530D01*
X0115794Y0080129D02*
X0116806Y0080129D01*
X0116700Y0080727D02*
X0115900Y0080727D01*
X0115900Y0081326D02*
X0116700Y0081326D01*
X0116700Y0081924D02*
X0115900Y0081924D01*
X0115772Y0082523D02*
X0116828Y0082523D01*
X0117075Y0083121D02*
X0115525Y0083121D01*
X0115277Y0083720D02*
X0117323Y0083720D01*
X0117813Y0084318D02*
X0114787Y0084318D01*
X0114188Y0084917D02*
X0118412Y0084917D01*
X0119457Y0085515D02*
X0113143Y0085515D01*
X0109457Y0085515D02*
X0103143Y0085515D01*
X0103906Y0085200D02*
X0102215Y0085900D01*
X0100385Y0085900D01*
X0098694Y0085200D01*
X0097400Y0083906D01*
X0096700Y0082215D01*
X0096700Y0080385D01*
X0097400Y0078694D01*
X0098694Y0077400D01*
X0100385Y0076700D01*
X0102215Y0076700D01*
X0103906Y0077400D01*
X0105200Y0078694D01*
X0105900Y0080385D01*
X0105900Y0082215D01*
X0105200Y0083906D01*
X0103906Y0085200D01*
X0104188Y0084917D02*
X0108412Y0084917D01*
X0107813Y0084318D02*
X0104787Y0084318D01*
X0105277Y0083720D02*
X0107323Y0083720D01*
X0107075Y0083121D02*
X0105525Y0083121D01*
X0105772Y0082523D02*
X0106828Y0082523D01*
X0106700Y0081924D02*
X0105900Y0081924D01*
X0105900Y0081326D02*
X0106700Y0081326D01*
X0106700Y0080727D02*
X0105900Y0080727D01*
X0105794Y0080129D02*
X0106806Y0080129D01*
X0107054Y0079530D02*
X0105546Y0079530D01*
X0105298Y0078932D02*
X0107302Y0078932D01*
X0107761Y0078333D02*
X0104839Y0078333D01*
X0104240Y0077735D02*
X0108360Y0077735D01*
X0109332Y0077136D02*
X0103268Y0077136D01*
X0103199Y0075341D02*
X0129401Y0075341D01*
X0128803Y0074742D02*
X0103797Y0074742D01*
X0104396Y0074144D02*
X0128204Y0074144D01*
X0127605Y0073545D02*
X0104995Y0073545D01*
X0105500Y0072947D02*
X0127100Y0072947D01*
X0127100Y0072348D02*
X0105500Y0072348D01*
X0105500Y0071750D02*
X0127100Y0071750D01*
X0127100Y0071151D02*
X0105500Y0071151D01*
X0105500Y0070553D02*
X0127100Y0070553D01*
X0127100Y0069954D02*
X0105500Y0069954D01*
X0105295Y0069356D02*
X0127305Y0069356D01*
X0127903Y0068757D02*
X0104697Y0068757D01*
X0104098Y0068159D02*
X0128502Y0068159D01*
X0129100Y0067560D02*
X0103500Y0067560D01*
X0103000Y0066962D02*
X0129600Y0066962D01*
X0129600Y0066363D02*
X0103000Y0066363D01*
X0103000Y0065765D02*
X0110058Y0065765D01*
X0110385Y0065900D02*
X0108694Y0065200D01*
X0107400Y0063906D01*
X0106700Y0062215D01*
X0106700Y0060385D01*
X0107400Y0058694D01*
X0108694Y0057400D01*
X0110385Y0056700D01*
X0112215Y0056700D01*
X0113906Y0057400D01*
X0115200Y0058694D01*
X0115900Y0060385D01*
X0115900Y0062215D01*
X0115200Y0063906D01*
X0113906Y0065200D01*
X0112215Y0065900D01*
X0110385Y0065900D01*
X0108661Y0065166D02*
X0103939Y0065166D01*
X0104538Y0064568D02*
X0108062Y0064568D01*
X0107464Y0063969D02*
X0105136Y0063969D01*
X0105421Y0063370D02*
X0107179Y0063370D01*
X0106931Y0062772D02*
X0105669Y0062772D01*
X0105900Y0062173D02*
X0106700Y0062173D01*
X0106700Y0061575D02*
X0105900Y0061575D01*
X0105900Y0060976D02*
X0106700Y0060976D01*
X0106703Y0060378D02*
X0105897Y0060378D01*
X0105649Y0059779D02*
X0106951Y0059779D01*
X0107199Y0059181D02*
X0105401Y0059181D01*
X0105088Y0058582D02*
X0107512Y0058582D01*
X0108111Y0057984D02*
X0104489Y0057984D01*
X0104831Y0057385D02*
X0108730Y0057385D01*
X0110175Y0056787D02*
X0105430Y0056787D01*
X0106028Y0056188D02*
X0129600Y0056188D01*
X0129600Y0055590D02*
X0106627Y0055590D01*
X0107225Y0054991D02*
X0129600Y0054991D01*
X0129600Y0054393D02*
X0107824Y0054393D01*
X0108422Y0053794D02*
X0129600Y0053794D01*
X0129600Y0053196D02*
X0109021Y0053196D01*
X0109619Y0052597D02*
X0129600Y0052597D01*
X0129600Y0051999D02*
X0110218Y0051999D01*
X0110816Y0051400D02*
X0129600Y0051400D01*
X0129600Y0050802D02*
X0111415Y0050802D01*
X0112013Y0050203D02*
X0129600Y0050203D01*
X0129600Y0049605D02*
X0112612Y0049605D01*
X0113210Y0049006D02*
X0129600Y0049006D01*
X0129600Y0048408D02*
X0113809Y0048408D01*
X0114407Y0047809D02*
X0129600Y0047809D01*
X0129600Y0047211D02*
X0115006Y0047211D01*
X0115604Y0046612D02*
X0129600Y0046612D01*
X0129600Y0046014D02*
X0116203Y0046014D01*
X0116802Y0045415D02*
X0129600Y0045415D01*
X0129600Y0044817D02*
X0117400Y0044817D01*
X0117999Y0044218D02*
X0129600Y0044218D01*
X0129600Y0043620D02*
X0118100Y0043620D01*
X0118100Y0043021D02*
X0129600Y0043021D01*
X0129600Y0042423D02*
X0118100Y0042423D01*
X0118100Y0041824D02*
X0129600Y0041824D01*
X0129600Y0041226D02*
X0118100Y0041226D01*
X0118377Y0040627D02*
X0129600Y0040627D01*
X0129600Y0040029D02*
X0118976Y0040029D01*
X0133000Y0046014D02*
X0183610Y0046014D01*
X0184208Y0046612D02*
X0133000Y0046612D01*
X0133000Y0056787D02*
X0155175Y0056787D01*
X0155385Y0056700D02*
X0157215Y0056700D01*
X0158906Y0057400D01*
X0160200Y0058694D01*
X0160900Y0060385D01*
X0160900Y0062215D01*
X0160200Y0063906D01*
X0158906Y0065200D01*
X0157215Y0065900D01*
X0155385Y0065900D01*
X0153694Y0065200D01*
X0152400Y0063906D01*
X0151700Y0062215D01*
X0151700Y0060385D01*
X0152400Y0058694D01*
X0153694Y0057400D01*
X0155385Y0056700D01*
X0153730Y0057385D02*
X0133000Y0057385D01*
X0133000Y0057984D02*
X0153111Y0057984D01*
X0152512Y0058582D02*
X0133000Y0058582D01*
X0133000Y0059181D02*
X0152199Y0059181D01*
X0151951Y0059779D02*
X0133000Y0059779D01*
X0133000Y0060378D02*
X0151703Y0060378D01*
X0151700Y0060976D02*
X0133000Y0060976D01*
X0133000Y0061575D02*
X0151700Y0061575D01*
X0151700Y0062173D02*
X0133000Y0062173D01*
X0133000Y0062772D02*
X0151931Y0062772D01*
X0152179Y0063370D02*
X0133000Y0063370D01*
X0133000Y0063969D02*
X0152464Y0063969D01*
X0153062Y0064568D02*
X0133000Y0064568D01*
X0133000Y0065166D02*
X0153661Y0065166D01*
X0155058Y0065765D02*
X0133000Y0065765D01*
X0133000Y0066363D02*
X0189600Y0066363D01*
X0189600Y0065765D02*
X0157542Y0065765D01*
X0158939Y0065166D02*
X0189600Y0065166D01*
X0189600Y0064568D02*
X0159538Y0064568D01*
X0160136Y0063969D02*
X0189600Y0063969D01*
X0189600Y0063370D02*
X0160421Y0063370D01*
X0160669Y0062772D02*
X0189600Y0062772D01*
X0189600Y0062173D02*
X0160900Y0062173D01*
X0160900Y0061575D02*
X0189600Y0061575D01*
X0189600Y0060976D02*
X0160900Y0060976D01*
X0160897Y0060378D02*
X0189600Y0060378D01*
X0189600Y0059779D02*
X0160649Y0059779D01*
X0160401Y0059181D02*
X0189600Y0059181D01*
X0189600Y0058582D02*
X0160088Y0058582D01*
X0159489Y0057984D02*
X0189600Y0057984D01*
X0189600Y0057385D02*
X0158870Y0057385D01*
X0157425Y0056787D02*
X0189600Y0056787D01*
X0193000Y0056787D02*
X0210000Y0056787D01*
X0210000Y0057385D02*
X0193000Y0057385D01*
X0193000Y0057984D02*
X0210000Y0057984D01*
X0210000Y0058582D02*
X0193000Y0058582D01*
X0193000Y0059181D02*
X0210000Y0059181D01*
X0210000Y0059779D02*
X0193000Y0059779D01*
X0193000Y0060378D02*
X0210000Y0060378D01*
X0210000Y0060976D02*
X0193000Y0060976D01*
X0193000Y0061575D02*
X0210000Y0061575D01*
X0210000Y0062173D02*
X0193000Y0062173D01*
X0193000Y0062772D02*
X0210000Y0062772D01*
X0210000Y0063370D02*
X0193000Y0063370D01*
X0193000Y0063969D02*
X0210000Y0063969D01*
X0210000Y0064568D02*
X0193000Y0064568D01*
X0193000Y0065166D02*
X0210000Y0065166D01*
X0210000Y0065765D02*
X0193000Y0065765D01*
X0193000Y0066363D02*
X0210000Y0066363D01*
X0210000Y0066962D02*
X0193000Y0066962D01*
X0193500Y0067560D02*
X0210000Y0067560D01*
X0210000Y0068159D02*
X0194098Y0068159D01*
X0194697Y0068757D02*
X0210000Y0068757D01*
X0210000Y0069356D02*
X0195295Y0069356D01*
X0195500Y0069954D02*
X0210000Y0069954D01*
X0210000Y0070553D02*
X0195500Y0070553D01*
X0195500Y0071151D02*
X0210000Y0071151D01*
X0210000Y0071750D02*
X0195500Y0071750D01*
X0195500Y0072348D02*
X0210000Y0072348D01*
X0210000Y0072947D02*
X0195500Y0072947D01*
X0194995Y0073545D02*
X0210000Y0073545D01*
X0210000Y0074144D02*
X0194396Y0074144D01*
X0193797Y0074742D02*
X0210000Y0074742D01*
X0210000Y0075341D02*
X0193199Y0075341D01*
X0193000Y0075939D02*
X0210000Y0075939D01*
X0210000Y0076538D02*
X0193000Y0076538D01*
X0193268Y0077136D02*
X0210000Y0077136D01*
X0210000Y0077735D02*
X0194240Y0077735D01*
X0194839Y0078333D02*
X0210000Y0078333D01*
X0210000Y0078932D02*
X0195298Y0078932D01*
X0195546Y0079530D02*
X0210000Y0079530D01*
X0210000Y0080129D02*
X0195794Y0080129D01*
X0195900Y0080727D02*
X0210000Y0080727D01*
X0209998Y0081326D02*
X0195900Y0081326D01*
X0195900Y0081924D02*
X0209951Y0081924D01*
X0209904Y0082523D02*
X0195772Y0082523D01*
X0195525Y0083121D02*
X0209743Y0083121D01*
X0209549Y0083720D02*
X0195277Y0083720D01*
X0194787Y0084318D02*
X0209354Y0084318D01*
X0209160Y0084917D02*
X0194188Y0084917D01*
X0193143Y0085515D02*
X0208859Y0085515D01*
X0208424Y0086114D02*
X0172665Y0086114D01*
X0172471Y0086177D02*
X0171694Y0086300D01*
X0171600Y0086300D01*
X0171600Y0081600D01*
X0176300Y0081600D01*
X0176300Y0081694D01*
X0176177Y0082471D01*
X0175934Y0083219D01*
X0175576Y0083921D01*
X0175114Y0084557D01*
X0174557Y0085114D01*
X0173921Y0085576D01*
X0173219Y0085934D01*
X0172471Y0086177D01*
X0171600Y0086114D02*
X0171000Y0086114D01*
X0171000Y0085515D02*
X0171600Y0085515D01*
X0171600Y0084917D02*
X0171000Y0084917D01*
X0171000Y0084318D02*
X0171600Y0084318D01*
X0171600Y0083720D02*
X0171000Y0083720D01*
X0171000Y0083121D02*
X0171600Y0083121D01*
X0171600Y0082523D02*
X0171000Y0082523D01*
X0171000Y0081924D02*
X0171600Y0081924D01*
X0171600Y0081326D02*
X0176700Y0081326D01*
X0176700Y0081924D02*
X0176263Y0081924D01*
X0176700Y0082215D02*
X0176700Y0080385D01*
X0177400Y0078694D01*
X0178694Y0077400D01*
X0180385Y0076700D01*
X0182215Y0076700D01*
X0183906Y0077400D01*
X0185200Y0078694D01*
X0185900Y0080385D01*
X0185900Y0082215D01*
X0185200Y0083906D01*
X0183906Y0085200D01*
X0182215Y0085900D01*
X0180385Y0085900D01*
X0178694Y0085200D01*
X0177400Y0083906D01*
X0176700Y0082215D01*
X0176828Y0082523D02*
X0176160Y0082523D01*
X0175966Y0083121D02*
X0177075Y0083121D01*
X0177323Y0083720D02*
X0175679Y0083720D01*
X0175287Y0084318D02*
X0177813Y0084318D01*
X0178412Y0084917D02*
X0174754Y0084917D01*
X0174005Y0085515D02*
X0179457Y0085515D01*
X0183143Y0085515D02*
X0189457Y0085515D01*
X0188412Y0084917D02*
X0184188Y0084917D01*
X0184787Y0084318D02*
X0187813Y0084318D01*
X0187323Y0083720D02*
X0185277Y0083720D01*
X0185525Y0083121D02*
X0187075Y0083121D01*
X0186828Y0082523D02*
X0185772Y0082523D01*
X0185900Y0081924D02*
X0186700Y0081924D01*
X0186700Y0081326D02*
X0185900Y0081326D01*
X0185900Y0080727D02*
X0186700Y0080727D01*
X0186806Y0080129D02*
X0185794Y0080129D01*
X0185546Y0079530D02*
X0187054Y0079530D01*
X0187302Y0078932D02*
X0185298Y0078932D01*
X0184839Y0078333D02*
X0187761Y0078333D01*
X0188360Y0077735D02*
X0184240Y0077735D01*
X0183268Y0077136D02*
X0189332Y0077136D01*
X0189600Y0076538D02*
X0172824Y0076538D01*
X0174076Y0077136D02*
X0179332Y0077136D01*
X0178360Y0077735D02*
X0174806Y0077735D01*
X0175325Y0078333D02*
X0177761Y0078333D01*
X0177302Y0078932D02*
X0175705Y0078932D01*
X0175982Y0079530D02*
X0177054Y0079530D01*
X0176806Y0080129D02*
X0176177Y0080129D01*
X0176272Y0080727D02*
X0176700Y0080727D01*
X0168524Y0077136D02*
X0163268Y0077136D01*
X0164240Y0077735D02*
X0167794Y0077735D01*
X0167275Y0078333D02*
X0164839Y0078333D01*
X0165298Y0078932D02*
X0166895Y0078932D01*
X0166618Y0079530D02*
X0165546Y0079530D01*
X0165794Y0080129D02*
X0166423Y0080129D01*
X0166328Y0080727D02*
X0165900Y0080727D01*
X0163205Y0075900D02*
X0161600Y0075900D01*
X0161600Y0071600D01*
X0165900Y0071600D01*
X0165900Y0073205D01*
X0163205Y0075900D01*
X0163765Y0075341D02*
X0189401Y0075341D01*
X0189600Y0075939D02*
X0012600Y0075939D01*
X0012600Y0075341D02*
X0099401Y0075341D01*
X0098803Y0074742D02*
X0012600Y0074742D01*
X0012600Y0076538D02*
X0029776Y0076538D01*
X0028524Y0077136D02*
X0012600Y0077136D01*
X0012600Y0077735D02*
X0027794Y0077735D01*
X0027275Y0078333D02*
X0012600Y0078333D01*
X0012600Y0078932D02*
X0026895Y0078932D01*
X0026618Y0079530D02*
X0012600Y0079530D01*
X0012600Y0080129D02*
X0026423Y0080129D01*
X0026328Y0080727D02*
X0012600Y0080727D01*
X0012602Y0081326D02*
X0031000Y0081326D01*
X0031000Y0081924D02*
X0031600Y0081924D01*
X0031600Y0082523D02*
X0031000Y0082523D01*
X0031000Y0083121D02*
X0031600Y0083121D01*
X0031600Y0083720D02*
X0031000Y0083720D01*
X0031000Y0084318D02*
X0031600Y0084318D01*
X0031600Y0084917D02*
X0031000Y0084917D01*
X0031000Y0085515D02*
X0031600Y0085515D01*
X0031600Y0086114D02*
X0031000Y0086114D01*
X0029935Y0086114D02*
X0014176Y0086114D01*
X0013741Y0085515D02*
X0028595Y0085515D01*
X0027846Y0084917D02*
X0013440Y0084917D01*
X0013246Y0084318D02*
X0027313Y0084318D01*
X0026921Y0083720D02*
X0013051Y0083720D01*
X0012857Y0083121D02*
X0026634Y0083121D01*
X0026440Y0082523D02*
X0012696Y0082523D01*
X0012649Y0081924D02*
X0026337Y0081924D01*
X0032665Y0086114D02*
X0169935Y0086114D01*
X0161000Y0075900D02*
X0159395Y0075900D01*
X0156700Y0073205D01*
X0156700Y0071600D01*
X0161000Y0071600D01*
X0161000Y0075900D01*
X0161000Y0075341D02*
X0161600Y0075341D01*
X0161600Y0074742D02*
X0161000Y0074742D01*
X0161000Y0074144D02*
X0161600Y0074144D01*
X0161600Y0073545D02*
X0161000Y0073545D01*
X0161000Y0072947D02*
X0161600Y0072947D01*
X0161600Y0072348D02*
X0161000Y0072348D01*
X0161000Y0071750D02*
X0161600Y0071750D01*
X0161600Y0071600D02*
X0161000Y0071600D01*
X0161000Y0071000D01*
X0161600Y0071000D01*
X0161600Y0071600D01*
X0161600Y0071151D02*
X0187100Y0071151D01*
X0187100Y0070553D02*
X0165900Y0070553D01*
X0165900Y0071000D02*
X0165900Y0069395D01*
X0163205Y0066700D01*
X0161600Y0066700D01*
X0161600Y0071000D01*
X0165900Y0071000D01*
X0165900Y0071750D02*
X0187100Y0071750D01*
X0187100Y0072348D02*
X0165900Y0072348D01*
X0165900Y0072947D02*
X0187100Y0072947D01*
X0187605Y0073545D02*
X0165560Y0073545D01*
X0164962Y0074144D02*
X0188204Y0074144D01*
X0188803Y0074742D02*
X0164363Y0074742D01*
X0161000Y0071151D02*
X0135500Y0071151D01*
X0135500Y0070553D02*
X0156700Y0070553D01*
X0156700Y0071000D02*
X0156700Y0069395D01*
X0159395Y0066700D01*
X0161000Y0066700D01*
X0161000Y0071000D01*
X0156700Y0071000D01*
X0156700Y0071750D02*
X0135500Y0071750D01*
X0135500Y0072348D02*
X0156700Y0072348D01*
X0156700Y0072947D02*
X0135500Y0072947D01*
X0134995Y0073545D02*
X0157040Y0073545D01*
X0157638Y0074144D02*
X0134396Y0074144D01*
X0133797Y0074742D02*
X0158237Y0074742D01*
X0158835Y0075341D02*
X0133199Y0075341D01*
X0135500Y0069954D02*
X0156700Y0069954D01*
X0156739Y0069356D02*
X0135295Y0069356D01*
X0134697Y0068757D02*
X0157338Y0068757D01*
X0157936Y0068159D02*
X0134098Y0068159D01*
X0133500Y0067560D02*
X0158535Y0067560D01*
X0159133Y0066962D02*
X0133000Y0066962D01*
X0129600Y0065765D02*
X0112542Y0065765D01*
X0113939Y0065166D02*
X0129600Y0065166D01*
X0129600Y0064568D02*
X0114538Y0064568D01*
X0115136Y0063969D02*
X0129600Y0063969D01*
X0129600Y0063370D02*
X0115421Y0063370D01*
X0115669Y0062772D02*
X0129600Y0062772D01*
X0129600Y0062173D02*
X0115900Y0062173D01*
X0115900Y0061575D02*
X0129600Y0061575D01*
X0129600Y0060976D02*
X0115900Y0060976D01*
X0115897Y0060378D02*
X0129600Y0060378D01*
X0129600Y0059779D02*
X0115649Y0059779D01*
X0115401Y0059181D02*
X0129600Y0059181D01*
X0129600Y0058582D02*
X0115088Y0058582D01*
X0114489Y0057984D02*
X0129600Y0057984D01*
X0129600Y0057385D02*
X0113870Y0057385D01*
X0112425Y0056787D02*
X0129600Y0056787D01*
X0099600Y0065765D02*
X0053000Y0065765D01*
X0053000Y0066363D02*
X0099600Y0066363D01*
X0099600Y0066962D02*
X0056431Y0066962D01*
X0057075Y0067560D02*
X0099100Y0067560D01*
X0098502Y0068159D02*
X0057634Y0068159D01*
X0057882Y0068757D02*
X0097903Y0068757D01*
X0097305Y0069356D02*
X0058130Y0069356D01*
X0058200Y0069954D02*
X0097100Y0069954D01*
X0097100Y0070553D02*
X0058200Y0070553D01*
X0058169Y0071151D02*
X0097100Y0071151D01*
X0097100Y0071750D02*
X0057921Y0071750D01*
X0057673Y0072348D02*
X0097100Y0072348D01*
X0097100Y0072947D02*
X0057169Y0072947D01*
X0056570Y0073545D02*
X0097605Y0073545D01*
X0098204Y0074144D02*
X0055212Y0074144D01*
X0058694Y0077400D02*
X0060385Y0076700D01*
X0062215Y0076700D01*
X0063906Y0077400D01*
X0065200Y0078694D01*
X0065900Y0080385D01*
X0065900Y0082215D01*
X0065200Y0083906D01*
X0063906Y0085200D01*
X0062215Y0085900D01*
X0060385Y0085900D01*
X0058694Y0085200D01*
X0057400Y0083906D01*
X0056700Y0082215D01*
X0056700Y0080385D01*
X0057400Y0078694D01*
X0058694Y0077400D01*
X0058360Y0077735D02*
X0054240Y0077735D01*
X0054839Y0078333D02*
X0057761Y0078333D01*
X0057302Y0078932D02*
X0055298Y0078932D01*
X0055546Y0079530D02*
X0057054Y0079530D01*
X0056806Y0080129D02*
X0055794Y0080129D01*
X0055900Y0080727D02*
X0056700Y0080727D01*
X0056700Y0081326D02*
X0055900Y0081326D01*
X0055900Y0081924D02*
X0056700Y0081924D01*
X0056828Y0082523D02*
X0055772Y0082523D01*
X0055525Y0083121D02*
X0057075Y0083121D01*
X0057323Y0083720D02*
X0055277Y0083720D01*
X0054787Y0084318D02*
X0057813Y0084318D01*
X0058412Y0084917D02*
X0054188Y0084917D01*
X0053143Y0085515D02*
X0059457Y0085515D01*
X0063143Y0085515D02*
X0069457Y0085515D01*
X0068694Y0085200D02*
X0067400Y0083906D01*
X0066700Y0082215D01*
X0066700Y0080385D01*
X0067400Y0078694D01*
X0068694Y0077400D01*
X0070385Y0076700D01*
X0072215Y0076700D01*
X0073906Y0077400D01*
X0075200Y0078694D01*
X0075900Y0080385D01*
X0075900Y0082215D01*
X0075200Y0083906D01*
X0073906Y0085200D01*
X0072215Y0085900D01*
X0070385Y0085900D01*
X0068694Y0085200D01*
X0068412Y0084917D02*
X0064188Y0084917D01*
X0064787Y0084318D02*
X0067813Y0084318D01*
X0067323Y0083720D02*
X0065277Y0083720D01*
X0065525Y0083121D02*
X0067075Y0083121D01*
X0066828Y0082523D02*
X0065772Y0082523D01*
X0065900Y0081924D02*
X0066700Y0081924D01*
X0066700Y0081326D02*
X0065900Y0081326D01*
X0065900Y0080727D02*
X0066700Y0080727D01*
X0066806Y0080129D02*
X0065794Y0080129D01*
X0065546Y0079530D02*
X0067054Y0079530D01*
X0067302Y0078932D02*
X0065298Y0078932D01*
X0064839Y0078333D02*
X0067761Y0078333D01*
X0068360Y0077735D02*
X0064240Y0077735D01*
X0063268Y0077136D02*
X0069332Y0077136D01*
X0073268Y0077136D02*
X0079332Y0077136D01*
X0078694Y0077400D02*
X0080385Y0076700D01*
X0082215Y0076700D01*
X0083906Y0077400D01*
X0085200Y0078694D01*
X0085900Y0080385D01*
X0085900Y0082215D01*
X0085200Y0083906D01*
X0083906Y0085200D01*
X0082215Y0085900D01*
X0080385Y0085900D01*
X0078694Y0085200D01*
X0077400Y0083906D01*
X0076700Y0082215D01*
X0076700Y0080385D01*
X0077400Y0078694D01*
X0078694Y0077400D01*
X0078360Y0077735D02*
X0074240Y0077735D01*
X0074839Y0078333D02*
X0077761Y0078333D01*
X0077302Y0078932D02*
X0075298Y0078932D01*
X0075546Y0079530D02*
X0077054Y0079530D01*
X0076806Y0080129D02*
X0075794Y0080129D01*
X0075900Y0080727D02*
X0076700Y0080727D01*
X0076700Y0081326D02*
X0075900Y0081326D01*
X0075900Y0081924D02*
X0076700Y0081924D01*
X0076828Y0082523D02*
X0075772Y0082523D01*
X0075525Y0083121D02*
X0077075Y0083121D01*
X0077323Y0083720D02*
X0075277Y0083720D01*
X0074787Y0084318D02*
X0077813Y0084318D01*
X0078412Y0084917D02*
X0074188Y0084917D01*
X0073143Y0085515D02*
X0079457Y0085515D01*
X0083143Y0085515D02*
X0089457Y0085515D01*
X0088694Y0085200D02*
X0090385Y0085900D01*
X0092215Y0085900D01*
X0093906Y0085200D01*
X0095200Y0083906D01*
X0095900Y0082215D01*
X0095900Y0080385D01*
X0095200Y0078694D01*
X0093906Y0077400D01*
X0092215Y0076700D01*
X0090385Y0076700D01*
X0088694Y0077400D01*
X0087400Y0078694D01*
X0086700Y0080385D01*
X0086700Y0082215D01*
X0087400Y0083906D01*
X0088694Y0085200D01*
X0088412Y0084917D02*
X0084188Y0084917D01*
X0084787Y0084318D02*
X0087813Y0084318D01*
X0087323Y0083720D02*
X0085277Y0083720D01*
X0085525Y0083121D02*
X0087075Y0083121D01*
X0086828Y0082523D02*
X0085772Y0082523D01*
X0085900Y0081924D02*
X0086700Y0081924D01*
X0086700Y0081326D02*
X0085900Y0081326D01*
X0085900Y0080727D02*
X0086700Y0080727D01*
X0086806Y0080129D02*
X0085794Y0080129D01*
X0085546Y0079530D02*
X0087054Y0079530D01*
X0087302Y0078932D02*
X0085298Y0078932D01*
X0084839Y0078333D02*
X0087761Y0078333D01*
X0088360Y0077735D02*
X0084240Y0077735D01*
X0083268Y0077136D02*
X0089332Y0077136D01*
X0093268Y0077136D02*
X0099332Y0077136D01*
X0098360Y0077735D02*
X0094240Y0077735D01*
X0094839Y0078333D02*
X0097761Y0078333D01*
X0097302Y0078932D02*
X0095298Y0078932D01*
X0095546Y0079530D02*
X0097054Y0079530D01*
X0096806Y0080129D02*
X0095794Y0080129D01*
X0095900Y0080727D02*
X0096700Y0080727D01*
X0096700Y0081326D02*
X0095900Y0081326D01*
X0095900Y0081924D02*
X0096700Y0081924D01*
X0096828Y0082523D02*
X0095772Y0082523D01*
X0095525Y0083121D02*
X0097075Y0083121D01*
X0097323Y0083720D02*
X0095277Y0083720D01*
X0094787Y0084318D02*
X0097813Y0084318D01*
X0098412Y0084917D02*
X0094188Y0084917D01*
X0093143Y0085515D02*
X0099457Y0085515D01*
X0059332Y0077136D02*
X0053268Y0077136D01*
X0039332Y0077136D02*
X0034076Y0077136D01*
X0034806Y0077735D02*
X0038360Y0077735D01*
X0037761Y0078333D02*
X0035325Y0078333D01*
X0035705Y0078932D02*
X0037302Y0078932D01*
X0037054Y0079530D02*
X0035982Y0079530D01*
X0036177Y0080129D02*
X0036806Y0080129D01*
X0036700Y0080727D02*
X0036272Y0080727D01*
X0017519Y0089106D02*
X0205081Y0089106D01*
X0205998Y0088508D02*
X0016602Y0088508D01*
X0015778Y0087909D02*
X0206822Y0087909D01*
X0207554Y0087311D02*
X0015046Y0087311D01*
X0014611Y0086712D02*
X0207989Y0086712D01*
X0203239Y0089705D02*
X0019361Y0089705D01*
X0053000Y0065166D02*
X0098661Y0065166D01*
X0098062Y0064568D02*
X0062608Y0064568D01*
X0063915Y0063969D02*
X0076967Y0063969D01*
X0075855Y0063370D02*
X0064513Y0063370D01*
X0065085Y0062772D02*
X0075257Y0062772D01*
X0074855Y0062173D02*
X0065333Y0062173D01*
X0065398Y0058582D02*
X0074790Y0058582D01*
X0075101Y0057984D02*
X0065150Y0057984D01*
X0064669Y0057385D02*
X0075699Y0057385D01*
X0076590Y0056787D02*
X0064071Y0056787D01*
X0062985Y0056188D02*
X0096795Y0056188D01*
X0096196Y0056787D02*
X0086010Y0056787D01*
X0086901Y0057385D02*
X0095598Y0057385D01*
X0094999Y0057984D02*
X0087499Y0057984D01*
X0087810Y0058582D02*
X0094500Y0058582D01*
X0096429Y0061575D02*
X0096700Y0061575D01*
X0096700Y0062173D02*
X0087745Y0062173D01*
X0087343Y0062772D02*
X0096931Y0062772D01*
X0097179Y0063370D02*
X0086745Y0063370D01*
X0085633Y0063969D02*
X0097464Y0063969D01*
X0059992Y0064568D02*
X0053000Y0064568D01*
X0053915Y0063969D02*
X0058685Y0063969D01*
X0058087Y0063370D02*
X0054513Y0063370D01*
X0055085Y0062772D02*
X0057515Y0062772D01*
X0057267Y0062173D02*
X0055333Y0062173D01*
X0055581Y0061575D02*
X0057019Y0061575D01*
X0056857Y0060976D02*
X0055743Y0060976D01*
X0055743Y0060378D02*
X0056857Y0060378D01*
X0056857Y0059779D02*
X0055743Y0059779D01*
X0055646Y0059181D02*
X0056954Y0059181D01*
X0057202Y0058582D02*
X0055398Y0058582D01*
X0055150Y0057984D02*
X0057450Y0057984D01*
X0057931Y0057385D02*
X0054669Y0057385D01*
X0054071Y0056787D02*
X0058529Y0056787D01*
X0059615Y0056188D02*
X0052985Y0056188D01*
X0026590Y0056787D02*
X0012600Y0056787D01*
X0012600Y0057385D02*
X0025699Y0057385D01*
X0025101Y0057984D02*
X0012600Y0057984D01*
X0012600Y0058582D02*
X0024790Y0058582D01*
X0024542Y0059181D02*
X0012600Y0059181D01*
X0012600Y0059779D02*
X0024400Y0059779D01*
X0024400Y0060378D02*
X0012600Y0060378D01*
X0012600Y0060976D02*
X0024400Y0060976D01*
X0024607Y0061575D02*
X0012600Y0061575D01*
X0012600Y0062173D02*
X0024855Y0062173D01*
X0025257Y0062772D02*
X0012600Y0062772D01*
X0012600Y0063370D02*
X0025855Y0063370D01*
X0012600Y0045415D02*
X0099214Y0045415D01*
X0050405Y0026861D02*
X0012600Y0026861D01*
X0035220Y0027460D02*
X0048960Y0027460D01*
X0048258Y0028058D02*
X0036574Y0028058D01*
X0037172Y0028657D02*
X0047659Y0028657D01*
X0047338Y0029255D02*
X0037674Y0029255D01*
X0037922Y0029854D02*
X0047090Y0029854D01*
X0046857Y0030452D02*
X0038170Y0030452D01*
X0038200Y0031051D02*
X0046857Y0031051D01*
X0046857Y0031649D02*
X0038200Y0031649D01*
X0038129Y0032248D02*
X0046883Y0032248D01*
X0047131Y0032846D02*
X0037881Y0032846D01*
X0037633Y0033445D02*
X0047379Y0033445D01*
X0047760Y0034043D02*
X0037072Y0034043D01*
X0036423Y0034642D02*
X0048358Y0034642D01*
X0161000Y0066962D02*
X0161600Y0066962D01*
X0161600Y0067560D02*
X0161000Y0067560D01*
X0161000Y0068159D02*
X0161600Y0068159D01*
X0161600Y0068757D02*
X0161000Y0068757D01*
X0161000Y0069356D02*
X0161600Y0069356D01*
X0161600Y0069954D02*
X0161000Y0069954D01*
X0161000Y0070553D02*
X0161600Y0070553D01*
X0165262Y0068757D02*
X0187903Y0068757D01*
X0187305Y0069356D02*
X0165861Y0069356D01*
X0165900Y0069954D02*
X0187100Y0069954D01*
X0188502Y0068159D02*
X0164664Y0068159D01*
X0164065Y0067560D02*
X0189100Y0067560D01*
X0189600Y0066962D02*
X0163467Y0066962D01*
X0193000Y0056188D02*
X0210000Y0056188D01*
X0210000Y0055590D02*
X0193000Y0055590D01*
X0193000Y0054991D02*
X0210000Y0054991D01*
X0210000Y0054393D02*
X0193000Y0054393D01*
X0193000Y0053794D02*
X0210000Y0053794D01*
X0210000Y0053196D02*
X0193000Y0053196D01*
X0193000Y0052597D02*
X0210000Y0052597D01*
X0210000Y0051999D02*
X0193000Y0051999D01*
X0193000Y0051400D02*
X0210000Y0051400D01*
X0210000Y0050802D02*
X0193000Y0050802D01*
X0192607Y0050203D02*
X0210000Y0050203D01*
X0210000Y0049605D02*
X0192009Y0049605D01*
X0191410Y0049006D02*
X0210000Y0049006D01*
X0210000Y0048408D02*
X0190812Y0048408D01*
X0190213Y0047809D02*
X0210000Y0047809D01*
X0210000Y0047211D02*
X0189615Y0047211D01*
X0189016Y0046612D02*
X0210000Y0046612D01*
X0210000Y0046014D02*
X0188418Y0046014D01*
X0187819Y0045415D02*
X0210000Y0045415D01*
X0210000Y0044817D02*
X0187221Y0044817D01*
X0186622Y0044218D02*
X0210000Y0044218D01*
X0210000Y0043620D02*
X0186024Y0043620D01*
X0185425Y0043021D02*
X0210000Y0043021D01*
X0210000Y0042423D02*
X0184827Y0042423D01*
X0184228Y0041824D02*
X0210000Y0041824D01*
X0210000Y0041226D02*
X0183630Y0041226D01*
X0183031Y0040627D02*
X0210000Y0040627D01*
X0210000Y0040029D02*
X0182433Y0040029D01*
X0181834Y0039430D02*
X0210000Y0039430D01*
X0210000Y0038832D02*
X0181236Y0038832D01*
X0180637Y0038233D02*
X0210000Y0038233D01*
X0210000Y0037634D02*
X0180039Y0037634D01*
X0179440Y0037036D02*
X0210000Y0037036D01*
X0210000Y0036437D02*
X0178842Y0036437D01*
X0193266Y0035839D02*
X0210000Y0035839D01*
X0210000Y0035240D02*
X0193865Y0035240D01*
X0194463Y0034642D02*
X0210000Y0034642D01*
X0210000Y0034043D02*
X0195062Y0034043D01*
X0195660Y0033445D02*
X0210000Y0033445D01*
X0210000Y0032846D02*
X0195900Y0032846D01*
X0195900Y0032248D02*
X0210000Y0032248D01*
X0169816Y0025664D02*
X0168068Y0025664D01*
M02*
